<?xml version="1.0" encoding="utf-8"?>
<!-- Generator: Adobe Illustrator 22.0.1, SVG Export Plug-In . SVG Version: 6.00 Build 0)  -->
<svg version="1.1" id="Layer_1" xmlns="http://www.w3.org/2000/svg" xmlns:xlink="http://www.w3.org/1999/xlink" x="0px" y="0px"
	 viewBox="0 0 1000 1391" style="enable-background:new 0 0 1000 1391;" xml:space="preserve">
<style type="text/css">
	.st0{fill:#7C7C7C;stroke:#FFFFFF;stroke-width:2;stroke-linecap:round;stroke-linejoin:round;}
</style>
<path id="BGD2432" class="st0" d="M243.5,1158.1l-2.6,4.1l-6.5-3.5l-11-13.1v-1l1.3-1.4l1.4-4.4l-0.1-4.5l-2.1-7.7l-0.6-3.6
	l-1.4-4.1l0.2-2.2l2.6-0.1l0.9,0.6l1.3,2.5l0.8,3.3l2.1,15.6l2.5,6.9l5,2.9l5,3.3L243.5,1158.1L243.5,1158.1z M286.8,646.8l3.1,9.3
	l0.4,1.9l-0.2,4.8L278.9,692l0.6,2.1l8.9,11.4l6.2-0.4l3.6-1.1l2.8-0.2l2.3,1.1l12.8,19.2l2.7,3.1l1.4,2.3l0.9,3l1.3,2.5l2.2,1.1
	l1.3,1.1l-2,2.3l-4.3,3.2l-0.1,3.4l1.4,3l3.5-5.1l6.3,0.7l6.6,3.6l4.3,4l1.9,4.8l4.1,19.4l-2.8-1.3l-1.6-2.1h-1.6l-0.2,7.5l3.2,8.9
	l5.4,6.4l6.5-0.2l-2.5,3.7l-4.3,4.2l-1.8,3.5l11.5,3.1l0.5,4.1l-0.7,4.8l3.2,4.2l2.7,0.3l3.7-2.9l2.5-0.6l3.1,1.2l1.2,2.2l-0.7,2.1
	l-2.7,0.9l-1.4,1l-3.3,4.8l-1.6,3.3l-2.2-0.8l-4.3-3.6l-0.2,2.6l0.4,2.2l1.6,3.2l1.8,1.6l3.7,0.7l1.7,1l2.1,3.2l5.3,11.3l3.4,4.1
	l7,6.4l2.8,3.9l1,2.2l1.2,4.3l0.9,1.6l1.2,1l4.6,2.3l4.4,5l1.6,1.5l8.9,4.7l3.2,3l4,7.1l-3,2.4l-2.2-0.1l-1.3,0.6l-1.5,2.8l0.1,1.4
	l1.4,1.4l-0.4,1.8l-3.2,1.7l-0.8,1.7v1.7l0.9,2.1l1.9,1.1l1,1.1l-1.1,2l-6.6,4.4l-1.9,2.3v1.2l1.4,0.7l5.4,0.6l1.9,0.6l1.1,1.7
	l-0.2,3.3l-1.5,0.6l-2.1-0.8l-2.4,1l0.1,1l2.3,2.1l1.5,2l2.4,7.1l3.5,2.6l1.3,1.2l1.7,5.1l0.1,2.9l-0.5,3.5l-1.9,4.2l-0.8,3.7l0.9,2
	l3.4,1.8l1.1,1.7l1.8,5.4l-6.9,7.1l-3,3.8l-1.2,3.7l-1.7,3.7l-3.7-1.1l-6.5-5.2l0.4,4.9l1.2,4l0.8,4l-0.8,5l-9,17.4l2.6,4.9l2.3,8.3
	l2.5,15.7l0.3,8.1l-0.7,4l-1.8,3l-3.6,2l-3.1-0.4l-3.4-0.9h-4.1v1.7l4.6,2l3.8,2.5l2.6,3.6l0.9,5.5l-0.2,2.2l-1.1,4.2v2.5l0.9,2.1
	l2.9,4.6l1.8,4.5l2.1,2.6l1.2,3l-1.5,3.7l-1.6,0.6l-4.8,0.9l-5.5,5l-2.4,3.6l-2,1.2l-4,1.5l-2.3,0.4l-1-1.2l-1.1-3.3l-2.7,0.7
	l-3.3,2.2l-2.7,1.2l-3.6-0.2l-4-0.9l-3.7-1.5l-2.6-2.1l-1.8-4.3l-0.1-2.6l2.3-4l-0.4-2.3l-3.1-4.4l-6.1,12.8l2.5,4.3l4.2,5.8
	l4.8,5.2l4.3,2.2l1.9,2.3l-2.3,4.6l-4.7,3.3l-5.3-1.4l-2.7-1.7h-2.4l-5.3,1l-0.6,1.3l2.4,6.2l0.4,2l-4.1,4.2l-4.6-2.9l-6.1-9.4
	l0.3-4.1l-2.4-9.6l0.6-5.3l1.7-3l4-4.7l1.7-3.6l0.7-3.9l-0.9-16.8l1.6-13.6l1.2-4.7l5.2-9.3l1.1-5.1l-0.7-4.9l-1.9-4.9l-2.7-4.4
	l-2.9-3.4l-0.1-3.3l6.6-8.7l1.7-3.9l0.3-5l0.7-4.8l1.4-4.6l2.1-4.1l-2.4,1.8l-2,3l-3,6.4l-2.5,2.5l-0.8,2.1l2,5.4l-1.3,2l-4.2,3.2
	l-2.5,4.1l0.2,3.1l4.5,8l1.7,5.1l0.1,5.3l-0.5,2.8l-2.2,4.5l-0.5,2.3l-1.8,14.8l-1,3.4l-4.1,2.2l-1.7-3.6l-0.3-10.4l0.6-2.4l2.2-4.9
	l0.2-3l-9.8-23.2l-0.5-4.8l1-10.4l-0.3-4.7l-2.1-5H315l-1.8,15.4l1.8,29.5h1.6l0.2-3.3l1-3l1.8-1l1,4.8l1.1,2.9l1.3,2l1.2,2.6
	l-0.2,3.4l-1.8,5.9l-1.1,1.1l-2.6,0.5l-0.3,2.4l1.4,2.4l0.8,2.6l2.6,5.7l1.6,2.1l0.4,1.6l-2,12.4l-2.3,2.7l-2.8,2.1l-2.9,2.7
	l-2.4,4.1l-0.2,3.3l0.7,3.8l0.6,5.7l-0.8,5.3l-2.1,4.4l-2.9,3.7l-7.9,6.8l-2.4,0.2l-5.5-6.2l-1.2-3.5l-0.3-6l0.7-10.5l1.1-4.2
	l2.9-7.1l0.5-5.5l-0.9-4.7l-4-7.8l-1-4h-1.6l-1.3,3.5l0.6,3l1.4,2.9l0.9,3.3v3.7l-0.8,2.1l-3.6,3.7l-2.2,2.8l-1.4,2.4l-3.5,8.6
	l-1.1,1.9l-1.1,0.1l-1.2-3.1h-1.4l0.1,5.9l2.2,9.1l-0.9,5.7l-3.6,8l0.6,2.6l4.5,2.2l-2.5,2.9l-3.7,2.7l-4.3,1.9l-4.2,0.5l-4.1-2.4
	l-1.3-4.3l0.8-4.2l2.3-1.8l0.4-2.6l-6.7-19l-0.4-4.7l-0.9-1l-2,1.3l-2.1,2.3l-0.9,2.1l-1.3,1l-2.8-0.8l-4.8-2.5l-2.2-1.9l-0.9-1.5
	l-5.4-19l-0.4-3.9l0.5-4.8l2.3-9.8l0.1-5.4l-1.5-4.9l-4.8-6.6l-1-3.7l1.3-10.7l-0.7-4.3l3.8-5l-0.4-5.6l-1.2-4.6l-1.8-3.9l-9.4-12.4
	l-2.1-4.9l3.1-2.2l-3.5-6.2l-1.2-2.8l-2.6-12.5v-2.2l0.6-2.4l1.8-3.1l0.4-1.9l-0.9-5.4l-4-9.3l-1.9-8.6l-2.6-2.1l-6.7-2.6l4.8-3.3
	l1.3-5.4l-0.9-6.3l-2.1-6l-2.7-4.9l-0.8-5.2l-0.8-3l-2.6-6.8l-0.5-4.2l1.5-3.2l2.4-3l2.3-3.6l1-3.1l0.8-4.6l0.4-4.5l-0.5-3.2
	l-2.5-2.3l-6-2l-2.5-3.1l-4.6-11l-2.3-3.7l-4.1-5.2l-0.9-2.6l0.2-4.6l2-6.7l0.5-12.1l3-5.9l11.7-12.5l5.8-4.9l1.9-2.2l1.1-2.5V816
	l-1.2-1.1l-5.9,0.2l-3.8-1.4l-15.1-5.3l-3.6-0.7l-2.9,0.4l-3.3,2.6l-1.7,0.9l-2.3-0.1l-14.2-4.6l-2.9-2.6l-2.1-4.5l-0.2-5.1l2-4.6
	l5.2-8.4l10.5-28l0.5-5l-2.9-2.4l-2.8,2.2l-2.5,4l-2.7,1l-3.2-6.3l-2.4-1.1l-6.3-4.4l-3.6-3.9l-5.1-9.2l-3.2-3.5l-1.7-0.4l-4.3,0.5
	l-2.2-0.9l-2.1-2.3l-0.1-1.6l0.7-1.8l0.4-2.9l-1.1-0.9l-2.2-0.5l-2-1l-0.4-2.6l4.6-21.5l-0.3-2.2l-1.6-3.6l0.1-2.2l1-2.5l3.2-5.1
	l1.1-2.7v-2.1l-0.7-4.3l0.7-2.3l3.5-2.7l4.2-0.2l4.5,0.4l4.1-0.9l2.9-2.3l8.2-8.1l2.1-2.7l0.7-4.2l-0.6-5.1l-1.3-4.5l-1.5-2.8
	l2.7-4.6l2.5-3.3l-0.1-2.3l-5.2-1.2l-0.7-3l-4.1-3.5l-1-2.7l0.3-2.2l1.3-4.9l0.3-2.8l-1-4.8l-0.1-2.3l1.3-2.9l2.1-2.1l4.8-1.8
	l3.4-1.6l1,3.6l3.4,5.2l1.4,1.2l5.2,2.8l3.2,2.3l1.7,0.9l4.2,0.7l4-0.9l13.9-6.6l2.9-2l2.2-2.9l4.3,0.3l3.9,2l1.7,1.4l5,6.7l7.9,7.6
	l1.9,5.9l4.4,5.6l0.9,2.1v2.5l-1,5.2l0.6,2.1l2.1,2.5l8.3,7.2l4.6,3l4.7,2.2l5.9,1.1l17.9-1.9l5.8,0.5l5.4,1.2L286.8,646.8
	L286.8,646.8z"/>
<path id="BGD2475" class="st0" d="M555.8,1112.5l-2.1,5.3l-1.8-1.2h-1.5l-1.8,4.7l-3.6,5l-4.2,3.4l-3.8-0.3v-1.7l4.3-1.3l1.7-0.3
	l-2.9-3.8l-1.6-1.1l1.4-1.5l-0.4-4l0.6-2.4l1.8-2.8l14.5-10v4.8l1.6,2.7l1.2,3.7L555.8,1112.5L555.8,1112.5z M500,1132.5l-2,1.3
	l-1-0.6v-10.8l0.9-5.6l2.1-5.1l4.7-8.9l3.7-4.2l5-1.2l-0.8,5.1l-5.4,9.2l-5.2,18.2L500,1132.5L500,1132.5z M502.9,1103.9h-1.3l1.3-5
	l2.8-6.8l3.3-5.3l2.9-0.6l-1.4,5.8l-6.1,7L502.9,1103.9L502.9,1103.9z M521.5,1118.9l-3.5,1.7l-2.9-1.5l-1.7-3.4v-4l1.2-3.3l1.4-2.5
	l1.2-2.9l0.5-4.9l-0.5-7.4l0.8-2.2l2.8-2.3l9.7,10.4l2.7,6.2l-2.1,7.4l-4.6,2.8L521.5,1118.9L521.5,1118.9z M560.7,1059.2l-4.3,14.3
	l-0.4-3.8l-1.2-2.7l-2.5,8l-1.3,8.9l-1.9,8l-4.6,5.5l-4.1,1.2l-2.2-1.1l-1-2.5l-0.2-3.2l1.1-2.1l7.7-6.7l-1.3-1.6l-9.3,5.5l-1.2,2.4
	h-1.3l0.4-5.5l1.3-5.1l2.5-3.7l3.8-1.5l2.7-1.7l5.8-6.5l2.7,0.1l1.8-2.7l2.6-2.5l2.5-1.4L560.7,1059.2L560.7,1059.2z M634.3,1048.9
	l0.5,2.1v12.6l-1.6,5.5l-4.3,1.1l-2.2-3.6l0.3-6.5l1.5-7l1.8-5.2l1.3,1.7l1.2-1.5L634.3,1048.9z M641.6,1051.9l-2.5,2.2l0.1-12.5
	l1.3-4.6l3,1.3l0.2,4.3l-0.6,5L641.6,1051.9L641.6,1051.9z M642.1,1031.8l-8.1,12.7l-3.4-1.4l0.7-3.2l2.2-4l1.3-3.2l0.8-10.6
	l1.3-5.7l2.2-3.8l1.6,1.8l1.2,3.5l0.9,4.3l0.2,4.8L642.1,1031.8L642.1,1031.8z M565,996.7l3.1,5.7l2.4,6.5l0.5,5.5l-2.4-4.8
	l-0.5-1.7l-1.6,4.1l1.4,9.3l-1.4,4.1l-1.1-2.1l-0.4-7.5h1.5l-1.4-4.2l-1.6-9.1l-1.4-4.2l-1.3-0.9l-2.7-0.1l-0.5-3.1l0.5-1.4l1.4-0.5
	l2.6,1.2L565,996.7z M569.4,996.8l-1.3,1.5l1.3-13.7l1.6,0.8l0.9,2.5l0.4,2.5l0.1,4.6L569.4,996.8L569.4,996.8z M607,1061.9
	l-11.4,17.8l-3.8,3.3l-1.6-3.3l-4.9,5.2l-2.1,1.2l-5.6,9.7l-7.3,3.3l-2.2-0.3l-1.8-5.1l2.6-6.7l4-7.1l2.6-6.4l-12.1,17.6l-3.4,0.7
	l-1.4-4.6l0.9-6.6l2.4-6.8l3.1-5.1l-2.4-5.1l2.1-8.6l9-19.7l1.1-3.8l0.7-4.5v-13.7l1.3-4l-1.7-6.9l-0.5-4.6l0.9-2.8v-1.5l-2.4-4.3
	l-2.6-14.2l-2.4-5.6l-3.5-3.1l-12.2-8.7l-3.5-1l-1-8.6l0.5-8.2l4.8-19.2l1.5-2.6l2.3-1.7l3.7-1.5l3.8-0.9l4.2-0.5l2.2,7l2.4,8.3
	l2.7,6.5l3.7,7.6l3.1,5.6l3.4,4.1l3.4,5.5l1.6,11.4l2.7,7.2l5.1,5.2l9.5,8.7l4.4,5.5l-4.3,22.2l0.2,37.7L607,1061.9z M559.2,892.4
	l4.4,4.7l4,1.8l4,4.8l3.1,4.8l-3.4,0.7l-7.4-1.5l-8-0.5l-6.3,5.9l-3.3,1.2l-3.3,3.4l-0.4,5.8l1.1,3.7l-3,4l-2.1-2.6l-2.8-2.6
	l-0.3-2.2l-0.8-2.4l-2.2-1.5l-5.8-1.8l1.8-2.7l0.3-2.1l-0.7-6.5l0.2-4.3l0.6-4.1l1.6-3.2l2.9-1.2l7.4,1.3l3.5-0.5l1.5-3.2l1.8-0.3
	h8.5L559.2,892.4L559.2,892.4z M567.6,869.5l4.8,3.7v1.4l-5.6,0.2l0.7,1.5l2.1,2l1.7,2.2l1.1,2.3l-6.8-0.8l-1.9-0.8l-1.6-1.8
	l-2.6-4.7l-1.9-1.5l-2.2-0.7l-1.6,1.3l-1.9,0.8l-2.4,0.3l-5.8,0.1l-2.3-0.4l-3.4-5.3l4.3-7.5l7.2-5.9l5.3-0.5l4.6,3.9L567.6,869.5
	L567.6,869.5z M531.4,860.7l-1.8,1.1l-1.8-9.6l-1.1-3.4h8.3l3.5-1.4l1.4,2.3l-0.3,1.7l-3.3,3.3L531.4,860.7L531.4,860.7z M525.4,852
	l1,5.1l3,7.4l4,7l4.3,5.7l0.5,1.2l-0.3,2.7l0.6,1.7l2.3,0.6l3.2,2.8l0.9,1.7l-1.1,2.2l-3.3,1.6l-3.2-0.4l-3.1-0.8l-3.1,0.3L527,896
	l-2,7.8l-2.6,6.5l-6.1,1.4l3.5,3.1l-0.9,3.1l-2.9,1.2l-2.6-2.7l-4.7,3.1l3.2,2.4l6.1,2.1l4.2,2.1l2-4.3l3.7,0.7l3.8,3.2l2.3,3.5
	l0.7,2.4l0.8,7.3l2.6,7.6l0.9,8.1l-0.6,1.7l-2.1,2.8l-1.9,1.1l-5,0.7l-2,1.3l-1.2,3.5l-2.5,13l0.6,1l2.8-2.4l1-1.5l0.2-2.4l-0.6-4.7
	l0.4-2.5l2.2-3.2l3.2-1.9l3.8-0.6l4.1,0.8l7.7,4.8l3.9,6.7l2.6,7.8l3.6,8.1l-4.4-1.7l0.1,5.3l1.5,4.2l4.3,8.3l1.1,4.7l0.2,4.9
	l-1.3,9.6l-6.9,17.9l-5.1,8.1l-4.2,1l-5.8,3.2l-2.2,2l-1,2.1l-0.5,3.2l-1.3,3.6l-6.2,10.9l-2.1,2.6l-2.4,1.1l-2.9-0.7l-3.7-1.6
	l-3.1-2.1l-1.4-1.8l1.3-5.8l5.2-11.1l0.9-5.6l-2.5-6.6l-0.5-3.1l1.4-7.3l-0.7-2.9l-3.6-0.9l0.9,4.8l-2.1,10.4l0.4,3.3l1.8,1.6
	l2.5,1.5l0.8,2.3l-0.3,1.8l-1,1.6l-2.8,3.3l-0.6,3.3l-1.9-0.7l-0.8,0.5l-0.6,2.4l-0.7,7.2l-1.8,5l-3.9,6l-3.3,4l-1,4.1l-4.1,8.5
	l-0.9,4.3l-1,8.9l-2,8.7l-1.7,4.5l-2.2,3.1l-11.9,10.2l-3,2.1l-4.1,0.8l-4.4-0.7l-8.1-3.4l-3.8-0.8l-3.5-1.9l-0.9-3.8l1.4-3l3.7,0.8
	l-1.6-3.3l1.3-2.3l2.1-2.1l1.2-2.8l-1-3.3l-1.2-0.9l-3.8,9.5l-2.1,2l-2,0.7l-2.7,3.1l-2,1l-1.8-0.4l-2.8-2.4l-2.6-0.3l1.5-6.2
	l0.6-12.6l2.3-5.3l2-1.7l5-3.4l1.9-2.8l1-3.6l1.2-5.7l2-3.3l8.9-8.1l3.8-5.7l1.9-0.9l4.8,1.8l4.5-3.2l3.4-5.2l1.6-6.3l-0.7-6.2
	l-3.8,10.1l-2.7,5.3l-3.1,2.3l-5.8,0.8l-3.5,2.1l-12.9,13.9l-1.5,2.4l-1.7,5l-2.8,4.3l-0.7,1.7l-1.1,1.1l-3.1,0.5l-2.2-0.3l-6.9-2.8
	l1.3-3.3l0.2-3.5l1.7-2.8l2-1.8l1.9-0.9l1.4-1.6l0.6-3.6l-0.8-7l1-2.6l0.8-3.5l2-2.3l2.4-1.1l2-1.4l1.3-2.8l-5.6,2l-2.7,4l-3.4,11.5
	l-1.9,2.6l-5.8,5.7l-1.3,2l0.5,10.5l-0.5,3l-3.2,2.8l-3.9-1.4l-3.3-4l-1.4-4.5l-0.4-2.3l-1.9-5.3l-0.6-2.8l-0.5-17.2l-2-9.6
	l-0.5-5.9l-0.5-2.2l-2.8-4.5l-1.1-2.3l-0.8-3l-0.3-2.5l1.1-5.6l4.3-10.7l17.8-26l1.2-2.9l0.8-2.8l1.3-2.6l-3.3,1.8l-0.7,0.7
	l-1.8-5.4l-1.1-1.7l-3.4-1.8l-0.9-2l0.8-3.7l1.9-4.2l0.5-3.5l-0.1-2.9l-1.7-5.1l-1.3-1.2l-3.5-2.6l-2.4-7.1l-1.5-2l-2.3-2.1l-0.1-1
	l2.4-1l2.1,0.8l1.5-0.6l0.2-3.3l-1.1-1.7l-1.9-0.6l-5.4-0.6l-1.4-0.7v-1.2l1.9-2.3l6.6-4.4l1.1-2l-1-1.1l-1.9-1.1l-0.9-2.1v-1.7
	l0.8-1.7l3.2-1.7l0.4-1.8l-1.4-1.4l-0.1-1.4l1.5-2.8l1.3-0.6l2.2,0.1l3-2.4l-4-7.1l-3.2-3l7.7-1.3l3.7-0.8l3-1.6l5.1-5.3l5.4-7.5
	l3-6.5l1.2-1.5l4.2-4l1.8-2.8l3.6-3.7l4.1-2.2l1.6-4.4l2-3.6l10.6-2l2.4,0.4l1.8,0.8l1.3,1.8l0.7,1.9l0.5,5.9l1.2,3.9l4.2,5.1
	l3.1,2.2l2.5,1l3.2-0.4l2.1-1.5l2.4-3.9l1.6-1.5l1.9-3.8l-0.1-4.1l-1.8-1.2l-3.3,0.5l-2.1-0.4l1.9-3.8l2.4-1.6l3.2-1.3l7,1.6
	l4.9,3.8l2.9,2.8l5.7,2.7l3.7-2.2L525.4,852L525.4,852z"/>
<path id="BGD2476" class="st0" d="M846.9,1163.8l7.8,15.3l2,9.2l-0.5,4.9l-2,9.8l-0.5,5.2l-1.9,4.1l-4.8,0.2l-5.4-1l-4.2,0.6v1.3
	l1,1.7l0.1,1.8l-2.6,1.4l-2.3-0.2l-1.9-1.3l-1.2-1.9l-0.9-4.1l-0.7-1.6l0.1-1.7l3.3-4.9l0.6-2.4l0.1-5.5l-1.1-9.4l-4.6-15.5l1.2-8.6
	l2.1-4.6l2-2.1l2.4,0.2l3.1,2.5l1.1,3l-1,3.6l-1.6,3.7l-0.7,3.2l3.4-4.1l1.3-5.6l-0.2-5.9l-1.6-5.2l3.9-0.5l3.5-1v4.9L846.9,1163.8
	L846.9,1163.8z M825.8,1159l-1.8,2.2l-1.8-3.9l3.4-19.3l-1.6-11.9l0.8-4l1.6-3l5.1-5.8l1.2,1.4l0.3,1.9l2.6,8.7l0.3,3.3l-0.7,3.7
	l-3,5.9l-1.7,8.1L825.8,1159L825.8,1159z M662,1073.8l-4.1,2.7l-5.4-0.3l-3.4-0.9l-2.5-1.7l-1.3-3.4l6.2-7.5l4-6.2l1.5-3.9l1.9-11.3
	l0.2-16.4l1.3-18.2l3.7-0.6l7.5,3.9l4.7,4.1l1.7,5.8l3.2,3l2.2,8.4l0.1,5.4l1,7.6l-3.5,7.1l-2.1,3.6l-4.2,8.3l-4.4,3.7l-3.1,2.1
	l-2.8,0.6L662,1073.8L662,1073.8z M678.7,992.2l-5.5,0.3l-4.4-2.8l2.1-6.5l7.6-3.3l8.9-2.6l2.3,4.5l-2.1,5.4l-4.5,3L678.7,992.2
	L678.7,992.2z M764.1,1003.6l-10.3,1.2l-6.8-3.8l-6.4-9.4l-3.6-9.3l-1.3-7.5l5-11.9l4.5-2.4l19.2,25.3l1.5,10L764.1,1003.6
	L764.1,1003.6z M710.8,629.8l-3.6-0.6l-3.8,1.6l-2.9,2.6l-2.2,3.1l-7.4,13.2L690,653l0.1,3.2l2.5,5.5l0.9,3l-0.7,4.4l-4.3,12.9
	l-2.2,3.9l-4,2l-4.1,0.4l-3.4,1.2l-2,4.5l0.9,5.1l3.4,1.9l3.6,1.3l1.3,3.6l-1.9,3.8l-3-0.2l-2.7,0.3l-0.8,5.7l1,4.1l6.3,11.8
	l1.6,4.2l1.8,7.7l2,3.9l1.8,1.7l3.8,2.3l1.4,2.2l0.5,1.8l1,5.8l2.9,10l2.2,4.8l2.8,2.1l2.8,0.7l0.7,1.4l-0.9,1.9l-2.2,2.1l-1.5,2.2
	l0.4,1.8l2.1,4.3l5,37.9l2.8,9.7l5.2,7l7.2,1.9l0.8-7.7l-4-19.7l-0.1-10.5l1.2-5.5l2.4-3.3l4.8-0.2l4.1,3.3l3.2,4.5l1.7,3.2l0.8-1.8
	l1.4,1.9v4.1l3.2,3.2h0.5l1.5,7.3l1,2.4l5,17.2l1.1,6l0.6,0.7l2,0.6l0.6,0.8l0.3,7l0.9,2.4l2.8,3.1l2.8,1.1l2.9,0.6l3,1.4l1.3,2.6
	v2.3l0.7,0.8l3.5-2l1.3-1.7l1.8-4.2l1.9-0.8l4.6,1.2l4.5-1.4l5.8-1.3l2.7-1.7l1.6-1.8l3.6-3.4l1.5-1.7l3.7-5.5l0.2-3.2l1-0.9
	l3.3,0.1l3.3-3.6l0.9-2.1l-0.8-2.8l-2.8-7.2l-3.2-16.1L806,809l-1.2-9.4l4.1-11.6l6.3-11l5.6-7.6l3.5-3.1l11.9-5.2l3.5-2.5l2.8-3.1
	l4.9-8.3l0.3-9.3l-5.7-27.3l-0.3-9l0.4-5.1l1.4-3l3-0.2l2.7,3.3l2.7,4.4l9,10.3l3.4,1.7l5-1.3l3.7-3.3l7.1-9.8l3.5-4l9.1-3.2
	l4.3,6.6l2.2,9l2.9,4.1l3.3-3.2l2.7-10.9l3.6-2.1l4.5,2.4l0.5,5.1l-2.5,10l0.6,7.9l8.2,26.8l1.3,11.5l1,3.5l1.1,1.9l2.8,2.7l1.2,2
	l0.4,1.8l-0.4,3.3l0.3,1.6l1.1,1.5l2.8,2.3l0.9,1.2l0.2,2.1l-0.6,4.6v2.4l1.1,3.9l1,2.3l0.2,2.4l-1.5,4.2l-3.9,8.1l-0.9,3.6
	l-0.2,9.3l5.5,33.3l-0.2,16.3l1.7,7.9l4,6.1l7.2,3l3.1,3.9l1.9,18.3l1.5,7.1l2.6,3.5l5.8,5.1l2.3,3.5l1,3.6l1.5,18.1l-0.5,13.5
	l0.8,4l2.8,7.3l0.3,4l12.6,76.3l-0.3,5.9l-2.5,1.2l-3.2-0.1l-2.6,2.3l4.9,15.7l2.8,15.4l0.6,4.1l3.1,14.1l0.6,7l-3.7,35.6l3.1,55.4
	l0.6,5.9l2.3,11.6l7.7,23.6l0.8,4.7l-2,3.7l-4.2,4.4l-5,3.4l-4.4,0.3l-2.6-2.9l-1.5-4.8l-1.7-9.3l-4.2-9.4l-5.5-1.2l-7.2,1.5
	l-9.2-0.9l-4.9-1.7l-2.3-1.2l-1.8-2l-1.5-4l-0.5-3.9l-0.9-3.8l-2.8-3.8l-7-2.4l-8.2,10l-6.8-0.1l-3.6,0.5l-2.4,4.6l-2.9,9.9
	l-6.1,8.7l-1.1,4.1l-0.1,4.5l1.6,9.2l-0.3,4.5l-1.9,10.5l1.2,4.1l1.6,3.2l5.1,4.8l2.7,7l8.8,7.5l-1.4,8.9l-0.3,9.6l0.9,9.4l2.3,8.5
	l6.2,9.5l1,2.4l0.5,4.4l4,12.1l1.5,3l0.7,2.4l-0.5,2.5l-1.8,1.8l-1.4-0.8l-1.1-1.6l-2.8-3l-5-12l-14.7-27l-3.7-15l-1.4-2.4
	l-11.3-9.6l-2.1-3l-3.5-6.8l-2.4-3.7l-9.6-11.3l-1.5-3.8l-0.3-4.9l1.8-14.9l-0.4-5.6l-1.2-4.4l-11.9-22l-2.1-2.2l-2.3-1.3l-2.1-3.4
	l-1.5-4.1l-0.7-3.8h1.3l1.7,1.4l1.6-4.1l2.6-4.4l3.5-2.5l4,1.5l-2.7-2.6l-2.1-4.2l-1.2-4.9v-4.3l1.9-2.6l3-2.8l2-3.3l-0.9-3.9
	l3.3-3.9l0.6-1.7l-0.9-2.3l1.3-2.2l-0.4-2l-1.6-1.5l-1.2-0.5l1.4-4.5l-0.8-0.5l-2.9,8l-2.5,3.3l-3.6-0.1l-1.7-2.7l0.6-3.7l1.2-3.7
	l-0.1-2.7h-1.5l-1.1,4l-2-0.3l-2-2.8l-0.8-3.4l0.7-5.2l1.9-1.3l2.8-0.6l3.3-3.1l-1.3-1.6l-3.6,2.6l-1.5-1.9l1.3-3.5l5.1-2.1v-1.6
	l-10,0.8l-7.6,2.4l-2-2l0.4-5.5l2.2-5l3.9-2l-1.7-2.4l0.9-2.2l2.3-1.8l2.9-1.4v-1.7l-2.3,0.2l-2,1.1l-1.7,1.6l-1.3,2.1l-1.2-2.9
	l-1-4.8l-1-9.2l-0.6-2.3l-3.1-3.5l-0.7-2.1v-8.8l-5.5-23.8l-0.4-8.1l2.3,1l-0.4-2.6l-1.9,0.4l-1.6,3v4.5h-1.3l-2.3-4l-2.2-5.1
	l-1.3-5.7l-0.2-5.8l1-3.6l3.9-4l1.1-2.1l-0.3-3.8l-1.9-2l-2.3-1l-1.5-1.3l-0.7-5.8l3.8-2.8l5.6-1.7l4.7-2.5l2.3-4.1l5-16.6h-4.4
	l-0.5,3.5l-2.1,9l0.4,1.8l-1.5,1.3l-2.5,2.7l-3.2,2.7l-3.8,1.3l-0.7,1.2l-5.3,2.9l-1.6,2.3l0.6,3.7l2.3,1.8l2.7,1l2,1.5l-0.1,4.5
	l-3.7,2.8l-4.7-0.4l-3.3-5.2l-3.8-26.7l-2.3-8.5l-14.6-28.9l-27.6-38.8l-6.9-2.8l-3.8-3.5l-3-4.2l-1.7-3.7l-1.7,0.9l-1.4-1.1l-1-2.4
	l-0.4-3l0.5-2.8l2-2.9l1.4-6.8l3.4-9.9l0.1-5.6h-1.6l-0.7,4.4l-3.7,12.2l-2.2,2.6l-4.7,1.5l-3,3.8l-1.1,5.2l0.7,5.6l-3.3-2.5
	l-3.2-1.5l-3.6-0.7l-4.7-0.2v1.7l4.6,1.4l0.5,2.2l-2.1,2l-3.8,1l-11.2,0.2l3.9,1.3l3.5,1.6l1.7,1.4l-0.6,3.4l-2.8,2l-3.6,0.9h-3.7
	l-6.6-1.4l-1.7,0.2l-0.3-0.9v-4.2l-2.7-1l-3.2-0.4l-7.4-0.1v1.5l2.7,2.4l1,2.6l-1.5,1.7l-5-0.2v1.7l12.5,3.3l5.7,2.4l2.4,4.7l-0.7,3
	l-1.7,3.3l-2.5,9l-4.4,4.2l-4,3.3l-5.7,1.6l-10.6,2.2l-8.2-4.1l-4.3-6.3l-2.3-10l-2.2-2.8l-2.3-4.1l-2.4-7.2l-1.8-2l-3.2,1l3.2,3.3
	l3,6.5l1.7,6.8l-0.5,4.5l-4.4,2.2l-7,1.1l-6.5-0.3l-2.9-2.4l-1.3-3.2l-5.9-4.3L623,951l-0.7-2.1l-3.1-4.3l-1.7-6.7l-2.4-1l-6.3,0.5
	l-1-1.3l-2.6-8.4l-1.7-1.4l-3.6-2.1l-1.4-4.2l-3.1-4.4l-0.7-1.6l-0.3-2.4l-2.6-6.4l-1.6-8l-1.7-4.1l-2-3.5l-1.6-3.9l-0.6-5.3
	l-1.1-2.9l-16.7-22.8l-2.3-6.2l-0.5-2.7v-2.6l2.5-14.3l0.3-9.7l1.2-5.2l2.4-4.5l1.8-4.4l-0.9-4.4h1.4l-3.6-7.7l-0.2-3.1l2.4-2
	l-1.7-0.6l0.1-1.2l-5.5,1.9l-3.6-4.9l-2.1-7l-0.6-4.5l0.3-13.8l1.8-5.4l5.3-3.3l12.6,0.1l5.1-2.8l0.1-8.7l-1-3.2l-1.9-1.4l1.9-2.9
	l4.8-3.1l2.2-2.4l-1.6-2.7l0.9-2l2.6-1.3l3.3-0.4l0.5-1.2l-1.9-2.7l-5.7-5.9l1.9-1.9l1.6-3.2l0.2-1.7l-0.5-1.7l-2.2-2.6l-3.1-2.2
	l-0.7-1.5l0.4-2.1l3.4-5.2l4.4-11.6l0.3-3.5l-1.2-5.1l0.1-1.9l2.1-3.1l2.8-2.2l2.9-0.8l6.6,0.3l1.7-0.2l4.2-2l6.4,4.2l2.5,0.7l2-1.1
	l3-2.5l8.2-11.4l4.4-9.9l1.1-5.8l-0.9-4.5l1.9-5.6l2.5-2.4l3.5-2.2l4.2-4.8l1.6-5l-4.2-2.5l1.6-3.4l-3.9-5.6l0.3-1.1l-0.9-4.6
	l1.3-0.8l4.9-1.7l7.2-9.9l2.9,2.3l1.6,0.6l1.5-0.2l0.6-1.9l-0.4-2.7v-2.4l1.9-1.1l4.2-0.4l3.7-1.3l2.8-2l17.8,9.3l5.4,1l7.2-6l3-1.4
	l2.5-0.4l2.7,1.1v1.6l-3.8,3.3l-5.9,3.6l-1.4,1.6l1.3,1.7l5.2,1.5l1.4,1.3l-1.4,0.8l-4.7,1l-1.5,0.7l-1.6,1.7l-0.1,4l1.6,3.6l1,4
	l-0.2,3l0.7,5.9l2.2,8l3.1,4l-0.1,2.1L710.8,629.8L710.8,629.8z"/>
<path id="BGD2488" class="st0" d="M710.8,629.8l0.9-5.5l0.1-2.1l-3.1-4l-2.2-8l-0.7-5.9l0.2-3l-1-4l-1.6-3.6l0.1-4l1.6-1.7l1.5-0.7
	l4.7-1l1.4-0.8l-1.4-1.3l-5.2-1.5l-1.3-1.7l1.4-1.6l5.9-3.6l3.8-3.3v-1.6l-2.7-1.1l-2.5,0.4l-3,1.4l-7.2,6l-5.4-1l-17.8-9.3l1.7-2.8
	l1.7-1.6l3.2-8.1l7.3-3.3l4.7-3.3l-3-4.7l2.4-2.6l1.5-0.5l1.1-2.2l-0.4-1.8l-2.5-3.3l-4.7-4.2l3.6-2.6l0.3-2.9l-1.2-5.6l-2.6-1.2
	l-2.4-0.2l-1.6-1l-1.7-2l0.2-1.7l2.1-2.1l1.9-2.7l2.3-4.4l3-7.9l-3.9-2.1l-2.5-2.5l-1.1-2.5l-2.7-3.4l-0.1-1.8l5-2.5l0.7-1.3
	l0.3-4.5l2.3-4l0.1-1.8l-0.9-2.9l-1.2-1.8l-2.3-1.1l-6.6-0.3l-3.9,0.5l-1.2-0.5l-1.4-4.3l1.6-12.4l-0.8-10.6l-1.5-4.9l-2.8-10.7
	l-25.7,2.7l-6.2-2.8l-14.1-23.5l2.4-8.6l1.9-4l2.3-3.5l0.7-2.3l0.1-3.2l-3.2-10.4l0.6-10.3l1.9-0.2l6.8-2.5l34.6-5.6l12,0.4l2.7-0.4
	l4.7-2.5l2.3-0.1l10.4,5.5l32,9.8l8.4,1l2.1-0.3l4.4-1.5l4.8-0.9l3.7-3l1.8-0.8l3.8,0.3l1.5,1.8l1.5,2.7l3.5,2.9l3.6,0.9l5.5,0.2
	l5.1-0.7l2.2-2.2l1.1-3.9l2.5-0.1l4.7,2l1.5-1.2l1.3-2.9l1.4-1.3l3.3-0.5l10.4,1l23.1-2.9l12,1.8l9.8-3.1l7,0.3l6.9,1.7l5.8,2.3
	l1.7,1.4l2.1,3.4l1.3,1.3l1.7,0.5l3.1,0.2l2.7,1.6l2.9-0.9l1.8,0.3l1.4,1.3l3.2,4.2l3,2.6l2.6,1.9l2.9,1.3l3.9,0.9l11.2,1.6l1.9,1.4
	l3.4,4.9l6.1,2.6l5.4,3.2l1.2,6.8l5.5,1.8v0.8l7,5.2l2,1l0.9,1.1l-1.8,1.7l5.3,2.3l2,2l1.7,3.8l0.7,4.2l-0.7,2.6l-3,4.7l-7.7,2.1
	l-13.2,4.4l-2.1-0.3l-1.6-0.7l-0.9-1.2l-0.2-1.8l-14.7-9l-8.3-2.8l-6.3,2.8l-1.1,4l0.9,4.2l2.8,7.7l0.4,3.8l-0.1,3.7l-0.5,3.7
	l-11,31l-2.1,9.2l-1,8.1l-1.1,3.6l-2.3,3.5l-3.1,2.5l-3.3,2l-2.7,2.7l-1.1,4.5l1.2,14.4l-0.8,6.8l-4.2,5.7l-5.5,2.6l-6.3,0.5
	l-18-1.6l-0.3,2.8l4.9,8.1l0.2,3.2l-4.2-1.7l-4.7-3.3l-2-1.8l-4.8,1.6l-0.7,4.2l2.3,9.5l-0.2,4.6l-4.7,20.2l-1.6,4.1l-2.7,1.8
	l-4.4-1.1l-6.6-6.6l-0.5-2.1l-0.3-5.4l-0.6-1.5l-2.3-0.1l-13.7-3l-2.2,3.1l0.6,4.5l1.4,4.8l0.1,4.1l-2.5,3.7l-3.7,1.4l-4.2-0.6
	l-3.9-2.5l-2-3.6l-3.8-9.6l-2.2-0.8l-1,2.8l-2.3,15l-1.7,5l-2.1,3.3l-3.1,2.1l-5,1.5l-8.9,1.1l-8-0.7l-16.4-3.6l-9,0.8l-2.6,6.1
	l-0.4,9l-2.2,9.6l-2.6,1.8L710.8,629.8L710.8,629.8z"/>
<path id="BGD3255" class="st0" d="M359.5,352.6l-2.9,12.8l-2,12.6l-1.2,20l0.3,2l5.2,25.8l1.9,4.7l2.9,5.8l2.2,2.4l3.7,2.5l6.4,3.4
	l3.9,3.7l1.8,2.2l1.4,2.5l1.1,4.4l0.1,5l-2.4,10.8l-0.3,2.6l1.1,4.6v3l-1.6,6l-2.4,2.9l-1.1,2.6l0.6,2.9l0.2,4.4l-0.3,4.7l-1.8,7.4
	l-0.2,8.9l-2,17v2.4l1.3,9.1l-0.1,9.3l0.2,2l8,8.8l3,2.6l0.3,6.4l3.9,1l0.8,2.2l-0.4,2.2l1,2.5l-0.9,3.4l-0.4,3.4l0.6,0.4l-2.1,4
	l-0.6,8.4l-1.6,3.2l-2,3.3l-2.7,2.5l-18.5,15.4l-2.8,7.3l-0.9,5.2l0.6,3.5l2.2,11v2.8l-4.9,1.3l-12,1.1l-3.5,1.4l-6.5,4.3l-3.8,1.2
	l-5.5-1.1l-8.7-7.9l-4.9-2.9l-19.3-8.3l-7.1-4.8l-5.1-2.2l-5.4-1.2l-5.8-0.5l-17.9,1.9l-5.9-1.1l-4.7-2.2l-4.6-3l-8.3-7.2l-2.1-2.5
	l-0.6-2.1l1-5.2V619l-0.9-2.1l-4.4-5.6l-1.9-5.9l-7.9-7.6l-5-6.7l-1.7-1.4l-3.9-2l-4.3-0.3l-2.2,2.9l-2.9,2l-13.9,6.6l-4,0.9
	l-4.2-0.7l-1.7-0.9l-3.2-2.3l-5.2-2.8l-1.4-1.2l-3.4-5.2l-1-3.6l0.7-2l2.5-3.7l0.7-2.2l-0.5-0.9l-0.5-3.9l-0.4-1l-1.2-9.3l-5-6.8
	l-7.1-4.3l-4.6-1.1l-2.3,5.5l-3.3,5l-4.7,0.3l-10.7-3.7l-14-0.6l-4.9-1.1l-16-12.8l-56.7-29.8l-6.3-1.4l-0.4-1.6l-2-3.5l-2.7-3.4
	l-0.3-1.2v-12.3l-0.6-1.5l-3.2-3.2l-2.1-4.9l-3.6-1.5L1,475l1.2-7.2l1.7-4.3l2.9-4.1l1-10.4l2.4-1l2.7-0.5l1.5-2.2l0.3-3.3l0.7-2.8
	l1.4-1.7l2.8,0.5l2-4.3l3-3l2.1-3.1l-0.6-4.5l-2.8-8.2l-1-2.1l-1.2-1.2v-1.1l10.7-5.9l4-1.4l4.2,0.4l3.5,2.5l3.1,4l1.9,4.6l0.2,4.4
	l2.6,0.1l9.1,2.5L64,422l2-1.5l3.9-7l7.5-9.9l2.7-5.5l0.6-6.3l5-6.3l2.6-7.1l1.8-15.6l-0.6-13.5l2.1-3.9l7.4-1.3l3.5,0.9l6.8,2.7
	l7.8,2.2l2.4-0.6l1.6-1l2.6-3l2-0.8l7.6,0.3l6.5,1.2l13,4.9l12.9,1.3l1.7-1.3l2.2-5.2l1.4-1.7l1.8-0.3l2.8,1.3l14.8,5.2l5.5,0.4
	l-3.2-5.1l4-0.9l0.6-2.3l-0.6-3.2l0.2-3.2l1.9-2.6l8.1-6l1.6-2.3l0.5-2.4l-0.5-2.3l-1.6-1.9l21.4,0.7h23.3l8.9,2.2l0.7,9.1l5.5,12.2
	l6.9,6.8l14.4-8.3l13,3l20.6,6.8h21.3L359.5,352.6L359.5,352.6z"/>
<path id="BGD5492" class="st0" d="M384.9,294.4l-3.6,0.7l-3.1,2l-1.9,3.5l-4.9,11.8l1.9,13l-1.2,6l-3.2,4.7l-2.6,3l-2,3.2l-4.8,10.3
	l-16.6-1.7h-21.3l-20.6-6.8l-13-3l-14.4,8.3l-6.9-6.8l-5.5-12.2l-0.7-9.1l-8.9-2.2h-23.3l-21.4-0.7l-10.5,0.5l-5.1-0.7l-4.9-4.8
	l-4.5-0.3l-2.2-0.6l-1.6-1.3l-5.1-6.4l-0.9-2.6l-0.2-2.3l-0.6-2l-2.3-1.7l-0.1-1.5l3.7-8.5l-0.3-5.1l-2-3.1l-2.7-2.5l-2.6-3.2
	l-1.9-1.6l-6.6-2.6l0.2,4.2l-2.2,1l-4-0.4l-1.7,0.3l-2.3,1.9l-3.8,4.3l-2.5,0.7l-4.5-1.1l-7-4.6l-4.2-2l-9.2-0.4l-4.5-0.9l-2.1-2.1
	l-1.7-3.5l-5.8-4.5l-2.2-4.8l-8.2-4.1l-3-3l-0.9-14.7l-5.7-6.5l-15.7-10.7l-13.1-15.3l-7-3.6l-9.6,2.8l-3.6,2.1l-4.3,1.9l-4,0.2
	l-2.8-2.9l-1.5-4.6l-1-2.1l-3.4-3.8l0.3-4.3L14,184l-1.6-10.7l2.9-3.6l4-13.6l4.2-8.1l5.4-4.3l1.5-4.6l-0.3-2.6l-2.5-2.2l-0.8-1.2
	l-0.3-2.3l1-2.6l2.4-7.8l1.8-2.9l7.1-4.6l1.9-1.7l2.9-3.3l2.3-0.9l4.5-1l12.6-4.3l3.8-2.4l1.7-3.6L68.2,87l0.8-3.5l3.2-4.7l3.3-3
	l10.2-6.4l1.6-2.1l1-2.2l1.2-1l3.7,2.1l2,0.1l3.8-0.7l4.8,0.8l-0.5-6.1L99,47.2L95.9,42l-5.8-2.8l-12.4-2.4l-5-2.2l-1.6,0.1
	l-0.7,1.6l-0.6,5.6l-1,1.4L66,42.5l-1.7-3.2l-0.2-4l1.2-3.2l2.8-4.8l4.4-15.5l1.6-3.4l2.6-4.5L79.5,1l2,1.3l0.3,4.5l-0.2,5.1
	l0.6,4.8l2.9,3.2l7.6,2.4l3.5,1.6l2.8,3.3l2.7,2.2l4.1,4.4l4.3,3l4.9,2.1l1.8,0.2l4.6-0.1l2.6,1.2l2.6,5.1l1.8,2.2l4.6,2.6l5,1.2
	l-0.9,2l-0.5,2.1l0.6,1.6l3.5,1.4l-0.3,4.2l1.3,1.8l5,2.6l2.9,2.3l0.5,3l-2,4.4l-2.8,2.4l-7.9,4l-1.6,1.8l3.8,2.7l18.2-6.7l7.8,3
	l1.7,3.7l1.4,4.1l2.1,3.4l3.6,1.7l3.4-1.4l3.3-7.9l4.3-3l5.9,1.1l9.5,9.6l6.1,2.1l9.6-2.4l4.3-3.1l-1.1-4.5l-2.4-0.7l-2.5-0.1
	l-1.6-1.6l0.8-5.1l-2,1.3l-2,0.5l-1.7-0.6l-1.4-1.9l-2-6.9l-5.3-2.8l-6.2-2.1l-4.5-4.8l-0.1-4.1l1.7-4.5l2.7-4.1l2.8-2.6l3.5-1.7
	l2,0.6l2,2l3.4,2.6l2.5,1.2l3.2,3.8l2,1.6l2.4,1l4.7,1.2l1.9,1.6l1,2.9l-0.7,2.1l0.3,1.6l3.6,1.6l5.1,1.5l1.6,1.7l0.1,3.3l-1.9,1
	l-3.1-1.5l-2.5,0.3l0.2,6.5l1.4,3.9l4.3,7.3l1.6,3.8l1.8,14.6l1.6,4.3l2.7,3.1l14.3,6.3l3.2,2.1l2.2,3l1.4,4.6l1.8,2.2l7.6,3.5
	l5.2,6.1l3.9,2.7l4.4,2l3.5,0.4l3.5-2l2.6-2.4h2.5l3.3,4.9l3.1,0.4l1.2-0.4l11.7-1l3.1,1l3.1,5.3l1.9,2.6l2.2,1.2l2.9-0.6l1.5-2.2
	l0.6-3.1l-0.2-3.2l1.8-6.6l9.5-7.9l1.8-4.1l-1.6-3l-2.8-0.1l-3,0.6l-2.2-1.1v-2.8l2.4-2l3.1-1.6l2.6-1.7l-4-0.5l-3.6-1.7l-1.4-3
	l2.3-4.4l2.9-2l1.5-0.2l4.5,1.4l0.1-1.2l-1.4-2.8l-0.5-7.3l1.5-2l4.7-1.6l3.9,0.8l1.2,3.6l-0.3,10.2l0.2,1.5l2.6,1.2l1.6,0.2
	l4.3-0.4l2,0.2l2.5,2.1l1.3,3.6l1,3.9l1.7,3.3l2.8,4l0.3,3l-0.5,3l0.3,4.2l1.2,2.2l4.4,5.8l2.9,4.9l1.3,0.4l1.4-0.6l1.5-1.6l1.1-0.2
	l3.1,4l-0.6,3.3l-3.1,2.5l-4.2,1.5l4.1,2.5l3.3,0.3l1.8,1.4l-1,5.7l-9.3,16.5l-0.8,5.9l4,21.6l4.9,12.1l2.2,9.4l-2,16.9l-0.4,18
	l-4.9,18.2L384.9,294.4L384.9,294.4z"/>
<path class="st0" d="M389.8,490.3c0-2-0.8-5.9,0-7.7c0.9-1.9,3.6-0.9,4.8-2.5c1-1.3-0.9-4.6,0.4-5.5c3.2-2.2,2.7,1.4,4.9-3
	c0.5-1,0.9-3.2,1.8-3.9c0.6-0.5,1.9,0.8,2.4,0.5c2.5-1.8,1-3-0.3-4.3c-4.3-4.4-5.9-5.2-2.9-11.4c3.3,2.5,3.4,2.5,6.9,0
	c3-2.1,2.6-2.5,2.6-6.3c5.8,2.5,7.5,5.1,11.2,10.2c4.7-5.7,9.5-15.6,17.9-15.5c6.1,0,3,4.1,6.4,7.2c1.1,1,3.6,0.3,5,0.8
	c2.9,1,1.7-0.5,2.1,2.6c0.5,3.6-1.5,7.9-0.4,11.3c1.2,3.7,5.9,6.3,6.9,10.1c1.3,4.7-3.2,5.9-4.8,9.5c-1.9,4.2,0.7,7.1,2.7,10.6
	c4.9,8.5,11,11.5,19.5,16c-3.8,1.1-6.4,0.9-6.7,5.5c-0.1,3.2,1.9,5.2,3.9,8.1c2.3,3.4,3.5,4.7,3.6,8.6c0,1.2,0.5,3.4,0,4.5
	c-0.5,1.3-2.9,2.1-3.1,3.3c-0.3,2.1,4,9.2,5.2,11.1c1.7,2.6,3.9,4.1,7.3,4.8c3,0.6,6.5-0.6,9.6-1.2c4.9-0.9,4.8-1,7.1-5.5
	c1.1,1.3,3.5,5.2,5,5.4c1.1,0.2,2.4-1.4,3.5-1.4c1,0,2.4,1,3.4,1.5c0.8-3.2,1.2-7.1,2.6-10.1c1.3-2.9,2.5-3.4,6.6-1.9
	c2.7,1,2,2.3,4.3,3.8c1.9,1.3,8.5,1.4,9.6,3.4c0.6,1-1.1,3.3-0.6,4.4c0.3,1,1.7,1.6,2.6,2.3c3.1,2.4,3.9,2.7,7.7,2.7
	c3.8,0,5.2-0.8,8.8-2.1c3.2-1.1,4.5-0.4,7.9,0.6c-2.7-5.6-9.2-14.5-5.2-20.7c1-1.5,3-1.8,3.7-3.4c0.6-1.4,0.8-6.3,0.5-7.8
	c-0.7-3.7-4.4-4.3-7.8-6.6c-1.6-1.1-3.2-2.3-4.7-3.6c-2.7-2.3-2.2-1-1.8-4c0.6-4.6,4.5-6,8.8-4.4c4.6,1.7,4.5,6.9,10.6,4.2
	c3-1.3,4.4-5.7,6-8.8c1.1,2.1,2.1,4.2,3.2,6.3c1.6-3.2,3.2-6.3,4.8-9.5c1.3,2.3,2.3,4.5,4.3,6c3.5,2.5,4.6,1.8,7.2-0.8
	c2.8-2.8,9.6-9.4,6.3-13.1c3.8-0.7,6.9-4.5,10.7-5.4c4.4-1,10.4-0.1,15-0.4c4.3-0.3,8.7,0.9,12.4-0.9c1.6-0.8,3.6-3.1,5.4-3.3
	c1.8-0.2,6.8,1.2,8.5,2.1c1.5,0.9,1.8,3.3,3.2,4.1c1.5,0.8,5.6,0,7.3-0.1c5.3,0,8.2-1.2,13.3-2.7c3.2-1,9.5-1.4,11.9-4.2
	c1.4-1.7,0.5-4.1,1.1-6c0.9-2.8,2.5-3.5,2-6.5c-2-10.6-16.3,0.9-17.1-9.9c-0.3-4.4,1.5-9.1,1.4-13.6c-0.1-4.9-0.8-9.2-2.2-13.8
	c-0.8-2.9-1.3-9.6-3.6-10.6c-1.5-0.7-5.8,0.6-7.3,0.8c-3.4,0.4-6.7,0.7-10.1,1.1c-4.7,0.5-8,1.4-12.2-1.4c-3.2-2.1-4.8-6.1-6.8-9.5
	c-2.3-3.8-8.1-10.2-8.8-14.6c-0.5-3.7,3-10.2,4.8-13.4c3-5.5,2.6-8.1,0.8-14c-1.6-5.2-1.1-9.4-0.8-14.9c-8.8,1.2-19.1,4.5-28,2.9
	c-4.6-0.8-6.9-4.2-11-5.6c-4.9-1.7-6,3.5-10.6,3.4c-5-0.1-8.7-2.6-13.3-3.8c-4.8-1.2-8.3,1.4-13,1.8c-4.8,0.4-10.1-1.1-14.9-1.4
	c-4.1-0.2-7.7,0.8-11.7,1.7c-9.9,2.1-17,4-26.5,0c-9.4-4-17.9-6.2-27.8-8.4c-7.6-1.7-15-3-22.2-6c-11.7-5-23.5-9.9-35.2-14.9
	c-3.4-1.4-6.1-2.9-9.6-3.1c-2.6-0.2-5.1,0.1-7.6,0.8c-2.7,0.7-5.1,3-7.9,2.2c-8.2-2.2-6.7-22.1-5.9-28.5c-7.5,1.5-12,9.9-13.2,17.3
	c-1.1,6.6,3.2,13,0.3,19.8c-1.2,2.9-3.9,5.1-5.7,7.6c-2.2,3-3.6,6.7-5.2,10.1c-2.9,6.2-4,13.2-5.1,19.9c-1.3,8.1-1.8,16-2.3,24.1
	c-0.4,7,1.4,13.5,2.7,20.4c1.5,7.2,2.5,14,6.1,20.5c3.9,7,11.8,8.3,17.1,14c5.8,6.2,4.9,13.4,3.2,21.1c-1,4.5-0.5,6.8-0.1,11.3
	c0.3,3.2-0.4,8.5-3,10.7C384,491.7,385.9,491.9,389.8,490.3z"/>
<polygon class="st0" points="544.7,781.3 544.7,781.3 534.5,775.9 526.7,773.1 521,773.1 520.4,775.2 522.7,778.6 529.5,785.7 
	533.4,788.6 537.5,789.8 541.4,787.9 542.6,785.2 546.9,786.9 554.8,792.7 553,787.5 "/>
<path class="st0" d="M696.8,540.4c3.4-4.3-3.7-9-6.5-11.5c2.5-1.8,3.9-2.3,3.9-5.5c0-2.8-0.7-5.1-2.9-6.4c-2-1.1-4.2-0.2-5.7-2.6
	c-1.7-2.8,0.8-3.9,2.4-6.2c1.5-2.1,7.2-11.3,6.3-13.6c-0.5-1.3-5.4-3.3-6.5-4.9c-1.3-1.8-3.9-5.2-3.8-7.4
	c-7.5,1.8-13.7,4.4-21.5,4.5c-1.2,0-4.7,0.6-5.8,0c-1.2-0.7-1.5-3.1-2.7-3.9c-2-1.5-8-2.5-10.1-1.9c-2.1,0.6-3.6,3-5.7,3.7
	c-1.6,0.6-3,0.1-4.8,0c-4.1-0.3-8.2,0.4-12.3,0.5c-3.1,0.1-6.9-0.7-9.8,0c-3.5,0.9-6.4,4.5-9.9,5.4c3.5,3.6-3.6,10.5-6.3,13.1
	c-2.6,2.6-3.1,3.3-6.7,1.1c-2.5-1.5-3.3-3.5-4.9-6.2c-1.6,3.2-3.2,6.3-4.8,9.5c-1.1-2.1-2.1-4.2-3.2-6.3c-1.7,3.1-3.1,7.4-6,8.8
	c-5.9,2.7-6.1-2.5-10.6-4.2c-4.3-1.6-8.2-0.2-8.8,4.4c-0.4,3.1-0.9,1.1,1.3,3.6c1.3,1.5,3.5,2.8,5.2,3.9c3.4,2.3,7,2.9,7.8,6.6
	c0.3,1.7,0.1,5.9-0.5,7.4c-0.7,1.8-2.7,2.1-3.8,3.8c-4,6.2,2.5,15.2,5.2,20.7c-3-0.9-4.5-1.5-7.4-0.8c-3.5,0.9-5,2.3-8.7,2.3
	c-4.1,0-5.2-0.1-8.3-2.7c-0.9-0.8-2.2-1.3-2.6-2.3c-0.4-1.1,1.2-3.4,0.6-4.4c-1.1-1.9-7.7-2.1-9.6-3.4c-2-1.4-1.7-2.7-3.7-3.8
	c-8.5-4.4-8.3,6.5-9.7,12c-0.9-0.4-2.3-1.6-3.2-1.6c-1.2-0.1-2.6,1.7-3.7,1.5c-1.5-0.3-3.9-4.1-5-5.4c-2.2,4.3-1.9,4.6-6.5,5.4
	c-3,0.5-6.9,1.9-9.9,1.4c-3.5-0.6-5.9-2.3-7.6-4.9c-1.2-1.9-5.6-8.9-5.2-11.1c0.2-1.2,2.5-2,3-3.2c0.5-1.2,0.2-3.3,0.2-4.7
	c-0.1-3.7-1.1-4.8-3.2-8.1c-1.7-2.5-4.4-5.2-4.4-8.1c0-4.9,2.9-4.9,6.8-6c-6.5-3.5-13.2-6.1-17.4-12.4c-2.1-3-5.2-7.4-5.3-10.9
	c-0.2-4.5,4.2-5.7,5.4-9.4c1.3-3.9-2.8-7.5-4.7-10.3c-2.8-4-2.4-5.2-2.1-10.1c0.1-1.2,1.1-5.6,0.4-6.5c-0.8-1-4.2-0.2-5.5-0.8
	c-2.3-1-1.6-0.4-2.9-3.3c-1-2.3-0.8-3.2-3.2-4.1c-8.8-3-15.6,10-20,15.3c-3.7-5.1-5.4-7.7-11.2-10.2c0,3.8,0.5,4.2-2.6,6.3
	c-3.5,2.5-3.6,2.5-6.9,0c-1.6,3.3-2.8,4.4-0.9,7.7c1.1,1.8,5.3,3.8,5.5,5.1c0.3,1.5-1.7,2.4-2.1,2.7c-0.6,0.5-1.3-0.9-1.8-0.4
	c-0.4,0.4-0.4,1.3-0.8,1.7c-1,1.1-0.9,3.4-2,4.4c-1.2,1.2-2.7-0.1-4,0.9c-1.5,1.1,0.2,4.4-1.7,5.9c-0.9,0.7-3,0.5-3.6,1.4
	c-0.6,1,0.1,4.1,0,5.3c-0.5,8.1-8.1,1-11.3,5.4c-2.2,3.1,0.1,10.8-0.6,14.8c-0.9,5.6-1.5,10.5-1.9,16.2c-0.5,6-2.1,12.2-1.9,18.3
	c0.2,5.8,0.8,12.2,1.2,18.1c0.4,5.2,5.3,8.7,8.9,12.4c0.8,0.8,1.9,1.4,2.3,2.4c0.6,1.5-0.6,4.4,0.3,5.7c0.5,0.8,1.8,0.3,2.5,1
	c1.5,1.4,1.4,1,2.1,3.1c1.6,4.9-0.5,10.6-1.9,14.9c-1.7,5.5-0.3,10-4.2,15c-7.4,9.4-20.7,13-24.1,25.3c-1.6,5.7,0,10.7,1.1,16.3
	c0.3,1.7,1.5,5.3,0.4,6.5c-1.3,1.4-6.7,1.4-8.5,1.6c-3.5,0.3-7,0.3-10.3,1.6c-2.8,1.2-5,3.5-7.7,4.8c-7.1,3.3-11.1-1.8-16-6
	c-9.6-8.2-22.8-10.7-33.3-17.8c2.3,6.8,4.7,12.2,2.1,19.2c-2,5.3-4,10.6-6.1,15.8c-1,2.7-4,7.3-3.9,10.2c0.1,3.5,4.7,7.4,6.7,9.9
	c3,3.8,4,4.2,9.2,3.1c3.3-0.6,5.9-2.3,8.7,0.2c3.4,2.9,6,8.9,8.4,12.6c2.2,3.3,4.9,6.3,7,9.6c1.1,1.7,1.4,3.6,2.3,5.4
	c1.2,2.3,2.8,2.6,4.6,4.3c-3.6,4.6-8.5,5.3-5,11.9c3.2-4.6,4-6.3,10-4.3c3.4,1.1,8.3,4.3,10.4,7.3c4.5,6.3,4.7,17,6.2,24.4
	c-2.4-0.9-4.8-4.7-6-2.5c-1.4,2.5,0.1,7.3,1,9.8c1.3,3.7,2.2,5.9,4.7,8.8c3.2,3.7,4.2,3.2,9.2,3c-2.8,4.1-6.4,7-8.6,11.4
	c2.9,0.8,7.4,1.1,9.9,2.7c2.2,1.4,2.1,2.9,1.9,5.8c-0.2,2.7-0.7,5.9,2.6,7.6c3.2,1.7,4.2-1.6,6.8-2.5c2-0.7,6.4-0.2,6.5,2.9
	c0.1,2.7-3.4,2.8-5,4.3c-1.2,1.1-3.5,7.4-4.7,7.8c-1.8,0.6-5.4-3.5-6.5-4.4c-0.6,3.2,0.5,7.9,3.6,9.6c3.8,2.1,5.1,0.6,7.5,5
	c2,3.6,3.1,7.7,5.2,11.1c2,3.2,5.1,5.7,7.9,8.2c2.7,2.4,5,5,6.4,8.4c2,5.1,2.2,5.6,6.7,8.6c5.9,3.9,9.6,11.4,17.6,11.5
	c8.2,0.2,14-3.8,18.9-9.9c3.1-3.9,4.7-7.6,7.1-11.8c1.6-2.8,4.1-4.5,6.1-7c1.2-1.4,2-2.9,3.3-4.2c1.6-1.6,4.1-2.3,5.5-3.8
	c1.9-2,1.8-6.5,4.2-8.3c2.2-1.5,9.8-2.4,12.5-1.6c3.6,1.1,4,4.1,4.4,7.5c0.7,5.9,7,18.8,15,14.4c2.4-1.4,6.8-7.4,7.5-10.3
	c1.5-6.7-3.5-4-7.3-5.2c4.5-9,12.8-7.1,19.6-1.2c3,2.6,6.4,6.1,10.3,4.3c1.8-0.9,3.3-2.5,4-4.4c0.5-1.4-0.4-4.2,0.9-5.6
	c2.4-2.6,8.3-0.5,11.2-0.9c4.6-0.6,6.9-2.9,9.9-6c0.9-0.9,3.5-4.2,3.1-0.5c-0.2,1.8-4,2.1-2.9,4.9c2,5.3,6.8-3.5,7.9-5.1
	c5.1-7.4,2.9-18.9,0.9-27.2c1.8,1.8,3.1,3.7,4.5,5.8c-0.4-4.3-0.2-8.9-2.1-12.8c-1.6-3.4-4.8-9.2-8.3-10.7c-4.1-1.7-9.6-0.6-14-1.7
	c-4.5-1.2-9.2-3.5-13.5-5c-4.4-1.6-4.7-5.6-7.8-8.9c-2.5-2.7-6.2-4.4-9.3-6.3c-5.8-3.5-11.6-7-17.4-10.6c-2.8-1.7-7.6-3.8-6.2-8
	c19.6,13,44,10.2,65.1,19.3c0.6-5.9,3.6-9.1,5.5-14c2-5.1,0.1-13.5-0.1-18.8c-0.2-6.8-4.1-5.1-9.9-5.8c-5.7-0.6-9.5-2.8-11.9-8
	c3.6,2.3,17.5,9.7,18.9,1.2c0.6-3.8-2.2-1.3,0.6-3.8c1.2-1.1,4.3-2.1,6-2.5c1.4-0.4,3-0.4,4.1-0.1c0.6,0.2,0.9,1.6,1.4,1.9
	c0,0,2.6,0,2.9,0c-4.3,2-7.3,3.5-8.9,8.3c-1.4,4.1-0.8,11,2,14.5c1.8,2.3,0.6,1.6,3.5,0.7c1.8-0.6,4.1-1.5,5.9-2.3
	c5.2-2.2,5.7-3.3,11-0.2c0.4-1.4,1.7-3.9,1.2-5.1c-0.6-1.7-4.5-2.3-4.9-4.3c-0.4-2.4,0.3-1.1,2.6-1.7c3.2-0.8,2.3-0.6,4.8-3
	c1.3-1.3,3.4-1.8,4.7-3.1c3.3-3.3,0.1-1.6,0.4-4.9c0.5-4.9,7.6-1.5,6.7-5.8c-0.3-1.4-2.7-3.3-3.7-4.3c-0.4-0.4-2.8-2.3-2.9-3
	c-0.2-1.3,0.5-0.7,1.2-2.1c2.4-5,2.2-6.3-1.7-10.2c-4.2-4.2-1.5-5.3,1-10.1c1.8-3.4,3.6-7.9,4.5-11.7c0.9-3.8-1.7-7.4-0.5-10.9
	c1.3-3.9,5.5-5.5,9.1-5.7c1.9-0.1,4,0.5,5.9,0.1c2-0.3,3.8-2,5.6-1.8c4.7,0.7,5.5,6.3,10.7,3.2c6.7-4,11.6-14.5,14.4-21.5
	c0.7-1.8,1.1-3.1,1.5-5c0.5-2.7-0.3-4.3-0.3-6.9c0.2-4.7,2.8-6.9,6.1-9.6c2.4-1.9,9-7.3,7.4-11c-0.4-1-2.9-1.1-3.3-2
	c-0.7-1.3,0.4-0.5,0.1-2.1c-0.1-0.7,0.6-1.4,0.4-2.3c-0.2-1.3-2.1-2.6-2.6-3.7c-0.6-1.4-1.4-3.6-1.2-5.3c0.4-3.1,1-2.1,4-3.6
	c4-2.1,6.3-6.8,9.1-10.5c2.1,1.7,4.9,4.5,6.4,1.3c1.4-2.9-2-4.8,1.7-6.7c2.1-1.1,5.3-0.4,7.7-1.6c2.4-1.3,4.1-3.4,5.5-5.7
	c1.5-2.4,2-5.8,3.7-8.1c1.7-2.2,4.9-2.6,7.4-4c2.6-1.5,4.6-2.3,4.2-4.6c-0.2-1.3-2.2-2.4-2-3.7C693.3,542,695.7,540.7,696.8,540.4z"
	/>
</svg>
