<?xml version="1.0" encoding="utf-8"?>
<!-- Generator: Adobe Illustrator 22.0.1, SVG Export Plug-In . SVG Version: 6.00 Build 0)  -->
<svg version="1.1" id="Layer_1" xmlns="http://www.w3.org/2000/svg" xmlns:xlink="http://www.w3.org/1999/xlink" x="0px" y="0px"
	 viewBox="0 0 2275.4 942.1" style="enable-background:new 0 0 2275.4 942.1;" xml:space="preserve">
<style type="text/css">
	.st0{fill:#EDBB29;}
	.st1{fill:#2A2B2A;}
	.st2{fill:#3E413A;}
	.st3{fill:#D6E3DD;}
	.st4{fill:#C7C6C5;stroke:#3E413A;stroke-width:0.1;stroke-miterlimit:10;}
	.st5{fill:#E69E24;}
	.st6{fill:#F39320;}
	.st7{fill:#E18026;}
	.st8{fill:#F7D878;}
	.st9{fill:#131313;}
	.st10{fill:#E0E9EE;}
	.st11{fill:none;stroke:#E18026;stroke-miterlimit:10;}
	.st12{fill:#444544;}
	.st13{opacity:0.57;clip-path:url(#SVGID_2_);}
	.st14{fill:#FFFFFF;}
	.st15{opacity:0.56;clip-path:url(#SVGID_4_);}
</style>
<g id="XMLID_1_">
	<path id="XMLID_628_" class="st0" d="M2273.3,636.9c0,0-0.3,11.4-1.8,27.8c-3.4,38.4-12.9,103.7-38.9,110.8c0,0-53.5,13.4-64.1,7.4
		c0,0-1.5-181.8-151.7-223.8c-89.1-24.8-260.3-20.5-277.3,244.6c0,0-1007.6,7.4-1075.2,20.6c0,0-26.6-4-22.4-45.3
		c0,0,0.2-8.9-1.2-23.2c-5.1-55.1-33.1-191-181.1-217.6c0,0-212.3-41.9-249.6,196.5c-1.7,11.2-3.1,23-3.9,35.4
		c-1,12.4-1.5,25.4-1.6,39c0,0-80.3,21.3-114.5-4.9c0,0-83.7,3.1-85.3-1.3l-4.1-23.2c0,0,0.8-1,2.1-2.7c7.2-9.3,28.8-39.7,9.2-41.5
		c0,0-17.7-68.7-9.8-143c8.7-80.9,47.7-168.5,172.8-182.4c0,0,300.5-70.6,382-115.7c148.2-81.9,398.3-251.1,773-241.9
		c161.8,4,428.4-7.8,646.1,43.5c0,0,10.5,12.6,15.5,30.4c0,0,154.4,153.4,163.3,161.1c7.4,6.4,14.7,12.8,21.5,19.2
		c10.7,10,20.4,20,28.5,30.6c26.1,33.8,36.7,73.5,12.4,134.8C2217.1,471.9,2288.3,582,2273.3,636.9z"/>
	<g id="XMLID_513_">
		<g id="XMLID_618_">
			<g>
				<path id="XMLID_622_" class="st1" d="M256.2,816.7l-52-7.9c0,0-28-263.4,209-275.2c90.2-4.5,244.4,51.1,230.3,278.3
					c0,0-19,39.1-59.9,46.5c0,0,110.9-206.8-117.9-277.8C385.2,555.6,229.7,619.7,256.2,816.7z"/>
				<path id="XMLID_621_" class="st1" d="M1771.5,799.8l-33.2,2.8c0,0-25.5-235.7,200.5-260.2c89.8-9.7,242.2,61.1,229.7,240.3
					c0,0-3.9-17.8-30.7-8.5c0,0-2.6-125.3-138.4-175.3C1920.4,569.7,1768.8,605,1771.5,799.8z"/>
			</g>
		</g>
		<g id="XMLID_514_">
			<g id="XMLID_589_">
				
					<ellipse id="XMLID_615_" transform="matrix(1.507683e-02 -0.9999 0.9999 1.507683e-02 -330.3276 1173.0017)" class="st2" cx="430.2" cy="754.2" rx="182.6" ry="188.5"/>
				
					<ellipse id="XMLID_608_" transform="matrix(1.500389e-02 -0.9999 0.9999 1.500389e-02 -340.3925 1170.4167)" class="st3" cx="423.9" cy="758" rx="134.4" ry="136.1"/>
				<path id="XMLID_605_" class="st2" d="M519.3,755.9c-0.8,52.1-43.3,93.8-95,93c-51.7-0.8-93-43.7-92.2-95.8
					c0.8-52.1,43.3-93.8,95-93C478.8,660.8,520.1,703.7,519.3,755.9z"/>
				<path id="XMLID_602_" class="st3" d="M541.3,777.7l2.7-35.8l-73.6-1.5c-0.4-1.3-0.9-2.6-1.5-3.9l56.2-44.6l-23.2-27.4l-53,50.2
					c-1.2-0.7-2.5-1.3-3.8-1.9l9.2-72.9l-35.8-2.5l-2.7,72.4c-1.8,0.4-3.6,0.9-5.4,1.5l-46.8-56.8l-26.4,24.3l49.4,50.3
					c-2.2,3.2-3.9,6.6-5.2,10.2l-72.6-4v35.9l72.5-2.3c0.4,1.1,0.8,2.2,1.3,3.3l-55.9,49.4l25.2,25.5l50.6-53.3c2,1.1,4.1,2,6.2,2.8
					l-13,72.2l35.5,5.2l7.5-76.1c1.4-0.4,2.7-0.8,4-1.3l-0.8,0.7l44.2,59.9l28.2-22.2l-49.4-55.9c1.9-2.8,3.5-5.9,4.7-9.1
					L541.3,777.7z"/>
				<g id="XMLID_590_">
					<path id="XMLID_600_" class="st4" d="M416.5,730.5c-0.1,5.6-4.7,10.1-10.4,10.1c-5.6-0.1-10.1-4.7-10.1-10.4
						c0.1-5.6,4.7-10.1,10.4-10.1C412,720.2,416.5,724.9,416.5,730.5z"/>
					<path id="XMLID_597_" class="st4" d="M460.4,736.1c-0.1,5.6-4.7,10.1-10.4,10.1c-5.6-0.1-10.1-4.7-10.1-10.4
						c0.1-5.6,4.7-10.1,10.4-10.1C455.9,725.8,460.4,730.4,460.4,736.1z"/>
					<path id="XMLID_594_" class="st4" d="M453.9,779.5c-0.1,5.6-4.7,10.1-10.4,10.1c-5.6-0.1-10.1-4.7-10.1-10.4
						c0.1-5.6,4.7-10.1,10.4-10.1C449.5,769.2,454,773.9,453.9,779.5z"/>
					<path id="XMLID_592_" class="st4" d="M409.6,774c-0.1,5.6-4.7,10.1-10.4,10.1c-5.6-0.1-10.1-4.7-10.1-10.4
						c0.1-5.6,4.7-10.1,10.4-10.1C405.2,763.7,409.7,768.3,409.6,774z"/>
				</g>
			</g>
			<g id="XMLID_544_">
				<path id="XMLID_584_" class="st2" d="M2144.2,762.3c-1.5,100.9-87.2,181.3-191.2,179.7c-104.1-1.6-187.2-84.6-185.7-185.4
					s87.2-181.3,191.2-179.7C2062.7,578.5,2145.7,661.4,2144.2,762.3z"/>
				
					<ellipse id="XMLID_580_" transform="matrix(1.516949e-02 -0.9999 0.9999 1.516949e-02 1156.8342 2700.8198)" class="st3" cx="1949.5" cy="763.2" rx="134.4" ry="136.1"/>
				<path id="XMLID_576_" class="st2" d="M2044.9,761.1c-0.8,52.1-43.3,93.8-95,93c-51.7-0.8-93-43.7-92.2-95.8
					c0.8-52.1,43.3-93.8,95-93C2004.5,666,2045.7,708.9,2044.9,761.1z"/>
				<path id="XMLID_575_" class="st3" d="M2066.8,782.9l2.7-35.8l-73.6-1.5c-0.4-1.3-0.9-2.6-1.5-3.9l56.2-44.6l-23.2-27.4l-53,50.2
					c-1.2-0.7-2.5-1.3-3.8-1.9l9.2-72.9l-35.8-2.5l-2.7,72.4c-1.8,0.4-3.6,0.9-5.4,1.5l-46.8-56.8l-26.4,24.3l49.4,50.3
					c-2.2,3.2-3.9,6.6-5.2,10.2l-72.5-4v35.9l72.5-2.3c0.4,1.1,0.8,2.2,1.3,3.3l-55.9,49.4l25.2,25.5l50.6-53.3c2,1.1,4.1,2,6.2,2.8
					l-13,72.2l35.5,5.2l7.5-76.1c1.4-0.4,2.7-0.8,4-1.3l-0.8,0.6l44.2,59.9l28.2-22.2l-49.4-55.9c1.9-2.8,3.5-5.9,4.7-9.1
					L2066.8,782.9z"/>
				<g id="XMLID_545_">
					<path id="XMLID_572_" class="st4" d="M1942.1,735.7c-0.1,5.6-4.7,10.1-10.4,10.1c-5.6-0.1-10.1-4.7-10.1-10.4
						c0.1-5.6,4.7-10.1,10.4-10.1C1937.6,725.5,1942.1,730.1,1942.1,735.7z"/>
					<path id="XMLID_569_" class="st4" d="M1986,741.3c-0.1,5.6-4.7,10.1-10.4,10.1c-5.6-0.1-10.1-4.7-10.1-10.4
						c0.1-5.6,4.7-10.1,10.4-10.1C1981.5,731,1986,735.6,1986,741.3z"/>
					<path id="XMLID_558_" class="st4" d="M1979.5,784.7c-0.1,5.6-4.7,10.1-10.4,10.1c-5.6-0.1-10.1-4.7-10.1-10.4
						c0.1-5.6,4.7-10.1,10.4-10.1C1975.1,774.5,1979.6,779.1,1979.5,784.7z"/>
					<path id="XMLID_546_" class="st4" d="M1935.2,779.2c-0.1,5.6-4.7,10.1-10.4,10.1c-5.6-0.1-10.1-4.7-10.1-10.4
						c0.1-5.6,4.7-10.1,10.4-10.1C1930.8,768.9,1935.3,773.5,1935.2,779.2z"/>
				</g>
			</g>
		</g>
	</g>
	<g id="XMLID_263_">
		<path id="XMLID_510_" class="st5" d="M2176.2,306.6c-0.1,0-0.3,0.1-0.4,0.1c-22.5,3.2-105.2-14.6-105.2-14.6
			c-46.1,0-101,1.4-162.3,3.8c-343.1,13.7-889.8,60.7-1244.5,93.2c-205,19-345.9,33-345.9,33C217.3,498.7,2.6,592.6,2.6,592.6
			l-0.7-0.4c8.7-80.9,47.7-168.5,172.8-182.4c0,0,52.3-12.3,119.3-29.9c93.4-24.5,215.2-59.5,262.8-85.8
			c148.2-81.9,398.3-251.1,773-241.9c161.8,4,428.4-7.8,646.1,43.5c0,0,10.5,12.6,15.5,30.4c0,0,0,0,0.1,0.1
			c3.9,3.8,135.4,134.5,159.8,157.7c1.8,1.7,2.9,2.8,3.5,3.3C2162.2,293.8,2169.4,300.2,2176.2,306.6z"/>
		<path id="XMLID_507_" class="st6" d="M1297.7,408c-0.2,15.2-32.2,27.1-71.5,26.5c-39.3-0.6-70.9-13.4-70.7-28.6
			c0.2-15.2,32.2-27.1,71.5-26.5C1266.3,380,1297.9,392.8,1297.7,408z"/>
		<path id="XMLID_502_" class="st6" d="M1859.8,364.3c-0.2,15.2-32.2,27.1-71.5,26.5c-39.3-0.6-70.9-13.4-70.7-28.6
			c0.2-15.2,32.2-27.1,71.5-26.5C1828.4,336.4,1860,349.1,1859.8,364.3z"/>
		<path id="XMLID_490_" class="st6" d="M2075.5,434.8c-0.4,25.2-21.1,45.3-46.3,44.9c-25.2-0.4-45.3-21.1-44.9-46.3
			c0.4-25.2,21.1-45.3,46.3-44.9C2055.9,388.9,2075.9,409.6,2075.5,434.8z"/>
		<path id="XMLID_488_" class="st0" d="M674.4,268.6c0,0-215,118.8-123.9,120.2l113.3,0.3C663.8,389,657,321.7,674.4,268.6z"/>
		<path id="XMLID_484_" class="st3" d="M2217.1,471.9c-38,4.2-159.5-106.7-159.5-106.7c-46.5-57.6,142.6-28.6,142.6-28.6l4.5,0.6
			C2230.8,371,2241.4,410.6,2217.1,471.9z"/>
		<path id="XMLID_481_" class="st3" d="M877,174.5c54.6-21,286.1-105.2,441.1-85.7c5,0.6,8.4,5.5,7.4,10.4
			c-7.2,34.9-33.3,160.8-48.8,214.4c-2.8,9.6-11.2,16.5-21.2,17.4L860,364.9L835,303l26.4-112C863.8,183.4,869.5,177.3,877,174.5z"
			/>
		<path id="XMLID_478_" class="st3" d="M877,174.5c54.6-21,286.1-105.2,441.1-85.7c5,0.6,8.4,5.5,7.4,10.4
			c-7.2,34.9-33.3,160.8-48.8,214.4c-2.8,9.6-11.2,16.5-21.2,17.4L860,364.9L835,303l26.4-112C863.8,183.4,869.5,177.3,877,174.5z"
			/>
		<path id="XMLID_475_" class="st3" d="M877,174.5c54.6-21,286.1-105.2,441.1-85.7c5,0.6,8.4,5.5,7.4,10.4
			c-7.2,34.9-33.3,160.8-48.8,214.4c-2.8,9.6-11.2,16.5-21.2,17.4L860,364.9L835,303l26.4-112C863.8,183.4,869.5,177.3,877,174.5z"
			/>
		<path id="XMLID_472_" class="st3" d="M877,174.5c54.6-21,286.1-105.2,441.1-85.7c5,0.6,8.4,5.5,7.4,10.4
			c-7.2,34.9-33.3,160.8-48.8,214.4c-2.8,9.6-11.2,16.5-21.2,17.4L860,364.9L835,303l26.4-112C863.8,183.4,869.5,177.3,877,174.5z"
			/>
		<path id="XMLID_469_" class="st6" d="M205.9,769.8c-1,12.4-1.5,25.4-1.6,39c0,0-80.3,21.3-114.5-4.9c0,0-83.7,3.1-85.3-1.3
			l-4.1-23.2c0,0,173.2-2.7,201.7-9.3C203.5,769.7,204.8,769.6,205.9,769.8z"/>
		<path id="XMLID_465_" class="st6" d="M82.5,754.8c0,0-55,25.1-80,21.8c7.2-9.3,28.8-39.7,9.2-41.5c0,0,19.7-128.6,73.2-138.5
			C84.9,596.8,125.7,751.9,82.5,754.8z"/>
		<path id="XMLID_461_" class="st7" d="M82.5,754.8c-11.4-33.9,2.4-158.1,2.4-158.1S125.7,751.9,82.5,754.8z"/>
		<path id="XMLID_458_" class="st5" d="M1750.9,604.7c-23.7-0.4-37.2-50.3-37.2-50.3c3.2-49.7-46.5-39.1-65.7-43.6
			c-309.2-73.4-852.3,21.6-967.7,27.1c-9.5,0.4-89.6,33.9-89.5,35.7C537.4,513.7,454,498.8,402,503.9
			C179.4,525.6,207.8,733,207.8,733s0.7,0.4,2,1.3C247,495.9,459.4,537.8,459.4,537.8C581,559.8,641.7,661,640.5,755.4
			c0.3-3.6,105.7,13.9,116.9,11.3l561.4-3.1l307.6-1.6c0,0,50.1,8.9,75.8-59.7c1.3-3.2,2.4-6.6,3.5-10.2c0,0,20.4-39.9,48.6-78.1
			C1754.2,608.1,1753.1,604.7,1750.9,604.7z"/>
		<path id="XMLID_456_" class="st8" d="M761.5,738.4c0,0,442.3-105.3,795-53.8L761.5,738.4z"/>
		<path id="XMLID_453_" class="st0" d="M139.9,527.4c0,0,166.2,84.6,413.9-151.1l-235.8,45.6C317.9,422,218.7,487.7,139.9,527.4z"/>
		<path id="XMLID_450_" class="st6" d="M2151.2,284c-2.1-0.7-4.4-1.7-6.7-2.7c-115.6-50.7-152-151.8-153.1-155
			C1995.3,130,2126.8,260.7,2151.2,284z"/>
		<path id="XMLID_448_" class="st9" d="M1777.2,66c0,0,31.8-27.4,38.4,5.9L1777.2,66z"/>
		
			<rect id="XMLID_446_" x="1791.5" y="29.5" transform="matrix(0.5789 -0.8154 0.8154 0.5789 744.6035 1504.0436)" class="st9" width="74" height="3.3"/>
		<path id="XMLID_411_" class="st6" d="M2271.5,664.5c-3.4,38.4-12.9,103.7-38.9,110.8c0,0-53.5,13.4-64.1,7.4
			c0,0-1.5-181.8-151.7-223.8c-89.1-24.8-260.3-20.5-277.3,244.6c0,0-1007.6,7.4-1075.2,20.6c0,0-26.6-4-22.4-45.3
			c0,0,0-11.8-1.4-26.1c0,0,904.2-117.6,1061.8-50.2c0,0,81.3-218.1,300.9-174.5c0,0,86.9,12,146.2,91.1c0,0,77.2,65.1,120.2,46.2
			C2270.1,664.8,2270.8,664.6,2271.5,664.5z"/>
		<path id="XMLID_378_" class="st8" d="M332.6,398.6c0,0,226.8-52.7,286.1-98c0,0-143.5,90.5-69,83.1
			c415.3-41.5,1360.2-91,1360.4-88.8C1914,344.3,314,422.6,314,422.6S338.8,414.6,332.6,398.6z"/>
		<path id="XMLID_367_" class="st7" d="M1975.8,95.7c0,0-61,11.6-76.2,24c-4,3.2-9.2,4.3-14.2,3c-34.3-9.1-145.1-36.8-260-45.9
			C1625.5,76.8,1817.4,73.2,1975.8,95.7z"/>
		<path id="XMLID_323_" class="st10" d="M317.8,421.9l-2.2,2.3c-0.8,1-1.6,1.8-2.5,2.7C217.9,526.6,73.6,521,73.6,521
			s-2.9-46.3,39.2-82.3c12-10.4,27.5-19.8,47.8-27.1c3.7-1.4,7.6-2.7,11.5-3.8c0,0,55-10.4,121.9-28.1l0.9,0.3
			C294.8,380.1,365.7,396.7,317.8,421.9z"/>
		<path id="XMLID_316_" class="st7" d="M1702.2,702.4c-25.6,68.6-75.8,59.7-75.8,59.7l-307.6,1.6l-561.4,3.1
			c-11.3,2.6-20.8,3.5-28.8,3l-31.3-24c0,0,801.6-111,999.8-44.9C1698.9,701.5,1700.6,701.9,1702.2,702.4z"/>
		<path id="XMLID_302_" class="st11" d="M1817.9,551.8c-22.3,11.8-44.8,36.7-63.7,62.4c-28.2,38.3-48.6,78.1-48.6,78.1
			c-1.1,3.6-2.2,7-3.5,10.2c-25.6,68.6-75.8,59.7-75.8,59.7l-307.6,1.6l-561.4,3.1c-11.3,2.6-20.8,3.5-28.8,3
			c-48.8-2.4-41.5-52.1-41.5-52.1c-23.7-52-32.7-112.3-34.8-166.9c-3.4-88.5,11.3-162.1,11.3-162.1c69-14.8,376.7-38.4,668.8-58.3
			c296.1-20.2,576.4-36.7,576.4-36.7C1945.5,461.3,1817.9,551.8,1817.9,551.8z"/>
		<path id="XMLID_268_" class="st11" d="M1330.8,333c0,0-46.2,352.9-13.5,426.3"/>
	</g>
	<g id="XMLID_146_">
		<path id="XMLID_243_" class="st12" d="M1908.9,293.8c0,0.6-0.2,1.3-0.6,2.1c-160,6.4-364.6,20-573.2,36
			c-238.3,18.4-482.1,39.9-671.3,57.2l-0.1-0.4c0,0-7.8-127.2,36.9-149.7c0,0,304.5-185.4,684.1-171.7
			c124.6,4.5,479.6,5.4,492.8,76.2C1877.4,143.4,1908.7,267.1,1908.9,293.8z"/>
		<path id="XMLID_240_" class="st3" d="M1431.4,105.5c-8.3,51.3-33.5,207.4-32.9,217.8l377-20.4c0,0,72.1-98.1,54-164.1
			c-2.2-8.1-251.1-50.7-378.6-49.9C1441.2,89,1432.9,96,1431.4,105.5z"/>
		<path id="XMLID_210_" class="st3" d="M719.6,256.3C743,235.9,800.4,211,830,199.2c4.6-1.8,9.4,2,8.7,6.9
			c-4.1,26.5-15.9,99-22.8,103.8c0,0-75,22.6-104.4,5.5C711.6,315.4,703,270.8,719.6,256.3z"/>
		<path id="XMLID_204_" class="st1" d="M821.3,270.9c0,0,31.1,56.2,3.5,80.6c0,0-82,13-84.7-42.7C740.1,308.7,744.4,259,821.3,270.9
			z"/>
		<g id="XMLID_160_">
			<g>
				<defs>
					<path id="SVGID_1_" d="M1431.4,105.5c-8.3,51.3-33.5,207.4-32.9,217.8l377-20.4c0,0,72.1-98.1,54-164.1
						c-2.2-8.1-251.1-50.7-378.6-49.9C1441.2,89,1432.9,96,1431.4,105.5z"/>
				</defs>
				<clipPath id="SVGID_2_">
					<use xlink:href="#SVGID_1_"  style="overflow:visible;"/>
				</clipPath>
				<g id="XMLID_168_" class="st13">
					
						<rect id="XMLID_203_" x="1380.7" y="172.9" transform="matrix(0.6424 -0.7663 0.7663 0.6424 417.3655 1276.7898)" class="st14" width="392.3" height="36.5"/>
					
						<rect id="XMLID_197_" x="1471.8" y="185.5" transform="matrix(0.6424 -0.7663 0.7663 0.6424 423.0638 1359.145)" class="st14" width="392.3" height="81.4"/>
				</g>
			</g>
		</g>
		<path id="XMLID_155_" class="st3" d="M877,174.5c54.6-21,286.1-105.2,441.1-85.7c5,0.6,8.4,5.5,7.4,10.4
			c-7.2,34.9-33.3,160.8-48.8,214.4c-2.8,9.6-11.2,16.5-21.2,17.4L860,364.9L835,303l26.4-112C863.8,183.4,869.5,177.3,877,174.5z"
			/>
		<g id="XMLID_147_">
			<g>
				<defs>
					<path id="SVGID_3_" d="M877,174.5c54.6-21,286.1-105.2,441.1-85.7c5,0.6,8.4,5.5,7.4,10.4c-7.2,34.9-33.3,160.8-48.8,214.4
						c-2.8,9.6-11.2,16.5-21.2,17.4L860,364.9L835,303l26.4-112C863.8,183.4,869.5,177.3,877,174.5z"/>
				</defs>
				<clipPath id="SVGID_4_">
					<use xlink:href="#SVGID_3_"  style="overflow:visible;"/>
				</clipPath>
				<g id="XMLID_149_" class="st15">
					
						<rect id="XMLID_153_" x="804.6" y="212.4" transform="matrix(0.601 -0.7992 0.7992 0.601 233.2279 924.731)" class="st14" width="476.5" height="32.8"/>
					
						<rect id="XMLID_151_" x="925.9" y="188" transform="matrix(0.601 -0.7992 0.7992 0.601 263.2051 1030.9016)" class="st14" width="476.5" height="127.7"/>
				</g>
			</g>
		</g>
	</g>
</g>
</svg>
