<?xml version="1.0" encoding="utf-8"?>
<!-- Generator: Adobe Illustrator 22.0.1, SVG Export Plug-In . SVG Version: 6.00 Build 0)  -->
<svg version="1.1" id="_x3C_Layer_x3E_" xmlns="http://www.w3.org/2000/svg" xmlns:xlink="http://www.w3.org/1999/xlink" x="0px"
	 y="0px" viewBox="0 0 2467.3 1519.8" style="enable-background:new 0 0 2467.3 1519.8;" xml:space="preserve">
<style type="text/css">
	.st0{fill:#EBF2F9;}
	.st1{fill:#D2E4FF;}
	.st2{fill:#F3F9FF;}
	.st3{fill:#E7F1FD;}
	.st4{fill:#163560;}
	.st5{fill:#E37970;}
	.st6{fill:#F1A34F;}
	.st7{fill:#C45446;}
	.st8{fill:#80BDCC;}
	.st9{fill:#5F9AA8;}
	.st10{clip-path:url(#SVGID_2_);}
	.st11{fill:#A8D29F;}
	.st12{fill:#82B378;}
	.st13{fill:#202F4E;}
	.st14{fill:#2B478B;}
	.st15{fill:#EE9849;}
	.st16{clip-path:url(#SVGID_4_);}
	.st17{fill:#AED3FF;}
	.st18{fill:#FFFFFF;}
	.st19{fill:#FFB27D;}
	.st20{fill:#D68D5D;}
	.st21{fill:#1C468A;}
	.st22{fill:#4A75CB;}
	.st23{fill:#739AF0;}
	.st24{fill:#FCA56B;}
</style>
<g>
	<path class="st0" d="M308.7,637.6c97.9-83.5,215.8-586.9,620-324.7c208.8,135.5,560.9-116.3,852.3-29.3
		c267.6,79.9,293.4,343,267.5,428.7c-52.3,173.2,110.5,199,261.5,273.4c236.9,116.7,62.7,526.9-161.1,528.9
		c-223.8,2-1579.5,2.3-1579.5,2.3s-325-5.4-460.2-184.8C-36.3,1138.9,55.9,853.2,308.7,637.6z"/>
	<g>
		<rect x="461.9" y="215.5" class="st1" width="639" height="963.7"/>
		<rect x="524.2" y="276.7" class="st2" width="514.5" height="839.7"/>
		<path class="st3" d="M1038.7,631.1c0,0-72.3-69.2-140.6-69.2c-120,0-184.5,227.2-263.4,178.8c-78.9-48.4-110.6-95.1-110.6-95.1
			v472.5h514.5V631.1z"/>
		<g>
			<g>
				<path class="st4" d="M737.6,576.7L737.6,576.7C737.6,576.7,737.6,576.7,737.6,576.7C737.6,576.7,737.6,576.7,737.6,576.7z"/>
				<g>
					<path class="st4" d="M656.8,608.5L656.8,608.5c4.2-0.2,8.6-0.2,13.1-0.2c0,0,25.2-21.9,54.3-29.3
						C694.3,586.4,656.8,608.5,656.8,608.5z"/>
				</g>
			</g>
			<g>
				
					<ellipse transform="matrix(0.7071 -0.7071 0.7071 0.7071 -277.4133 629.3198)" class="st4" cx="620.9" cy="649.5" rx="26.5" ry="26.5"/>
				<path class="st3" d="M637.4,649.5c0,9.1-7.4,16.4-16.4,16.4c-9.1,0-16.4-7.4-16.4-16.4c0-9.1,7.4-16.4,16.4-16.4
					C630,633.1,637.4,640.5,637.4,649.5z"/>
			</g>
			<g>
				
					<ellipse transform="matrix(0.9993 -3.837597e-02 3.837597e-02 0.9993 -24.3129 32.4342)" class="st4" cx="832.7" cy="649.5" rx="26.5" ry="26.5"/>
				<path class="st3" d="M849.1,649.5c0,9.1-7.4,16.4-16.4,16.4s-16.4-7.4-16.4-16.4c0-9.1,7.4-16.4,16.4-16.4
					S849.1,640.5,849.1,649.5z"/>
			</g>
			<path class="st5" d="M885,624.9v-24.1c0,0-28.3-3.2-45.4-9.4c-39.6-14.6-60.9-14.8-96.9-14.8c-27.3,0-55,18.3-66.8,27.1
				c-4,3-8.8,4.6-13.7,4.7c-43.2,0.9-70,9.6-83.2,15.4c-6.2,2.7-10.2,8.9-10.2,15.7v8.1l0,0c-0.9,0-1.6,0.7-1.6,1.6v13.5
				c0,0.9,0.7,1.6,1.6,1.6l0,0h18.5h7.3c-2.6-4.6-4-9.9-3.8-15.5c0.4-16.1,13.5-29.2,29.6-29.6c17.1-0.4,31,13.3,31,30.3
				c0,5.4-1.4,10.4-3.8,14.8h158.7c-2.6-4.6-4-9.9-3.8-15.5c0.4-16.1,13.5-29.2,29.6-29.6c17.1-0.4,31,13.3,31,30.3
				c0,5.4-1.4,10.4-3.8,14.8h6.3c21.9,0,25-22.4,25.3-33.4C890.9,627.6,888.2,624.9,885,624.9z"/>
			<path class="st4" d="M728.7,580.9c-25,6.3-51.9,28-51.9,28l71.1-1.5c2.8-0.1,5.3-1.7,6.5-4.2l10.9-23.5h-26.4
				C735.4,579.6,732,580,728.7,580.9z"/>
			<path class="st4" d="M769.4,580.2l-10,22.9c-0.8,1.8,0.5,3.7,2.4,3.7c10.1,0,36.5-0.4,51.7-4.2c3.7-0.9,4.9-5.5,2.2-8.1
				C809.6,588.5,796.1,580.2,769.4,580.2z"/>
			<path class="st6" d="M570.5,631.7h10.4c0,0,17-15.9,44.2-20.3C625.1,611.3,574.8,616.9,570.5,631.7z"/>
			<path class="st6" d="M885,624.9h-2.7c-1.5,0-2.9-0.9-3.6-2.3c-1.6-3.4-5.1-9.7-10.4-14.3c-2.1-1.8-0.8-5.1,1.9-5.1H885V624.9z"/>
			<path class="st4" d="M748.6,614.1h-13.8c-0.8,0-1.4-0.6-1.4-1.4l0,0c0-0.8,0.6-1.4,1.4-1.4h13.8c0.8,0,1.4,0.6,1.4,1.4l0,0
				C750,613.4,749.4,614.1,748.6,614.1z"/>
			<path class="st4" d="M809.7,614.1h-13.8c-0.8,0-1.4-0.6-1.4-1.4l0,0c0-0.8,0.6-1.4,1.4-1.4h13.8c0.8,0,1.4,0.6,1.4,1.4l0,0
				C811.1,613.4,810.5,614.1,809.7,614.1z"/>
			<path class="st7" d="M798,623H673.4c-5.2,0-8.3,5.6-5.6,10l8,13.2c1.7,2.9,5.6,3.7,8.3,1.7C694.8,640.4,725.4,624.6,798,623z"/>
		</g>
		<g>
			<g>
				<path class="st4" d="M737.6,378.5L737.6,378.5C737.6,378.5,737.6,378.5,737.6,378.5C737.6,378.5,737.6,378.5,737.6,378.5z"/>
				<g>
					<path class="st4" d="M656.8,410.3L656.8,410.3c4.2-0.2,8.6-0.2,13.1-0.2c0,0,25.2-21.9,54.3-29.3
						C694.3,388.2,656.8,410.3,656.8,410.3z"/>
				</g>
			</g>
			<g>
				<path class="st4" d="M647.4,451.4c0,14.6-11.9,26.5-26.5,26.5c-14.6,0-26.5-11.9-26.5-26.5s11.9-26.5,26.5-26.5
					C635.6,424.9,647.4,436.7,647.4,451.4z"/>
				<circle class="st3" cx="620.9" cy="451.4" r="16.4"/>
			</g>
			<g>
				<path class="st4" d="M859.2,451.4c0,14.6-11.9,26.5-26.5,26.5s-26.5-11.9-26.5-26.5s11.9-26.5,26.5-26.5
					S859.2,436.7,859.2,451.4z"/>
				<circle class="st3" cx="832.7" cy="451.4" r="16.4"/>
			</g>
			<path class="st8" d="M885,426.8v-24.1c0,0-28.3-3.2-45.4-9.4c-39.6-14.6-60.9-14.8-96.9-14.8c-27.3,0-55,18.3-66.8,27.1
				c-4,3-8.8,4.6-13.7,4.7c-43.2,0.9-70,9.6-83.2,15.4c-6.2,2.7-10.2,8.9-10.2,15.7v8.1l0,0c-0.9,0-1.6,0.7-1.6,1.6v13.5
				c0,0.9,0.7,1.6,1.6,1.6l0,0h18.5h7.3c-2.6-4.6-4-9.9-3.8-15.5c0.4-16.1,13.5-29.2,29.6-29.6c17.1-0.4,31,13.3,31,30.3
				c0,5.4-1.4,10.4-3.8,14.8h158.7c-2.6-4.6-4-9.9-3.8-15.5c0.4-16.1,13.5-29.2,29.6-29.6c17.1-0.4,31,13.3,31,30.3
				c0,5.4-1.4,10.4-3.8,14.8h6.3c21.9,0,25-22.4,25.3-33.4C890.9,429.4,888.2,426.8,885,426.8z"/>
			<path class="st4" d="M728.7,382.7c-25,6.3-51.9,28-51.9,28l71.1-1.5c2.8-0.1,5.3-1.7,6.5-4.2l10.9-23.5h-26.4
				C735.4,381.5,732,381.9,728.7,382.7z"/>
			<path class="st4" d="M769.4,382l-10,22.9c-0.8,1.8,0.5,3.7,2.4,3.7c10.1,0,36.5-0.4,51.7-4.2c3.7-0.9,4.9-5.5,2.2-8.1
				C809.6,390.3,796.1,382,769.4,382z"/>
			<path class="st6" d="M570.5,433.5h10.4c0,0,17-15.9,44.2-20.3C625.1,413.2,574.8,418.7,570.5,433.5z"/>
			<path class="st6" d="M885,426.8h-2.7c-1.5,0-2.9-0.9-3.6-2.3c-1.6-3.4-5.1-9.7-10.4-14.3c-2.1-1.8-0.8-5.1,1.9-5.1H885V426.8z"/>
			<path class="st4" d="M748.6,415.9h-13.8c-0.8,0-1.4-0.6-1.4-1.4l0,0c0-0.8,0.6-1.4,1.4-1.4h13.8c0.8,0,1.4,0.6,1.4,1.4l0,0
				C750,415.3,749.4,415.9,748.6,415.9z"/>
			<path class="st4" d="M809.7,415.9h-13.8c-0.8,0-1.4-0.6-1.4-1.4l0,0c0-0.8,0.6-1.4,1.4-1.4h13.8c0.8,0,1.4,0.6,1.4,1.4l0,0
				C811.1,415.3,810.5,415.9,809.7,415.9z"/>
			<path class="st9" d="M798,424.9H673.4c-5.2,0-8.3,5.6-5.6,10l8,13.2c1.7,2.9,5.6,3.7,8.3,1.7C694.8,442.2,725.4,426.4,798,424.9z
				"/>
		</g>
		<g>
			<polygon class="st6" points="545,380.6 554.2,380.6 554.2,360.3 599.4,360.3 599.4,351.3 545,351.3 			"/>
			<polygon class="st6" points="867.9,351.3 867.9,360.3 903.7,360.3 903.7,380.6 912.8,380.6 912.8,351.3 			"/>
			<polygon class="st6" points="903.7,495.9 867.9,495.9 867.9,504.9 912.8,504.9 912.8,473.8 903.7,473.8 			"/>
			<polygon class="st6" points="554.2,473.8 545,473.8 545,504.9 599.4,504.9 599.4,495.9 554.2,495.9 			"/>
		</g>
		<g>
			<polygon class="st6" points="545,578.8 554.2,578.8 554.2,558.5 599.4,558.5 599.4,549.4 545,549.4 			"/>
			<polygon class="st6" points="867.9,549.4 867.9,558.5 903.7,558.5 903.7,578.8 912.8,578.8 912.8,549.4 			"/>
			<polygon class="st6" points="903.7,694.1 867.9,694.1 867.9,703.1 912.8,703.1 912.8,671.9 903.7,671.9 			"/>
			<polygon class="st6" points="554.2,671.9 545,671.9 545,703.1 599.4,703.1 599.4,694.1 554.2,694.1 			"/>
		</g>
		<g>
			<defs>
				<rect id="SVGID_1_" x="524.2" y="277.5" width="514.5" height="839.7"/>
			</defs>
			<clipPath id="SVGID_2_">
				<use xlink:href="#SVGID_1_"  style="overflow:visible;"/>
			</clipPath>
			<g class="st10">
				<g>
					<path class="st4" d="M994,773.6L994,773.6C994,773.6,993.9,773.6,994,773.6C993.9,773.6,994,773.6,994,773.6z"/>
					<g>
						<path class="st4" d="M785.7,855.6L785.7,855.6c10.9-0.4,22.2-0.6,33.9-0.6c0,0,64.9-56.4,140.1-75.5
							C882.4,798.5,785.7,855.6,785.7,855.6z"/>
					</g>
				</g>
				<g>
					
						<ellipse transform="matrix(0.4151 -0.9098 0.9098 0.4151 -469.1822 1192.9564)" class="st4" cx="693.2" cy="961.4" rx="68.3" ry="68.3"/>
					<path class="st3" d="M735.5,961.4c0,23.4-19,42.3-42.3,42.3s-42.3-19-42.3-42.3c0-23.4,19-42.3,42.3-42.3
						S735.5,938,735.5,961.4z"/>
				</g>
				<g>
					
						<ellipse transform="matrix(0.7071 -0.7071 0.7071 0.7071 -316.8417 1157.833)" class="st4" cx="1239.2" cy="961.4" rx="68.3" ry="68.3"/>
					<path class="st3" d="M1281.5,961.4c0,23.4-19,42.3-42.3,42.3c-23.4,0-42.3-19-42.3-42.3c0-23.4,19-42.3,42.3-42.3
						C1262.6,919,1281.5,938,1281.5,961.4z"/>
				</g>
				<path class="st11" d="M1374,897.9v-62.2c0,0-73-8.3-117.2-24.3c-102.2-37.5-157.1-38.2-250-38.2c-70.5,0-141.9,47.2-172.1,69.9
					c-10.2,7.7-22.6,11.9-35.3,12.2c-111.5,2.4-180.4,24.7-214.6,39.7c-16,7-26.4,22.9-26.4,40.5v21l0,0c-2.3,0-4.2,1.9-4.2,4.2
					v34.8c0,2.3,1.9,4.2,4.2,4.2l0,0H606h18.9c-6.6-11.8-10.2-25.5-9.9-40.1c1-41.5,34.9-75.3,76.4-76.2c44-1,80,34.4,80,78.2
					c0,13.8-3.6,26.8-9.9,38.1h409.3c-6.6-11.8-10.2-25.5-9.9-40.1c1-41.5,34.9-75.3,76.4-76.2c44-1,80,34.4,80,78.2
					c0,13.8-3.6,26.8-9.9,38.1h16.3c56.6,0,64.6-57.8,65.1-86.2C1389.2,904.8,1382.4,897.9,1374,897.9z"/>
				<path class="st4" d="M971,784.4c-64.6,16.3-133.8,72.2-133.8,72.2l183.3-3.9c7.2-0.2,13.7-4.4,16.7-10.9l28.1-60.6h-68
					C988.4,781.1,979.6,782.2,971,784.4z"/>
				<path class="st4" d="M1076,782.5l-25.7,59c-2,4.5,1.3,9.6,6.3,9.6c26,0,94.1-1,133.4-10.8c9.4-2.4,12.6-14.2,5.6-21
					C1179.6,804,1144.9,782.5,1076,782.5z"/>
				<path class="st6" d="M563.1,915.4h26.8c0,0,43.8-40.9,114.1-52.5C704,862.9,574.1,877.2,563.1,915.4z"/>
				<path class="st6" d="M1374,897.9h-7.1c-4,0-7.6-2.3-9.3-5.9c-4.1-8.7-13.1-25.1-26.9-36.8c-5.3-4.5-2.1-13.3,4.9-13.3h38.4
					V897.9z"/>
				<path class="st4" d="M1022.4,869.9h-35.6c-2,0-3.6-1.6-3.6-3.6l0,0c0-2,1.6-3.6,3.6-3.6h35.6c2,0,3.6,1.6,3.6,3.6l0,0
					C1025.9,868.3,1024.4,869.9,1022.4,869.9z"/>
				<path class="st4" d="M1179.9,869.9h-35.6c-2,0-3.6-1.6-3.6-3.6l0,0c0-2,1.6-3.6,3.6-3.6h35.6c2,0,3.6,1.6,3.6,3.6l0,0
					C1183.4,868.3,1181.8,869.9,1179.9,869.9z"/>
				<path class="st12" d="M1149.7,893.1H828.5c-13.3,0-21.5,14.5-14.5,25.9l20.7,34c4.5,7.4,14.3,9.4,21.4,4.4
					C883.5,937.8,962.6,897.1,1149.7,893.1z"/>
			</g>
		</g>
		<path class="st13" d="M1038.7,1033.7H582.2c-1.2,0-2.1-0.9-2.1-2.1l0,0c0-1.2,0.9-2.1,2.1-2.1h456.5V1033.7z"/>
		<path class="st1" d="M994.7,525.8c0,8.9-7.2,16.2-16.2,16.2c-8.9,0-16.2-7.2-16.2-16.2c0-8.9,7.2-16.2,16.2-16.2
			C987.5,509.6,994.7,516.9,994.7,525.8z"/>
		<path class="st1" d="M949.6,493.4L949.6,493.4c1.5,1.5,4,1.5,5.5,0l22.8-22.8l23.4,23.4c1.5,1.5,4,1.5,5.5,0l0.6-0.6
			c1.5-1.5,1.5-4,0-5.5L978.5,459l-28.9,28.9C948.1,489.4,948.1,491.9,949.6,493.4z"/>
		<path class="st1" d="M949.6,554.2L949.6,554.2c1.5-1.5,4-1.5,5.5,0l22.8,22.8l23.4-23.4c1.5-1.5,4-1.5,5.5,0l0.6,0.6
			c1.5,1.5,1.5,4,0,5.5l-28.9,28.9l-28.9-28.9C948.1,558.2,948.1,555.7,949.6,554.2z"/>
	</g>
	<path class="st14" d="M1629.7,1470.5v-42.3h66.6c1.8,0,3.3-1.5,3.3-3.3v-6.8c0-1.8-1.5-3.3-3.3-3.3h-66.6v-240.7
		c0-6.8-5.5-12.3-12.3-12.3h-13.2c-6.8,0-12.3,5.5-12.3,12.3v240.7h-66.6c-1.8,0-3.3,1.5-3.3,3.3v6.8c0,1.8,1.5,3.3,3.3,3.3h66.6
		v42.3c-48.2,3.6-86.8,21-97.6,43.4h232.9C1716.5,1491.5,1677.9,1474.2,1629.7,1470.5z"/>
	<path class="st15" d="M1766.6,1144.2H1455c-6.2,0-11.3,5.1-11.3,11.3v62.3c0,6.2,5.1,11.3,11.3,11.3h311.6
		c6.2,0,11.3-5.1,11.3-11.3v-62.3C1778,1149.3,1772.9,1144.2,1766.6,1144.2z"/>
	<g>
		<rect x="1128.4" y="102.7" class="st1" width="639" height="963.7"/>
		<g>
			<defs>
				<rect id="SVGID_3_" x="1190.7" y="164.7" width="514.5" height="839.7"/>
			</defs>
			<use xlink:href="#SVGID_3_"  style="overflow:visible;fill:#F3F9FF;"/>
			<clipPath id="SVGID_4_">
				<use xlink:href="#SVGID_3_"  style="overflow:visible;"/>
			</clipPath>
			<g class="st16">
				
					<rect x="1461.9" y="272.2" transform="matrix(0.7071 -0.7071 0.7071 0.7071 213.1722 1167.9128)" class="st1" width="108.9" height="108.9"/>
				
					<rect x="1294.5" y="7.5" transform="matrix(0.7071 -0.7071 0.7071 0.7071 282.5205 1000.4919)" class="st1" width="108.9" height="303.4"/>
				
					<rect x="1435.5" y="-120.3" transform="matrix(0.7071 -0.7071 0.7071 0.7071 369.4687 1094.2919)" class="st1" width="140.3" height="443"/>
				
					<rect x="1413.8" y="681.8" transform="matrix(0.7071 -0.7071 0.7071 0.7071 -164.2241 1275.6111)" class="st1" width="87.8" height="308.4"/>
				
					<rect x="1368.5" y="171.8" transform="matrix(0.7071 -0.7071 0.7071 0.7071 -46.9878 1181.8319)" class="st17" width="69.1" height="951.6"/>
				
					<rect x="1234.7" y="305.7" transform="matrix(0.7071 -0.7071 0.7071 0.7071 -180.8096 1126.4016)" class="st17" width="69.1" height="951.6"/>
				
					<rect x="1306.8" y="58.1" transform="matrix(0.7071 -0.7071 0.7071 0.7071 171.1587 1040.297)" class="st17" width="69.1" height="510.9"/>
				
					<rect x="1664.4" y="313" transform="matrix(0.9946 -0.1037 0.1037 0.9946 -42.1446 178.7889)" class="st17" width="69.1" height="363.8"/>
				<polygon class="st17" points="2111.4,607.7 2035.7,685.1 1480.3,742.9 1473.1,674.2 				"/>
				
					<rect x="1402.7" y="118.7" transform="matrix(0.7071 0.7071 -0.7071 0.7071 820.8104 -850.6998)" class="st17" width="69.1" height="893.6"/>
				
					<rect x="971.3" y="93.5" transform="matrix(0.7071 0.7071 -0.7071 0.7071 557.6503 -602.2958)" class="st17" width="69.1" height="557.1"/>
				
					<rect x="1566.7" y="863.2" transform="matrix(0.7071 0.7071 -0.7071 0.7071 1164.2992 -844.2945)" class="st17" width="69.1" height="240.1"/>
				<polygon class="st12" points="1451,624.3 1484.2,659.3 1663.7,640.6 1641.9,428.7 				"/>
				
					<rect x="1180.3" y="852.1" transform="matrix(0.7071 -0.7071 0.7071 0.7071 -281.1264 1148.0675)" class="st12" width="130" height="122.6"/>
				
					<rect x="1348.3" y="921.6" transform="matrix(0.7071 -0.7071 0.7071 0.7071 -350.7158 1316.0717)" class="st1" width="130" height="319.7"/>
				
					<rect x="1329.2" y="443.7" transform="matrix(0.7071 -0.7071 0.7071 0.7071 59.283 1114.5242)" class="st1" width="91.6" height="83.9"/>
				
					<rect x="1252.9" y="367.5" transform="matrix(0.7071 -0.7071 0.7071 0.7071 90.872 1038.2592)" class="st1" width="91.6" height="83.9"/>
				
					<rect x="1169.2" y="270.7" transform="matrix(0.7071 -0.7071 0.7071 0.7071 125.5401 954.5634)" class="st1" width="91.6" height="110"/>
				
					<rect x="1023.7" y="703.5" transform="matrix(0.7071 -0.7071 0.7071 0.7071 -218.7035 989.0215)" class="st1" width="121.7" height="110"/>
				
					<rect x="901.4" y="538.3" transform="matrix(0.7071 -0.7071 0.7071 0.7071 -168.0371 866.702)" class="st1" width="121.7" height="195.9"/>
				
					<rect x="1111" y="373.3" transform="matrix(0.7071 -0.7071 0.7071 0.7071 -39.5791 974.6933)" class="st1" width="91.6" height="323.7"/>
				<polygon class="st1" points="1781.9,938.8 1601.9,758.8 1998.4,722.3 				"/>
				<polygon class="st1" points="1770.4,625.1 1737.3,338.3 1789.7,286 2092.1,588.4 				"/>
			</g>
		</g>
		<path class="st6" d="M1211.1,52c-56,0-101.5,45.4-101.5,101.5c0,56,101.5,156.8,101.5,156.8s101.5-100.7,101.5-156.8
			C1312.6,97.4,1267.2,52,1211.1,52z M1211.1,213.5c-38,0-68.8-30.8-68.8-68.8c0-38,30.8-68.8,68.8-68.8s68.8,30.8,68.8,68.8
			C1280,182.7,1249.1,213.5,1211.1,213.5z"/>
		<path class="st5" d="M1680.4,551.7c-56,0-101.5,45.4-101.5,101.5c0,56,101.5,156.8,101.5,156.8s101.5-100.7,101.5-156.8
			C1781.9,597.2,1736.4,551.7,1680.4,551.7z M1680.4,713.3c-38,0-68.8-30.8-68.8-68.8s30.8-68.8,68.8-68.8c38,0,68.8,30.8,68.8,68.8
			S1718.4,713.3,1680.4,713.3z"/>
		<g>
			<path class="st18" d="M1298.2,279.5c-1.3,0-2.7-0.5-3.7-1.5l-4.4-4.4c-2-2-2-5.3,0-7.4c2-2,5.3-2,7.4,0l4.4,4.4c2,2,2,5.3,0,7.4
				C1300.8,279,1299.5,279.5,1298.2,279.5z"/>
			<path class="st18" d="M1303.7,285c-1.3,0-2.7-0.5-3.7-1.5l-5.5-5.5c-2-2-2-5.3,0-7.4c2-2,5.3-2,7.4,0l5.5,5.5c2,2,2,5.3,0,7.4
				C1306.3,284.5,1305,285,1303.7,285z"/>
			<path class="st18" d="M1488.9,470.3c-1.3,0-2.7-0.5-3.7-1.5l-13.7-13.7c-2-2-2-5.3,0-7.4c2-2,5.3-2,7.4,0l13.7,13.7
				c2,2,2,5.3,0,7.4C1491.6,469.7,1490.2,470.3,1488.9,470.3z M1458,439.4c-1.3,0-2.7-0.5-3.7-1.5l-13.7-13.7c-2-2-2-5.3,0-7.4
				c2-2,5.3-2,7.4,0l13.7,13.7c2,2,2,5.3,0,7.4C1460.7,438.9,1459.4,439.4,1458,439.4z M1427.1,408.5c-1.3,0-2.7-0.5-3.7-1.5
				l-13.7-13.7c-2-2-2-5.3,0-7.4c2-2,5.3-2,7.4,0l13.7,13.7c2,2,2,5.3,0,7.4C1429.8,408,1428.5,408.5,1427.1,408.5z M1396.3,377.6
				c-1.3,0-2.7-0.5-3.7-1.5l-13.7-13.7c-2-2-2-5.3,0-7.4c2-2,5.3-2,7.4,0l13.7,13.7c2,2,2,5.3,0,7.4
				C1398.9,377.1,1397.6,377.6,1396.3,377.6z M1365.4,346.8c-1.3,0-2.7-0.5-3.7-1.5l-13.7-13.7c-2-2-2-5.3,0-7.4c2-2,5.3-2,7.4,0
				l13.7,13.7c2,2,2,5.3,0,7.4C1368.1,346.3,1366.7,346.8,1365.4,346.8z M1334.5,315.9c-1.3,0-2.7-0.5-3.7-1.5l-13.7-13.7
				c-2-2-2-5.3,0-7.4c2-2,5.3-2,7.4,0l13.7,13.7c2,2,2,5.3,0,7.4C1337.2,315.4,1335.9,315.9,1334.5,315.9z"/>
			<path class="st18" d="M1506,496.3c-1.3,0-2.7-0.5-3.7-1.5c-2-2-2-5.3,0-7.4l0.7-0.7l-0.7-0.7c-2-2-2-5.3,0-7.4c2-2,5.3-2,7.4,0
				l4.4,4.4c2,2,2,5.3,0,7.4l-4.4,4.4C1508.7,495.7,1507.4,496.3,1506,496.3z"/>
			<path class="st18" d="M1500.3,502c-1.3,0-2.7-0.5-3.7-1.5c-2-2-2-5.3,0-7.4l5.8-5.8c2-2,5.3-2,7.4,0c2,2,2,5.3,0,7.4l-5.8,5.8
				C1502.9,501.5,1501.6,502,1500.3,502z"/>
			<path class="st18" d="M1403.1,599.2c-1.3,0-2.7-0.5-3.7-1.5c-2-2-2-5.3,0-7.4l14.4-14.4c2-2,5.3-2,7.4,0c2,2,2,5.3,0,7.4
				l-14.4,14.4C1405.8,598.7,1404.5,599.2,1403.1,599.2z M1435.5,566.8c-1.3,0-2.7-0.5-3.7-1.5c-2-2-2-5.3,0-7.4l14.4-14.4
				c2-2,5.3-2,7.4,0c2,2,2,5.3,0,7.4l-8.6,8.6l0,0l-5.8,5.8C1438.2,566.3,1436.8,566.8,1435.5,566.8z M1467.9,534.4
				c-1.3,0-2.7-0.5-3.7-1.5c-2-2-2-5.3,0-7.4l14.4-14.4c2-2,5.3-2,7.4,0c2,2,2,5.3,0,7.4l-14.4,14.4
				C1470.6,533.9,1469.2,534.4,1467.9,534.4z"/>
			<path class="st18" d="M1385.1,626c-1.3,0-2.7-0.5-3.7-1.5l-4.4-4.4c-1-1-1.5-2.3-1.5-3.7c0-1.4,0.5-2.7,1.5-3.7l4.4-4.4
				c2-2,5.3-2,7.4,0c2,2,2,5.3,0,7.4l-0.7,0.7l0.7,0.7c2,2,2,5.3,0,7.4C1387.8,625.5,1386.5,626,1385.1,626z"/>
			<path class="st18" d="M1391.1,632c-1.3,0-2.7-0.5-3.7-1.5l-6-6c-2-2-2-5.3,0-7.4c2-2,5.3-2,7.4,0l6,6c2,2,2,5.3,0,7.4
				C1393.8,631.5,1392.4,632,1391.1,632z"/>
			<path class="st18" d="M1626.9,867.8c-1.3,0-2.7-0.5-3.7-1.5l-15-15c-2-2-2-5.3,0-7.4c2-2,5.3-2,7.4,0l15,15c2,2,2,5.3,0,7.4
				C1629.5,867.3,1628.2,867.8,1626.9,867.8z M1593.2,834.1c-1.3,0-2.7-0.5-3.7-1.5l-15-15c-2-2-2-5.3,0-7.4c2-2,5.3-2,7.4,0l15,15
				c2,2,2,5.3,0,7.4C1595.9,833.6,1594.5,834.1,1593.2,834.1z M1559.5,800.4c-1.3,0-2.7-0.5-3.7-1.5l-15-15c-2-2-2-5.3,0-7.4
				c2-2,5.3-2,7.4,0l15,15c2,2,2,5.3,0,7.4C1562.2,799.9,1560.9,800.4,1559.5,800.4z M1525.8,766.7c-1.3,0-2.7-0.5-3.7-1.5l-15-15
				c-2-2-2-5.3,0-7.4c2-2,5.3-2,7.4,0l15,15c2,2,2,5.3,0,7.4C1528.5,766.2,1527.2,766.7,1525.8,766.7z M1492.2,733
				c-1.3,0-2.7-0.5-3.7-1.5l-15-15c-2-2-2-5.3,0-7.4c2-2,5.3-2,7.4,0l15,15c2,2,2,5.3,0,7.4C1494.8,732.5,1493.5,733,1492.2,733z
				 M1458.5,699.4c-1.3,0-2.7-0.5-3.7-1.5l-15-15c-2-2-2-5.3,0-7.4c2-2,5.3-2,7.4,0l15,15c2,2,2,5.3,0,7.4
				C1461.1,698.9,1459.8,699.4,1458.5,699.4z M1424.8,665.7c-1.3,0-2.7-0.5-3.7-1.5l-15-15c-2-2-2-5.3,0-7.4c2-2,5.3-2,7.4,0l15,15
				c2,2,2,5.3,0,7.4C1427.5,665.2,1426.1,665.7,1424.8,665.7z"/>
		</g>
	</g>
	<g>
		<polygon class="st19" points="1991,1403.2 1976,1466.3 1953.5,1466.2 1952.7,1403.2 		"/>
		<polygon class="st19" points="1802,1405.9 1759.4,1466.3 1742.7,1445 1768.4,1397.6 		"/>
		<path class="st4" d="M1913,573.2c7.8-4.4,17-4.9,23.5-4.5c-1.7-1.7-5-2.4-5-2.4c4-0.6,13,3.4,13,3.4c56.1-21.6,64.9,61,63.7,80.1
			c-1.2,19.2,18.8,25.4,48,40.6c55.7,28.8,60.5,67.4,60.5,67.4c-0.4,0.3-0.9,0.5-1.4,0.9c-2.8-4.7-8.4-13.5-13.2-14.8
			c0.2,0.4,5.7,12.1,7.7,18.8c-16.4,12.5-47.1,40.2-68.5,59.8c0.1-3.8-0.1-9.3-1.5-12.2l-2.6,15.9c-11.5,10.5-19.4,17.9-19.4,17.9
			c1.4-15.5-70.1-97.3-107.4-121.8c-9.1-13.4-12.3-37-12.6-38.9c1.6,18.7,4.8,29.2,7.6,35.1C1874,689.7,1892.4,584.9,1913,573.2z"/>
		<path class="st19" d="M1912.7,723.7c-0.2,0.1,18,9.5,31.7,5.8c12.9-3.5,21.3-20.2,21.1-20.2c-5.5-1.1-7-8.6-6.9-40.8l-2.5,0.5
			l-41.5,8.2c0,0,0.9,13,1,25.3C1915.7,712.8,1915.1,722.5,1912.7,723.7z"/>
		<path class="st11" d="M1959.6,586.7c0,0-20.5-21.8-46.1-1.1C1913.5,585.6,1928.4,583,1959.6,586.7z"/>
		<path class="st20" d="M1914.7,677.1c0,0,0.9,13,1,25.3c23.2-0.7,35.5-21.8,40.5-33.5L1914.7,677.1z"/>
		<path class="st4" d="M1960.5,664.4c0,0,12.2-19.2,15.1-35.6c2.1-11.7-3.9-55.2-47.6-48.9c0,0-12.7,1.3-24.6,9.3
			c-9.5,6.4-23.2,20.2-7.9,58.2l4,12.8L1960.5,664.4z"/>
		<path class="st21" d="M1749.5,1428.4l22,0.7l23.8,0.7c0,0,54.9-61.2,85.8-159.2c0.7-2.3,1.5-4.6,2.3-6.9
			c16.9-49.2,51.8-110.9,70.3-166.8c2.9-8.9,5.6-17.3,7.9-25.2c0.8-2.5,1.5-5,2.2-7.5c13.6-47.2,17.5-78.2,21.1-111.3l-133,1.1
			C1851.8,954,1830.3,1180,1749.5,1428.4z"/>
		<path class="st3" d="M1870.4,877.6c0.3,63.3-9.3,90.5-9.3,90.5s57,28.9,124.7,7.6c0.8-0.3,56.1-12.9,56.1-12.9
			c-1.1-2.6-11.2-45.2-12.3-47.6c-14.3-30.7-25.1-44.2-26.8-53.6c-3.1-17.6-3.2-35.8-1.6-53c4.1-45.5,16.4-83.3,16.4-83.3
			c-18.4-4.2-36.2-11.4-55.4-18.6c-4.4,5.5-17.4,11.1-29.2,10.8c-13.5-0.3-17.7-6-17.2-12.4c-14.4,8-25.8,15.6-25.8,15.6
			c-12.2,21.2-37,41.8-38.8,74.4C1850.7,803.1,1870.4,875.8,1870.4,877.6z"/>
		<path class="st9" d="M1984.8,884.6c5.8,8.2,17,58.3,44.7,64.6c-14.3-35.7-25.1-51.3-26.8-62.3c-3.1-20.5-3.2-41.6-1.6-61.6
			c-9.3-16.3-16.2-27.4-16.2-27.4c-0.7-2.6-14.8-46-19.3-7.2C1961.1,829.4,1978.3,875.4,1984.8,884.6z"/>
		<path class="st19" d="M1907,688.7c0,0,54.9,0.9,54.9-33.3c0-34.2,7.1-57.1-27.9-59.1c-35-2-41.9,11-44.7,22.4
			C1886.6,630.2,1892.7,687.6,1907,688.7z"/>
		<path class="st4" d="M1891,599.8c8.5-10.3,14.9-8,18.5-5c11.9-17.7,49.3,7.9,49.3,7.9c3.7,24.5,21.4,38.6,21.4,38.6
			s-10,6.2-33.1,0.2c-18.1-4.7-31.3-30.5-36.1-41.3c-3.3,2.9-10.2,9.6-12.2,16.2c-2.7,8.7-4,26.6-9.2,26
			C1889.6,642.4,1878.3,615.2,1891,599.8z"/>
		<path class="st19" d="M1976.7,1462.8c0,0-1.8,12.5,2.9,25.9c0,0,3.7,16.8-12.8,17.1c-16.5,0.3-20.5-1.2-18.7-11.5
			c1.9-10.3,5.4-28,5.4-28L1976.7,1462.8z"/>
		<path class="st12" d="M1946.5,1514C1946.5,1514,1946.6,1514,1946.5,1514l34.2,0c0,0,0.1,0,0.1,0c1.9-8.8-1.2-25.3-1.2-25.3
			c-18.7,17.9-30.4-0.4-30.4-0.4C1946.2,1495.9,1946.5,1514,1946.5,1514z"/>
		<path class="st19" d="M1703,1496.7c0,0,30.4-34.5,39.8-51.7l22.6,11.6l-50.6,47.5l-11.8-1.6L1703,1496.7z"/>
		<path class="st12" d="M1684.3,1513.9h42.2c3.7-3.3,7.3-10.1,11.6-18.9c2.5-5.1,8.1-7.9,13.8-9.4v28.3h8.7l8.1-30.1
			c5.4-10.1,1.3-19.4-2.4-27.3c-4.4,0-17.2,3.2-39.7,29c-7.4,8.5-15.5,11.5-23.6,11.3c-0.1,0.1-0.2,0.1-0.3,0.2
			C1689.8,1502.8,1685.7,1510,1684.3,1513.9z"/>
		<path class="st11" d="M1686.4,745.5c0,0,36,20.1,48.9,26c4.6,2.1,12.9,5.9,21.3,9.9c5.1,2.4,10.3,4.8,14.8,6.9
			c7.6,3.6,16.6,1.6,22-4.7c19.5-22.8,70-72.1,122.1-78.3l0.2-0.1c0,0,0,0,0,0.1c0,0,0,0,0.1,0l-0.3,0.6
			c-2.9,7.3-31.5,78.7-32.4,93.8c-0.9,15.9-3.7,259.6-3.7,259.6s1.9,11.2-19.6,6.5c-21.5-4.7-27.1-9.3-27.1-9.3
			s20.5-150.4,14.9-202.6c-1.1-10.3-0.1-21.8,2.2-33.7c-31.8,19.2-69.2,27.8-69.2,27.8s-14-6.1-35.7-19.5
			c-9.1-5.7-19.7-14.7-30.1-24.2c-12.6-11.5-34.2-39.3-34.2-39.3L1686.4,745.5z"/>
		<path class="st4" d="M1771.5,1429.1l23.8,0.7c0,0,54.9-61.2,85.8-159.2c0.7-2.3,1.5-4.6,2.3-6.9c16.9-49.2,51.8-110.9,70.3-166.8
			c2.9-8.9,5.6-17.3,7.9-25.2c0.8-2.5,1.5-5,2.2-7.5l-19.6-14.9c0,0-58.8,95.3-77,184.9C1851.2,1312.1,1787.9,1405.8,1771.5,1429.1z
			"/>
		<path class="st21" d="M1942,1242.6c-0.3,43.6,1.9,143.8,7.5,185.3h21.1c11.6,0,17.5-0.2,17.5-0.2c14.2-72.1,24.4-131.8,31.8-183.3
			c6.1-42.2,11.4-78.4,15.6-109.6c4.2-31.3,7.1-57.6,8.1-79.8c0.2-3.5,0.3-6.9,0.3-10.2c0.1-3.3,0.1-6.5,0.1-9.7l-115-11.2
			C1930.4,1100.4,1942.2,1217.2,1942,1242.6z"/>
		<path class="st4" d="M1970.6,1427.9c11.6,0,17.5-0.2,17.5-0.2c14.2-72.1,24.4-131.8,31.8-183.3c6.1-42.2,11.4-78.4,15.6-109.6
			c4.2-31.3,7.1-57.6,8.1-79.8l-42.2,24.8c0,0,26.9,9.5,16.7,81.4C2007.7,1233.2,1984.9,1417.7,1970.6,1427.9z"/>
		<path class="st11" d="M1965.2,1054.4c0,0,8.1,29.3,36.1,25.5c28-3.7,67.9-20.5,67.9-20.5s-12-37.8-26.9-87.5
			c-18-60.2-40.3-137.7-50.8-186.7c-3-13.7-5-25.2-5.7-33.4l-23.7-45.1c0,0-34.2,77.8-36,97.4
			C1924.1,823.7,1965.2,1054.4,1965.2,1054.4z"/>
		<path class="st19" d="M1865.2,826c13.5,1.8,18.7,8.9,20.3,18.6c0.9,5.2,3.6,10.4,5.9,14c13.4,0.7,45.4,2.5,72.3,4.2l2.2,35.2
			c-22.1-2.7-49.2-8.3-80.4-19c-2.4-0.4-5.4-1.9-9.2-5c-19.3-15.8-30.3-42.4-30.4-46.2C1845.9,824,1851.7,824.2,1865.2,826z"/>
		<path class="st12" d="M1966.5,845.2c1.3,31.8,8.7,93.4,75.3,126.4c0.2,0.1,0.4,0.2,0.5,0.3c-18-60.2-40.3-137.7-50.8-186.7
			C1979.2,803.5,1965.8,827.7,1966.5,845.2z"/>
		<path class="st11" d="M1962,706.7c0,0,57,4,70.7,34.5c13.7,30.5,18.1,132,0.6,161.9c0,0-24,6.8-66.4-1.1c-0.5-0.1-1-0.2-1.6-0.3
			c0,0-13.5-33.2-1.4-39.7c0,0,35.8,1.9,32.1-10C1992.2,840.2,1962,706.7,1962,706.7z"/>
		<g>
			<path class="st19" d="M1647.7,721.5c30.7-3.9,38.4,23.9,38.4,23.9l-5.7,19.2c-9.4,1.3-17.7-1.2-25.3-12.1
				c-7.6-10.9-9.7-6.7-14.6-14.8C1633.9,726.7,1644.2,722.6,1647.7,721.5z"/>
			<path class="st19" d="M1735.3,771.4c4.6,2.1,12.9,5.9,21.3,9.9c-4.5,8-10.2,22.7-11.7,46.9c-9.1-5.7-20.9-15.1-31-24.9
				c-16.2-15.9-33.3-38.6-33.3-38.6l5.7-19.1C1686.4,745.5,1722.4,765.6,1735.3,771.4z"/>
		</g>
	</g>
	<g>
		<path class="st22" d="M468.9,671.8c0,0-74.8,77.2-78.3,106.3c-3.6,29.1,35.6,74.6,35.6,74.6L468.9,671.8z"/>
		<path class="st4" d="M500.8,1472.3c0,0,2.5,41,10.5,41.6c1.1,0.1,40.3,0.1,40.3,0.1h50c0,0-0.3-12.3-15-14.9
			c-14.6-2.5-39.1-12.8-48-32.2C529.3,1446.6,500.8,1472.3,500.8,1472.3z"/>
		<path class="st4" d="M389.4,1472.3c0,0,2.5,41,10.5,41.6c1.1,0.1,40.3,0.1,40.3,0.1l50.2-0.2c0,0-0.5-12.2-15.1-14.7
			c-14.6-2.5-39.1-12.8-48-32.2C417.9,1446.6,389.4,1472.3,389.4,1472.3z"/>
		<path class="st9" d="M556.2,1032.4c0,0-13.1,83.7-61.9,232.3c-48.8,148.6-55.5,212.9-55.5,212.9s-13.2,1.9-27.2,1.9
			c-8.8,0-25.2-3.4-25.2-3.4s-0.4-162.4,22.1-237.1c22.5-74.7,4.9-269.4,4.9-269.4L556.2,1032.4z"/>
		<path class="st8" d="M581.7,974.3c0,0,1.9,126.1-20,281c-21.8,154.9-14.4,220.6-14.4,220.6s-18,3.2-24.3,3.4
			c-6.8,0.2-28-1.7-28-1.7s-31.2-154.9-22.3-232.4c9-77.5-42.8-266-42.8-266L581.7,974.3z"/>
		<path class="st19" d="M480.5,679.1l24.7,18.3l35.6-7.5c-0.5-3.2-2.8-16.7-5-28.9c-0.1-0.7-0.3-1.4-0.4-2.1
			c-1.8-10.4-3.4-19.3-3.4-19.3l-33.3-16.6l-12.4-6.2c0,0.2,1,11.5,1.1,13.2C489.8,659.2,480.5,679.1,480.5,679.1z"/>
		<path class="st22" d="M538.3,669.9c-0.8-0.3-48.5-14.4-53.6-12.7c-5.2,1.7-8.2,11.7-8.2,11.7l78,17.6
			C554.4,686.6,548.3,674.1,538.3,669.9z"/>
		<path class="st23" d="M409.9,989.9c8.1,36.9,142.6,41.2,177.3,7.8c3.9-3.8,4.1-21.6,2.7-45.5c-2.9-46.8-12.3-117.1-12.6-153
			c-0.2-17.4-2.6-35.1-5.7-51.2c-6.8-34.4-17.1-61.3-17.1-61.3s-65.7-21.2-78-17.6C417.2,686.4,401.8,953,409.9,989.9z"/>
		<path class="st22" d="M589.8,952.1c-2.9-46.8-12.3-117.1-12.6-153c-0.2-17.4-2.6-35.1-5.7-51.2l-39.5-7
			C532,740.9,493.3,898.8,589.8,952.1z"/>
		<path class="st19" d="M568.4,887c0,0-2.7,6.4,3,10.8c5.7,4.3,9.3,11.3,8,16.4c-1.3,5.1-13.7,13.5-18,12.1
			c-4.3-1.3-13.1-8.1-12.1-10.8c0.9-2.7-5.9-23.7,4.6-31.8C564.4,875.6,568.4,887,568.4,887z"/>
		<path class="st23" d="M524.2,677.1c0,0,38.5,7.2,69.3,52.5c30.7,45.3,50.9,78.9,45.3,95.2c-5.7,16.3-57.2,72.9-66.1,72.9
			c-8.9,0-23.2-6.5-24-21c0,0,36.3-54.4,29.2-62.6c-3.1-3.5-47.1-39.3-53.4-23.1C513.9,817.8,524.2,677.1,524.2,677.1z"/>
		<path class="st24" d="M489.9,630.4c7.3,14,34.5,26.1,45.9,30.5c-0.1-0.7-0.3-1.4-0.4-2.1c-1.8-10.4-3.4-19.3-3.4-19.3l-33.3-16.6
			C491.4,622.8,486.9,624.7,489.9,630.4z"/>
		<path class="st19" d="M542.7,640.3c0,0-49.3,15.4-58.4-15.5c-9.1-30.8-21.6-49.6,9.5-60.7c31.1-11.1,40.7-1.2,46.2,8.4
			C545.6,582.1,555.3,635.5,542.7,640.3z"/>
		<path class="st4" d="M538.2,569.5c0,0-3.1,35.9-10.6,34.3c-7.4-1.6-14.1-2.7-13.1,8.1c1.1,10.8,11.4,23.3-11.5,25.2
			c-22.9,1.9-55.7-57-49.4-68.2C471.7,536.7,564.3,530.2,538.2,569.5z"/>
	</g>
	<path class="st13" d="M2274,1519.8H189.3c-1.6,0-3-1.3-3-3l0,0c0-1.6,1.3-3,3-3H2274c1.6,0,3,1.3,3,3l0,0
		C2276.9,1518.4,2275.6,1519.8,2274,1519.8z"/>
</g>
</svg>
