<?xml version="1.0" encoding="utf-8"?>
<!-- Generator: Adobe Illustrator 22.0.1, SVG Export Plug-In . SVG Version: 6.00 Build 0)  -->
<svg version="1.1" id="Layer_1" xmlns="http://www.w3.org/2000/svg" xmlns:xlink="http://www.w3.org/1999/xlink" x="0px" y="0px"
	 viewBox="0 0 1536.2 962.8" style="enable-background:new 0 0 1536.2 962.8;" xml:space="preserve">
<style type="text/css">
	.st0{fill:#EAF2FB;}
	.st1{fill:#F5FAFD;}
	.st2{fill:#C4E0F5;}
	.st3{fill:#D3E8F8;}
	.st4{fill:#DFEDF9;}
	.st5{fill:#A8C9E5;}
	.st6{fill:#A7C3E6;}
	.st7{fill:#B2CBEA;}
	.st8{fill:#C9DBF1;}
	.st9{fill:#D2E3F5;}
	.st10{fill:#ABD19A;}
	.st11{fill:#9AC184;}
	.st12{opacity:0.26;fill:#283250;enable-background:new    ;}
	.st13{fill:#FAB599;}
	.st14{fill:#D96A27;}
	.st15{fill:#F7911E;}
	.st16{fill:#FAA31C;}
	.st17{fill:#F8991D;}
	.st18{fill:#D36660;}
	.st19{fill:#2E3B65;}
	.st20{fill:#F8A081;}
	.st21{fill:#729CD2;}
	.st22{fill:#5074B9;}
	.st23{fill:#2E3652;}
	.st24{fill:#E57970;}
	.st25{fill:#D5E3EE;}
	.st26{fill:#EFF8FD;}
	.st27{fill:#ECF2FA;}
	.st28{fill:#CBDDEE;}
</style>
<g>
	<path class="st0" d="M1451.3,961l-1291.7-1.5c0,0-91.8-137.1-84.5-266.5c0.7-12.8,2.3-25.5,5.1-37.9c8.9-39.8,29.6-77.4,67.9-108.3
		c1.3-1.1,2.7-2.2,4.1-3.3c55.4-42.8,110.5-15.9,159.4-61.5c18.5-17.3,36.2-45,52.6-90.8c71.6-199.5,332-261,527.3-124.5
		c109.5,76.4,86.4,164.2,251.8,192.9c136.2,23.7,101.8,173.5,186.3,161C1517.7,592.6,1561.7,842.6,1451.3,961z"/>
	<path class="st1" d="M755.4,631.1c0,0,52.8-52.9,179.3-40.9c0,0,34.8-46.7,137.4-45.4c142.9,1.8,151,55.4,151,55.4
		s64.9-18.9,96.6,30.8L755.4,631.1L755.4,631.1z"/>
	<path class="st2" d="M903.5,349.6H607.4c1.3-1.1,2.7-2.2,4.1-3.3c55.4-42.8,110.5-15.9,159.4-61.5c41.7,14.9,45.1,36.9,45.1,36.9
		S874.8,304.5,903.5,349.6z"/>
	<g>
		<rect x="1208.7" y="760.9" class="st3" width="241.3" height="198.7"/>
		<polygon class="st3" points="960.2,582.7 960.2,777.9 858.1,777.9 858.1,845.3 799.8,845.3 799.8,959.5 858.1,959.5 904.8,959.5 
			960.2,959.5 1099.3,959.5 1126,959.5 1126,582.7 		"/>
		<g>
			<g>
				<rect x="1305.2" y="474.4" class="st3" width="92.9" height="486.6"/>
				<rect x="1283" y="474.4" class="st4" width="92.9" height="486.6"/>
			</g>
			<rect x="1283" y="474.4" class="st3" width="92.9" height="53.8"/>
			<rect x="1283" y="566.6" class="st3" width="92.9" height="53.8"/>
			<rect x="1283" y="658.8" class="st3" width="92.9" height="53.8"/>
			<rect x="1283" y="751" class="st3" width="92.9" height="53.8"/>
			<rect x="1283" y="843.2" class="st3" width="92.9" height="53.8"/>
		</g>
		<g>
			<rect x="1172.8" y="388.1" class="st3" width="92.9" height="572.9"/>
			<g>
				<rect x="1150.6" y="388.1" class="st4" width="92.9" height="572.9"/>
				<rect x="1150.6" y="388.1" class="st3" width="92.9" height="53.8"/>
				<rect x="1150.6" y="476.9" class="st3" width="92.9" height="53.8"/>
				<rect x="1150.6" y="565.8" class="st3" width="92.9" height="53.8"/>
				<rect x="1150.6" y="654.6" class="st3" width="92.9" height="53.8"/>
				<rect x="1150.6" y="743.3" class="st3" width="92.9" height="53.8"/>
				<rect x="1150.6" y="832.2" class="st3" width="92.9" height="53.8"/>
			</g>
		</g>
		<g>
			<rect x="1057.8" y="653.9" class="st3" width="92.9" height="307.1"/>
			<rect x="1011.3" y="653.9" class="st4" width="92.9" height="307.1"/>
			<g>
				<rect x="1023.6" y="670.4" class="st3" width="67.2" height="11.1"/>
				<rect x="1023.6" y="702.1" class="st3" width="67.2" height="11.1"/>
				<rect x="1023.6" y="733.8" class="st3" width="67.2" height="11.1"/>
				<rect x="1023.6" y="765.5" class="st3" width="67.2" height="11.1"/>
				<rect x="1023.6" y="797.2" class="st3" width="67.2" height="11.1"/>
				<rect x="1023.6" y="828.9" class="st3" width="67.2" height="11.1"/>
				<rect x="1023.6" y="860.5" class="st3" width="67.2" height="11.1"/>
				<rect x="1023.6" y="892.2" class="st3" width="67.2" height="11.1"/>
				<rect x="1023.6" y="923.9" class="st3" width="67.2" height="11.1"/>
			</g>
		</g>
	</g>
	<path class="st5" d="M19.4,959.6c0,0,40.5-66.5,154.6-56.4c114.2,10.1,163.3-23.1,219.7-18.8c56.4,4.4,93.3,31.2,172.4-5.4
		s180.2-27.9,216.4,9.7c36.1,37.6,75.6,71.6,75.6,71.6L19.4,959.6z"/>
	<g>
		<path class="st6" d="M237.1,25.5h-8.8l0.1-0.7L231,1.4c0.1-0.8,0.7-1.3,1.5-1.3c0.1,0,0.2,0,0.3,0c0.5,0.1,1,0.3,1.3,0.6
			c0.4,0.4,0.7,0.9,0.8,1.5L237.1,25.5z"/>
		<path class="st7" d="M229.1,20.2h-0.3L231,1.3c0.1-0.8,0.7-1.3,1.5-1.3c0.1,0,0.2,0,0.3,0c0.1,0.1,0.2,0.1,0.2,0.2
			c0.4,0.4,0.6,1,0.6,1.6l0.1,13.6C233.8,18,231.7,20.1,229.1,20.2z"/>
		<rect x="225.7" y="130.1" class="st6" width="17" height="750.2"/>
		<rect x="225.7" y="130.1" class="st7" width="7.9" height="750.2"/>
		<rect x="207.2" y="760.6" class="st6" width="54.1" height="198.5"/>
		<rect x="207.2" y="760.6" class="st7" width="32.2" height="198.5"/>
		<path class="st6" d="M263.8,36.9c0,9.3-13.9,16.8-31.1,16.8c-1.3,0-2.6-0.1-3.9-0.1c-15.4-1-27.2-8.1-27.2-16.6
			s11.9-15.6,27.2-16.6c1.3-0.1,2.5-0.1,3.9-0.1C249.9,20.1,263.8,27.6,263.8,36.9z"/>
		<path class="st7" d="M247.7,36.9c0,7.4-7.7,13.9-18.9,16.6c-15.4-1-27.2-8.1-27.2-16.6s11.9-15.6,27.2-16.6
			C239.9,23,247.7,29.4,247.7,36.9z"/>
		<polygon class="st7" points="261.2,144.9 207.1,144.9 188,53.1 277.3,53.1 		"/>
		<rect x="183.2" y="46.2" class="st6" width="99" height="8.8"/>
		<rect x="183.2" y="46.2" class="st7" width="62.3" height="8.8"/>
		<path class="st6" d="M216,760.6h34.6l-5.1-15.4c-0.4-1.3-1.7-2.3-3.1-2.3h-16.2c-1.8,0-3.3,1.1-4,2.7L216,760.6z"/>
		<polygon class="st8" points="194.4,57.5 270.7,57.5 255.8,140.1 212,140.1 		"/>
		<path class="st8" d="M203.7,37.9c0,0,5.8-12.7,17.3-12.3c0,0-7.3,6.5-6.7,12.3S203.7,37.9,203.7,37.9z"/>
		<polygon class="st6" points="275.9,46.2 189.5,46.2 196.6,36.1 269.2,36.1 		"/>
		<polygon class="st7" points="254.6,46.2 189.5,46.2 196.6,36.1 247.9,36.1 		"/>
		<polygon class="st9" points="199.5,60.4 217,60.4 222,137.5 217,137.5 		"/>
	</g>
	<path class="st10" d="M533.1,871.7c23.2-11.5,41.1-25.6,26.4-30.1c-13.6-4.2-32.3,17.2-42.2,30.3c-4.1-0.1-8.1-0.2-12-0.5
		c18.9-24.2,46.6-63.5,28.1-64.1c-18.6-0.5-36.4,37.6-45.6,61c-9-2.8-16.2-7.8-20.6-16.4c-18.3-35.6-54.6-48.2-84.3-50
		c4.7-7.7,9.4-16.3,12.9-25.1c10.4-26.1-12.6-52.7-27.5-35.5c-8.9,10.3-8.7,39.4-7,61.2c-2.5,0.3-5,0.7-7.2,1.2
		c-3-30.1-11.7-77-36.4-78.7c-26.1-1.8,4.6,52,24.1,82.7c-2.2,1.1-4.8,2.4-7.6,3.9c-5.2-8.2-15.8-20.6-32.4-21.3
		c-24.8-1-16.3,30.3-4.5,28.3c9.6-1.6,18.8-7.1,31.2-3.9c-29.8,16.2-80.2,43.9-109,16.3c-35-33.5-80.5-22.9-80.5-22.9
		C57.2,840.4,119.6,961,119.6,961l511.4-0.5C635.7,868.2,581.3,870.6,533.1,871.7z"/>
	<path class="st10" d="M981.1,962.6c0,0-4.5-85.2,58-96.4c62.5-11.3,78.7,30.4,102.9,48.2c24.2,17.8,77.1,1.8,95-48.2
		c17.8-50,62.5-112.8,114.5-106.7c52.1,6.1,61,43.5,75.9,47.9c14.9,4.4,65.4-11.1,79.6,41.3c14.2,52.3-16,114-16,114L981.1,962.6
		L981.1,962.6z"/>
	<path class="st10" d="M923.9,960.8l27.7,0.4c0,0-2-10-14.5-9.4c-2.6,0.1-4.9,0.4-6.9,0.8c0.5-16.9-0.5-61.6-25.4-60.5
		c-25.4,1.1,8.3,46,20.8,61.6c-2.2,0.7-3.8,1.4-4.8,1.9c-4.5-6.8-12-16-18.4-14.3c-6.1,1.6,3.9,9.3,12.5,14.8
		c-5.1-0.2-13.7,0.1-19.2,4l26.4,0.4c1.8,1.1,3,1.8,3,1.8S924.5,961.9,923.9,960.8z"/>
	<path class="st11" d="M101,961.1c0,0,9-21.9,41.6-22.4c32.7-0.5,53.1-20.8,81.3-15.9c28.3,5,47.1,25.3,58.5,25.8
		c11.4,0.5,45.4-4.4,49.2,12.5H101z"/>
	<path class="st12" d="M1535.3,962.8H0.8c-0.5,0-0.8-0.4-0.8-0.8v-1.6c0-0.5,0.4-0.8,0.8-0.8h1534.5c0.5,0,0.8,0.4,0.8,0.8v1.6
		C1536.1,962.4,1535.7,962.8,1535.3,962.8z"/>
	<g>
		<path class="st13" d="M758.8,447.1c-2.2-3.9-8.7-1.4-12.9-0.1c-4.2,1.3-6.5,8.5-6.7,12.8c-0.1,2.5-2.1,6.1-3.7,8.5l-25.4,31.5
			l-9.3,11.5c0,0-5.6-53.5-11.7-76.5c-0.7-2.8-2.7-5.2-5.3-7.1c-10.8-8-34.1-12-34.1-12l0,0c0.2-3.4,0.2-7.2,0.3-11.8
			c0-8.5,0.7-17.5,0.7-17.5l-28.6-5.7l-1.7-0.4c0.1,17.4-3.9,29.6-7.5,34.4c0,0-20.2,3.5-30.7,8.3l0,0c-3,1.4-5.3,3-6.2,4.9
			c-12.2,26.9-24.4,117.7-27.9,125.7c-1.4,3.3-4.1,12.8-7.3,24.4c-4.4,15.7-9.9,35.3-15,47.9c-1,2.1-3.8,7.7-6.7,9.6
			c-3.6,2.3-8.7,7.8-7.7,12.2c1,4.4,1.9,11.2,6.5,11.2c4.6,0,15.2-20.1,16.5-23.9c1.3-3.8,2.5-4.5,2.5-4.5l0,0
			c0.1-0.1,14.9-24.8,26.8-47.1c7-13.1,12.9-25.4,14.2-31.4c1.3-6.1,6.8-31.8,10.6-45.8c5.6,15.2,9.8,38.1,9.7,44.7
			c-0.2,9.4-10,14.8-23.3,44.5c-7.3,16.5,126.4,56.1,106.7-6.8c-9.4-30.1-9.2-48.8-6.7-63.5c5.5,14.3,11.9,24.6,18.7,25.6
			c9.3,1.4,19.2-8.7,28.1-21.8c15.2-22.8,22-51.2,22-51.2s0.1-1.4,2.7-4.4C748.8,470.2,761.1,451.1,758.8,447.1z"/>
		<g>
			<path class="st14" d="M346.9,375.3c0,0,132.6,3,193.4,13.7c0,0,208.3-90.3,270.3-93.2c0,0,77.1-98,141.9-105.2
				c0,0-102.3-63.4-355.9-7.8C596.4,182.8,378.6,298.5,346.9,375.3z"/>
			<g>
				<path class="st15" d="M756.8,470.5c-18.8,0-31.2-28-32.2-30.4L589.6,162.9c-1.1-2.2-0.2-4.9,2.1-5.9c2.2-1.1,4.9-0.2,5.9,2.1
					l135,277.3c0.1,0.1,0.1,0.1,0.1,0.2c0.1,0.3,12.9,29.2,27.4,24.5c5.3-1.7,8.5-4.2,9.6-7.7c2.6-7.8-4.7-18.4-4.8-18.5
					c-1.5-2-1-4.8,1-6.2c2-1.5,4.8-1,6.2,1c0.4,0.6,10,14.3,6,26.5c-2.1,6.3-7.3,10.8-15.4,13.4
					C760.8,470.2,758.8,470.5,756.8,470.5z"/>
			</g>
			<g>
				<g>
					
						<rect x="576" y="91.5" transform="matrix(0.9338 -0.3579 0.3579 0.9338 0.2402 213.6687)" class="st15" width="2.8" height="29.4"/>
				</g>
				<g>
					<path class="st16" d="M346.9,375.3c0,0,19.1-176.4,233.8-255.6c0,0-68.5,78-65.3,156.5C515.3,276.1,419.9,285.5,346.9,375.3z"
						/>
					<path class="st16" d="M952.3,190.6c0,0-166.1-132.3-371.7-70.9c0,0,130.3,48.3,200.8,74.8C781.5,194.5,866,173.9,952.3,190.6z"
						/>
					<path class="st17" d="M580.6,119.7c0,0-75.4,74.3-65.3,156.5c0,0,88.6-76.7,266.2-81.7C781.5,194.5,698.9,108.5,580.6,119.7z"
						/>
				</g>
			</g>
		</g>
		<polygon class="st18" points="638.4,953.7 639.8,959.5 651,959.5 651,955.5 		"/>
		<polygon class="st18" points="513.3,937.7 511.5,943.4 521,949.2 523.1,945.8 		"/>
		<path class="st19" d="M614.5,310.4c-0.4-1.5-5.7-17.8-31.3-12.4c0,0,12.8-1.6,16.3,3.3c0,0-10.2-4.7-16.5-0.8
			c-6.4,3.9-7.4,17-6.5,20.9c1,4,8,15.9,12.6,15.9c1.8,0,3.6-0.6,5.3-1.3c-0.7,2.1-1.3,4.4-1.9,6.9c-5,23.2,10.5,40.8,18.5,36.5
			c5.1-2.8,9,6.2,9,6.2l42.5-56.3C662.7,329.3,633,293.7,614.5,310.4z"/>
		<path class="st20" d="M650.6,386.4c0,0-0.7,9-0.7,17.5c-16-0.4-24.5-15.1-28-23.2L650.6,386.4z"/>
		<path class="st19" d="M619.1,377.6c0,0-8.4-13.3-10.4-24.6c-1.5-8.1,2.7-38.1,32.9-33.8c0,0,8.8,0.8,17,6.4
			c6.5,4.4,16,14,5.4,40.2l-2.7,8.8L619.1,377.6z"/>
		<path class="st13" d="M656,394.4c0,0-37.9,0.6-37.9-23s-5-39.4,19.2-40.8c24.2-1.4,28.9,7.6,30.9,15.5
			C670.1,354,665.8,393.7,656,394.4z"/>
		<path class="st19" d="M654.6,330c0,0-10.4,27.7-26.3,31.8c-15.9,4.1-22.8-0.2-22.8-0.2s12.2-9.7,14.8-26.7
			C620.2,335,646.8,316.9,654.6,330z"/>
		<path class="st19" d="M652,332.3c0,0,7.7,6.2,9.6,12.2c1.9,6,2.7,18.4,6.4,18c0,0,7.8-18.8-1-29.5
			C657.7,321.7,652,332.3,652,332.3z"/>
		<path class="st20" d="M612.4,725.3c2.5,30.7,8.6,61.2,8.6,61.2c-19.7,31.2,18.8,155.7,18.8,155.7l18.9,2.9
			c0,0-4.7-108.6,4.2-159.1c19.6-111.5,12.5-186.8,12.5-186.8l-69.2,15.3l-3.2,0.7C606,647.4,609.6,691.1,612.4,725.3z"/>
		<path class="st21" d="M721.4,528.9c-8.8,13.3-18.8,23.2-28.1,21.8c-0.7-0.1-1.3-0.3-1.9-0.5c-6.3-2.5-12-12.5-17.1-26
			c-6.8-18-12.4-42-16.5-62.7c9.4-12.3,19.2-25,26-33.8c2.7,1.9,4.6,4.3,5.3,7.1c6.1,23,11.7,76.5,11.7,76.5l9.3-11.5
			C713.8,504.6,720.3,514.8,721.4,528.9z"/>
		<path class="st22" d="M691.4,550.3c-6.3-2.5-12-12.5-17.1-26c-4.9-27.5-8.7-57.8-7.9-59.2C666.3,465,694.2,500.7,691.4,550.3z"/>
		<path class="st13" d="M522.4,931.3l7.1,5.1c0,0,80.7-115.7,93.8-138c26.6-45.1,26.3-193.5,26.3-193.5l-68.5-9.4
			c-11.7,35.1-8.2,63.5-5.9,85.6c4.6,43,10.8,100,5.6,106.4C526.1,855.5,522.4,931.3,522.4,931.3z"/>
		<path class="st19" d="M653.5,333.2c0,0-7.4,29-27.5,38.3c0,0,20.1-17.8,21.8-37C649.5,315.4,653.5,333.2,653.5,333.2z"/>
		<path class="st23" d="M710.2,959.1C710.2,959.2,710.2,959.2,710.2,959.1l4,0.1c-0.4-0.1-0.7-0.1-1-0.1H710.2z"/>
		<path class="st21" d="M698.2,740.2c0,0-46.2,19.3-102.7,12.5c-15.7-1.9-28.6-5.1-39-8.7c-27.3-9.6-38.1-22.2-38.1-22.2l0,0
			c0.3-1,14.2-45.5,33.5-89.2c10.4-23.4,22.3-46.6,34.7-62.7c0,0,8.3-13.9,7.1-28c-0.2-2.6-2.5-16.9-5-35
			c-4.2-30.2-9.2-70.7-6.6-83.7c0,0,31,23.7,63.2,22.4c32.2-1.3,38-18.3,38-18.3s-4.4,29.5,0,39.9c4.4,10.3,3.6,19.8,0,34.1
			c-3.6,14.4-12.6,53.4-7.9,64C680.1,575.9,695.5,662.7,698.2,740.2z"/>
		<path class="st21" d="M597.9,461.3c0,0-0.6,9-1.9,22c-5.6,20.1-15.9,57.1-18.3,68.7c-1.3,6-7.2,18.3-14.2,31.4
			c-11,1.9-18.5-2-22.7-5.3c3.2-11.6,5.9-21.1,7.3-24.4c3.4-8,15.6-98.8,27.9-125.7c0.8-1.9,3.1-3.5,6.2-4.9l0,0L597.9,461.3z"/>
		<path class="st24" d="M567.5,803.7c0,0,12.9,23.4,36.5,25.4l-65.3,99.3c0,0-0.9,11.3,3.1,16.6s14.7,6.7,15.9,14.4h-24.4
			c0,0-2.4-5.3-6.5-9.1c-13.4-12-18.8-10.1-8.9-29c0.7-1.3,1.5-2.5,1.8-4C523.1,903.5,542.3,830.3,567.5,803.7z"/>
		<path class="st24" d="M614.5,831.4c0,0,19.5,3.9,44.7-1l0.1,100.1c0,1.5,0.5,3,1.3,4.2c2.2,3.2,6.7,9.6,9.6,12.9
			c4.1,4.5,18.4,4.5,20.2,11.7h-32.9c0,0-4.2-4.2-16.3-4.8c-2.4-0.1-4.5-1.9-4.9-4.4c-0.5-3-0.8-7.4-0.1-13.4
			C637.6,925.2,615,860.7,614.5,831.4z"/>
		<path class="st22" d="M610.1,562.4c-1.6,22-46.8,60.7-58.1,70.2c10.4-23.4,22.3-46.6,34.7-62.7c0,0,8.3-13.9,7.1-28
			c-0.2-2.6-2.2-15.2-4.7-33.2C592.1,513.1,611.7,539.3,610.1,562.4z"/>
		<path class="st22" d="M556.4,744c-27.3-9.6-38.1-22.2-38.1-22.2l0,0c0.8-1.3,40.6-67.2,58.4-62.8C592.9,663,562.9,730,556.4,744z"
			/>
	</g>
	<g>
		<path class="st0" d="M1027.6,246.7c0,0,0.2,16.7,1.6,20.6c1.5,3.9,5.1,6.3,8,5.2c3-1.1,4.1-5.2,2.7-9.1
			C1038.4,259.4,1027.6,246.7,1027.6,246.7z"/>
		<path class="st0" d="M1056.6,149.2c0,0,0.2,16.7,1.6,20.6c1.5,3.9,5.1,6.3,8,5.2c3-1.1,4.1-5.2,2.7-9.1
			C1067.4,161.9,1056.6,149.2,1056.6,149.2z"/>
		<path class="st0" d="M1180.1,312.9c-1.5-3.9-12.3-16.7-12.3-16.7s0.2,16.7,1.6,20.6s5.1,6.3,8,5.2
			C1180.4,321,1181.6,316.9,1180.1,312.9z"/>
	</g>
	<g>
		<path class="st25" d="M303.5,602.2c0,0,0.1,13.2,1.3,16.3s4,5,6.4,4.1c2.3-0.8,3.3-4.1,2.1-7.3
			C312.1,612.2,303.5,602.2,303.5,602.2z"/>
		<path class="st25" d="M326.5,525c0,0,0.1,13.2,1.3,16.3c1.1,3.1,4,5,6.4,4.1c2.3-0.8,3.3-4.1,2.1-7.3S326.5,525,326.5,525z"/>
		<path class="st25" d="M424.2,654.6c-1.1-3.1-9.7-13.2-9.7-13.2s0.1,13.2,1.3,16.3c1.1,3.1,4,5,6.4,4.1
			C424.4,660.9,425.3,657.7,424.2,654.6z"/>
	</g>
	<g>
		<path class="st25" d="M764.3,769.3c0,0,0.1,13.2,1.3,16.3c1.1,3.1,4,5,6.4,4.1c2.3-0.8,3.3-4.1,2.1-7.3
			C772.8,779.3,764.3,769.3,764.3,769.3z"/>
		<path class="st25" d="M787.3,692.2c0,0,0.1,13.2,1.3,16.3c1.1,3.1,4,5,6.4,4.1c2.3-0.8,3.3-4.1,2.1-7.3
			C795.8,702.2,787.3,692.2,787.3,692.2z"/>
		<path class="st25" d="M885,821.7c-1.1-3.1-9.7-13.2-9.7-13.2s0.1,13.2,1.3,16.3c1.1,3.1,4,5,6.4,4.1
			C885.2,828,886.1,824.8,885,821.7z"/>
	</g>
	<g>
		<path class="st26" d="M990.3,717.3c1.5,3.9,5.1,6.3,8,5.2c3-1.1,4.1-5.2,2.7-9.1c-1.5-3.9-12.3-16.7-12.3-16.7
			S988.9,713.4,990.3,717.3z"/>
		<path class="st26" d="M1019.4,619.8c1.5,3.9,5.1,6.3,8,5.2c3-1.1,4.1-5.2,2.7-9.1c-1.5-3.9-12.3-16.7-12.3-16.7
			S1017.8,615.8,1019.4,619.8z"/>
		<path class="st26" d="M1130.6,766.9c1.5,3.9,5.1,6.3,8,5.2c3-1.1,4.1-5.2,2.7-9.1c-1.5-3.9-12.3-16.7-12.3-16.7
			S1129.1,762.9,1130.6,766.9z"/>
	</g>
	<g>
		<path class="st26" d="M668.6,217.4c0,0,0.1,12.6,1.2,15.6c1.1,3,3.8,4.7,6.1,3.9c2.2-0.8,3.1-3.9,2-6.9
			C676.8,226.9,668.6,217.4,668.6,217.4z"/>
		<path class="st26" d="M690.5,143.8c0,0,0.1,12.6,1.2,15.6c1.1,3,3.8,4.7,6.1,3.9c2.2-0.8,3.1-3.9,2-6.9
			C698.7,153.4,690.5,143.8,690.5,143.8z"/>
		<path class="st26" d="M783.7,267.4c-1.1-3-9.3-12.6-9.3-12.6s0.1,12.6,1.2,15.5c1.1,3,3.8,4.7,6.1,3.9
			C783.9,273.4,784.8,270.3,783.7,267.4z"/>
	</g>
	<path class="st11" d="M1451.3,959.5c0,0-4.6-43.7-62.1-50.6c-7.1-0.8-13.6-1-19.7-0.7c-2.8-13.4-13.4-48.9-33.2-45.7
		c-19.4,3.1,14.5,34.1,28.4,46c-4.7,0.4-9,1.2-13.1,2.2c-10-5.7-28-13.4-46.5-8.8c-18.9,4.7,12.9,9.4,35.4,12.1
		c-24.7,8.9-39.9,24.7-55.5,25.9c-10.3,0.8-23.4-1.2-37.7-1.1c3.9-4.4,7.2-9.4,3.1-10c-4.3-0.7-7.1,5.1-8.6,10.1
		c-1.6,0.1-3.1,0.2-4.8,0.3c3.6-8,8.1-20.8,1.9-23.2c-6.6-2.6-6.5,14-5.8,23.6c-1.5,0.2-3,0.4-4.5,0.7c-1.2-5.4-4.5-16.5-10.8-13.4
		c-6.4,3.1,4.3,10.7,9,13.7c-12.7,2.5-25.8,7.9-38.7,19H1451.3z"/>
	<g>
		<path class="st26" d="M510.4,174.2c0,0,0.1,6.3,0.6,7.8c0.5,1.5,1.9,2.4,3,1.9c1.1-0.4,1.6-1.9,1-3.4
			C514.5,179,510.4,174.2,510.4,174.2z"/>
		<path class="st26" d="M622,200.1c-1.1-3-9.3-12.6-9.3-12.6s0.1,12.6,1.2,15.6c1.1,3,3.8,4.7,6.1,3.9
			C622.3,206.3,623.1,203.1,622,200.1z"/>
		<path class="st26" d="M480.5,229.7c0,0,0.1,12.6,1.2,15.5c1.1,3,3.8,4.7,6.1,3.9c2.2-0.8,3.1-3.9,2-6.9
			C488.7,239.2,480.5,229.7,480.5,229.7z"/>
	</g>
	<path class="st27" d="M1358.5,948.1c0,0,4.9,10.5-4.6,11.3c-9.5,0.8-15.2-3.1-17.5-7.7c0,0,11.8,4.9,10-1
		c-1.8-5.9-6.4-15.4-6.4-15.4s10,18,15,17.1C1357.2,952,1358.5,948.1,1358.5,948.1z"/>
	<path class="st27" d="M389.9,948.1c0,0,4.9,10.5-4.6,11.3c-9.5,0.8-15.2-3.1-17.5-7.7c0,0,11.8,4.9,10-1
		c-1.8-5.9-6.4-15.4-6.4-15.4s10,18,15,17.1C388.6,952,389.9,948.1,389.9,948.1z"/>
	<path class="st28" d="M355.8,426.2c0,0-4.8,30.9,1.5,30.9C363.4,457.1,355.8,426.2,355.8,426.2z"/>
</g>
</svg>
