<?xml version="1.0" encoding="utf-8"?>
<!-- Generator: Adobe Illustrator 22.0.1, SVG Export Plug-In . SVG Version: 6.00 Build 0)  -->
<svg version="1.1" id="Layer_1" xmlns="http://www.w3.org/2000/svg" xmlns:xlink="http://www.w3.org/1999/xlink" x="0px" y="0px"
	 viewBox="0 0 500.8 496.2" style="enable-background:new 0 0 500.8 496.2;" xml:space="preserve">
<style type="text/css">
	.st0{fill:#F5F5F5;}
	.st1{fill:#ECECEC;}
	.st2{fill:#82B379;}
	.st3{opacity:0.1;fill:#82B379;}
	.st4{fill:#FFFFFF;}
	.st5{fill:#E1E1E1;}
	.st6{fill:#FAFAFA;}
	.st7{fill:#27DEBF;}
	.st8{fill:#375A64;}
	.st9{opacity:0.1;}
	.st10{opacity:0.4;fill:#FFFFFF;}
	.st11{opacity:0.2;}
	.st12{fill:#FAFAFA;stroke:#E1E1E1;stroke-width:1.1698;stroke-miterlimit:10;}
	.st13{fill:#37474F;}
</style>
<path id="Floor_15_" class="st0" d="M74.7,446.8c94.7,48.4,248.3,48.4,343,0c94.7-48.4,94.7-127,0-175.4
	c-94.7-48.4-248.3-48.4-343,0C-20.1,319.9-20.1,398.4,74.7,446.8z"/>
<path id="Shadow_37_" class="st1" d="M384.5,369.5c5.2,3,15.4,2,22.8-2.3l42.6-24.8c7.4-4.3,9.2-10.2,4-13.2c-5.2-3-15.4-2-22.8,2.3
	l-42.6,24.8C381.1,360.6,379.3,366.5,384.5,369.5z"/>
<polygon id="Shadow_36_" class="st1" points="127.9,392.3 84.5,367.3 127.9,342.2 "/>
<polygon id="Shadow_35_" class="st1" points="250.4,407.3 180.5,366.9 250.4,326.6 "/>
<g id="Plants_14_">
	<g id="XMLID_3252_">
		<g id="XMLID_3255_">
			<path id="XMLID_3276_" class="st2" d="M69.2,333.8c0.1-10.1-7-31.2-17.3-44.5c-10.4-13.3-26.8-23.1-38.6-19.2
				c-11,3.6-10,18,3.2,27.7c13.2,9.7,33,21.9,38.6,38.4l12,20.3L69.2,333.8z"/>
			<path id="XMLID_3256_" class="st3" d="M69.2,333.8c0.1-10.1-7-31.2-17.3-44.5c-10.4-13.3-26.8-23.1-38.6-19.2
				c-11,3.6-10,18,3.2,27.7c13.2,9.7,33,21.9,38.6,38.4l12,20.3L69.2,333.8z"/>
		</g>
		<g id="XMLID_3253_">
			<path id="XMLID_3254_" class="st4" d="M69.8,347.6c-0.3,0-0.6-0.3-0.7-0.6c-6.4-34.7-34-63.2-50.7-69.6c-0.4-0.1-0.6-0.6-0.4-1
				c0.1-0.4,0.6-0.6,1-0.4c17,6.5,45.2,35.5,51.6,70.7c0.1,0.4-0.2,0.8-0.6,0.9C70,347.7,69.9,347.7,69.8,347.6z"/>
		</g>
	</g>
	<g id="XMLID_3246_">
		<g id="XMLID_3250_">
			<path id="XMLID_3251_" class="st2" d="M64.4,369.7c-1.6-5.7-8.4-15.2-19.6-23.1c-12.4-8.7-28.1-12.9-31.6-19.6
				c-4.3-8.1,2.6-15.6,15.4-13.9s35.1,19.5,38.3,45.8L64.4,369.7z"/>
		</g>
		<g id="XMLID_3247_">
			<path id="XMLID_3249_" class="st4" d="M66.9,363.8c-0.3,0-0.5-0.2-0.6-0.5c-10.3-29.8-32.8-40.5-43.2-41.9
				c-0.4-0.1-0.7-0.4-0.6-0.8c0.1-0.4,0.4-0.7,0.8-0.6c11.6,1.6,33.9,12.5,44.4,42.9c0.1,0.4-0.1,0.8-0.5,0.9
				C67.2,363.8,67,363.8,66.9,363.8z"/>
		</g>
	</g>
</g>
<g id="Plants_15_">
	<g id="XMLID_3135_">
		<path id="XMLID_3120_" class="st2" d="M447.7,304.9c0,0,1.4-21.4,14-37.2c12.6-15.9,11.8-22.4,3.1-25.6
			c-8.7-3.2-28.9,15.9-24.4,41.5C444.9,309.2,447.7,304.9,447.7,304.9z"/>
		<path id="XMLID_3134_" class="st3" d="M447.7,304.9c0,0,1.4-21.4,14-37.2c12.6-15.9,11.8-22.4,3.1-25.6
			c-8.7-3.2-28.9,15.9-24.4,41.5C444.9,309.2,447.7,304.9,447.7,304.9z"/>
		<g id="XMLID_3136_">
			<path id="XMLID_3137_" class="st5" d="M443.8,292.7c-0.3,0-0.5-0.2-0.5-0.5c-1.5-23.5,15.2-42.9,21.4-47.2
				c0.2-0.2,0.5-0.1,0.7,0.1c0.2,0.2,0.1,0.5-0.1,0.7c-6.1,4.3-22.4,23.2-21,46.4C444.3,292.4,444.1,292.7,443.8,292.7
				C443.8,292.7,443.8,292.7,443.8,292.7z"/>
		</g>
	</g>
	<g id="XMLID_3036_">
		<g id="XMLID_3073_">
			<path id="XMLID_3119_" class="st2" d="M444.2,322.6c0,0,7.6,2.6,17.3,4.2c9.8,1.5,14.1-3.1,14.1-3.1s-3.8-9.2-9.4-11.7
				c0,0,9.4,1.9,16.9,6.9c0,0,6,0.1,8.3-9c0,0-3.5-5.5-15.4-8.4c0,0,7.2-1.8,17.6,0.8c0.8,0.3,4.1-11.4,5.1-16.9
				c1-5.4-1.2-5.4-5.4-6.5c-4.2-1.1-18.2-4.3-20.9-1.9c-2.6,2.3-4,10.3-4,10.3s-1.7-4.7-0.4-10.1c0,0-3.8-1.5-9.7,0.2
				c-4.8,1.4-5.1,4.7-4.8,8.4c0.2,2.7,0.8,5.6,2.1,9.4c0,0-3.8-4.8-3.9-15.3c0,0-9.9,4.9-11.6,14.7
				C439.3,299.9,438,315.5,444.2,322.6z"/>
			<g id="XMLID_3093_">
				<path id="XMLID_3118_" class="st5" d="M446.1,320.6c0.2,0,0.4-0.1,0.5-0.3c7.9-16.4,37.1-35.4,47.6-37.4
					c0.3-0.1,0.5-0.3,0.4-0.6c-0.1-0.3-0.3-0.5-0.6-0.4c-10.7,2.1-40.4,21.4-48.4,38c-0.1,0.3,0,0.6,0.3,0.7
					C445.9,320.6,446,320.6,446.1,320.6z"/>
			</g>
		</g>
	</g>
</g>
<g id="XMLID_1118_">
	<g id="XMLID_1204_">
		<g id="XMLID_1203_">
			<path class="st6" d="M65.4,377.3c-1.2,0-2-1-2-2.7V195.1l219.9-127l0,178.9c0,2.8-1.9,6.1-4.3,7.5L67.2,376.8
				C66.6,377.2,66,377.3,65.4,377.3L65.4,377.3z"/>
			<path class="st5" d="M282.8,69.1l0,177.9c0,2.5-1.8,5.7-4,7L66.9,376.3c-0.5,0.3-1,0.5-1.5,0.5c-1.3,0-1.4-1.5-1.4-2.1V195.4
				L282.8,69.1 M284,67.1L62.9,194.7v179.9c0,2.1,1,3.3,2.6,3.3c0.6,0,1.3-0.2,2.1-0.6L279.3,255c2.6-1.5,4.6-5.1,4.6-8L284,67.1
				L284,67.1z"/>
		</g>
		<polygon id="XMLID_2173_" class="st7" points="62.9,194.7 62.9,224.8 284,97.1 284,67.1 		"/>
		<path id="XMLID_1167_" class="st6" d="M80.2,196.4l0,4.3c0,0.9,0.6,1.2,1.4,0.8l68-39.2l0-7.5l-68,39.2
			C80.8,194.4,80.2,195.5,80.2,196.4z"/>
		<path id="XMLID_1189_" class="st8" d="M156.9,150.5c0.8-0.4,1.4-0.1,1.4,0.8v4.3c0,0.9-0.6,2-1.4,2.4l-7.3,4.2l0-7.5L156.9,150.5z
			"/>
		<path id="XMLID_2992_" class="st8" d="M62.9,185.1c0-2.9,2.1-6.5,4.6-8L279.3,54.7c2.6-1.5,4.6-0.3,4.6,2.7v9.7L62.9,194.7V185.1z
			"/>
		<g id="XMLID_1202_">
			<path id="XMLID_1201_" class="st7" d="M259.4,71.3c-1.2,0.7-2.2,2.4-2.2,3.8c0,1.4,1,1.9,2.2,1.3c1.2-0.7,2.2-2.4,2.2-3.8
				C261.6,71.2,260.6,70.6,259.4,71.3z"/>
			<path id="XMLID_1198_" class="st7" d="M266.3,67.3c-1.2,0.7-2.2,2.4-2.2,3.8s1,1.9,2.2,1.3c1.2-0.7,2.2-2.4,2.2-3.8
				C268.4,67.2,267.5,66.6,266.3,67.3z"/>
			<path id="XMLID_1196_" class="st7" d="M273.1,63.4c-1.2,0.7-2.2,2.4-2.2,3.8c0,1.4,1,1.9,2.2,1.3c1.2-0.7,2.2-2.4,2.2-3.8
				C275.3,63.2,274.3,62.7,273.1,63.4z"/>
		</g>
		<g id="XMLID_1168_" class="st9">
			<path id="XMLID_1187_" d="M214.6,116.7c-2.6,1.5-4.7,5.2-4.7,8.2c0,3,2.1,4.2,4.7,2.7c2.6-1.5,4.7-5.2,4.7-8.2
				C219.3,116.4,217.2,115.2,214.6,116.7z"/>
			<path id="XMLID_1188_" d="M192.9,129.2c-2.6,1.5-4.7,5.2-4.7,8.2c0,3,2.1,4.2,4.7,2.7c2.6-1.5,4.7-5.2,4.7-8.2
				C197.7,128.9,195.5,127.7,192.9,129.2z"/>
			<path id="XMLID_1186_" d="M236.3,104.2c-2.6,1.5-4.7,5.2-4.7,8.2c0,3,2.1,4.2,4.7,2.7c2.6-1.5,4.7-5.2,4.7-8.2
				C241,103.9,238.9,102.7,236.3,104.2z"/>
			<path id="XMLID_1190_" d="M258,91.6c-2.6,1.5-4.7,5.2-4.7,8.2c0,3,2.1,4.2,4.7,2.7c2.6-1.5,4.7-5.2,4.7-8.2S260.6,90.1,258,91.6z
				"/>
		</g>
	</g>
	<path id="XMLID_2170_" class="st5" d="M84.8,227.1l51.5-29.7c2.6-1.5,4.6-0.3,4.6,2.7v49.4c0,2.9-2.1,6.5-4.6,8l-51.4,29.7
		c-2.6,1.5-4.6,0.3-4.6-2.7l0-49.4C80.2,232.2,82.3,228.6,84.8,227.1z"/>
	<path id="XMLID_3029_" class="st5" d="M158.5,184.6l107.8-62.2c2.6-1.5,4.6-0.3,4.6,2.7v49.4c0,2.9-2.1,6.5-4.6,8l-107.8,62.2
		c-2.6,1.5-4.6,0.3-4.6-2.7l0-49.4C153.9,189.6,156,186,158.5,184.6z"/>
	<g id="XMLID_3030_">
		<path id="XMLID_3117_" class="st5" d="M84.8,302.2l81.8-47.2c2.6-1.5,4.6-0.4,4.6,2.3c0,2.8-2.1,6.2-4.6,7.7l-81.8,47.2
			c-2.6,1.5-4.6,0.4-4.6-2.3C80.2,307.1,82.3,303.7,84.8,302.2z"/>
		<path id="XMLID_3095_" class="st5" d="M84.8,319.7l81.8-47.2c2.6-1.5,4.6-0.4,4.6,2.3c0,2.8-2.1,6.2-4.6,7.7l-81.8,47.2
			c-2.6,1.5-4.6,0.4-4.6-2.3C80.2,324.6,82.3,321.2,84.8,319.7z"/>
		<path id="XMLID_3094_" class="st5" d="M84.8,337.2l81.8-47.2c2.6-1.5,4.6-0.4,4.6,2.3c0,2.8-2.1,6.2-4.6,7.7l-81.8,47.2
			c-2.6,1.5-4.6,0.4-4.6-2.3C80.2,342.2,82.3,338.7,84.8,337.2z"/>
	</g>
</g>
<g id="XMLID_3248_">
	<g id="Letter_2_">
		<g id="XMLID_3260_">
			<g id="XMLID_3261_">
				<path id="XMLID_3262_" class="st7" d="M123.6,277.8c0-1.8,1.2-3.9,2.8-4.8l141.9-81.9c1.5-0.9,4-0.9,5.5,0l3.1,1.8
					c1.5,0.9,2.8,3,2.8,4.8v108.7c0,1.8-1.2,3.9-2.8,4.8L135,393.2c-1.5,0.9-4,0.9-5.5,0l-3.1-1.8c-1.5-0.9-2.8-3-2.8-4.8
					L123.6,277.8z"/>
			</g>
		</g>
		<path id="XMLID_3259_" class="st10" d="M124.4,275.1l7.9,4.5L278.8,195c-0.5-0.9-1.2-1.6-2-2.1l-3.1-1.8c-1.5-0.9-4-0.9-5.5,0
			L126.3,273C125.6,273.5,124.9,274.3,124.4,275.1z"/>
		<path id="XMLID_3258_" class="st9" d="M123.6,277.8v108.7c0,1.8,1.2,3.9,2.8,4.8l3.1,1.8c0.2,0.1,0.5,0.2,0.8,0.3
			c0.4,0.1,0.7,0.2,1.1,0.3c0.7,0.1,1.5,0.1,2.2-0.1c0.2,0,0.4-0.1,0.5-0.1c0.1,0,0.2-0.1,0.3-0.1c-0.5,0.2-1,0.2-1.3,0
			c-0.5-0.3-0.9-0.9-0.9-1.8V282.9c0-1.1,0.6-2,1.4-2.4l-1.4-0.8l-7.9-4.5C123.9,276,123.6,277,123.6,277.8z"/>
		<path id="XMLID_3257_" class="st11" d="M132.2,279.7l65.7,24.5c4.7,1.7,9.9,0,12.7-4.2l10.5-16.2l58.2-89.1l-56.1,89.8l56.4,22.1
			c0,0.9-0.3,1.9-0.9,2.8l-55.7-24.6l-12.3,19.6c-2.8,4.5-8.5,6.3-13.4,4.1l-8.7-3.9l-55.7,88.8c-0.5-0.3-0.9-0.9-0.9-1.8v-1.8
			l56.2-85.3L132.2,279.7z"/>
	</g>
</g>
<g id="XMLID_2171_">
	<path id="XMLID_2869_" class="st12" d="M249.3,154.8v249.6c0,2.9,2.1,4.1,4.6,2.7L366,342.4c2.6-1.5,4.6-5.1,4.6-8V84.7
		c0-2.9-2.1-4.1-4.6-2.7l-112.1,64.7C251.4,148.3,249.3,151.9,249.3,154.8z"/>
	<path id="XMLID_2970_" class="st8" d="M255.8,159.5c0-0.7,0.5-1.6,1.2-1.9l12.8-7.4c0.7-0.4,1.2-0.1,1.2,0.6c0,0.7-0.5,1.6-1.2,1.9
		L257,160C256.3,160.4,255.8,160.2,255.8,159.5z"/>
	<path id="XMLID_2972_" class="st8" d="M255.8,164.4c0-0.7,0.5-1.6,1.2-1.9l12.8-7.4c0.7-0.4,1.2-0.1,1.2,0.6c0,0.7-0.5,1.6-1.2,1.9
		L257,165C256.3,165.4,255.8,165.1,255.8,164.4z"/>
	<path id="XMLID_2973_" class="st8" d="M255.8,169.4c0-0.7,0.5-1.6,1.2-1.9l12.8-7.4c0.7-0.4,1.2-0.1,1.2,0.6c0,0.7-0.5,1.6-1.2,1.9
		L257,170C256.3,170.4,255.8,170.1,255.8,169.4z"/>
	<path id="XMLID_2989_" class="st13" d="M362,105.4v-2c0-0.1-0.1-0.2-0.2-0.1l-1.5,0.7c-0.1,0-0.2,0-0.3-0.1
		c-0.1-0.3-0.2-0.5-0.3-0.8c-0.1-0.1-0.1-0.3,0-0.4l1-2.1c0.1-0.1,0-0.2-0.1-0.3l-1.1-0.6c-0.1-0.1-0.2,0-0.3,0.1l-1.3,1.9
		c-0.1,0.1-0.2,0.2-0.3,0.2c-0.3,0-0.5,0-0.8,0.1c-0.1,0-0.2,0-0.2-0.2l-0.2-1.7c0-0.1-0.1-0.2-0.2-0.1l-1.7,1
		c-0.1,0.1-0.2,0.2-0.2,0.3l-0.2,1.9c0,0.1-0.1,0.3-0.2,0.4c-0.3,0.3-0.7,0.7-1,1c-0.1,0.1-0.2,0.1-0.3,0.1l-1.1-0.4
		c-0.1,0-0.3,0-0.3,0.1l-1.3,2.2c-0.1,0.1,0,0.2,0.1,0.3l0.9,0.8c0.1,0.1,0.1,0.2,0.1,0.3c-0.2,0.4-0.3,0.9-0.4,1.3
		c0,0.1-0.1,0.3-0.2,0.3l-1.6,1.1c-0.1,0.1-0.2,0.2-0.2,0.3v2c0,0.1,0.1,0.2,0.2,0.1l1.5-0.7c0.1,0,0.2,0,0.3,0.1
		c0.1,0.3,0.2,0.5,0.3,0.8c0.1,0.1,0.1,0.3,0,0.4l-1,2.1c-0.1,0.1,0,0.2,0.1,0.3l1.1,0.6c0.1,0.1,0.2,0,0.3-0.1l1.3-1.9
		c0.1-0.1,0.2-0.2,0.3-0.2c0.3,0,0.5,0,0.8-0.1c0.1,0,0.2,0,0.2,0.2l0.2,1.7c0,0.1,0.1,0.2,0.2,0.1l1.7-1c0.1-0.1,0.2-0.2,0.2-0.3
		l0.2-1.9c0-0.1,0.1-0.3,0.2-0.4c0.3-0.3,0.7-0.7,1-1c0.1-0.1,0.2-0.1,0.3-0.1l1.1,0.4c0.1,0,0.3,0,0.3-0.1l1.3-2.2
		c0.1-0.1,0-0.2-0.1-0.3l-0.9-0.8c-0.1-0.1-0.1-0.2-0.1-0.3c0.2-0.4,0.3-0.9,0.4-1.3c0-0.1,0.1-0.3,0.2-0.3l1.6-1.1
		C361.9,105.7,362,105.5,362,105.4z M355.2,111.7c-1.6,0.9-2.9,0.2-2.9-1.7c0-1.9,1.3-4.1,2.9-5.1c1.6-0.9,2.9-0.2,2.9,1.7
		C358.2,108.5,356.9,110.7,355.2,111.7z"/>
	<g id="XMLID_3074_">
		<path id="XMLID_3091_" class="st8" d="M310,154.6c13.1-7.6,23.7-1.4,23.7,13.7s-10.6,33.5-23.7,41.1c-13.1,7.6-23.7,1.4-23.7-13.7
			C286.2,180.6,296.9,162.2,310,154.6z"/>
		<path id="XMLID_3076_" class="st7" d="M309.8,166.5c4.3-2.5,7.7-0.5,7.7,4.4c0,4.9-3.4,10.9-7.7,13.3c-4.3,2.5-7.7,0.5-7.7-4.4
			C302.1,174.9,305.6,169,309.8,166.5z"/>
		<path id="XMLID_3075_" class="st7" d="M325,192.7c0-8.1-5.7-11.3-12.6-7.3l-4.4,2.5c-7,4-12.6,13.8-12.6,21.9v2.2
			c1.3,0.4,2.6,0.6,4.1,0.6c3.2,0,6.8-1,10.6-3.2c5.7-3.3,10.9-8.6,15-14.8V192.7z"/>
	</g>
	<path id="XMLID_3140_" class="st7" d="M288.6,231.9l42.8-24.7c1.3-0.7,2.3-0.2,2.3,1.2c0,1.4-1,3.1-2.3,3.8l-42.8,24.7
		c-1.3,0.7-2.3,0.2-2.3-1.2S287.3,232.7,288.6,231.9z"/>
	<path id="XMLID_3142_" class="st8" d="M284,249.6l52-30.1c1.3-0.7,2.3-0.2,2.3,1.2c0,1.4-1,3.1-2.3,3.8l-52,30.1
		c-1.3,0.7-2.3,0.2-2.3-1.2C281.7,252.1,282.7,250.3,284,249.6z"/>
	<path id="XMLID_3148_" class="st13" d="M337.4,243.8l14.6-8.4c0.8-0.4,1.4-0.2,1.4,0.5c0,0.7-0.6,1.6-1.4,2.1l-14.6,8.4
		c-0.8,0.4-1.4,0.2-1.4-0.5S336.6,244.2,337.4,243.8z"/>
	<g id="XMLID_3157_">
		<path id="XMLID_3141_" class="st7" d="M264.6,280.8l21.4-12.3c1.3-0.7,2.3-0.1,2.3,1.3v14.7c0,1.5-1,3.3-2.3,4l-21.4,12.3
			c-1.3,0.7-2.3,0.1-2.3-1.3v-14.7C262.3,283.3,263.3,281.5,264.6,280.8z"/>
		<path id="XMLID_3143_" class="st6" d="M268,282.8l14.6-8.4c0.8-0.4,1.4-0.2,1.4,0.5c0,0.7-0.6,1.6-1.4,2.1l-14.6,8.4
			c-0.8,0.4-1.4,0.2-1.4-0.5S267.2,283.3,268,282.8z"/>
		<path id="XMLID_3146_" class="st6" d="M266.6,290.2v4.3c0,0.9,0.6,1.2,1.4,0.8l14.6-8.4c0.8-0.4,1.4-1.5,1.4-2.4l0-4.3
			c0-0.9-0.6-1.2-1.4-0.8l-14.6,8.4C267.2,288.3,266.6,289.4,266.6,290.2z"/>
	</g>
	<g id="XMLID_3149_">
		<path id="XMLID_3155_" class="st7" d="M299.3,260.8l21.4-12.3c1.3-0.7,2.3-0.1,2.3,1.3l0,14.7c0,1.5-1,3.3-2.3,4l-21.4,12.3
			c-1.3,0.7-2.3,0.1-2.3-1.3l0-14.7C297,263.3,298,261.5,299.3,260.8z"/>
		<path id="XMLID_3154_" class="st6" d="M302.7,262.8l14.6-8.4c0.8-0.4,1.4-0.2,1.4,0.5c0,0.7-0.6,1.6-1.4,2.1l-14.6,8.4
			c-0.8,0.4-1.4,0.2-1.4-0.5S301.9,263.3,302.7,262.8z"/>
		<path id="XMLID_3153_" class="st6" d="M301.3,270.2v4.3c0,0.9,0.6,1.2,1.4,0.8l14.6-8.4c0.8-0.4,1.4-1.5,1.4-2.4l0-4.3
			c0-0.9-0.6-1.2-1.4-0.8l-14.6,8.4C301.9,268.3,301.3,269.3,301.3,270.2z"/>
	</g>
	<g id="XMLID_3159_">
		<path id="XMLID_3176_" class="st7" d="M334,240.7l21.4-12.3c1.3-0.7,2.3-0.1,2.3,1.3v14.7c0,1.5-1,3.3-2.3,4L334,260.8
			c-1.3,0.7-2.3,0.1-2.3-1.3v-14.7C331.7,243.3,332.7,241.5,334,240.7z"/>
		<path id="XMLID_3173_" class="st6" d="M337.4,242.8l14.6-8.4c0.8-0.4,1.4-0.2,1.4,0.5c0,0.7-0.6,1.6-1.4,2.1l-14.6,8.4
			c-0.8,0.4-1.4,0.2-1.4-0.5S336.6,243.2,337.4,242.8z"/>
		<path id="XMLID_3163_" class="st6" d="M336,250.2v4.3c0,0.9,0.6,1.2,1.4,0.8l14.6-8.4c0.8-0.4,1.4-1.5,1.4-2.4l0-4.3
			c0-0.9-0.6-1.2-1.4-0.8l-14.6,8.4C336.6,248.2,336,249.3,336,250.2z"/>
	</g>
	<path id="XMLID_3144_" class="st5" d="M266.9,314.5l86.1-49.7c2.6-1.5,4.6-0.4,4.6,2.3c0,2.8-2.1,6.2-4.6,7.7l-86.1,49.7
		c-2.6,1.5-4.6,0.4-4.6-2.3C262.3,319.4,264.4,316,266.9,314.5z"/>
	<path id="XMLID_3147_" class="st5" d="M266.9,334.5l86.1-49.7c2.6-1.5,4.6-0.4,4.6,2.3s-2.1,6.2-4.6,7.7l-86.1,49.7
		c-2.6,1.5-4.6,0.4-4.6-2.3C262.3,339.4,264.4,336,266.9,334.5z"/>
	<path id="XMLID_3178_" class="st7" d="M294.9,343.4L325,326c1.3-0.7,2.3-0.1,2.3,1.3l0,9.7c0,1.5-1,3.3-2.3,4l-30.1,17.4
		c-1.3,0.7-2.3,0.1-2.3-1.3l0-9.7C292.6,345.9,293.7,344.1,294.9,343.4z"/>
	<g id="XMLID_3180_">
		<path id="XMLID_3027_" class="st6" d="M268.8,316c-1.2,0.7-2.2,2.4-2.2,3.8s1,1.9,2.2,1.3c1.2-0.7,2.2-2.4,2.2-3.8
			C271,315.8,270,315.3,268.8,316z"/>
		<path id="XMLID_3023_" class="st6" d="M275.7,312c-1.2,0.7-2.2,2.4-2.2,3.8s1,1.9,2.2,1.3c1.2-0.7,2.2-2.4,2.2-3.8
			C277.8,311.9,276.9,311.3,275.7,312z"/>
		<path id="XMLID_3021_" class="st6" d="M282.5,308c-1.2,0.7-2.2,2.4-2.2,3.8s1,1.9,2.2,1.3c1.2-0.7,2.2-2.4,2.2-3.8
			S283.7,307.3,282.5,308z"/>
		<path id="XMLID_2993_" class="st6" d="M289.4,304.1c-1.2,0.7-2.2,2.4-2.2,3.8s1,1.9,2.2,1.3c1.2-0.7,2.2-2.4,2.2-3.8
			C291.6,303.9,290.6,303.4,289.4,304.1z"/>
		<path id="XMLID_2176_" class="st6" d="M296.3,300.1c-1.2,0.7-2.2,2.4-2.2,3.8s1,1.9,2.2,1.3c1.2-0.7,2.2-2.4,2.2-3.8
			C298.4,300,297.5,299.4,296.3,300.1z"/>
		<path id="XMLID_2175_" class="st6" d="M303.1,296.1c-1.2,0.7-2.2,2.4-2.2,3.8s1,1.9,2.2,1.3c1.2-0.7,2.2-2.4,2.2-3.8
			S304.3,295.4,303.1,296.1z"/>
		<path id="XMLID_2174_" class="st6" d="M310,292.1c-1.2,0.7-2.2,2.4-2.2,3.8c0,1.4,1,1.9,2.2,1.3c1.2-0.7,2.2-2.4,2.2-3.8
			C312.2,292,311.2,291.5,310,292.1z"/>
	</g>
	<g id="XMLID_2172_">
		<path id="XMLID_3020_" class="st6" d="M268.8,336c-1.2,0.7-2.2,2.4-2.2,3.8s1,1.9,2.2,1.3c1.2-0.7,2.2-2.4,2.2-3.8
			S270,335.3,268.8,336z"/>
		<path id="XMLID_3017_" class="st6" d="M275.7,332c-1.2,0.7-2.2,2.4-2.2,3.8s1,1.9,2.2,1.3c1.2-0.7,2.2-2.4,2.2-3.8
			C277.8,331.9,276.9,331.4,275.7,332z"/>
		<path id="XMLID_3016_" class="st6" d="M282.5,328.1c-1.2,0.7-2.2,2.4-2.2,3.8s1,1.9,2.2,1.3c1.2-0.7,2.2-2.4,2.2-3.8
			C284.7,327.9,283.7,327.4,282.5,328.1z"/>
		<path id="XMLID_3015_" class="st6" d="M289.4,324.1c-1.2,0.7-2.2,2.4-2.2,3.8s1,1.9,2.2,1.3c1.2-0.7,2.2-2.4,2.2-3.8
			C291.6,324,290.6,323.4,289.4,324.1z"/>
		<path id="XMLID_3008_" class="st6" d="M296.3,320.1c-1.2,0.7-2.2,2.4-2.2,3.8c0,1.4,1,1.9,2.2,1.3c1.2-0.7,2.2-2.4,2.2-3.8
			C298.4,320,297.5,319.4,296.3,320.1z"/>
		<path id="XMLID_2995_" class="st6" d="M303.1,316.2c-1.2,0.7-2.2,2.4-2.2,3.8c0,1.4,1,1.9,2.2,1.3c1.2-0.7,2.2-2.4,2.2-3.8
			C305.3,316,304.3,315.5,303.1,316.2z"/>
		<path id="XMLID_2994_" class="st6" d="M310,312.2c-1.2,0.7-2.2,2.4-2.2,3.8s1,1.9,2.2,1.3c1.2-0.7,2.2-2.4,2.2-3.8
			C312.2,312.1,311.2,311.5,310,312.2z"/>
	</g>
</g>
<g id="XMLID_1166_">
	<g id="XMLID_1191_">
		<g id="XMLID_1192_">
			<path id="XMLID_2975_" class="st8" d="M406.3,357.3c-3.7,0-7.3-0.9-10.5-2.8c-7.7-4.4-12.1-13.7-12.1-25.5
				c0-20.7,13.1-44.5,29.9-54.2c9-5.2,18-5.8,25.3-1.6c7.7,4.4,12.1,13.7,12.1,25.5c0,20.7-13.1,44.5-29.9,54.2
				C416,355.8,411,357.3,406.3,357.3z M428.4,285.4c-2.7,0-5.5,1.4-7.3,2.4c-12.2,7-22.5,25.9-22.5,41.3c0,6.2,1.7,10.9,4.7,12.6
				c3.3,1.9,7.9-0.2,10.4-1.6c12.2-7,22.5-25.9,22.5-41.3c0-6.2-1.7-10.9-4.7-12.6C430.5,285.6,429.4,285.4,428.4,285.4z"/>
		</g>
		<path id="XMLID_2986_" class="st13" d="M438.8,302.1c0-11.6-7.3-15.9-7.3-15.9l0,0c2.9,1.7,4.7,6.4,4.7,12.6
			c0,15.3-10.3,34.2-22.5,41.3c-2.5,1.4-7.1,3.5-10.4,1.6c0,0,6.2,3.8,14.7-0.8C430.3,334.1,438.8,317.4,438.8,302.1z"/>
	</g>
	<path id="XMLID_2978_" class="st13" d="M427,156.8c0-4.3-3.4-7.7-7.7-7.7c-4.3,0-7.7,3.4-7.7,7.7c0,0,0,0,0,0h0v122.4l0,0
		c0,1.1,0.8,2.3,2.3,3.1c3,1.7,7.9,1.7,10.9,0c1.5-0.9,2.3-2,2.3-3.1l0,0V156.8L427,156.8C427,156.9,427,156.8,427,156.8z"/>
	<path id="XMLID_2974_" class="st8" d="M420.9,184.2c0-2.8-2-6.3-4.4-7.7c-1.2-0.7-2.4-0.8-3.2-0.3l0,0l-19,10.9l-0.5,0.3
		c-0.1,0-0.1,0.1-0.2,0.1c-0.3,0.2-0.6,0.5-0.9,0.7c-1.1,1.1-1.9,2.7-1.9,4.5c0,2.4,1.3,4.5,3.3,5.5c0.9,0.5,1.9,0.8,3,0.8
		c1.1,0,2.1-0.3,3-0.8c0.1-0.1,0.2-0.1,0.4-0.2l19.1-11l0,0C420.4,186.6,420.9,185.6,420.9,184.2z"/>
	<path id="XMLID_2971_" class="st8" d="M420.9,214.9c0-2.8-2-6.3-4.4-7.7c-1.2-0.7-2.4-0.8-3.2-0.3l0,0L391,219.7l-0.5,0.3
		c-0.1,0-0.1,0.1-0.2,0.1c-0.3,0.2-0.6,0.5-0.9,0.7c-1.1,1.1-1.9,2.7-1.9,4.5c0,2.4,1.3,4.5,3.3,5.5c0.9,0.5,1.9,0.8,3,0.8
		c1.1,0,2.1-0.3,3-0.8c0.1-0.1,0.2-0.1,0.4-0.2l22.4-12.9l0,0C420.4,217.3,420.9,216.3,420.9,214.9z"/>
</g>
</svg>
