<?xml version="1.0" encoding="utf-8"?>
<!-- Generator: Adobe Illustrator 22.0.1, SVG Export Plug-In . SVG Version: 6.00 Build 0)  -->
<svg version="1.1" id="Layer_1" xmlns="http://www.w3.org/2000/svg" xmlns:xlink="http://www.w3.org/1999/xlink" x="0px" y="0px"
	 viewBox="0 0 500.8 496.2" style="enable-background:new 0 0 500.8 496.2;" xml:space="preserve">
<style type="text/css">
	.st0{fill:#E1E1E1;}
	.st1{fill:#82B379;}
	.st2{fill:#EBEBEB;}
	.st3{fill:#F5F6F6;}
	.st4{opacity:0.46;}
	.st5{fill:#385A65;}
	.st6{fill:#FAFBFB;}
	.st7{fill:none;stroke:#FFFFFF;stroke-miterlimit:10;}
	.st8{fill:#192E35;}
	.st9{fill:#FAA31C;}
	.st10{fill:#FAB17E;}
	.st11{fill:#864C47;}
	.st12{fill:#F6893F;}
	.st13{fill:#FFFFFF;}
	.st14{opacity:0.3;}
	.st15{opacity:0.4;}
	.st16{opacity:0.5;}
	.st17{fill:none;}
</style>
<g>
	<g>
		<g>
			<g>
				<g>
					<g>
						<g>
							<path class="st0" d="M424.4,373.5c-0.1,0.1-1.1-0.4-2.1-1.3c-1.1-0.9-1.8-1.7-1.7-1.8c0.1-0.1,1.1,0.4,2.1,1.3
								C423.7,372.6,424.5,373.4,424.4,373.5z"/>
						</g>
					</g>
				</g>
			</g>
			<g>
				<g>
					<g>
						<g>
							<path class="st1" d="M453.4,330.1c0.2-4.1,0.3-8.2-1-12.1c-1.3-3.9-4.3-7.4-8.2-8.2c-4.5-0.9-9.2,1.9-11.7,5.8
								c-2.5,3.9-3.4,8.6-4.2,13.2c-5.2,31.5-7.1,63.6-5.7,95.5l18.6,2.6C449.3,393.5,451.9,364.4,453.4,330.1z"/>
						</g>
					</g>
				</g>
				<g>
					<g>
						<g>
							<g>
								<path class="st0" d="M441.6,309.7c0,0,0,0.1-0.1,0.3c-0.1,0.2-0.2,0.5-0.3,0.8c-0.3,0.8-0.7,1.9-1.2,3.2
									c-0.3,0.7-0.6,1.5-0.9,2.3c-0.3,0.9-0.6,1.8-0.9,2.8c-0.3,1-0.7,2.1-1,3.2c-0.3,1.2-0.6,2.4-1,3.7
									c-1.4,5.1-2.6,11.4-3.6,18.4c-1,7-1.7,14.7-2.2,22.8c-0.9,16.3-1.1,31-1.5,41.7c-0.2,5.3-0.4,9.7-0.6,12.6
									c-0.1,1.4-0.2,2.6-0.2,3.4c0,0.4-0.1,0.7-0.1,0.9c0,0.2,0,0.3,0,0.3s0-0.1,0-0.3c0-0.2,0-0.5,0-0.9c0-0.8,0.1-2,0.1-3.4
									c0.1-3,0.2-7.3,0.4-12.6c0.3-10.7,0.4-25.4,1.3-41.7c0.5-8.1,1.2-15.9,2.2-22.9c1.1-7,2.3-13.3,3.7-18.4
									c0.4-1.3,0.7-2.5,1-3.7c0.4-1.1,0.8-2.2,1.1-3.2c0.3-1,0.7-1.9,1-2.8c0.3-0.9,0.7-1.6,0.9-2.3c0.6-1.3,1-2.4,1.4-3.2
									c0.1-0.3,0.3-0.6,0.4-0.8C441.6,309.8,441.6,309.7,441.6,309.7z"/>
							</g>
						</g>
					</g>
				</g>
				<g>
					<g>
						<g>
							<g>
								<path class="st0" d="M443.3,309.7c0,0,1.1,1.2,2.3,3.8c1.2,2.7,1.9,6.9,1.7,12c-0.5,10.3-1.4,24.4-2.6,40
									c-1.2,15.6-2.6,29.7-3.7,39.9c-0.5,5.1-1,9.2-1.4,12.1c-0.2,1.4-0.3,2.5-0.4,3.3c-0.1,0.3-0.1,0.6-0.1,0.9
									c0,0.2-0.1,0.3-0.1,0.3c0,0,0-0.1,0-0.3c0-0.2,0-0.5,0.1-0.9c0.1-0.8,0.2-1.9,0.3-3.3c0.3-2.9,0.7-7,1.2-12.1
									c1-10.2,2.3-24.3,3.5-39.9c1.2-15.6,2.2-29.7,2.8-40c0.3-5.1-0.4-9.3-1.5-11.9C444.3,311,443.3,309.7,443.3,309.7z"/>
							</g>
						</g>
					</g>
				</g>
				<g>
					<g>
						<g>
							<g>
								<path class="st0" d="M456.2,357.7c-0.1,0.2-1.6-0.2-3.5-0.9c-1.9-0.7-3.4-1.4-3.3-1.5c0.1-0.2,1.6,0.2,3.5,0.9
									C454.8,356.9,456.3,357.6,456.2,357.7z"/>
							</g>
						</g>
					</g>
				</g>
				<g>
					<g>
						<g>
							<g>
								<path class="st0" d="M458.4,338.8c0.1,0.2-1.4,1-3.3,1.9c-1.9,0.9-3.5,1.4-3.6,1.3c-0.1-0.2,1.4-1,3.3-1.9
									C456.7,339.2,458.4,338.7,458.4,338.8z"/>
							</g>
						</g>
					</g>
				</g>
				<g>
					<g>
						<g>
							<g>
								<path class="st0" d="M457.3,323.4c0,0.2-1.3,0.2-2.8,0.1c-1.5-0.1-2.7-0.3-2.7-0.5c0-0.2,1.3-0.2,2.8-0.1
									C456.1,323,457.3,323.2,457.3,323.4z"/>
							</g>
						</g>
					</g>
				</g>
				<g>
					<g>
						<g>
							<g>
								<path class="st0" d="M438.1,313.5c-0.2,0.1-1-0.9-1.8-2.3c-0.8-1.3-1.4-2.5-1.3-2.6c0.2-0.1,1,0.9,1.8,2.3
									C437.7,312.2,438.3,313.4,438.1,313.5z"/>
							</g>
						</g>
					</g>
				</g>
				<g>
					<g>
						<g>
							<g>
								<path class="st0" d="M431.8,322.8c0,0.2-1.2,0.3-2.6,0.3c-1.5,0-2.6-0.2-2.6-0.4c0-0.2,1.2-0.3,2.6-0.3
									C430.6,322.5,431.8,322.6,431.8,322.8z"/>
							</g>
						</g>
					</g>
				</g>
				<g>
					<g>
						<g>
							<g>
								<path class="st0" d="M427.2,341.5c-0.1,0.2-1.3-0.2-2.8-0.8c-1.5-0.6-2.6-1.2-2.5-1.4c0.1-0.2,1.3,0.2,2.8,0.8
									C426.2,340.7,427.3,341.3,427.2,341.5z"/>
							</g>
						</g>
					</g>
				</g>
				<g>
					<g>
						<g>
							<g>
								<path class="st0" d="M426.8,357.2c0,0.2-1,0.6-2.4,0.8c-1.3,0.3-2.5,0.4-2.5,0.2c0-0.2,1-0.6,2.4-0.8
									C425.6,357.1,426.7,357,426.8,357.2z"/>
							</g>
						</g>
					</g>
				</g>
				<g>
					<g>
						<g>
							<g>
								<path class="st0" d="M424.6,382.9c0,0.2-1.1,0.5-2.5,0.8c-1.4,0.3-2.6,0.3-2.6,0.1c0-0.2,1.1-0.5,2.5-0.8
									C423.4,382.8,424.6,382.7,424.6,382.9z"/>
							</g>
						</g>
					</g>
				</g>
				<g>
					<g>
						<g>
							<g>
								<path class="st0" d="M423.2,397.1c0.1,0.2-0.9,0.8-2.1,1.5c-1.2,0.7-2.3,1.1-2.4,0.9c-0.1-0.2,0.9-0.8,2.1-1.5
									C422,397.4,423.1,397,423.2,397.1z"/>
							</g>
						</g>
					</g>
				</g>
				<g>
					<g>
						<g>
							<g>
								<path class="st0" d="M434.8,413.2c-0.2,0.1-1-1-1.8-2.5c-0.8-1.5-1.4-2.8-1.2-2.8c0.2-0.1,1,1,1.8,2.5
									C434.4,411.9,434.9,413.1,434.8,413.2z"/>
							</g>
						</g>
					</g>
				</g>
				<g>
					<g>
						<g>
							<g>
								<path class="st0" d="M438.1,386.5c0.1,0.1-0.8,1.2-2,2.5c-1.2,1.2-2.4,2.1-2.5,2c-0.1-0.1,0.8-1.2,2-2.5
									C436.9,387.2,438,386.3,438.1,386.5z"/>
							</g>
						</g>
					</g>
				</g>
				<g>
					<g>
						<g>
							<g>
								<path class="st0" d="M437.4,372.4c-0.1,0.1-1-0.6-1.9-1.5c-0.9-1-1.5-1.9-1.4-2c0.1-0.1,1,0.6,1.9,1.5
									C436.9,371.4,437.5,372.3,437.4,372.4z"/>
							</g>
						</g>
					</g>
				</g>
				<g>
					<g>
						<g>
							<g>
								<path class="st0" d="M439.7,354.5c0.1,0.1-0.6,1.2-1.7,2.4c-1.1,1.2-2.1,2.1-2.2,1.9c-0.1-0.1,0.6-1.2,1.7-2.4
									C438.6,355.2,439.6,354.4,439.7,354.5z"/>
							</g>
						</g>
					</g>
				</g>
				<g>
					<g>
						<g>
							<g>
								<path class="st0" d="M441,341.4c-0.1,0.1-1.2-0.7-2.4-1.9c-1.2-1.2-2-2.2-1.9-2.3s1.2,0.7,2.4,1.9
									C440.3,340.3,441.1,341.3,441,341.4z"/>
							</g>
						</g>
					</g>
				</g>
				<g>
					<g>
						<g>
							<g>
								<path class="st0" d="M443.5,323.8c0.2,0.1-0.4,1.3-1.2,2.6c-0.8,1.4-1.6,2.4-1.8,2.3c-0.2-0.1,0.4-1.3,1.2-2.6
									C442.6,324.8,443.4,323.8,443.5,323.8z"/>
							</g>
						</g>
					</g>
				</g>
				<g>
					<g>
						<g>
							<g>
								<path class="st0" d="M448.3,307.5c0.2,0.1-0.3,1.3-1,2.6c-0.7,1.4-1.5,2.4-1.6,2.3c-0.2-0.1,0.3-1.3,1-2.6
									C447.4,308.5,448.1,307.4,448.3,307.5z"/>
							</g>
						</g>
					</g>
				</g>
				<g>
					<g>
						<g>
							<g>
								<path class="st0" d="M453.7,314.9c0.1,0.2-0.7,0.7-1.7,1.2c-1,0.5-1.9,0.7-1.9,0.6c-0.1-0.2,0.7-0.7,1.7-1.2
									C452.8,315,453.7,314.8,453.7,314.9z"/>
							</g>
						</g>
					</g>
				</g>
				<g>
					<g>
						<g>
							<g>
								<path class="st0" d="M453.9,373.5c0,0.2-1.7-0.1-3.6-0.9c-1.9-0.8-3.2-1.9-3.1-2c0.1-0.2,1.6,0.6,3.4,1.4
									C452.3,372.8,453.9,373.3,453.9,373.5z"/>
							</g>
						</g>
					</g>
				</g>
				<g>
					<g>
						<g>
							<g>
								<path class="st0" d="M451.6,385.9c0,0.2-1.1,0.5-2.5,0.8c-1.4,0.3-2.6,0.3-2.6,0.2c0-0.2,1.1-0.5,2.5-0.8
									C450.4,385.8,451.6,385.8,451.6,385.9z"/>
							</g>
						</g>
					</g>
				</g>
				<g>
					<g>
						<g>
							<g>
								<path class="st0" d="M448.9,407.2c-0.1,0.1-1.5-0.8-2.8-2.5c-1.3-1.6-1.9-3.2-1.8-3.3c0.2-0.1,1,1.3,2.3,2.9
									C447.9,405.9,449,407.1,448.9,407.2z"/>
							</g>
						</g>
					</g>
				</g>
				<g>
					<g>
						<g>
							<g>
								<path class="st0" d="M419.1,416.9c-0.1-0.1,0.6-1,1.7-1.9c1-0.9,2-1.5,2.1-1.4c0.1,0.1-0.6,1-1.7,1.9
									C420.1,416.5,419.2,417.1,419.1,416.9z"/>
							</g>
						</g>
					</g>
				</g>
			</g>
		</g>
		<g>
			<g>
				<g>
					<path class="st1" d="M410.5,370.5c-1.2-3.8-3.5-8.2-7.4-8.2c-2.4,0-4.5,1.7-5.6,3.7c-1.1,2.1-1.6,4.5-1.5,6.8
						c0.5,15.5,3.1,33.3,8.5,49.5H419C418.8,404.3,416,387.6,410.5,370.5z"/>
				</g>
			</g>
		</g>
		<g>
			<g>
				<g>
					<path class="st1" d="M384.3,346.8c-2-8.1-8.1-12.5-15.1-12.9c-6.4,1.1-8.9,7.4-9.7,13.9c-0.8,6.5,1.2,12.9,3.2,19.1
						c6.4,19.9,12.7,39.8,19.1,59.7c6-0.7,12-1.3,18-2C394.2,397.9,390.9,373.2,384.3,346.8z"/>
				</g>
			</g>
		</g>
		<g>
			<g>
				<g>
					<g>
						<path class="st0" d="M403.1,362.3c0.1,0-0.6,0.7-1.2,2.1c-0.6,1.4-0.9,3.7-0.7,6.4c0.3,2.8,0.6,6.1,1.1,9.7
							c0.5,3.6,1.1,7.6,1.9,11.8c1.6,8.3,3.5,15.8,4.7,21.3c0.6,2.7,1,4.9,1.3,6.5c0.1,0.7,0.2,1.3,0.3,1.8c0.1,0.4,0.1,0.6,0.1,0.6
							c0,0-0.1-0.2-0.2-0.6c-0.1-0.5-0.3-1-0.4-1.7c-0.4-1.6-0.9-3.8-1.5-6.4c-1.3-5.4-3.2-12.9-4.9-21.2c-0.8-4.2-1.5-8.2-1.9-11.8
							c-0.2-1.8-0.4-3.6-0.5-5.2c-0.1-1.6-0.3-3.1-0.4-4.5c-0.2-2.8,0.2-5.1,0.9-6.5C402.3,362.8,403.1,362.3,403.1,362.3z"/>
					</g>
				</g>
			</g>
		</g>
		<g>
			<g>
				<g>
					<g>
						<path class="st0" d="M369.4,333.3c0.1,0.1-1,0.9-2.2,2.9c-1.2,2-2.5,5.2-2.7,9.4c-0.3,4.2,0.7,9.2,2.2,14.5
							c1.6,5.4,3.3,11.3,5.1,17.4c3.6,12.4,6.9,23.6,9.2,31.7c1.1,4,2.1,7.3,2.7,9.6c0.3,1.1,0.5,2,0.7,2.6c0.2,0.6,0.2,0.9,0.2,0.9
							c0,0-0.1-0.3-0.3-0.9c-0.2-0.7-0.5-1.5-0.8-2.6c-0.7-2.3-1.7-5.6-2.9-9.6c-2.4-8.2-5.7-19.3-9.4-31.7
							c-1.8-6.2-3.5-12.1-5.1-17.5c-1.5-5.4-2.5-10.4-2.1-14.7c0.3-4.3,1.7-7.6,3-9.5C368.3,334.1,369.4,333.3,369.4,333.3z"/>
					</g>
				</g>
			</g>
		</g>
		<g>
			<g>
				<g>
					<g>
						<path class="st0" d="M395.9,422.6c0,0-0.2-0.3-0.4-0.9c-0.2-0.6-0.6-1.4-1-2.5c-0.9-2.2-2-5.5-3.1-9.6
							c-1.1-4.1-2.3-9-3.4-14.5c-1-5.5-2.2-11.6-3.4-17.9c-1.3-6.3-2.7-12.4-4.3-17.7c-1.6-5.4-3.4-10.1-5.3-13.9
							c-1.8-3.8-3.6-6.8-4.9-8.8c-0.6-1-1.2-1.7-1.5-2.3c-0.3-0.5-0.5-0.8-0.5-0.8c0,0,0.2,0.2,0.6,0.7c0.4,0.5,1,1.2,1.6,2.2
							c1.4,1.9,3.2,4.9,5.1,8.7c1.9,3.8,3.8,8.5,5.4,13.9c1.7,5.4,3.1,11.4,4.3,17.8c1.2,6.4,2.3,12.4,3.3,18
							c1.1,5.5,2.1,10.4,3.2,14.5c1.1,4.1,2.1,7.4,2.9,9.6c0.4,1.1,0.7,2,0.9,2.6C395.9,422.3,396,422.6,395.9,422.6z"/>
					</g>
				</g>
			</g>
		</g>
		<g>
			<g>
				<g>
					<g>
						<path class="st0" d="M363.1,363.9c0,0.2-0.9,0.6-2.2,0.9c-1.3,0.3-2.3,0.4-2.3,0.2c0-0.2,0.9-0.6,2.2-0.9
							C362,363.8,363,363.7,363.1,363.9z"/>
					</g>
				</g>
			</g>
		</g>
		<g>
			<g>
				<g>
					<g>
						<path class="st0" d="M361.2,351.6c0,0.2-1.4,0.3-3,0.3c-1.7,0.1-3,0.1-3.1-0.1c0-0.2,1.3-0.5,3-0.6
							C359.8,351.2,361.2,351.4,361.2,351.6z"/>
					</g>
				</g>
			</g>
		</g>
		<g>
			<g>
				<g>
					<g>
						<path class="st0" d="M363.2,340.3c-0.1,0.1-1.1-0.5-2.2-1.4c-1.1-0.9-1.9-1.8-1.8-1.9c0.1-0.1,1.1,0.5,2.2,1.4
							C362.5,339.3,363.3,340.2,363.2,340.3z"/>
					</g>
				</g>
			</g>
		</g>
		<g>
			<g>
				<g>
					<g>
						<path class="st0" d="M368.7,329.9c0.2,0,0.1,0.9,0.1,2c0,1.1,0,1.9-0.2,2c-0.2,0-0.5-0.9-0.4-2
							C368.2,330.7,368.5,329.9,368.7,329.9z"/>
					</g>
				</g>
			</g>
		</g>
		<g>
			<g>
				<g>
					<g>
						<path class="st0" d="M379.9,334.8c0.2,0.1-0.3,1-1,2c-0.7,1-1.4,1.7-1.5,1.6c-0.2-0.1,0.3-1,1-2
							C379.1,335.4,379.8,334.7,379.9,334.8z"/>
					</g>
				</g>
			</g>
		</g>
		<g>
			<g>
				<g>
					<g>
						<path class="st0" d="M387.2,347.5c0.1,0.2-0.9,0.7-2.1,1.2c-1.2,0.5-2.3,0.8-2.3,0.6c-0.1-0.2,0.9-0.7,2.1-1.2
							C386.1,347.6,387.2,347.3,387.2,347.5z"/>
					</g>
				</g>
			</g>
		</g>
		<g>
			<g>
				<g>
					<g>
						<path class="st0" d="M391.7,360.5c0.1,0.2-1.2,0.9-2.9,1.2c-1.7,0.4-3.1,0.3-3.1,0.1c0-0.2,1.3-0.4,3-0.8
							C390.3,360.8,391.6,360.4,391.7,360.5z"/>
					</g>
				</g>
			</g>
		</g>
		<g>
			<g>
				<g>
					<g>
						<path class="st0" d="M371.3,356.8c-0.2-0.1,0-1,0.3-2c0.3-1.1,0.7-1.9,0.9-1.8c0.2,0.1,0,1-0.3,2
							C371.9,356.1,371.5,356.9,371.3,356.8z"/>
					</g>
				</g>
			</g>
		</g>
		<g>
			<g>
				<g>
					<g>
						<path class="st0" d="M374.2,373.2c-0.2-0.1,0.2-1.3,0.8-2.7c0.6-1.4,1.3-2.5,1.4-2.4c0.2,0.1-0.2,1.3-0.8,2.7
							C375,372.2,374.3,373.3,374.2,373.2z"/>
					</g>
				</g>
			</g>
		</g>
		<g>
			<g>
				<g>
					<g>
						<path class="st0" d="M367.2,377.7c-0.1,0.2-1.2-0.1-2.6-0.6c-1.4-0.4-2.5-0.8-2.5-1c0-0.2,1.2-0.1,2.7,0.4
							C366.2,376.9,367.2,377.5,367.2,377.7z"/>
					</g>
				</g>
			</g>
		</g>
		<g>
			<g>
				<g>
					<g>
						<path class="st0" d="M371.2,391c0.1,0.1-0.7,0.9-1.7,1.6c-1.1,0.8-2,1.2-2.1,1.1c-0.1-0.1,0.7-0.9,1.7-1.6
							C370.2,391.4,371.1,390.9,371.2,391z"/>
					</g>
				</g>
			</g>
		</g>
		<g>
			<g>
				<g>
					<g>
						<path class="st0" d="M374.4,404.3c0,0.2-0.9,0.6-2.1,0.9c-1.2,0.3-2.2,0.4-2.3,0.2c0-0.2,0.9-0.6,2.1-0.9
							C373.4,404.3,374.4,404.2,374.4,404.3z"/>
					</g>
				</g>
			</g>
		</g>
		<g>
			<g>
				<g>
					<g>
						<path class="st0" d="M392,371.6c0.1,0.2-0.7,0.8-1.9,1.3c-1.2,0.5-2.2,0.5-2.3,0.3c0-0.2,0.9-0.5,2-0.9
							C391,371.9,391.9,371.5,392,371.6z"/>
					</g>
				</g>
			</g>
		</g>
		<g>
			<g>
				<g>
					<g>
						<path class="st0" d="M394.5,392.4c-0.1,0.2-1.1-0.1-2.2-0.7c-1.1-0.5-2-1.1-1.9-1.3c0.1-0.2,1.1,0.1,2.2,0.7
							C393.8,391.6,394.6,392.2,394.5,392.4z"/>
					</g>
				</g>
			</g>
		</g>
		<g>
			<g>
				<g>
					<g>
						<path class="st0" d="M399,407.2c-0.1,0.2-1.4-0.2-2.9-0.8c-1.5-0.6-2.7-1.2-2.6-1.4c0.1-0.2,1.4,0.2,2.9,0.8
							C397.8,406.4,399,407,399,407.2z"/>
					</g>
				</g>
			</g>
		</g>
		<g>
			<g>
				<g>
					<g>
						<path class="st0" d="M375.2,418.8c-0.1-0.2,1.1-1,2.5-2c1.4-1.1,2.4-2,2.6-1.9c0.1,0.1-0.7,1.3-2.2,2.4
							C376.6,418.4,375.2,418.9,375.2,418.8z"/>
					</g>
				</g>
			</g>
		</g>
		<g>
			<g>
				<g>
					<g>
						<path class="st0" d="M386.9,411.2c-0.2,0-0.4-1-0.9-2.1c-0.4-1.2-0.9-2.1-0.8-2.2c0.1-0.1,0.9,0.7,1.4,1.9
							C387.1,410.1,387,411.2,386.9,411.2z"/>
					</g>
				</g>
			</g>
		</g>
		<g>
			<g>
				<g>
					<g>
						<path class="st0" d="M383.8,393.4c-0.1,0.1-0.9-0.2-1.7-0.8c-0.8-0.6-1.4-1.2-1.3-1.3c0.1-0.1,0.9,0.2,1.7,0.8
							C383.3,392.7,383.9,393.3,383.8,393.4z"/>
					</g>
				</g>
			</g>
		</g>
		<g>
			<g>
				<g>
					<g>
						<path class="st0" d="M411.1,365.5c0.1,0.1-0.6,0.9-1.6,1.6c-1,0.8-1.9,1.2-2,1.1c-0.1-0.1,0.6-0.9,1.6-1.6
							C410.1,365.8,411,365.3,411.1,365.5z"/>
					</g>
				</g>
			</g>
		</g>
		<g>
			<g>
				<g>
					<g>
						<path class="st0" d="M415.2,376.8c0,0.2-1.1,0.4-2.6,0.3c-1.4-0.2-2.5-0.6-2.5-0.8c0.1-0.2,1.2,0,2.5,0.1
							C414.1,376.5,415.2,376.6,415.2,376.8z"/>
					</g>
				</g>
			</g>
		</g>
		<g>
			<g>
				<g>
					<g>
						<path class="st0" d="M397.5,379.3c0,0.2-1,0.6-2.4,0.6c-1.4,0.1-2.5-0.1-2.5-0.3c0-0.2,1.1-0.2,2.4-0.3
							C396.4,379.2,397.5,379.1,397.5,379.3z"/>
					</g>
				</g>
			</g>
		</g>
		<g>
			<g>
				<g>
					<g>
						<path class="st0" d="M399,368.6c0,0.2-1.1,0.2-2.3-0.3c-1.2-0.5-1.9-1.4-1.7-1.5c0.1-0.1,0.9,0.4,2,0.9
							C398.1,368.2,399,368.4,399,368.6z"/>
					</g>
				</g>
			</g>
		</g>
		<g>
			<g>
				<g>
					<g>
						<path class="st0" d="M416.7,388.8c-0.1,0.2-1.2-0.4-2.5-1.2c-1.3-0.8-2.2-1.6-2.1-1.7c0.1-0.2,1.2,0.4,2.5,1.2
							C415.9,387.9,416.8,388.7,416.7,388.8z"/>
					</g>
				</g>
			</g>
		</g>
		<g>
			<g>
				<g>
					<g>
						<rect x="365.5" y="420.4" class="st0" width="94.4" height="16.7"/>
					</g>
				</g>
			</g>
			<g>
				<g>
					<g>
						<polygon class="st0" points="372.5,433.8 384,483.8 440.3,483.8 452.8,433.8 						"/>
					</g>
				</g>
			</g>
			<g>
				<g>
					<g>
						<g>
							<path class="st2" d="M459.8,437.2c0,0.2-21.3,0.3-47.6,0.3c-26.3,0-47.6-0.1-47.6-0.3c0-0.2,21.3-0.3,47.6-0.3
								C438.5,436.8,459.8,437,459.8,437.2z"/>
						</g>
					</g>
				</g>
			</g>
		</g>
		<g>
			<g>
				<g>
					<g>
						<path class="st0" d="M407.3,379.6c-0.2,0.1-0.8-0.7-1.4-1.7c-0.6-1-1-1.9-0.9-2c0.2-0.1,0.8,0.7,1.4,1.7
							C407.1,378.6,407.5,379.5,407.3,379.6z"/>
					</g>
				</g>
			</g>
		</g>
		<g>
			<g>
				<g>
					<g>
						<path class="st0" d="M407.4,393.1c-0.2-0.1,0-1.2,0.5-2.5c0.4-1.3,0.9-2.4,1.1-2.3c0.2,0.1,0,1.2-0.5,2.5
							C408,392.1,407.5,393.2,407.4,393.1z"/>
					</g>
				</g>
			</g>
		</g>
		<g>
			<g>
				<g>
					<g>
						<path class="st0" d="M412,407.2c-0.2,0.1-0.9-1.1-1.6-2.5c-0.7-1.5-1.1-2.7-1-2.8c0.2-0.1,0.9,1.1,1.6,2.5
							C411.7,405.9,412.1,407.2,412,407.2z"/>
					</g>
				</g>
			</g>
		</g>
		<g>
			<g>
				<g>
					<g>
						<path class="st0" d="M402,418.6c-0.1-0.1,0.4-1,1.3-2c0.8-1,1.6-1.6,1.8-1.5c0.1,0.1-0.4,1-1.3,2
							C402.9,418,402.1,418.7,402,418.6z"/>
					</g>
				</g>
			</g>
		</g>
		<g>
			<g>
				<g>
					<g>
						<path class="st0" d="M399.9,398c0,0.2-0.9,0.2-2,0c-1.1-0.2-1.9-0.5-1.9-0.7c0-0.2,0.9-0.2,2,0
							C399.1,397.5,399.9,397.8,399.9,398z"/>
					</g>
				</g>
			</g>
		</g>
	</g>
	<g>
		<g>
			<g>
				<g>
					<g>
						<g>
							<g>
								<g>
									<g>
										<polygon class="st3" points="325.9,432.1 325.9,485.6 247.7,485.6 161.5,485.6 161.5,432.1 										"/>
									</g>
								</g>
							</g>
						</g>
					</g>
				</g>
			</g>
			<g>
				<g>
					<g>
						<g>
							<g>
								<g>
									<g>
										<polygon class="st0" points="332.8,417.2 332.8,432.1 155.8,432.1 155.8,417.2 247.7,417.2 										"/>
									</g>
								</g>
							</g>
						</g>
					</g>
				</g>
			</g>
			<g>
				<g>
					<g>
						<g>
							<g>
								<g>
									<g>
										<polygon class="st0" points="244.3,485.6 161.5,485.6 161.5,432.1 155.8,432.1 155.8,417.2 247.7,417.2 247.7,430.7 
																					"/>
									</g>
								</g>
							</g>
						</g>
					</g>
				</g>
			</g>
			<g>
				<g>
					<g>
						<g>
							<g>
								<g>
									<g>
										<rect x="269.6" y="440.7" class="st0" width="33.3" height="8"/>
									</g>
								</g>
							</g>
						</g>
					</g>
				</g>
			</g>
			<g class="st4">
				<g>
					<g>
						<g>
							<g>
								<g>
									<g>
										
											<rect x="264.4" y="458.8" transform="matrix(-1 -1.224647e-16 1.224647e-16 -1 571.5754 934.642)" class="st1" width="42.8" height="17"/>
									</g>
								</g>
							</g>
						</g>
					</g>
				</g>
			</g>
		</g>
	</g>
	<g>
		<g>
			<g>
				<g>
					<g>
						<g>
							<g>
								<rect x="41.4" y="16.1" class="st0" width="155" height="161.5"/>
							</g>
						</g>
					</g>
				</g>
			</g>
			<g>
				<g>
					<g>
						<g>
							<g>
								<rect x="30.9" y="16.1" class="st5" width="155" height="161.5"/>
							</g>
						</g>
					</g>
				</g>
				<g>
					<g>
						<g>
							<g>
								<path class="st3" d="M185.9,177.7H30.8V16.1h155.1V177.7z"/>
							</g>
						</g>
					</g>
				</g>
			</g>
			<g>
				<g>
					<g>
						<g>
							<g>
								<rect x="51.7" y="37.8" class="st6" width="113.3" height="118.1"/>
							</g>
						</g>
					</g>
				</g>
			</g>
			<g>
				<g>
					<g>
						<g>
							<g>
								<g>
									<path class="st0" d="M51.7,156.7c0.1,0.1-1,1.3-2.8,3.3c-1.8,1.9-4.4,4.5-7.2,7.3c-2.9,2.8-5.5,5.3-7.4,7.1
										c-1.9,1.8-3.2,2.8-3.3,2.7c-0.1-0.1,1-1.3,2.8-3.2c1.8-1.9,4.4-4.5,7.2-7.3c2.9-2.8,5.5-5.3,7.4-7.1
										C50.4,157.7,51.6,156.6,51.7,156.7z"/>
								</g>
							</g>
						</g>
					</g>
				</g>
			</g>
			<g>
				<g>
					<g>
						<g>
							<g>
								<g>
									<path class="st0" d="M165,156.4c0.1-0.1,1.3,1,3.3,2.8c1.9,1.8,4.5,4.4,7.3,7.2c2.8,2.9,5.3,5.5,7.1,7.4
										c1.8,1.9,2.8,3.2,2.7,3.3c-0.1,0.1-1.3-1-3.2-2.8c-1.9-1.8-4.5-4.4-7.3-7.2c-2.8-2.9-5.3-5.5-7.1-7.4
										C166,157.8,164.9,156.5,165,156.4z"/>
								</g>
							</g>
						</g>
					</g>
				</g>
			</g>
			<g>
				<g>
					<g>
						<g>
							<g>
								<g>
									<path class="st0" d="M164.7,38.1c-0.1-0.1,1-1.3,2.8-3.3c1.8-1.9,4.4-4.5,7.2-7.3c2.9-2.8,5.5-5.3,7.4-7.1
										c1.9-1.8,3.2-2.8,3.3-2.7c0.1,0.1-1,1.3-2.8,3.2c-1.8,1.9-4.4,4.5-7.2,7.3c-2.9,2.8-5.5,5.3-7.4,7.1
										C166,37.2,164.8,38.2,164.7,38.1z"/>
								</g>
							</g>
						</g>
					</g>
				</g>
			</g>
			<g>
				<g>
					<g>
						<g>
							<g>
								<g>
									<path class="st0" d="M51.4,38.4c-0.1,0.1-1.3-1-3.3-2.8c-1.9-1.8-4.5-4.4-7.3-7.2C38,25.6,35.5,23,33.8,21
										c-1.8-1.9-2.8-3.2-2.7-3.3c0.1-0.1,1.3,1,3.2,2.8c1.9,1.8,4.5,4.4,7.3,7.2c2.8,2.9,5.3,5.5,7.1,7.4
										C50.5,37.1,51.5,38.3,51.4,38.4z"/>
								</g>
							</g>
						</g>
					</g>
				</g>
			</g>
			<g>
				<g>
					<g>
						<g>
							<g>
								<g>
									<path class="st0" d="M164.7,155.9c0,0,0-0.2,0-0.6c0-0.4,0-0.9,0-1.6c0-1.5,0-3.6-0.1-6.4c0-5.6-0.1-13.7-0.1-24.1
										c-0.1-20.7-0.1-50.2-0.2-85.4l0.4,0.4c-33,0-71.7,0-113,0.1h0l0.5-0.5c0,43.3-0.1,83.9-0.1,118.1l-0.4-0.4
										c33.9,0.1,62,0.2,81.8,0.2c9.9,0,17.6,0.1,23,0.1c2.6,0,4.7,0,6.1,0c0.7,0,1.2,0,1.6,0
										C164.5,155.9,164.7,155.9,164.7,155.9c0,0-0.2,0-0.5,0c-0.4,0-0.9,0-1.5,0c-1.4,0-3.4,0-6,0c-5.3,0-13.1,0.1-22.9,0.1
										c-19.8,0.1-48.1,0.1-82.1,0.2l-0.4,0l0-0.4c0-34.2,0-74.8-0.1-118.1l0-0.5h0.5h0c41.3,0,80,0,113,0.1l0.4,0l0,0.4
										c-0.1,35.4-0.2,65-0.2,85.7c0,10.3-0.1,18.4-0.1,24c0,2.7,0,4.8-0.1,6.3c0,0.7,0,1.2,0,1.6
										C164.7,155.8,164.7,155.9,164.7,155.9z"/>
								</g>
							</g>
						</g>
					</g>
				</g>
			</g>
		</g>
		<g>
			<g>
				<g>
					<g>
						<g>
							<path class="st3" d="M87.5,128.9c-8.5-8.6-9.1-23.8-1.1-33c3.1-3.6,7.3-6.3,10.3-10.1c6.3-8.2,6.2-21.2,15-26.7
								c6.4-4,15.6-1.7,20.3,4.2c4.7,6,5.1,14.6,2,21.5c-2.2,5.1-6.1,9.5-7.7,14.8c-1.6,5.5-0.7,11.5-2.4,16.9
								c-2.1,6.6-9,10.8-15.5,13.2C101.8,132.2,93.5,131.6,87.5,128.9"/>
						</g>
					</g>
				</g>
			</g>
			<g>
				<g>
					<g>
						<g>
							<g>
								<path class="st0" d="M119.3,74.5c0.1,0-0.3,1.1-1.1,3.1c-0.8,2-2,4.8-3.5,8.3c-3.1,6.9-7.9,16.3-14,26.2
									c-6.1,9.9-12.4,18.3-17.3,24.2c-2.4,2.9-4.4,5.3-5.9,6.8c-1.4,1.6-2.3,2.4-2.3,2.4c-0.1,0,0.7-1,2-2.6c1.4-1.6,3.3-4,5.6-7
									c4.7-6,10.9-14.5,17-24.3c6.1-9.8,10.9-19.2,14.2-26c1.6-3.4,2.9-6.2,3.8-8.2C118.8,75.5,119.3,74.4,119.3,74.5z"/>
							</g>
						</g>
					</g>
				</g>
			</g>
			<g>
				<g>
					<g>
						<g>
							<g>
								<path class="st0" d="M95.9,94.9c0.1,0,0.5,2.2,0.9,6c0.4,3.7,1,8.9,1.6,14.8l-0.8-0.4c0.8-0.5,1.6-0.9,2.4-1.4
									c5.7-3.3,10.8-6.2,14.6-8.3c3.8-2.1,6.1-3.3,6.2-3.2c0.1,0.1-2.2,1.6-5.8,3.8c-3.7,2.2-8.8,5.3-14.4,8.6
									c-0.8,0.5-1.7,1-2.4,1.4l-0.7,0.4l-0.1-0.8c-0.5-5.9-1-11.1-1.2-14.8C95.9,97.2,95.8,95,95.9,94.9z"/>
							</g>
						</g>
					</g>
				</g>
			</g>
			<g>
				<g>
					<g>
						<g>
							<g>
								<path class="st0" d="M125.7,86.2c0.1,0.1-1.4,0.9-3.8,2.1c-2.4,1.2-5.8,2.8-9.5,4.5c-0.4,0.2-0.8,0.4-1.2,0.5l-0.6,0.3
									l-0.1-0.7c-0.6-3.8-1.1-7.1-1.4-9.6c-0.3-2.4-0.4-3.9-0.3-3.9c0.1,0,0.5,1.4,1,3.8c0.5,2.4,1.1,5.8,1.7,9.5l-0.7-0.4
									c0.4-0.2,0.8-0.4,1.2-0.5c3.7-1.7,7.2-3.2,9.6-4.2C124,86.6,125.6,86.1,125.7,86.2z"/>
							</g>
						</g>
					</g>
				</g>
			</g>
		</g>
		<g>
			<g>
				<g>
					<g>
						<g>
							<path class="st7" d="M47.5,18.4"/>
						</g>
					</g>
				</g>
			</g>
		</g>
	</g>
	<g>
		<g>
			<g>
				<g>
					<path class="st8" d="M178.2,210.8c-0.1-0.1-0.2,1.9-2.6,3.8c-1.2,0.8-3.1,1.6-5.1,1c-2-0.6-3.9-2.5-4.3-5.1
						c-0.2-1.3,0.1-2.7,0.8-3.9c0.7-1.2,1.8-2.3,3.1-3.3c2.5-1.9,5.9-3.5,7.8-6.9c2-3.2,2.6-7.5,1.3-11.4c-0.6-2-1.6-3.8-2.9-5.5
						c-1.3-1.7-3-3-4.7-4.3c-1.7-1.3-3.3-2.5-4.7-4c-1.3-1.5-2.2-3.2-2.2-5.1c-0.1-1.9,0.6-3.7,1.5-5.3c0.9-1.6,2.1-3,3.4-4.2
						c2.6-2.5,5.4-4.7,7.1-7.6c1.7-2.9,2.4-6,2.2-8.8c-0.1-2.8-1.1-5.2-2-7.2c-0.9-2-1.6-3.7-2-5.2c-0.8-3-0.1-4.7-0.3-4.7
						c0,0-0.1,0.1-0.1,0.3c0,0.2-0.2,0.5-0.2,0.9c-0.1,0.8-0.1,2,0.2,3.6c0.3,1.5,1,3.3,1.8,5.3c0.8,2,1.7,4.3,1.8,7
						c0.1,2.7-0.6,5.7-2.2,8.3c-1.7,2.7-4.4,4.8-7,7.4c-1.3,1.3-2.6,2.7-3.6,4.4c-1,1.7-1.7,3.7-1.7,5.8c0,2.1,1.1,4.2,2.5,5.7
						c1.4,1.6,3.1,2.8,4.8,4.1c1.7,1.3,3.3,2.5,4.5,4.1c1.2,1.6,2.2,3.3,2.7,5.1c1.2,3.7,0.6,7.6-1.2,10.6c-1.7,3.1-5,4.7-7.5,6.7
						c-1.3,1-2.4,2.2-3.2,3.6c-0.8,1.4-1.1,3-0.9,4.4c0.5,2.9,2.7,5,4.9,5.5c2.3,0.6,4.3-0.3,5.5-1.2c1.3-1,1.9-2.1,2.2-2.9
						C178.2,211.3,178.2,210.8,178.2,210.8z"/>
				</g>
			</g>
			<g>
				<g>
					<path class="st8" d="M68.1,111c-3.4-0.2-6.5-2.2-9.9-2.6c-4.9-0.5-9.4,2.4-13.1,5.7c-3.6,3.2-6.8,6.9-8.7,11.3
						c-3.1,7.3-2.3,15.8-0.1,23.5c1.9,6.9,4.7,14.6,1.3,20.9c-1.1,2-2.7,3.6-4,5.5c-2.9,4.3-3.9,10-2.5,15c1.4,4.9,4.7,9,6.2,13.8
						c1.5,4.8,1.2,10.1-0.8,14.7c-1.2,2.6-2.9,4.9-3.9,7.5c-1.7,4.1-1.8,8.8-0.2,12.9c1.3,3.5,3.7,6.6,4.4,10.2
						c1,5.8-2.6,11.6-1.9,17.5c14.2,3.5,29.5,7,42.9,1.3c0.9-0.4,1.8-0.8,2.1-1.7c0.3-0.7,0.1-1.4,0-2.1c-1.8-8.4-5.2-16.4-9.9-23.5
						c-3.2-4.8-7.2-9.8-6.4-15.5c1-7.5,10.1-13.2,8.4-20.5c-1.1-4.5-5.9-7.1-8.2-11.2c-2.1-3.8-1.9-8.4-0.8-12.6
						c1.1-4.2,2.8-8.2,3.6-12.5c1.1-5.9,0.2-12.3,2.8-17.7"/>
				</g>
			</g>
			<g>
				<g>
					<g>
						<path class="st9" d="M74.2,106.4c1.1,1.1,1.3,2.8,1.3,4.6c0,1.8-0.2,3.7-0.6,5.7c-0.4,2-0.9,3.9-1.6,5.6
							c-0.7,1.6-1.6,3.2-3,3.8c-1.4,0.6-3.3-0.1-4.7-2.2c-0.7-1-1.3-2.4-1.6-4c-0.3-1.6-0.3-3.4,0-5.3c0.4-1.8,1.1-3.5,2-4.9
							c0.9-1.4,2-2.4,3.1-3.1C71.2,105.2,73.1,105.4,74.2,106.4z"/>
					</g>
				</g>
			</g>
			<g>
				<g>
					<path class="st8" d="M57.4,162.8c-2-5.6-0.2-11.9,2.5-17.2s6.2-10.2,8.1-15.9c2-6.1,1.9-12.8,4.3-18.8
						c2.5-6.2,7.8-11.1,14.2-13.2c3.8-1.3,8.1-1.6,11.4-3.9c3.4-2.4,5.2-6.4,7.8-9.7c4.2-5.3,8.2-9.8,14.5-12.5
						c7.1-3,17.5-4.1,24.7-1.2c4.5,1.8,7.9,5.6,10.1,9.9c2.2,4.3,3.2,9.1,3.9,13.9c7.3,1.4,11.5,8.9,14.8,15.6
						c1.8,3.8,3.7,7.7,3.8,11.8c0.2,4.7-3.8,20.6-6.1,24.7c-11.7,21.1-29,25.5-50,37.1c-8.1,4.5-13.2,14.8-22.4,14.5
						c-10.8-0.4-21.3-0.8-27.6-9.7c-6.3-8.8-13.4-17.1-14.3-27.9"/>
				</g>
			</g>
			<g>
				<g>
					<path class="st10" d="M168.8,129.5c-0.6-15.1-10.1-33.8-25.2-32.6l-47.1,10.7c-4.6,0.4-8.1,4.2-8.1,8.8l2.3,113.1
						c-0.1,0-0.2,0-0.3,0.1c0,0,9.8,32.1,41.1,23.2c6.2-1.8,9.2-8.4,10.6-15.3l0.3,0c0-0.8,0.1-1.6,0.1-2.4
						c1.2-7.9,0.6-15.5,0.6-15.5l0,0c0.3-9.1,0.4-12.9,0.4-12.8c0,0,19.3-2.7,23.9-27.7C169.6,166.7,169.4,146.3,168.8,129.5z"/>
				</g>
			</g>
			<g>
				<g>
					<g>
						<g>
							<g>
								<g>
									<g>
										<g>
											<g>
												<g>
													<g>
														<g>
															<g>
																<g>
																	<g>
																		<path class="st8" d="M128.2,149.3c0,1.7-1.4,3.1-3.2,3.2c-1.8,0.1-3.2-1.3-3.3-3c0-1.7,1.4-3.1,3.2-3.2
																			C126.7,146.3,128.2,147.6,128.2,149.3z"/>
																	</g>
																</g>
															</g>
														</g>
													</g>
												</g>
											</g>
										</g>
									</g>
								</g>
							</g>
						</g>
					</g>
					<g>
						<g>
							<g>
								<g>
									<g>
										<g>
											<g>
												<g>
													<g>
														<g>
															<g>
																<g>
																	<g>
																		<path class="st8" d="M160.8,148.4c0,1.7-1.4,3.1-3.2,3.2c-1.8,0.1-3.2-1.3-3.3-3c0-1.7,1.4-3.1,3.2-3.2
																			C159.3,145.3,160.8,146.7,160.8,148.4z"/>
																	</g>
																</g>
															</g>
														</g>
													</g>
												</g>
											</g>
										</g>
									</g>
								</g>
							</g>
						</g>
					</g>
					<g>
						<g>
							<g>
								<g>
									<g>
										<g>
											<g>
												<g>
													<g>
														<g>
															<g>
																<g>
																	<g>
																		<g>
																			<path class="st8" d="M165.4,140.5c-0.4,0.6-3.2-1.6-7-1.5c-3.8,0.1-6.4,2.5-6.9,2c-0.2-0.2,0.2-1.2,1.3-2.3
																				c1.1-1.1,3.1-2.1,5.5-2.2c2.4-0.1,4.4,0.8,5.6,1.8C165.2,139.3,165.6,140.3,165.4,140.5z"/>
																		</g>
																	</g>
																</g>
															</g>
														</g>
													</g>
												</g>
											</g>
										</g>
									</g>
								</g>
							</g>
						</g>
					</g>
				</g>
				<g>
					<g>
						<g>
							<g>
								<g>
									<g>
										<g>
											<g>
												<g>
													<g>
														<g>
															<g>
																<g>
																	<g>
																		<g>
																			<path class="st8" d="M130.5,141c-0.5,0.5-3.2-1.9-7.2-2.2c-4-0.3-7.1,1.7-7.5,1.2c-0.2-0.2,0.3-1.2,1.7-2.1
																				c1.3-0.9,3.5-1.8,6-1.6c2.5,0.2,4.6,1.3,5.7,2.4C130.3,139.8,130.7,140.8,130.5,141z"/>
																		</g>
																	</g>
																</g>
															</g>
														</g>
													</g>
												</g>
											</g>
										</g>
									</g>
								</g>
							</g>
						</g>
					</g>
				</g>
				<g>
					<g>
						<g>
							<g>
								<g>
									<g>
										<g>
											<g>
												<g>
													<g>
														<g>
															<g>
																<g>
																	<g>
																		<g>
																			<path class="st8" d="M142,165.9c0-0.2,2.2-0.5,5.7-0.9c0.9-0.1,1.7-0.2,1.9-0.8c0.2-0.6-0.1-1.6-0.5-2.6
																				c-0.8-2.2-1.6-4.4-2.5-6.8c-3.4-9.7-5.8-17.6-5.5-17.8c0.4-0.1,3.5,7.6,6.9,17.3c0.8,2.4,1.6,4.7,2.3,6.8
																				c0.3,1,0.9,2.2,0.4,3.5c-0.3,0.7-0.9,1.1-1.5,1.3c-0.6,0.2-1.1,0.2-1.5,0.2C144.2,166.1,142,166.1,142,165.9z"/>
																		</g>
																	</g>
																</g>
															</g>
														</g>
													</g>
												</g>
											</g>
										</g>
									</g>
								</g>
							</g>
						</g>
					</g>
				</g>
				<g>
					<g>
						<g>
							<g>
								<g>
									<g>
										<g>
											<g>
												<g>
													<g>
														<g>
															<g>
																<g>
																	<g>
																		<path class="st11" d="M143.4,206.9c0,0-16.9,0.7-33.4-9.8c0,0,8,18,33.2,16.2L143.4,206.9z"/>
																	</g>
																</g>
															</g>
														</g>
													</g>
												</g>
											</g>
										</g>
									</g>
								</g>
							</g>
						</g>
					</g>
				</g>
				<g>
					<g>
						<g>
							<g>
								<g>
									<g>
										<g>
											<g>
												<g>
													<g>
														<g>
															<g>
																<g>
																	<g>
																		<path class="st12" d="M140.3,174.2c-1.2-1.7-3.4-2.6-5.5-2.5c-1.5,0.1-3,0.8-4,2c-0.9,1.2-1.2,2.9-0.4,4.1
																			c0.9,1.3,2.9,1.7,4.5,1.3c1.7-0.4,3.1-1.5,4.5-2.5c0.4-0.3,0.8-0.6,1-1c0.2-0.4,0.3-0.9,0-1.3"/>
																	</g>
																</g>
															</g>
														</g>
													</g>
												</g>
											</g>
										</g>
									</g>
								</g>
							</g>
						</g>
					</g>
				</g>
				<g>
					<g>
						<g>
							<g>
								<g>
									<g>
										<g>
											<g>
												<g>
													<g>
														<g>
															<g>
																<g>
																	<g>
																		<g>
																			<path class="st8" d="M131.7,168c0.6,0,0.5,3.7,3.6,6.5c3.1,2.8,7.2,2.4,7.2,3c0,0.2-0.9,0.7-2.6,0.7
																				c-1.7,0-4.1-0.6-6-2.3c-1.9-1.7-2.7-3.9-2.8-5.4C131,168.9,131.5,168,131.7,168z"/>
																		</g>
																	</g>
																</g>
															</g>
														</g>
													</g>
												</g>
											</g>
										</g>
									</g>
								</g>
							</g>
						</g>
					</g>
				</g>
			</g>
			<g>
				<g>
					<g>
						<g>
							<g>
								<g>
									<g>
										<g>
											<g>
												<g>
													<g>
														<g>
															<path class="st8" d="M131.3,129.3c-0.4,0.9-3.8,0.4-7.9,0.8c-4.1,0.3-7.4,1.4-7.9,0.6c-0.2-0.4,0.4-1.3,1.7-2.2
																c1.3-0.9,3.5-1.7,5.9-1.9c2.4-0.2,4.7,0.2,6.1,0.9C130.7,128.1,131.5,128.8,131.3,129.3z"/>
														</g>
													</g>
												</g>
											</g>
										</g>
									</g>
								</g>
							</g>
						</g>
					</g>
				</g>
			</g>
			<g>
				<g>
					<g>
						<g>
							<g>
								<g>
									<g>
										<g>
											<g>
												<g>
													<g>
														<g>
															<path class="st8" d="M163,130c-0.7,0.8-3.4-0.1-6.7-0.2c-3.3-0.2-6.1,0.4-6.7-0.5c-0.3-0.4,0.2-1.2,1.4-1.9
																c1.2-0.7,3.2-1.3,5.5-1.2c2.3,0.1,4.2,0.9,5.3,1.7C163,128.8,163.4,129.6,163,130z"/>
														</g>
													</g>
												</g>
											</g>
										</g>
									</g>
								</g>
							</g>
						</g>
					</g>
				</g>
			</g>
			<g>
				<g>
					<path class="st8" d="M86,110.2c2.7-3.3,7-4.7,11.1-5.8c17.6-4.8,35.9-7.6,54.2-8.1c1.9,3.9-0.7,8.8-4.4,11.1
						c-3.7,2.4-8.1,3-12.3,4.1c-4.2,1.1-8.6,3-10.7,6.9c-2.2,4.1-1.2,9.3-3.2,13.4c-3.4,7.2-14.1,8.5-17.5,15.8
						c-2.6,5.5-0.9,4.2-0.7,10.2c0.2,6.8-4,7.9-9.4,12c-4.3,3.3-12.5,7.1-17.8,6.7c0.9-21.5,6.5-31.9,7.4-53.4
						C82.9,118.6,83.2,113.7,86,110.2z"/>
				</g>
			</g>
			<g>
				<g>
					<g>
						<path class="st5" d="M116.1,76c0,0,0.1-0.1,0.4-0.3c0.3-0.2,0.7-0.5,1.4-0.8c1.2-0.7,3.1-1.5,5.5-2.1c2.4-0.6,5.4-0.8,8.7-0.4
							c3.2,0.4,6.8,1.6,9.9,3.8c3.1,2.2,5.5,5.1,7,7.9c1.6,2.9,2.4,5.8,2.7,8.2c0.3,2.5,0.2,4.5,0,5.8c-0.1,0.7-0.2,1.2-0.3,1.6
							c-0.1,0.4-0.1,0.5-0.2,0.5c-0.2,0,0.8-3,0-7.9c-0.4-2.4-1.2-5.2-2.7-8c-1.5-2.8-3.9-5.6-6.9-7.7c-3.1-2.1-6.5-3.3-9.7-3.7
							c-3.2-0.5-6.1-0.3-8.5,0.3C118.7,74.2,116.2,76.1,116.1,76z"/>
					</g>
				</g>
			</g>
			<g>
				<g>
					<g>
						<path class="st5" d="M92,96.3c0,0,0.3,0,0.7,0c0.5,0,1.2,0,2-0.2c0.9-0.2,1.9-0.5,3.1-1.1c1.1-0.6,2.4-1.4,3.6-2.3
							c1.3-1,2.6-2.1,4.2-3.3c1.5-1.2,3.2-2.4,5.1-3.3c3.9-1.9,8.7-2.9,13.6-2.7c5,0.3,9.6,1.8,13.3,4.1c3.7,2.3,6.4,5.2,8.2,7.9
							c1.9,2.7,2.9,5.1,3.5,6.9c0.3,0.9,0.5,1.5,0.6,2c0.1,0.5,0.2,0.7,0.1,0.7c-0.1,0-0.3-1-0.9-2.7c-0.6-1.7-1.7-4.1-3.6-6.7
							c-1.9-2.6-4.5-5.4-8.1-7.7c-3.6-2.3-8.1-3.8-13-4c-4.9-0.3-9.6,0.8-13.4,2.6c-1.9,0.9-3.6,2.1-5.1,3.2
							c-1.5,1.1-2.9,2.3-4.2,3.2c-1.3,1-2.6,1.7-3.7,2.3c-1.2,0.6-2.3,0.9-3.2,1c-0.9,0.1-1.6,0.2-2.1,0.1
							C92.2,96.4,92,96.3,92,96.3z"/>
					</g>
				</g>
			</g>
			<g>
				<g>
					<g>
						<path class="st5" d="M70.9,123.2c0.1,0,0.2,2.4,1.3,6.1c1.1,3.7,3.6,8.6,8.1,12.6c4.4,4,9.6,5.9,13.4,6.6
							c3.8,0.7,6.3,0.5,6.3,0.6c0,0-0.1,0-0.4,0.1c-0.3,0-0.7,0.1-1.3,0.1c-1.1,0-2.7,0-4.6-0.4c-3.9-0.6-9.2-2.5-13.7-6.6
							c-4.5-4-7-9.1-8.1-12.9c-0.5-1.9-0.8-3.5-0.9-4.6c-0.1-0.5-0.1-1-0.1-1.3C70.8,123.3,70.8,123.2,70.9,123.2z"/>
					</g>
				</g>
			</g>
			<g>
				<g>
					<g>
						<path class="st5" d="M94.7,160.4c0,0-0.6,0-1.7-0.3c-1.1-0.2-2.6-0.6-4.5-1.2c-3.8-1.2-9-3.3-13.5-7.5
							c-4.5-4.2-6.6-9.7-7-13.6c-0.2-2-0.1-3.6,0.2-4.7c0.1-0.6,0.2-1,0.3-1.2c0.1-0.3,0.1-0.4,0.2-0.4c0.2,0-0.7,2.4-0.2,6.3
							c0.4,3.9,2.6,9.1,7,13.3c4.4,4.1,9.5,6.3,13.2,7.5c1.9,0.6,3.4,1.1,4.5,1.3C94.1,160.2,94.7,160.4,94.7,160.4z"/>
					</g>
				</g>
			</g>
			<g>
				<g>
					<g>
						<path class="st8" d="M173.5,92.3c0,0.2-3.7-0.7-8.2,0.1c-4.5,0.8-7.6,3.1-7.7,2.9c0-0.1,0.7-0.7,2-1.4c1.3-0.8,3.3-1.6,5.6-2
							c2.3-0.4,4.4-0.4,5.9-0.2C172.6,91.9,173.5,92.3,173.5,92.3z"/>
					</g>
				</g>
			</g>
			<g>
				<g>
					<g>
						<path class="st8" d="M163.4,79.3c0.1,0,0.2,1,0.2,2.6c0,1.6-0.3,3.9-1.1,6.3c-0.8,2.4-1.9,4.4-2.8,5.7c-0.9,1.3-1.6,2.1-1.7,2
							c-0.2-0.1,2.5-3.2,4-7.9C163.5,83.4,163.2,79.3,163.4,79.3z"/>
					</g>
				</g>
			</g>
			<g>
				<g>
					<g>
						<path class="st8" d="M59.3,200.3c0.1-0.1,1.3,1,3.7,2c2.3,1,6,1.8,9.8,1c3.9-0.8,6.9-3.1,8.6-5c1.8-1.9,2.4-3.4,2.5-3.4
							c0,0-0.1,0.4-0.5,1.1c-0.3,0.7-0.9,1.6-1.8,2.6c-1.7,2-4.7,4.4-8.8,5.2c-4,0.9-7.8-0.1-10.1-1.2c-1.2-0.6-2.1-1.2-2.7-1.6
							C59.6,200.6,59.3,200.3,59.3,200.3z"/>
					</g>
				</g>
			</g>
			<g>
				<g>
					<g>
						<path class="st8" d="M52.2,192.5c0,0,0.7,0.1,1.9,0.2c1.2,0.1,3,0.4,5-0.3c1-0.4,1.9-1.2,2.4-2.2c0.3-0.5,0.4-1.1,0.4-1.8
							c0-0.6-0.3-1.3-0.7-1.7c-0.9-1-2.5-1.2-3.8-0.6c-1.3,0.6-2.1,2.2-2.1,3.7c0,1.6,0.7,3,1.8,4.1c1,1.1,2.3,1.9,3.6,2.4
							c2.6,0.9,5.3,0.7,7.3,0c2-0.7,3.4-1.8,4.2-2.6c0.2-0.2,0.4-0.4,0.5-0.6c0.1-0.2,0.2-0.3,0.4-0.5c0.2-0.2,0.3-0.4,0.3-0.4
							c0,0-0.1,0.2-0.2,0.4c-0.1,0.2-0.2,0.3-0.3,0.5c-0.2,0.2-0.3,0.4-0.5,0.6c-0.8,0.9-2.2,2.1-4.3,2.9c-2,0.8-4.8,1.1-7.6,0.1
							c-1.4-0.5-2.7-1.3-3.8-2.5c-1.1-1.2-1.9-2.7-1.9-4.5c0-1.7,0.9-3.5,2.4-4.2c1.5-0.7,3.4-0.4,4.5,0.7c0.5,0.6,0.8,1.3,0.8,2.1
							c0,0.7-0.2,1.4-0.5,2c-0.6,1.2-1.6,2-2.7,2.4c-2.1,0.7-4,0.4-5.1,0.2c-0.6-0.1-1.1-0.2-1.4-0.3
							C52.4,192.6,52.2,192.6,52.2,192.5z"/>
					</g>
				</g>
			</g>
			<g>
				<g>
					<g>
						<path class="st10" d="M94.9,150.5c-0.4-0.2-15.7-5.4-15.8,10.5c-0.1,15.8,15.8,12.7,15.8,12.3
							C94.9,172.8,94.9,150.5,94.9,150.5z"/>
					</g>
				</g>
			</g>
			<g>
				<g>
					<g>
						<g>
							<path class="st11" d="M90.1,167.2c-0.1-0.1-0.3,0.2-0.7,0.4c-0.5,0.2-1.2,0.3-2.1,0c-1.7-0.6-3.1-3.3-3.1-6.2
								c0-1.4,0.3-2.8,0.8-3.9c0.5-1.2,1.3-2,2.1-2.1c0.8-0.2,1.4,0.3,1.6,0.8c0.2,0.4,0.1,0.8,0.2,0.8c0,0,0.3-0.3,0.2-0.9
								c-0.1-0.3-0.2-0.7-0.6-1c-0.4-0.3-0.9-0.5-1.5-0.4c-1.2,0.1-2.3,1.2-2.9,2.4c-0.6,1.2-1,2.8-1,4.4c0.1,3.2,1.7,6.2,4,6.9
								c1.1,0.3,2,0,2.5-0.4C90.1,167.6,90.1,167.2,90.1,167.2z"/>
						</g>
					</g>
				</g>
			</g>
			<g>
				<g>
					<g>
						<path class="st13" d="M81.6,169.8c0,0-0.2,0.2-0.7,0.5c-0.5,0.3-1.2,0.7-2.1,1.2c-1.7,1.1-4.1,3.3-5.6,6.8
							c-0.7,1.7-1.2,3.8-1.1,6c0,2.2,0.6,4.6,1.8,6.7c1.2,2.2,3,4.2,5.3,5.6c2.3,1.4,5.1,2.2,7.9,2.2c1.4,0,2.8-0.2,4.2-0.6
							c1.3-0.4,2.6-1,3.7-1.7c2.3-1.5,4-3.5,5.2-5.7c2.3-4.5,1.9-9.4,0.4-12.8c-1.5-3.5-4-5.6-5.7-6.7c-1.8-1.1-3-1.5-2.9-1.5
							c0,0,1.2,0.2,3,1.3c1.8,1.1,4.4,3.2,6,6.7c0.8,1.8,1.3,3.9,1.3,6.1c0,2.3-0.5,4.7-1.6,7c-1.2,2.3-3,4.4-5.3,5.9
							c-1.2,0.8-2.5,1.4-3.9,1.8c-1.4,0.4-2.8,0.6-4.3,0.7c-3,0.1-5.8-0.8-8.2-2.3c-2.4-1.5-4.3-3.5-5.4-5.8c-1.2-2.3-1.8-4.7-1.8-7
							c0-2.3,0.4-4.4,1.2-6.2c1.5-3.6,4-5.7,5.8-6.8c0.9-0.5,1.7-0.9,2.2-1.1C81.3,169.9,81.6,169.8,81.6,169.8z"/>
					</g>
				</g>
			</g>
			<g>
				<g>
					<g>
						<path class="st5" d="M69.6,121.5c0,0,0,0.3,0,0.8c-0.1,0.5,0,1.3-0.2,2.2c-0.2,1.9-1,4.6-2.3,7.8c-1.3,3.2-3.3,6.8-5.4,10.8
							c-1,2-2.1,4.2-3,6.5c-0.9,2.3-1.6,4.7-1.9,7.3c-0.7,5.2,0.3,10.2,2.1,14.3c0.9,2.1,2.1,3.9,3.3,5.5c1.2,1.6,2.4,3.1,3.4,4.4
							c2.1,2.7,4,4.8,5.2,6.2c0.6,0.7,1.1,1.2,1.5,1.7c0.3,0.4,0.5,0.6,0.5,0.6c0,0-0.2-0.2-0.6-0.5c-0.4-0.4-0.9-0.9-1.5-1.6
							c-1.3-1.4-3.2-3.5-5.4-6.1c-1.1-1.3-2.3-2.8-3.5-4.4c-1.2-1.6-2.4-3.5-3.4-5.6c-1.9-4.2-2.9-9.3-2.2-14.6
							c0.3-2.6,1.1-5.1,2-7.4c0.9-2.3,2-4.5,3-6.5c2.1-4,4.1-7.6,5.5-10.7c1.4-3.1,2.2-5.8,2.5-7.7c0.2-0.9,0.2-1.7,0.3-2.2
							C69.5,121.7,69.6,121.5,69.6,121.5z"/>
					</g>
				</g>
			</g>
			<g>
				<g>
					<g>
						<path class="st8" d="M20.1,211.4c0,0,0-0.1-0.2-0.4c-0.1-0.2-0.4-0.5-0.9-0.7c-0.5-0.2-1.1-0.2-1.8,0.1
							c-0.7,0.3-1.2,1.1-1.4,2c-0.2,0.9-0.2,2,0,3.2c0.2,1.1,0.6,2.4,1.5,3.4c0.9,1,2.4,1.5,3.9,1.2c1.5-0.2,3-1.1,4.1-2.4
							c1-1.4,1.5-3.2,1.7-5c0.1-1.9-0.1-3.8-0.5-5.8c-0.8-4-2.3-8.1-3.6-12.6c-1.3-4.4-2.2-9.4-1.3-14.4c0.5-2.5,1.4-5,3.1-7.1
							c1.6-2.1,3.7-3.8,4.8-6.2c1.2-2.3,1.7-4.9,1.9-7.5c0.2-2.6-0.1-5.1-0.4-7.6c-0.8-4.9-2-9.7-2.1-14.4c-0.1-4.7,1-9.1,2.9-12.8
							c1.9-3.7,4.4-6.7,7.1-8.9c2.7-2.2,5.6-3.6,8.3-4.5c2.6-0.9,5-1.3,7-1.4c2-0.1,3.5,0,4.5,0.1c0.5,0.1,0.9,0.1,1.2,0.2
							c0.3,0,0.4,0.1,0.4,0.1c0,0-0.1,0-0.4,0c-0.3,0-0.7-0.1-1.2-0.1c-1-0.1-2.5-0.2-4.5,0c-1.9,0.2-4.3,0.6-6.9,1.5
							c-2.6,0.9-5.5,2.3-8.1,4.5c-2.7,2.2-5.2,5.2-7,8.8c-1.8,3.6-2.9,8-2.8,12.6c0.1,4.6,1.3,9.3,2.1,14.3c0.4,2.5,0.6,5.1,0.5,7.7
							c-0.2,2.6-0.7,5.3-1.9,7.7c-1.2,2.5-3.3,4.3-4.9,6.2c-1.6,2-2.5,4.4-3,6.8c-0.9,4.9,0,9.8,1.3,14.2c1.3,4.4,2.8,8.6,3.6,12.6
							c0.4,2,0.7,4,0.5,6c-0.1,1.9-0.7,3.8-1.8,5.2c-1.1,1.4-2.7,2.3-4.3,2.5c-1.6,0.3-3.2-0.3-4.2-1.4c-1-1.1-1.3-2.4-1.5-3.6
							c-0.2-1.2-0.2-2.3,0-3.3c0.2-1,0.8-1.8,1.5-2.1c0.7-0.3,1.4-0.3,1.9-0.1c0.5,0.2,0.8,0.5,0.9,0.8
							C20.1,211.2,20.1,211.4,20.1,211.4z"/>
					</g>
				</g>
			</g>
		</g>
		<g>
			<g>
				<path class="st9" d="M95.1,227.7c0,0,20.7,10.4,31.1,8.6c13-2.3,16.3-7.9,16.3-7.9l5.2,11.9l37.5,243.5h-51.5H62l26-249.5
					L95.1,227.7z"/>
			</g>
		</g>
		<g>
			<g>
				<g>
					<path class="st5" d="M131.6,293.7c0,0-6.9-35.3-35.2-63.1l-8.4-23.9c0,0-10.6,2.2-12.2,7c-1.6,4.8-2.4,11.6-2.4,11.6
						s-37.1,7.2-42.7,14.4C25.1,246.7,55.4,378,55.4,378S33,429.8,30.5,447.8c-2.8,21-2.8,36-2.8,36h106c0-11.2,4.3-108.2,4.3-108.2
						L131.6,293.7z"/>
				</g>
			</g>
			<g class="st14">
				<g>
					<g>
						<path d="M79.6,241.8c0.9,3.4,2.8,6.5,5.2,9c-0.6-3.3,1.3-6.6,4.1-8.4c2.8-1.8,6.3-2.1,9.6-1.5c3.3,0.5,6.4,1.8,9.4,3.1
							c-2.4-3.6-6-7.5-9-10.6c-1.3-1.3-1.5-2.1-3.2-2.7c0,0-5.5,2.3-7.7,3.7C84.4,236.6,82.2,238.7,79.6,241.8"/>
					</g>
				</g>
			</g>
			<g>
				<g>
					<g>
						<path class="st8" d="M96.4,230.6c0,0.1-2.4,0.6-5.9,2.3c-1.8,0.9-3.7,2.1-5.7,3.9c-1.9,1.7-3.8,3.9-5.5,6.4
							c-0.3,0.5-0.7,1-1,1.5L78,245l-0.2-0.4c-2.9-4.9-4.1-10-4.3-13.6c-0.1-1.8-0.1-3.3,0-4.3c0-0.5,0.1-0.9,0.1-1.2
							c0-0.3,0.1-0.4,0.1-0.4c0,0,0,0.6,0,1.6c0,1,0,2.4,0.2,4.2c0.4,3.6,1.6,8.5,4.4,13.3l-0.5,0c0.3-0.5,0.6-1,1-1.5
							c1.7-2.5,3.6-4.7,5.6-6.4c2-1.7,4.1-3,5.9-3.8c1.8-0.9,3.3-1.3,4.4-1.6c0.5-0.1,1-0.2,1.2-0.3
							C96.2,230.6,96.4,230.6,96.4,230.6z"/>
					</g>
				</g>
			</g>
			<g>
				<g>
					<g>
						<path class="st8" d="M122.8,319.1c0,0-0.1-0.3-0.2-0.9c-0.1-0.7-0.2-1.5-0.4-2.7c-0.1-0.6-0.2-1.2-0.3-1.9
							c-0.1-0.7-0.3-1.5-0.4-2.3c-0.3-1.6-0.6-3.5-1.2-5.5c-1.9-8.1-5.3-19.2-10.2-31c-2.5-5.9-5-11.4-7.5-16.3
							c-2.5-4.9-4.9-9.3-7.1-12.9c-2.2-3.6-4-6.4-5.4-8.3c-0.7-0.9-1.2-1.6-1.6-2.2c-0.4-0.5-0.5-0.8-0.5-0.8c0,0,0.2,0.2,0.6,0.7
							c0.4,0.5,1,1.2,1.7,2.1c1.4,1.9,3.3,4.7,5.6,8.2c2.2,3.6,4.7,7.9,7.2,12.8c2.6,4.9,5.1,10.5,7.6,16.4
							c5,11.8,8.3,22.9,10.1,31.1c0.5,2,0.8,3.9,1.1,5.6c0.1,0.8,0.3,1.6,0.4,2.3c0.1,0.7,0.2,1.4,0.2,1.9c0.1,1.1,0.2,2,0.3,2.7
							C122.8,318.8,122.9,319.1,122.8,319.1z"/>
					</g>
				</g>
			</g>
			<g>
				<g>
					<g>
						<path class="st8" d="M82.9,407.6c0,0-0.1,0.2-0.3,0.4c-0.3,0.3-0.6,0.7-0.9,1.1c-0.9,1-2.1,2.4-3.5,4.1
							c-3,3.5-7,8.4-11.2,13.9c-4.3,5.5-7.9,10.7-10.6,14.5c-1.3,1.8-2.3,3.3-3.1,4.5c-0.3,0.5-0.6,0.9-0.9,1.2
							c-0.2,0.3-0.3,0.4-0.3,0.4c0,0,0.1-0.2,0.2-0.5c0.2-0.3,0.5-0.8,0.8-1.3c0.7-1.1,1.7-2.7,3-4.6c2.5-3.8,6.2-9,10.5-14.6
							c4.3-5.6,8.3-10.4,11.4-13.9c1.5-1.7,2.8-3.1,3.6-4c0.4-0.4,0.7-0.8,1-1.1C82.8,407.7,82.9,407.6,82.9,407.6z"/>
					</g>
				</g>
			</g>
			<g>
				<g>
					<g>
						<path class="st8" d="M93,417.6c0,0-0.1,0.2-0.3,0.5c-0.3,0.4-0.6,0.8-1.1,1.4c-0.9,1.2-2.3,2.9-4,4.9
							c-3.5,4.1-8.4,9.6-14.3,15.3c-5.9,5.8-11.5,10.7-15.6,14.1l-0.1,0.1l-0.1-0.1c-1.9-1.8-3.4-3.2-4.5-4.3
							c-0.5-0.5-0.9-0.9-1.2-1.2c-0.3-0.3-0.4-0.4-0.4-0.4c0,0,0.2,0.1,0.5,0.4c0.3,0.3,0.8,0.7,1.3,1.1c1.2,1,2.7,2.5,4.6,4.2
							l-0.3,0c4.1-3.5,9.6-8.4,15.5-14.2c5.8-5.7,10.8-11.2,14.3-15.2c1.7-2,3.1-3.6,4.2-4.8c0.5-0.5,0.8-1,1.1-1.3
							C92.8,417.7,93,417.6,93,417.6z"/>
					</g>
				</g>
			</g>
			<g>
				<g>
					<g>
						<path class="st8" d="M92.5,417.2c-0.1,0.1-2.4-2.2-5-5.1c-2.7-2.9-4.7-5.4-4.6-5.5c0.1-0.1,2.4,2.2,5,5.1
							C90.6,414.6,92.6,417.1,92.5,417.2z"/>
					</g>
				</g>
			</g>
			<g class="st14">
				<g>
					<g>
						<path d="M135.1,354.3c-1.2-1.7-3.6-2.1-5.6-2.1c-8.6,0.1-16.9,3.2-24.2,7.6c-7.3,4.4-13.8,10.1-20.2,15.7
							c-2.1,1.8-4.3,4.2-3.9,6.9c0.3,1.9,1.7,0.4,2.3,2.2c0.7,2.1,3.5,7.8,3.5,7.8c-1.4,1.7-8.7,8.4-10.7,9.4
							c-10.7,5.3-21.1,7.3-31.3,2.5l-1.3,2.3c4.7,6.2,10.6,6.5,18.4,6.1s15.1-3.5,21.8-7.4c4.5-2.6,9.3-6.2,9.8-11.4
							c0.2-2.3-0.4-4.7,0-6.9c0.9-5.1,6.5-7.7,11.1-10.2c7.5-4,14-9.6,19.1-16.4c2.7,0.7,5.6,1.5,8.3,0.5S136.7,356.6,135.1,354.3z"
							/>
					</g>
				</g>
			</g>
			<g>
				<g>
					<g>
						<path class="st8" d="M133,311.9c0,0-0.1-0.3-0.1-0.9c-0.1-0.7-0.2-1.5-0.3-2.6c-0.2-2.3-0.6-5.6-1.2-9.7
							c-0.7-4.1-1.6-8.9-3.1-14.2c-0.7-2.6-1.6-5.3-2.6-8.2c-0.5-1.4-1.1-2.8-1.6-4.2c-0.5-1.4-1.2-2.8-1.9-4.3
							c-2.6-5.7-5.6-10.9-8.6-15.5c-1.6-2.2-3-4.4-4.5-6.3c-0.7-1-1.4-1.9-2.1-2.8c-0.7-0.9-1.4-1.7-2-2.5c-1.3-1.6-2.5-3-3.6-4.3
							c-1.1-1.3-2-2.3-2.8-3.1c-0.7-0.8-1.3-1.5-1.8-2c-0.4-0.5-0.6-0.7-0.6-0.7c0,0,0.2,0.2,0.7,0.6c0.5,0.5,1.1,1.1,1.9,1.9
							c0.8,0.8,1.8,1.8,2.9,3.1c1.1,1.2,2.4,2.6,3.7,4.2c0.7,0.8,1.4,1.6,2.1,2.5c0.7,0.9,1.4,1.8,2.1,2.8c1.5,1.9,2.9,4.1,4.5,6.3
							c3,4.6,6,9.8,8.6,15.6c0.6,1.5,1.3,2.9,1.9,4.3c0.6,1.4,1.1,2.9,1.6,4.2c0.9,2.8,1.9,5.5,2.5,8.2c1.5,5.3,2.3,10.1,3,14.2
							c0.5,4.1,0.9,7.4,1,9.7c0.1,1.1,0.1,2,0.2,2.7C133,311.6,133,311.9,133,311.9z"/>
					</g>
				</g>
			</g>
			<g>
				<g>
					<g>
						<path class="st8" d="M120.1,483.8c0,0,0-0.1,0-0.3c0-0.2,0.1-0.6,0.1-1c0.1-0.9,0.3-2.1,0.4-3.7c0.2-1.6,0.4-3.6,0.7-5.9
							c0.3-2.3,0.6-4.9,0.8-7.8c0.6-5.8,1.2-12.7,1.7-20.3c0.5-7.7,0.9-16.1,1.2-24.9c0.2-8.9,0.2-17.3,0.1-25
							c-0.2-7.7-0.4-14.6-0.7-20.4c-0.1-2.9-0.3-5.5-0.5-7.8c-0.1-2.3-0.3-4.3-0.4-5.9c-0.1-1.6-0.2-2.8-0.3-3.7c0-0.4,0-0.7-0.1-1
							c0-0.2,0-0.3,0-0.3c0,0,0,0.1,0.1,0.3c0,0.2,0.1,0.6,0.1,1c0.1,0.9,0.2,2.1,0.4,3.7c0.2,1.6,0.3,3.6,0.5,5.9
							c0.2,2.3,0.4,4.9,0.5,7.8c0.4,5.8,0.7,12.7,0.8,20.4c0.2,7.7,0.2,16.1,0,25c-0.2,8.9-0.7,17.3-1.2,25
							c-0.6,7.7-1.2,14.5-1.8,20.3c-0.3,2.9-0.6,5.5-0.9,7.8c-0.3,2.3-0.5,4.3-0.8,5.9c-0.2,1.6-0.4,2.8-0.5,3.7
							c-0.1,0.4-0.1,0.7-0.2,1C120.2,483.7,120.1,483.8,120.1,483.8z"/>
					</g>
				</g>
			</g>
		</g>
		<g>
			<g>
				<g>
					<path class="st5" d="M168.7,222.3c0,0,10.4-1.2,21.6,14c11.2,15.2,24.4,63.6,25,81.6c0.6,18,5.4,46.5-7.4,54.9
						c-12.8,8.4-21.2,7.8-28,3.5c-6.8-4.3-10.7-18.7-10.7-18.7L168.7,222.3z"/>
				</g>
			</g>
			<g>
				<g>
					<path class="st5" d="M161.7,483.8c-11.3-25.6-14.5-44.9-17.2-76.7c-2.6-31.8-9.1-99.1-10.5-99.8c-1-0.6-3.1-23.8-4.2-36.2
						c-0.4-5,0.4-10,2.4-14.6c2.4-5.5,5.4-12.3,5.8-12.7c0.7-0.7,4.5-15.4,4.5-15.4l0.5-19l11.1,10.2l14.6,2.8l14,157.1
						c0,0,18.8,47.8,22,63.8c3.2,16,1,40.6,1,40.6"/>
				</g>
			</g>
			<g class="st14">
				<g>
					<g>
						<path d="M178.2,362.5c-3.2-4.3-6.4-8.7-10.8-11.8c-4.4-3.1-10.1-4.7-15.2-2.8c-4.7,1.7-8,6.1-12.5,8.1l0.6,5.2
							c2.6,2.7,6.3,3.1,9.9,2.2c3.4-0.9,6.4-3.4,9.9-3.1c3.3,0.3,5.9,3,9.2,3.4c1.5,0.2,3.2-0.2,4.6,0.5c0.8,0.4,1.5,1.1,2.3,1.6
							c0.8,0.5,2,0.6,2.6-0.1C179.6,364.7,178.9,363.4,178.2,362.5z"/>
					</g>
				</g>
			</g>
			<g>
				<g>
					<g>
						<path class="st8" d="M154.2,219.5c0,0,0.1,0.1,0.3,0.4c0.2,0.3,0.5,0.7,0.9,1.3c0.8,1.1,1.8,2.8,3,5.1
							c2.3,4.5,5.1,11.2,6.2,19.5l0.1,0.5l-0.4-0.2c-4-2-8.8-3.2-13.9-3.2c-2.9,0-5.8,0.5-8.4,1.3l0.2-0.3c1,2.9,1.9,5.7,2.8,8.3
							l0.1,0.2l-0.2,0.1c-3.5,1.4-6.3,3.6-8.2,6c-2,2.3-3.3,4.8-4.1,6.9c-0.8,2.1-1.1,3.9-1.2,5.1c-0.1,1.2-0.1,1.9-0.2,1.9
							c0,0,0-0.2,0-0.5c0-0.3,0-0.8,0-1.4c0.1-1.2,0.4-3,1.1-5.2c0.8-2.1,2-4.7,4-7.1c2-2.4,4.8-4.7,8.4-6.2l-0.1,0.3
							c-0.9-2.6-1.8-5.4-2.8-8.3l-0.1-0.3l0.3-0.1c2.7-0.8,5.6-1.3,8.5-1.3c5.2-0.1,10.1,1.2,14.2,3.3l-0.4,0.3
							c-1.1-8.2-3.7-14.9-6-19.4c-1.1-2.2-2.1-4-2.9-5.1c-0.3-0.5-0.6-1-0.8-1.3C154.3,219.7,154.2,219.5,154.2,219.5z"/>
					</g>
				</g>
			</g>
			<g>
				<g>
					<g>
						<path class="st2" d="M148.1,294c-0.7-2.3-3.3-3.8-5.7-3.3l-1.3,0.5c-2.1,1.2-3,4.1-2,6.2c1,2.2,3.8,3.3,6.1,2.4
							S148.8,296.3,148.1,294z"/>
					</g>
				</g>
				<g>
					<g>
						<g>
							<path class="st8" d="M148.1,294c0,0,0.1,0.1,0.1,0.3c0.1,0.2,0.1,0.5,0.2,0.9c0.1,0.8-0.1,2-0.9,3.1
								c-0.4,0.6-0.9,1.2-1.7,1.6c-0.7,0.4-1.6,0.6-2.6,0.6c-0.9-0.1-1.9-0.4-2.8-1c-0.8-0.6-1.6-1.5-1.8-2.5
								c-0.7-2.4,0.5-4.9,2.4-5.9l0,0l0,0c0.4-0.2,0.9-0.3,1.3-0.5l0,0l0,0c1.1-0.2,2.2,0,3,0.3c0.8,0.4,1.4,0.9,1.9,1.4
								c0.4,0.5,0.6,1,0.8,1.3C148.1,293.8,148.2,294,148.1,294c-0.1,0-0.2-0.7-1.1-1.6c-0.4-0.4-1-0.9-1.8-1.2
								c-0.8-0.3-1.8-0.5-2.7-0.2l0,0c-0.4,0.2-0.8,0.3-1.3,0.5l0,0c-1.6,0.9-2.7,3.2-2.1,5.3c0.5,1.9,2.4,3,4.1,3.2
								c1.7,0.2,3.2-0.8,3.9-1.8c0.8-1.1,1-2.2,1-2.9C148.2,294.4,148.1,294,148.1,294z"/>
						</g>
					</g>
				</g>
			</g>
			<g>
				<g>
					<g>
						<path class="st2" d="M155.6,372.1c-0.7-2.3-3.3-3.8-5.7-3.3l-1.3,0.5c-2.1,1.2-3,4.1-2,6.2c1,2.2,3.8,3.3,6.1,2.4
							C155,377.2,156.3,374.4,155.6,372.1z"/>
					</g>
				</g>
				<g>
					<g>
						<g>
							<path class="st8" d="M155.6,372.1c0,0,0.1,0.1,0.1,0.3c0.1,0.2,0.1,0.5,0.2,0.9c0.1,0.8-0.1,2-0.9,3.1
								c-0.4,0.6-0.9,1.2-1.7,1.6c-0.7,0.4-1.6,0.6-2.6,0.6c-0.9-0.1-1.9-0.4-2.8-1c-0.8-0.6-1.6-1.5-1.8-2.5
								c-0.7-2.4,0.5-4.9,2.4-5.9l0,0l0,0c0.4-0.2,0.9-0.3,1.3-0.5l0,0l0,0c1.1-0.2,2.2,0,3,0.3c0.8,0.4,1.4,0.9,1.9,1.4
								c0.4,0.5,0.6,1,0.8,1.3C155.6,372,155.6,372.1,155.6,372.1c-0.1,0-0.2-0.7-1.1-1.6c-0.4-0.4-1-0.9-1.8-1.2
								c-0.8-0.3-1.8-0.5-2.7-0.2l0,0c-0.4,0.2-0.8,0.3-1.3,0.5l0,0c-1.6,0.9-2.7,3.2-2.1,5.3c0.5,1.9,2.4,3,4.1,3.2
								c1.7,0.2,3.2-0.8,3.9-1.8c0.8-1.1,1-2.2,1-2.9C155.7,372.6,155.5,372.2,155.6,372.1z"/>
						</g>
					</g>
				</g>
			</g>
			<g>
				<g>
					<g>
						<path class="st2" d="M160.6,424.8c-0.7-2.3-3.3-3.8-5.7-3.3l-1.3,0.5c-2.1,1.2-3,4.1-2,6.2c1,2.2,3.8,3.3,6.1,2.4
							C160,429.9,161.3,427.1,160.6,424.8z"/>
					</g>
				</g>
				<g>
					<g>
						<g>
							<path class="st8" d="M160.6,424.8c0,0,0.1,0.1,0.1,0.3c0.1,0.2,0.1,0.5,0.2,0.9c0.1,0.8-0.1,2-0.9,3.1
								c-0.4,0.6-0.9,1.2-1.7,1.6c-0.7,0.4-1.6,0.6-2.6,0.6c-0.9-0.1-1.9-0.4-2.8-1c-0.8-0.6-1.6-1.5-1.8-2.5
								c-0.7-2.4,0.5-4.9,2.4-5.9l0,0l0,0c0.4-0.2,0.9-0.3,1.3-0.5l0,0l0,0c1.1-0.2,2.2,0,3,0.3c0.8,0.4,1.4,0.9,1.9,1.4
								c0.4,0.5,0.6,1,0.8,1.3C160.6,424.6,160.6,424.8,160.6,424.8c-0.1,0-0.2-0.7-1.1-1.6c-0.4-0.4-1-0.9-1.8-1.2
								c-0.8-0.3-1.8-0.5-2.7-0.2l0,0c-0.4,0.2-0.8,0.3-1.3,0.5l0,0c-1.6,0.9-2.7,3.2-2.1,5.3c0.5,1.9,2.4,3,4.1,3.2
								c1.7,0.2,3.2-0.8,3.9-1.8c0.8-1.1,1-2.2,1-2.9C160.7,425.3,160.6,424.8,160.6,424.8z"/>
						</g>
					</g>
				</g>
			</g>
			<g>
				<g>
					<g>
						<path class="st8" d="M191,304.4c0,0-0.1-0.6-0.1-1.7c-0.1-1.1-0.2-2.7-0.4-4.7c-0.4-3.9-1.4-9.3-3.2-15.1
							c-1.7-5.8-3.8-10.9-5.4-14.5c-0.8-1.8-1.5-3.3-2-4.3c-0.5-1-0.7-1.6-0.7-1.6c0,0,0.3,0.5,0.9,1.5c0.5,1,1.3,2.4,2.1,4.2
							c1.7,3.6,3.9,8.7,5.6,14.5c1.7,5.8,2.7,11.3,3,15.2c0.2,2,0.2,3.6,0.2,4.7C191.1,303.7,191,304.4,191,304.4z"/>
					</g>
				</g>
			</g>
			<g class="st14">
				<g>
					<g>
						<path d="M130.4,277.2c1.8-10,12.8-18,23-18c-0.3-2-0.7-3.9-1-5.9c3.4,1.4,6.7,2.7,10.1,4.1c1.6-4.9-1.1-10.6-5.5-13.4
							s-10-1.2-15,0c0.8,3.4,2,4.9,2.8,8.3C135.6,254.3,129.7,268.1,130.4,277.2"/>
					</g>
				</g>
			</g>
			<g>
				<g>
					<g>
						<path class="st8" d="M200.3,428c0,0-0.1-0.2-0.3-0.6c-0.2-0.5-0.4-1.1-0.7-1.8c-0.6-1.6-1.4-3.9-2.4-6.7
							c-2-5.7-4.8-13.5-7.8-22.2c-3.1-8.7-5.9-16.5-8-22.1c-1-2.8-1.9-5-2.5-6.7c-0.3-0.7-0.5-1.3-0.7-1.8c-0.1-0.4-0.2-0.6-0.2-0.6
							c0,0,0.1,0.2,0.3,0.6c0.2,0.5,0.5,1.1,0.8,1.8c0.7,1.6,1.6,3.8,2.7,6.6c2.2,5.6,5.1,13.4,8.2,22.1c3.1,8.7,5.7,16.5,7.7,22.2
							c0.9,2.8,1.7,5.1,2.3,6.8c0.2,0.8,0.4,1.4,0.6,1.8C200.3,427.7,200.3,428,200.3,428z"/>
					</g>
				</g>
			</g>
			<g>
				<g>
					<g>
						<path class="st8" d="M186.2,483.8c0,0-0.2-0.3-0.4-0.8c-0.3-0.6-0.6-1.3-1.1-2.2c-1-1.9-2.3-4.8-3.9-8.3
							c-3.2-7-7.3-16.9-11.2-28c-3.9-11.1-6.8-21.4-8.7-28.9c-1-3.7-1.7-6.8-2.1-8.9c-0.2-1-0.4-1.8-0.5-2.4
							c-0.1-0.6-0.2-0.9-0.1-0.9c0,0,0.1,0.3,0.3,0.8c0.2,0.6,0.4,1.4,0.6,2.4c0.5,2.1,1.3,5.1,2.3,8.8c2,7.5,5,17.7,8.9,28.8
							c3.9,11.1,7.9,21,11,28.1c1.5,3.5,2.8,6.4,3.7,8.4c0.4,1,0.8,1.7,1,2.3C186.1,483.5,186.2,483.8,186.2,483.8z"/>
					</g>
				</g>
			</g>
		</g>
		<g>
			<g>
				<g>
					<path class="st5" d="M30.7,239.6c0,0-15.3,11.8-18.4,37.7s2.7,59.1,2.7,59.1l1.9,22.8c0,0-2.3,12.4,2.3,21.3
						c4.6,8.9,0,14.7,13.9,18.9c13.9,4.3,13.5,9.7,30.2,7c16.6-2.7,23.6-13.9,23.6-13.9l-18.2-41c0,0-0.8-4.8-9.7-0.8l-4.6-59.5
						C54.5,291.1,38.6,242.1,30.7,239.6z"/>
				</g>
			</g>
			<g>
				<g>
					<g>
						<path class="st8" d="M54.5,291.1c0,0,0,0.4,0.1,1.1c0.1,0.7,0.2,1.7,0.3,3.1c0.2,2.7,0.6,6.7,1,11.9c0.8,10.3,2,25.2,3.5,43.5
							l-0.3-0.2c1.6-0.7,3.3-1.4,5.2-1.6c0.9-0.1,1.9-0.1,2.9,0.3c0.9,0.4,1.7,1.2,2,2.2l0-0.1c5.5,12.3,11.6,26.1,18.2,41l0.1,0.1
							l-0.1,0.1C81.9,400,73,405,63.4,406.6c-2.4,0.3-4.9,0.7-7.4,0.7c-2.5,0-5-0.2-7.4-1.1c-2.4-0.8-4.6-2.1-6.9-3.2
							c-2.3-1.1-4.6-2.1-7-2.9c-2-0.7-4-1.3-6-2.2c-1.9-0.9-3.7-2.1-5-3.9c-1.2-1.8-1.7-3.9-2.2-5.9c-0.4-2-0.9-4-1.7-5.8
							c-0.8-1.8-1.8-3.7-2.4-5.6c-0.6-1.9-0.9-3.9-1.2-5.9c-0.4-4-0.3-7.9,0.4-11.7l0,0.1c-0.7-7.9-1.3-15.5-1.9-22.8l0,0
							c-2.4-14.9-3.5-28.9-3.6-41.3c0-6.2,0.2-12,0.9-17.4c0.7-5.4,1.8-10.2,3.3-14.5c1.4-4.3,3.2-7.9,5-11c1.8-3,3.5-5.5,5.1-7.4
							c1.6-1.9,2.9-3.2,3.8-4.1c0.5-0.4,0.8-0.7,1.1-0.9c0.2-0.2,0.4-0.3,0.4-0.3s-0.1,0.1-0.4,0.3c-0.2,0.2-0.6,0.5-1.1,1
							c-0.9,0.9-2.2,2.2-3.7,4.1c-1.5,1.9-3.3,4.3-5,7.4c-1.7,3-3.5,6.7-4.9,10.9c-1.4,4.3-2.5,9.1-3.2,14.5
							c-0.6,5.4-0.8,11.2-0.8,17.4c0.1,12.4,1.2,26.3,3.6,41.2l0,0l0,0c0.6,7.3,1.3,14.9,1.9,22.8l0,0l0,0
							c-0.6,3.8-0.8,7.7-0.3,11.6c0.2,1.9,0.6,3.9,1.1,5.8c0.6,1.9,1.5,3.6,2.3,5.5c0.8,1.9,1.3,3.9,1.7,5.9c0.4,2,0.9,4,2.1,5.7
							c1.2,1.6,2.9,2.8,4.8,3.7c1.9,0.9,3.9,1.5,5.9,2.2c2.4,0.8,4.8,1.8,7.1,2.9c2.3,1.1,4.5,2.4,6.8,3.2c4.7,1.6,9.8,1.1,14.5,0.3
							c4.8-0.8,9.3-2.4,13.3-4.7c2-1.2,3.9-2.5,5.6-4c1.7-1.5,3.3-3.2,4.5-5l0,0.2c-6.6-14.8-12.7-28.6-18.1-41l0,0l0,0
							c-0.2-0.8-0.9-1.6-1.7-1.9c-0.8-0.3-1.8-0.4-2.6-0.3c-1.8,0.2-3.5,0.9-5,1.5l-0.3,0.1l0-0.3c-1.4-18.3-2.5-33.2-3.3-43.5
							c-0.4-5.1-0.7-9.2-0.9-11.9c-0.1-1.4-0.2-2.4-0.2-3.1C54.5,291.5,54.5,291.1,54.5,291.1z"/>
					</g>
				</g>
			</g>
			<g>
				<g>
					<g>
						<path class="st8" d="M32.3,372.9c0,0,0-0.5,0.3-1.5c0.2-0.9,0.6-2.2,1.3-3.8c1.3-3.1,3.9-7.2,8-10.5c4.1-3.2,8.4-5.3,11.8-6
							c1.7-0.4,3-0.5,4-0.5c1,0,1.5,0.1,1.5,0.1c0,0.1-2.1,0-5.4,0.8c-3.3,0.8-7.5,2.9-11.5,6.1c-4,3.2-6.6,7.2-8,10.2
							C32.8,370.8,32.4,372.9,32.3,372.9z"/>
					</g>
				</g>
			</g>
			<g>
				<g>
					<g>
						<path class="st8" d="M66.5,401.3c0,0-0.2-0.1-0.6-0.3c-0.4-0.2-0.9-0.5-1.6-0.9c-1.3-0.8-3.1-2.2-5-4.3
							c-1.9-2.1-3.8-4.8-5.5-8.1c-1.7-3.3-3-7.1-4.3-11.2c-1.3-4-2.4-8.1-2.1-11.8c0.1-1.9,0.6-3.6,1.4-5.1c0.8-1.5,1.9-2.6,2.9-3.6
							c2.1-1.9,4-3.2,5.3-4c0.7-0.4,1.2-0.7,1.5-1c0.4-0.2,0.5-0.3,0.6-0.3c0,0-0.2,0.1-0.5,0.4c-0.4,0.3-0.9,0.6-1.5,1
							c-1.3,0.9-3.1,2.2-5.1,4.1c-1,1-2,2.1-2.8,3.5c-0.7,1.4-1.2,3.1-1.3,4.9c-0.2,3.6,0.9,7.6,2.1,11.6c1.2,4.1,2.6,7.9,4.2,11.1
							c1.6,3.3,3.5,6,5.3,8.1c1.8,2.1,3.6,3.5,4.9,4.4C65.7,400.8,66.5,401.2,66.5,401.3z"/>
					</g>
				</g>
			</g>
			<g>
				<g>
					<g>
						<path class="st8" d="M28.3,256.8c0,0,0.4,0.4,1.1,1c0.7,0.7,1.8,1.6,3.1,2.8c2.7,2.3,6.6,5.3,10.6,8.9c4,3.7,7,7.7,8.4,11
							c0.7,1.6,1.1,3,1.3,4c0.1,0.5,0.1,0.9,0.2,1.1c0,0.3,0,0.4,0,0.4c-0.1,0-0.4-2.2-1.9-5.4c-1.5-3.2-4.4-7.1-8.4-10.8
							c-4-3.6-7.9-6.6-10.5-9c-1.3-1.2-2.3-2.2-3-2.9C28.6,257.3,28.3,256.9,28.3,256.8z"/>
					</g>
				</g>
			</g>
			<g class="st14">
				<g>
					<g>
						<path d="M61.3,397.7c-4-3.5-6.8-8.2-8.7-13.1c-1.9-4.9-3.6-9.4-4.7-14.6l-0.2,0.1c-1.4,6.5,1.5,12.7,3.6,19
							c0.9,2.6,1.8,5.2,3.6,7.2c1.8,2.1,4.6,3.4,7.2,2.7C62.1,398.6,61.7,398.1,61.3,397.7z"/>
					</g>
				</g>
			</g>
		</g>
		<g>
			<g>
				<g>
					<path class="st10" d="M63.1,355.6l54.8-32.2l3.5,32.2L76,391.2c0,0-7.1-10.4-9.5-18.3C64.1,365.1,63.1,355.6,63.1,355.6z"/>
				</g>
			</g>
			<g>
				<g>
					<path class="st0" d="M151.9,323.6l22.5-18.2c0.8-0.6,1.8-1,2.8-1l31.5,0.1c1.3,0,2.3,1,2.4,2.3c0,1.2-0.1,2.7-1,3.4
						c-1.8,1.5-47.8,39.4-47.8,39.4l-38.3-2.9L151.9,323.6z"/>
				</g>
			</g>
			<g>
				<g>
					<g>
						<path class="st10" d="M117.9,323.3c0,0,12.1-10.6,15.1-11.4c3-0.8,16.6-1.8,16.6-1.8l12,5.6l-6.7,5.4c-5-0.7-6.6-2.5-6.6-2.5
							l-7.9,1.2L117.9,323.3z"/>
					</g>
				</g>
				<g>
					<g>
						<path class="st10" d="M132,318l21,5.3l29.6,1.7c0,0,0.7,5.9-5.3,7.1c-3.5,0.7-9.6,1.6-9.6,1.6s-1,5.5-5.5,7.1c0,0-1.7,4-4,5.6
							c-0.3,0.2-0.6,0.4-0.9,0.5c-2.8,1.1-7.7,9.2-11.4,10.5c-3.7,1.3-24.6-1.8-24.6-1.8l-3.5-32.2L132,318z"/>
					</g>
				</g>
				<g>
					<g>
						<g>
							<path class="st11" d="M139.4,334.1c0-0.1,1.6,0.2,4.3,0.5c2.6,0.3,6.3,0.6,10.4,0.5c4.1-0.1,7.7-0.5,10.3-0.9
								c2.6-0.4,4.2-0.8,4.3-0.7c0,0-0.4,0.2-1.1,0.4c-0.7,0.2-1.8,0.5-3.1,0.7c-2.6,0.5-6.3,1-10.4,1c-4.1,0.1-7.8-0.3-10.4-0.7
								c-1.3-0.2-2.4-0.4-3.1-0.6C139.8,334.3,139.4,334.2,139.4,334.1z"/>
						</g>
					</g>
				</g>
				<g>
					<g>
						<g>
							<path class="st11" d="M144,342.2c0.1,0,0.2,0.8,0,2c-0.1,0.6-0.3,1.4-0.9,2.1c-0.6,0.7-1.6,1.1-2.6,1.1c-1,0-1.9-0.2-2.7-0.5
								c-0.8-0.3-1.4-0.6-2-0.9c-1.1-0.5-1.8-0.7-1.8-0.8c0-0.1,0.8,0,2,0.4c1.2,0.4,2.7,1.3,4.5,1.3c0.9,0,1.7-0.3,2.2-0.9
								c0.5-0.5,0.8-1.2,0.9-1.8C143.9,342.9,144,342.1,144,342.2z"/>
						</g>
					</g>
				</g>
				<g>
					<g>
						<g>
							<path class="st11" d="M159.3,342.9c0,0.1-0.8,0.4-2.2,0.7c-1.4,0.4-3.3,0.8-5.4,1.1c-2.1,0.3-4.1,0.5-5.5,0.5
								c-1.4,0-2.3,0-2.3-0.1c0-0.2,3.5-0.4,7.7-1C155.8,343.6,159.2,342.7,159.3,342.9z"/>
						</g>
					</g>
				</g>
				<g>
					<g>
						<g>
							<path class="st11" d="M144.5,352.6c0.1,0.1-1.2,1.3-3.2,1.7c-2,0.5-3.7,0.1-3.7-0.1c0-0.2,1.6,0,3.5-0.5
								C143.1,353.4,144.4,352.5,144.5,352.6z"/>
						</g>
					</g>
				</g>
				<g>
					<g>
						<g>
							<path class="st11" d="M151.8,351.7c0,0.2-0.9,0.5-2.1,0.8c-1.2,0.3-2.2,0.4-2.3,0.2c0-0.2,0.9-0.5,2.1-0.8
								C150.8,351.6,151.8,351.5,151.8,351.7z"/>
						</g>
					</g>
				</g>
				<g>
					<g>
						<g>
							<path class="st11" d="M153,323.3c0,0.2-4.5-0.8-9.8-2.4c-2.7-0.8-5.1-1.6-6.8-2.2c-1.7-0.6-2.8-1.1-2.7-1.2
								c0-0.1,1.1,0.3,2.9,0.8c1.9,0.6,4.3,1.3,6.8,2c2.6,0.8,4.9,1.5,6.8,2C151.9,322.9,153,323.2,153,323.3z"/>
						</g>
					</g>
				</g>
			</g>
			<g>
				<g>
					<g>
						<path class="st10" d="M183.5,328.2c0,0-2.3-0.6-0.2-4.4c2.1-3.8,9.3,0,9.3,0l9.1,4.5c0,0,2.3,4.4,0,5.8l-1.6,2.4
							c0,0,3.7,3.2,2.6,6.3c-1.1,3.1-4.5,3-4.5,3s0.9,6.1-0.9,8.6c-1.8,2.5-3.6,2.9-3.6,2.9s-1.2,5.2-7,7.2c-5.7,2-8.8,2.3-10.6,0
							c-1.8-2.3-3.1-5.4-3.1-5.4s-13.1-5.5-13.6-8.8c-0.5-3.3,0-3.7,0-3.7s-1.2-2.7-0.1-4.8c1.1-2.1,6.2-0.8,6.2-0.8l16.3,2.4
							c0,0-13.3-5-15-6.8c-1.7-1.8-0.3-4.4,4.9-4.2s21,1.8,21,1.8s-0.9-1.5-2-1.8c-1.1-0.3-4.4-2-4.4-2L183.5,328.2z"/>
					</g>
				</g>
				<g>
					<g>
						<g>
							<path class="st11" d="M189.3,352.1c0,0.2-6.7-1-14.8-2.5c-8.1-1.5-14.7-2.9-14.7-3c0-0.2,6.7,1,14.8,2.5
								C182.8,350.6,189.4,351.9,189.3,352.1z"/>
						</g>
					</g>
				</g>
				<g>
					<g>
						<g>
							<path class="st11" d="M182.4,361.4c0,0.1-2.2-0.2-4.8-0.8c-1.3-0.3-2.5-0.7-3.3-1c-0.4-0.2-0.7-0.3-1-0.4
								c-0.1-0.1-0.2-0.1-0.2-0.2c-0.1-0.1,0-0.2,0-0.1c-0.1,0.1,2,0.5,4.6,1.2C180.4,360.7,182.5,361.3,182.4,361.4z"/>
						</g>
					</g>
				</g>
				<g>
					<g>
						<g>
							<path class="st11" d="M194.8,344.5c0,0.2-3.2-0.2-7.1-0.5c-3.9-0.3-7.1-0.5-7.1-0.6c0-0.1,3.2-0.3,7.1,0.1
								C191.7,343.8,194.9,344.4,194.8,344.5z"/>
						</g>
					</g>
				</g>
				<g>
					<g>
						<g>
							<path class="st11" d="M198.1,336c-0.1,0.1-1.4-0.6-3.3-1.1c-1.8-0.5-3.4-0.5-3.4-0.7c0-0.1,1.6-0.4,3.5,0.1
								C196.9,334.8,198.1,335.8,198.1,336z"/>
						</g>
					</g>
				</g>
			</g>
			<g>
				<g>
					<g>
						<path class="st8" d="M209.7,307.3c0,0-0.2,0-0.6,0c-0.4,0-1,0-1.7-0.1c-1.5-0.1-3.6-0.2-6.2-0.2c-5.2-0.2-12.5-0.2-20.4,0.3
							c-2,0.1-4,0.1-5.5,1.1c-0.8,0.5-1.4,1.1-2.1,1.7c-0.7,0.6-1.4,1.2-2,1.7c-2.6,2.2-5,4.2-7,5.9c-2,1.6-3.6,3-4.8,3.9
							c-0.5,0.4-1,0.8-1.3,1.1c-0.3,0.2-0.5,0.4-0.5,0.3c0,0,0.1-0.2,0.4-0.4c0.3-0.3,0.7-0.7,1.3-1.1c1.2-1,2.7-2.4,4.7-4.1
							c2-1.7,4.4-3.8,7-6c0.7-0.6,1.3-1.1,2-1.7c0.7-0.6,1.4-1.2,2.2-1.7c0.8-0.5,1.8-0.8,2.8-1c1-0.1,2-0.2,3-0.2
							c8-0.5,15.2-0.4,20.5-0.1c2.6,0.1,4.7,0.3,6.2,0.4c0.7,0.1,1.2,0.1,1.7,0.2C209.5,307.2,209.7,307.3,209.7,307.3z"/>
					</g>
				</g>
			</g>
			<g>
				<g>
					<path class="st13" d="M190.4,311.7c-0.3-0.4-0.9-0.6-1.6-0.5l0.1,0c-0.1,0-0.2,0-0.2,0.1c0,0-0.1,0-0.1,0
						c-0.5,0.1-0.9,0.4-1.2,0.8c-0.3,0.5-0.3,1.2,0.1,1.6c0.2,0.2,0.6,0.3,0.9,0.3c0.6,0.1,1.3-0.1,1.8-0.6
						C190.6,313,190.8,312.2,190.4,311.7z"/>
				</g>
			</g>
		</g>
	</g>
	<g>
		<g>
			<g>
				<path class="st12" d="M306.6,344.1c0,3.8-3,6.8-6.8,6.8c-3.8,0-6.8-3-6.8-6.8c0-3.8,3-6.8,6.8-6.8
					C303.6,337.3,306.6,340.3,306.6,344.1z"/>
			</g>
		</g>
		<g>
			<g>
				<path class="st12" d="M325.7,330.4c0,3.8-3,6.8-6.8,6.8c-3.8,0-6.8-3-6.8-6.8c0-3.8,3-6.8,6.8-6.8
					C322.7,323.6,325.7,326.6,325.7,330.4z"/>
			</g>
		</g>
		<g>
			<g>
				<path class="st12" d="M325.8,359.3c0,4.1-3,7.4-6.8,7.4c-3.8,0-6.8-3.3-6.8-7.4c0-4.1,3-7.4,6.8-7.4
					C322.7,351.9,325.8,355.2,325.8,359.3z"/>
			</g>
		</g>
		<g>
			<g>
				<g>
					<path class="st12" d="M316.9,358.5c-0.3,0.4-4.8-2.1-10.1-5.8c-5.3-3.6-9.4-6.9-9.1-7.3c0.3-0.4,4.8,2.1,10.1,5.8
						C313.2,354.8,317.2,358,316.9,358.5z"/>
				</g>
			</g>
		</g>
		<g>
			<g>
				<g>
					<path class="st12" d="M317.5,329.9c0.3,0.4-3.2,3.7-7.8,7.3c-4.6,3.6-8.7,6.2-9,5.8c-0.3-0.4,3.2-3.7,7.8-7.3
						C313.1,332.1,317.2,329.5,317.5,329.9z"/>
				</g>
			</g>
		</g>
	</g>
	<g>
		<g>
			<g>
				<g>
					<g>
						<g>
							<g>
								<g>
									<g>
										<path class="st2" d="M444.3,242.9l-17.6-6.5l-17.4,6.4c-2.2,1.1-4.2,1.7-4.2,3.8v10.6c0,7.3,1.9,14.6,5.7,21
											c3.2,5.4,8.3,11,16,14.5c7.1-2.4,12.4-8.7,15.7-14.1c3.9-6.4,5.7-13.7,5.7-21v-9.5C448.3,245.1,446.7,243.6,444.3,242.9z"
											/>
									</g>
								</g>
								<g>
									<g>
										<g>
											<path class="st8" d="M444.3,242.9c0,0,0.4,0.1,1.1,0.4c0.7,0.3,1.8,0.9,2.5,2.3c0.3,0.7,0.5,1.5,0.5,2.4
												c0,0.9,0,1.9,0,2.9c0,2.1,0,4.5,0,7.2c0,5.4-1.1,11.9-4.5,18.5c-1.7,3.2-3.9,6.5-6.6,9.4c-2.8,2.9-6.2,5.6-10.4,7l-0.1,0
												l-0.1,0c-5.5-2.5-10.6-6.6-14.4-12c-4.5-6.3-6.9-13.7-7.4-20.7c-0.1-1.8-0.1-3.5-0.1-5.2c0-1.7,0-3.4,0-5
												c0-0.8,0-1.6,0-2.4c0-0.4,0-0.8,0-1.2c0-0.4,0.1-0.8,0.4-1.2c0.4-0.7,1.2-1.2,1.8-1.6c0.7-0.4,1.4-0.7,2.1-1l0,0l0,0
												c6.6-2.4,12.5-4.5,17.4-6.3l0.1,0l0,0c5.5,2.1,9.9,3.7,12.9,4.8c1.5,0.6,2.6,1,3.4,1.3c0.4,0.1,0.7,0.3,0.9,0.3
												C444.2,242.9,444.3,242.9,444.3,242.9c0,0-0.1,0-0.3-0.1c-0.2-0.1-0.5-0.2-0.9-0.3c-0.8-0.3-2-0.7-3.5-1.2
												c-3-1.1-7.4-2.7-13-4.7h0.1c-4.9,1.8-10.8,4-17.4,6.4l0,0c-0.7,0.3-1.4,0.6-2,1c-0.7,0.4-1.3,0.8-1.7,1.4
												c-0.4,0.6-0.3,1.4-0.3,2.2c0,0.8,0,1.6,0,2.4c0,1.6,0,3.3,0,5c0,1.7,0,3.4,0.1,5.2c0.5,7,2.8,14.3,7.3,20.5
												c3.7,5.3,8.8,9.4,14.2,11.8l-0.2,0c4.1-1.4,7.5-4,10.2-6.9c2.7-2.9,4.9-6.1,6.6-9.3c3.3-6.4,4.5-13,4.5-18.3
												c0-2.7,0-5.1,0-7.2c0-2.1,0.2-4-0.5-5.3c-0.6-1.3-1.7-1.9-2.3-2.3c-0.3-0.2-0.6-0.3-0.8-0.3
												C444.4,243,444.3,242.9,444.3,242.9z"/>
										</g>
									</g>
								</g>
							</g>
						</g>
					</g>
				</g>
			</g>
			<g>
				<g>
					<g>
						<g>
							<g>
								<g>
									<path class="st5" d="M439,271.3h-3.7v-20.1c0-4.7-3.8-8.6-8.6-8.6c-4.7,0-8.6,3.8-8.6,8.6v20.1h-3.7v-20.1
										c0-6.8,5.5-12.3,12.3-12.3c6.8,0,12.3,5.5,12.3,12.3V271.3z"/>
								</g>
							</g>
						</g>
					</g>
					<g class="st15">
						<g>
							<g>
								<g>
									<path d="M439,271.3h-3.7v-20.1c0-4.7-3.8-8.6-8.6-8.6c-4.7,0-8.6,3.8-8.6,8.6v20.1h-3.7v-20.1c0-6.8,5.5-12.3,12.3-12.3
										c6.8,0,12.3,5.5,12.3,12.3V271.3z"/>
								</g>
							</g>
						</g>
					</g>
					<g>
						<g>
							<g>
								<g>
									<path class="st12" d="M439.9,283.5h-26.3c-1.9,0-3.4-1.5-3.4-3.4v-14.4c0-1.9,1.5-3.4,3.4-3.4h26.3c1.9,0,3.4,1.5,3.4,3.4
										v14.4C443.2,282,441.7,283.5,439.9,283.5z"/>
								</g>
							</g>
						</g>
					</g>
					<g class="st16">
						<g>
							<g>
								<path d="M429.5,270.2c0-1.5-1.2-2.8-2.8-2.8c-1.5,0-2.8,1.2-2.8,2.8c0,1.3,0.9,2.3,2,2.6v4.1h1.5v-4.1
									C428.6,272.5,429.5,271.4,429.5,270.2z"/>
							</g>
						</g>
					</g>
				</g>
				<g>
					<g>
						<g>
							<g>
								<g>
									<path class="st6" d="M411.9,281.5c-0.1,0-0.1-3.5-0.1-7.9c0-4.4,0.1-7.9,0.1-7.9c0.1,0,0.1,3.5,0.1,7.9
										C412.1,278,412,281.5,411.9,281.5z"/>
								</g>
							</g>
						</g>
					</g>
				</g>
				<g>
					<g>
						<g>
							<g>
								<g>
									<path class="st6" d="M424.5,273.7c0,0-0.1,0-0.3-0.2c-0.2-0.1-0.5-0.4-0.7-0.7c-0.5-0.7-1-1.9-0.7-3.2
										c0.3-1.3,1.3-2.2,2.1-2.6c0.4-0.2,0.7-0.3,1-0.3c0.2,0,0.4,0,0.4,0c0,0.1-0.5,0.1-1.2,0.5c-0.7,0.4-1.6,1.3-1.9,2.5
										c-0.3,1.2,0.1,2.4,0.6,3.1C424.1,273.4,424.6,273.7,424.5,273.7z"/>
								</g>
							</g>
						</g>
					</g>
				</g>
			</g>
		</g>
	</g>
	<g>
		<g>
			<g>
				<g>
					<g>
						<g>
							<path class="st12" d="M474.4,158.3c0.7-0.4,1.4-0.7,2.2-1l0.5-2.2l3.7-0.1l0.5,2.2c0.8,0.2,1.5,0.5,2.2,0.9l1.9-1.2l2.6,2.5
								l-1.1,1.9c0.4,0.7,0.7,1.4,1,2.2l2.2,0.5l0.1,3.7l-2.2,0.5c-0.2,0.8-0.5,1.5-0.9,2.2l1.2,1.9l-2.5,2.6l-1.9-1.1
								c-0.7,0.4-1.4,0.7-2.2,1l-0.5,2.2l-3.7,0.1l-0.5-2.2c-0.8-0.2-1.5-0.5-2.2-0.9l-1.9,1.2l-2.6-2.5l1.1-1.9
								c-0.4-0.7-0.7-1.4-1-2.2l-2.2-0.5l-0.1-3.7l2.2-0.5c0.2-0.8,0.5-1.5,0.9-2.2l-1.2-1.9l2.5-2.6L474.4,158.3L474.4,158.3z
								 M476.3,163.2c-1.5,1.6-1.5,4.1,0.1,5.6c1.6,1.5,4.1,1.5,5.6-0.1c1.5-1.6,1.5-4.1-0.1-5.6
								C480.3,161.6,477.9,161.7,476.3,163.2z"/>
						</g>
					</g>
				</g>
			</g>
			<g>
				<g>
					<g>
						<g>
							<g>
								<path class="st5" d="M476.3,163.2c0,0,0.2-0.3,0.7-0.6c0.5-0.3,1.4-0.7,2.6-0.6c0.6,0.1,1.2,0.2,1.7,0.6
									c0.6,0.4,1.1,0.9,1.4,1.6c0.2,0.3,0.3,0.7,0.4,1.1c0.1,0.4,0.1,0.8,0,1.2c-0.1,0.8-0.5,1.6-1.1,2.3c-0.6,0.6-1.4,1-2.2,1.2
									c-0.4,0.1-0.8,0.1-1.2,0c-0.4-0.1-0.8-0.2-1.1-0.3c-0.7-0.3-1.2-0.8-1.6-1.4c-0.4-0.5-0.6-1.2-0.7-1.7
									c-0.2-1.1,0.2-2.1,0.5-2.6C476.1,163.4,476.3,163.2,476.3,163.2c0,0-0.2,0.3-0.5,0.8c-0.3,0.5-0.6,1.4-0.4,2.5
									c0.1,0.5,0.3,1.1,0.7,1.6c0.4,0.5,0.9,1,1.6,1.3c0.3,0.2,0.7,0.2,1.1,0.3c0.4,0.1,0.8,0,1.1,0c0.8-0.1,1.5-0.5,2.1-1.1
									c0.6-0.6,0.9-1.4,1-2.1c0.1-0.4,0-0.8,0-1.1c-0.1-0.4-0.2-0.7-0.3-1c-0.3-0.7-0.8-1.2-1.3-1.5c-0.5-0.4-1.1-0.5-1.7-0.6
									c-1.1-0.1-2,0.2-2.5,0.5C476.6,163,476.4,163.3,476.3,163.2z"/>
							</g>
						</g>
					</g>
				</g>
			</g>
			<g>
				<g>
					<g>
						<g>
							<g>
								<path class="st8" d="M474.4,158.3c0,0,0,0-0.1-0.1c-0.1-0.1-0.2-0.1-0.4-0.2c-0.3-0.2-0.8-0.5-1.4-0.8l0,0
									c-0.6,0.7-1.5,1.6-2.5,2.7l0-0.1c0.4,0.6,0.8,1.2,1.2,1.8l0,0l0,0c-0.4,0.7-0.7,1.4-0.9,2.2l0,0l0,0
									c-0.7,0.2-1.4,0.3-2.2,0.5l0.1-0.1c0,1.2,0,2.4,0.1,3.7l-0.1-0.1c0.7,0.1,1.4,0.3,2.2,0.4l0.1,0l0,0.1
									c0.2,0.7,0.5,1.5,0.9,2.2l0,0.1l0,0.1c-0.4,0.6-0.7,1.2-1.1,1.9l0-0.1c0.8,0.8,1.7,1.7,2.6,2.5l-0.1,0
									c0.6-0.4,1.2-0.8,1.9-1.2l0.1,0l0.1,0c0.6,0.4,1.4,0.7,2.2,0.9l0.1,0l0,0.1c0.2,0.7,0.3,1.4,0.5,2.2l-0.1-0.1
									c1.2,0,2.4,0,3.7-0.1l-0.1,0.1c0.1-0.7,0.3-1.4,0.5-2.2l0-0.1l0.1,0c0.7-0.2,1.5-0.5,2.2-0.9l0,0l0.1,0l0.1,0
									c0.6,0.4,1.3,0.8,1.9,1.1l-0.1,0c0.9-0.9,1.7-1.8,2.5-2.6l0,0.1c-0.4-0.6-0.8-1.2-1.2-1.9l0-0.1l0-0.1
									c0.4-0.7,0.7-1.4,0.9-2.2l0-0.1l0.1,0c0.7-0.2,1.4-0.4,2.2-0.5l-0.1,0.1c0-1.3,0-2.5-0.1-3.7l0.1,0.1
									c-0.7-0.2-1.5-0.3-2.2-0.5l-0.1,0l0-0.1c-0.2-0.8-0.5-1.5-0.9-2.2l0-0.1l0-0.1c0.4-0.6,0.8-1.3,1.2-1.9l0,0.1
									c-0.9-0.9-1.8-1.7-2.6-2.6l0.1,0c-0.7,0.4-1.3,0.8-1.9,1.2l0,0l0,0c-0.7-0.4-1.5-0.7-2.2-0.9l0,0l0,0
									c-0.2-0.8-0.4-1.5-0.5-2.2l0.1,0.1c-1.4,0-2.6,0-3.7,0l0,0c-0.2,0.9-0.3,1.6-0.5,2.2l0,0l0,0c-0.8,0.2-1.3,0.5-1.7,0.6
									c-0.2,0.1-0.3,0.2-0.4,0.2C474.4,158.3,474.4,158.3,474.4,158.3c0,0,0,0,0.1-0.1c0.1-0.1,0.2-0.1,0.4-0.2
									c0.4-0.2,0.9-0.5,1.7-0.7l0,0c0.1-0.6,0.3-1.3,0.4-2.2l0,0l0,0c1,0,2.2,0,3.7-0.1l0.1,0l0,0.1c0.2,0.7,0.3,1.4,0.5,2.2
									l-0.1-0.1c0.7,0.2,1.5,0.5,2.2,0.9l-0.1,0c0.6-0.4,1.2-0.8,1.9-1.2l0.1,0l0,0c0.8,0.8,1.7,1.6,2.6,2.5l0.1,0.1l0,0.1
									c-0.4,0.6-0.8,1.2-1.1,1.9l0-0.1c0.4,0.7,0.7,1.4,1,2.2l-0.1-0.1c0.7,0.1,1.4,0.3,2.2,0.4l0.1,0l0,0.1c0,1.2,0,2.4,0.1,3.7
									l0,0.1l-0.1,0c-0.7,0.2-1.4,0.4-2.2,0.5l0.1-0.1c-0.2,0.8-0.5,1.5-0.9,2.3l0-0.1c0.4,0.6,0.8,1.2,1.2,1.9l0,0.1l-0.1,0.1
									c-0.8,0.9-1.7,1.7-2.5,2.6l-0.1,0.1l-0.1,0c-0.6-0.4-1.3-0.8-1.9-1.1h0.1l0,0c-0.7,0.4-1.5,0.8-2.2,1l0.1-0.1
									c-0.2,0.7-0.3,1.5-0.5,2.2l0,0.1l-0.1,0c-1.3,0-2.5,0-3.7,0.1l-0.1,0l0-0.1c-0.2-0.7-0.4-1.5-0.5-2.2l0.1,0.1
									c-0.8-0.2-1.6-0.5-2.3-0.9l0.1,0c-0.6,0.4-1.3,0.8-1.9,1.2l-0.1,0l-0.1-0.1c-0.9-0.9-1.8-1.8-2.6-2.6l-0.1-0.1l0-0.1
									c0.4-0.7,0.8-1.3,1.2-1.9l0,0.1c-0.4-0.7-0.8-1.5-1-2.2l0.1,0.1c-0.8-0.2-1.5-0.3-2.2-0.5l-0.1,0l0-0.1c0-1.3,0-2.5-0.1-3.7
									l0-0.1l0.1,0c0.8-0.2,1.5-0.4,2.2-0.5l-0.1,0.1c0.2-0.8,0.5-1.6,0.9-2.2l0,0.1c-0.4-0.7-0.8-1.3-1.2-1.9l0,0l0,0
									c1-1.1,1.9-2,2.6-2.6l0,0l0,0c0.6,0.4,1.1,0.7,1.4,0.9c0.2,0.1,0.3,0.2,0.4,0.2C474.3,158.3,474.4,158.3,474.4,158.3z"/>
							</g>
						</g>
					</g>
				</g>
			</g>
		</g>
		<g>
			<g>
				<g>
					<g>
						<g>
							<path class="st12" d="M452.5,155c0.4-0.3,0.9-0.4,1.3-0.6l0.3-1.3l2.2,0l0.3,1.3c0.5,0.1,0.9,0.3,1.3,0.5l1.1-0.7l1.6,1.5
								l-0.7,1.1c0.3,0.4,0.4,0.9,0.6,1.3l1.3,0.3l0,2.2l-1.3,0.3c-0.1,0.5-0.3,0.9-0.5,1.3l0.7,1.1l-1.5,1.6l-1.1-0.7
								c-0.4,0.3-0.9,0.4-1.3,0.6l-0.3,1.3l-2.2,0l-0.3-1.3c-0.5-0.1-0.9-0.3-1.3-0.5l-1.1,0.7l-1.6-1.5l0.7-1.1
								c-0.3-0.4-0.4-0.9-0.6-1.3l-1.3-0.3l0-2.2l1.3-0.3c0.1-0.5,0.3-0.9,0.5-1.3l-0.7-1.1l1.5-1.6L452.5,155L452.5,155z
								 M453.7,157.9c-0.9,0.9-0.9,2.4,0.1,3.3c0.9,0.9,2.4,0.9,3.3-0.1c0.9-0.9,0.9-2.4-0.1-3.3C456.1,157,454.6,157,453.7,157.9z"
								/>
						</g>
					</g>
				</g>
			</g>
			<g>
				<g>
					<g>
						<g>
							<g>
								<path class="st5" d="M453.7,157.9c0,0,0.1-0.2,0.4-0.4c0.3-0.2,0.9-0.4,1.5-0.4c0.3,0,0.7,0.1,1,0.4c0.3,0.2,0.6,0.5,0.8,1
									c0.1,0.2,0.2,0.4,0.2,0.7c0,0.2,0,0.5,0,0.7c-0.1,0.5-0.3,1-0.7,1.4c-0.4,0.4-0.8,0.6-1.3,0.7c-0.2,0-0.5,0-0.7,0
									c-0.2,0-0.5-0.1-0.7-0.2c-0.4-0.2-0.7-0.5-1-0.8c-0.2-0.3-0.4-0.7-0.4-1c-0.1-0.7,0.1-1.2,0.3-1.5
									C453.5,158.1,453.7,157.9,453.7,157.9c0,0-0.1,0.2-0.3,0.5c-0.2,0.3-0.4,0.9-0.3,1.5c0.1,0.3,0.2,0.7,0.4,1
									c0.2,0.3,0.5,0.6,0.9,0.8c0.2,0.1,0.4,0.1,0.6,0.2c0.2,0,0.5,0,0.7,0c0.5-0.1,0.9-0.3,1.3-0.7c0.3-0.4,0.6-0.8,0.6-1.3
									c0-0.2,0-0.5,0-0.7c0-0.2-0.1-0.4-0.2-0.6c-0.2-0.4-0.5-0.7-0.8-0.9c-0.3-0.2-0.7-0.3-1-0.4c-0.7-0.1-1.2,0.1-1.5,0.3
									C453.9,157.8,453.7,158,453.7,157.9z"/>
							</g>
						</g>
					</g>
				</g>
			</g>
			<g>
				<g>
					<g>
						<g>
							<g>
								<path class="st8" d="M452.5,155C452.5,155,452.5,155,452.5,155c-0.1-0.1-0.2-0.1-0.3-0.2c-0.2-0.1-0.5-0.3-0.9-0.5l0,0
									c-0.4,0.4-0.9,0.9-1.5,1.6l0,0c0.2,0.3,0.5,0.7,0.7,1.1l0,0l0,0c-0.2,0.4-0.4,0.8-0.5,1.3l0,0l0,0c-0.4,0.1-0.8,0.2-1.3,0.3
									l0,0c0,0.7,0,1.4,0,2.2l0-0.1c0.4,0.1,0.8,0.2,1.3,0.3l0,0l0,0c0.1,0.4,0.3,0.9,0.6,1.3l0,0l0,0c-0.2,0.4-0.4,0.7-0.7,1.1
									l0-0.1c0.5,0.5,1,1,1.6,1.5l-0.1,0c0.3-0.2,0.7-0.5,1.1-0.7l0,0l0,0c0.4,0.2,0.8,0.4,1.3,0.5l0,0l0,0
									c0.1,0.4,0.2,0.8,0.3,1.3l-0.1-0.1c0.7,0,1.4,0,2.2,0l-0.1,0.1c0.1-0.4,0.2-0.9,0.3-1.3l0,0l0,0c0.4-0.1,0.9-0.3,1.3-0.6
									l0,0l0,0l0,0c0.4,0.2,0.8,0.5,1.1,0.7l-0.1,0c0.5-0.5,1-1.1,1.5-1.6l0,0.1c-0.2-0.4-0.5-0.7-0.7-1.1l0,0l0,0
									c0.2-0.4,0.4-0.9,0.5-1.3l0,0l0,0c0.4-0.1,0.9-0.2,1.3-0.3l0,0.1c0-0.7,0-1.5,0-2.2l0,0.1c-0.4-0.1-0.9-0.2-1.3-0.3l0,0l0,0
									c-0.1-0.5-0.3-0.9-0.6-1.3l0,0l0,0c0.2-0.4,0.5-0.8,0.7-1.1l0,0.1c-0.6-0.5-1.1-1-1.6-1.5l0.1,0c-0.4,0.3-0.8,0.5-1.1,0.7
									l0,0l0,0c-0.4-0.2-0.9-0.4-1.3-0.5l0,0l0,0c-0.1-0.5-0.2-0.9-0.3-1.3l0,0c-0.9,0-1.6,0-2.2,0l0,0c-0.1,0.5-0.2,0.9-0.3,1.3
									l0,0l0,0c-0.5,0.1-0.8,0.3-1,0.4C452.8,154.9,452.7,155,452.5,155C452.6,155,452.5,155,452.5,155
									C452.5,155,452.6,155,452.5,155c0.1-0.1,0.2-0.1,0.3-0.2c0.2-0.1,0.5-0.3,1-0.4l0,0c0.1-0.4,0.2-0.8,0.3-1.3l0,0l0,0
									c0.6,0,1.3,0,2.2,0l0,0l0,0c0.1,0.4,0.2,0.8,0.3,1.3l0,0c0.4,0.1,0.9,0.3,1.3,0.5l-0.1,0c0.4-0.2,0.7-0.5,1.1-0.7l0,0l0,0
									c0.5,0.5,1,1,1.6,1.5l0,0l0,0c-0.2,0.4-0.5,0.7-0.7,1.1l0-0.1c0.2,0.4,0.4,0.9,0.6,1.3l0,0c0.4,0.1,0.9,0.2,1.3,0.3l0,0l0,0
									c0,0.7,0,1.4,0,2.2l0,0.1l0,0c-0.4,0.1-0.9,0.2-1.3,0.3l0,0c-0.1,0.5-0.3,0.9-0.5,1.3l0-0.1c0.2,0.4,0.5,0.7,0.7,1.1l0,0
									l0,0c-0.5,0.5-1,1-1.5,1.6l0,0l0,0c-0.4-0.2-0.8-0.5-1.1-0.7h0.1l0,0c-0.4,0.3-0.9,0.5-1.3,0.6l0-0.1
									c-0.1,0.4-0.2,0.9-0.3,1.3l0,0.1l-0.1,0c-0.8,0-1.5,0-2.2,0l-0.1,0l0-0.1c-0.1-0.4-0.2-0.9-0.3-1.3l0,0
									c-0.5-0.1-1-0.3-1.3-0.5l0.1,0c-0.4,0.3-0.8,0.5-1.1,0.7l0,0l0,0c-0.5-0.5-1.1-1-1.6-1.5l0,0l0,0c0.2-0.4,0.5-0.8,0.7-1.1
									v0.1c-0.3-0.4-0.5-0.9-0.6-1.3l0,0c-0.5-0.1-0.9-0.2-1.3-0.3l0,0l0,0c0-0.8,0-1.5,0-2.2l0,0l0,0c0.5-0.1,0.9-0.2,1.3-0.3
									l0,0c0.1-0.5,0.3-0.9,0.5-1.3l0,0c-0.3-0.4-0.5-0.8-0.7-1.1l0,0l0,0c0.6-0.6,1.1-1.2,1.5-1.6l0,0l0,0
									c0.4,0.2,0.6,0.4,0.8,0.5C452.3,154.9,452.4,154.9,452.5,155C452.5,155,452.5,155,452.5,155z"/>
							</g>
						</g>
					</g>
				</g>
			</g>
		</g>
		<g>
			<g>
				<g>
					<g>
						<g>
							<path class="st17" d="M452.3,174.2c1.1-0.3,2.2-0.4,3.3-0.4l1.5-2.7l4.9,1.4l-0.2,3.1c1,0.6,1.8,1.3,2.6,2.1l3-0.9l2.5,4.5
								l-2.3,2.1c0.3,1.1,0.4,2.2,0.4,3.3l2.7,1.5l-1.4,4.9l-3.1-0.2c-0.6,1-1.3,1.8-2.1,2.6l0.9,3l-4.5,2.5l-2.1-2.3
								c-1.1,0.3-2.2,0.4-3.3,0.4l-1.5,2.7l-4.9-1.4l0.2-3.1c-1-0.6-1.8-1.3-2.6-2.1l-3,0.9l-2.5-4.5l2.3-2.1
								c-0.3-1.1-0.4-2.2-0.4-3.3l-2.7-1.5l1.4-4.9l3.1,0.2c0.6-1,1.3-1.8,2.1-2.6l-0.9-3l4.5-2.5L452.3,174.2L452.3,174.2z
								 M452.9,181.6c-2.6,1.5-3.6,4.8-2.1,7.5c1.5,2.6,4.8,3.6,7.5,2.1c2.6-1.5,3.6-4.8,2.1-7.5C458.9,181,455.6,180.1,452.9,181.6
								z"/>
						</g>
					</g>
				</g>
			</g>
			<g>
				<g>
					<g>
						<g>
							<g>
								<path class="st8" d="M452.9,181.6c0,0,0.4-0.3,1.2-0.6c0.8-0.3,2.2-0.4,3.7,0.2c0.7,0.3,1.5,0.8,2.1,1.5
									c0.6,0.7,1.1,1.6,1.3,2.7c0.1,0.5,0.1,1.1,0,1.6c-0.1,0.6-0.2,1.1-0.5,1.6c-0.5,1.1-1.3,2-2.4,2.6c-1.1,0.6-2.3,0.8-3.5,0.7
									c-0.6-0.1-1.1-0.2-1.6-0.5c-0.5-0.2-1-0.5-1.4-0.9c-0.8-0.7-1.3-1.6-1.6-2.5c-0.3-0.9-0.3-1.8-0.2-2.6
									c0.2-1.6,1.1-2.7,1.7-3.3C452.5,181.7,452.9,181.6,452.9,181.6c0,0-0.4,0.3-1,0.9c-0.6,0.6-1.4,1.7-1.6,3.2
									c-0.1,0.8-0.1,1.6,0.2,2.5c0.3,0.8,0.8,1.7,1.6,2.3c0.4,0.3,0.8,0.6,1.3,0.8c0.5,0.2,1,0.4,1.5,0.4c1.1,0.1,2.2-0.1,3.3-0.6
									c1-0.6,1.8-1.4,2.2-2.5c0.2-0.5,0.4-1,0.4-1.5c0.1-0.5,0.1-1,0-1.5c-0.1-1-0.6-1.9-1.2-2.6c-0.6-0.7-1.3-1.2-2-1.5
									c-1.4-0.6-2.7-0.5-3.6-0.3C453.4,181.3,452.9,181.6,452.9,181.6z"/>
							</g>
						</g>
					</g>
				</g>
			</g>
			<g>
				<g>
					<g>
						<g>
							<g>
								<path class="st8" d="M452.3,174.2c0,0,0,0-0.1-0.1c-0.1-0.1-0.2-0.2-0.4-0.4c-0.4-0.4-0.9-1-1.6-1.7l0.1,0
									c-1.1,0.6-2.6,1.5-4.5,2.5l0-0.1c0.3,0.9,0.6,1.9,0.9,3l0,0.1l0,0c-0.7,0.7-1.4,1.6-2,2.6l0,0.1l-0.1,0c-1,0-2-0.1-3.1-0.1
									l0.1-0.1c-0.4,1.6-0.9,3.2-1.4,4.9l-0.1-0.1c0.8,0.5,1.8,1,2.7,1.5l0.1,0l0,0.1c0,1,0.1,2.2,0.4,3.3l0,0.1l-0.1,0.1
									c-0.7,0.6-1.5,1.4-2.3,2.1l0-0.2c0.8,1.4,1.6,2.9,2.5,4.5l-0.2-0.1c0.9-0.3,1.9-0.6,3-0.9l0.1,0l0.1,0.1
									c0.7,0.7,1.6,1.5,2.6,2l0.1,0l0,0.1c0,1-0.1,2-0.2,3.1l-0.1-0.2c1.6,0.4,3.2,0.9,4.9,1.4l-0.2,0.1c0.5-0.9,1-1.8,1.5-2.7
									l0-0.1l0.1,0c1,0,2.2-0.1,3.3-0.4l0,0l0.1,0l0.1,0.1c0.7,0.8,1.4,1.5,2.1,2.3l-0.2,0c1.5-0.8,3-1.7,4.5-2.5l-0.1,0.2
									c-0.3-1-0.6-2-0.9-3l0-0.1l0.1-0.1c0.8-0.8,1.5-1.7,2-2.6l0-0.1l0.1,0c1,0.1,2.1,0.1,3.1,0.2l-0.2,0.1
									c0.5-1.7,0.9-3.3,1.4-4.9l0.1,0.2c-0.9-0.5-1.8-1-2.7-1.5l-0.1,0l0-0.1c0-1.1-0.1-2.2-0.4-3.3l0-0.1l0.1-0.1
									c0.8-0.7,1.6-1.4,2.3-2.1l0,0.2c-0.9-1.6-1.7-3.1-2.5-4.5l0.1,0.1c-1,0.3-2,0.6-3,0.9l-0.1,0l0,0c-0.8-0.8-1.7-1.5-2.6-2.1
									l-0.1,0l0-0.1c0.1-1.1,0.1-2.1,0.2-3.1l0.1,0.1c-1.9-0.5-3.5-1-4.9-1.4l0.1,0c-0.6,1.1-1.1,2-1.5,2.7l0,0l0,0
									c-1.1,0-2,0.1-2.5,0.2c-0.3,0.1-0.5,0.1-0.6,0.1C452.3,174.2,452.3,174.2,452.3,174.2c0,0,0.1,0,0.2-0.1
									c0.1,0,0.3-0.1,0.6-0.1c0.5-0.1,1.4-0.2,2.5-0.2l0,0c0.4-0.7,0.9-1.6,1.5-2.7l0,0l0.1,0c1.4,0.4,3,0.8,4.9,1.4l0.1,0l0,0.1
									c0,1-0.1,2-0.1,3.1l-0.1-0.1c0.9,0.5,1.8,1.2,2.7,2.1l-0.1,0c0.9-0.3,1.9-0.6,3-0.9l0.1,0l0,0.1c0.8,1.4,1.6,2.9,2.5,4.5
									l0.1,0.1l-0.1,0.1c-0.7,0.7-1.5,1.4-2.3,2.1l0-0.1c0.3,1.1,0.4,2.2,0.4,3.4l-0.1-0.1c0.9,0.5,1.8,1,2.7,1.5l0.1,0.1l0,0.1
									c-0.4,1.6-0.9,3.3-1.4,4.9l0,0.1l-0.1,0c-1-0.1-2-0.1-3.1-0.2l0.1-0.1c-0.6,1-1.3,1.9-2.1,2.7l0-0.2c0.3,1,0.6,2,0.9,3
									l0,0.1l-0.1,0.1c-1.5,0.8-3,1.7-4.5,2.5l-0.1,0.1l-0.1-0.1c-0.7-0.8-1.4-1.5-2.1-2.3l0.2,0l0,0c-1.1,0.3-2.3,0.4-3.4,0.4
									l0.1-0.1c-0.5,0.9-1,1.9-1.5,2.7l-0.1,0.1l-0.1,0c-1.7-0.5-3.4-0.9-4.9-1.4l-0.1,0l0-0.1c0.1-1.1,0.1-2.1,0.2-3.1l0.1,0.1
									c-1-0.6-1.9-1.3-2.7-2.1l0.1,0c-1,0.3-2,0.6-3,0.9l-0.1,0l-0.1-0.1c-0.9-1.6-1.7-3.1-2.5-4.5l-0.1-0.1l0.1-0.1
									c0.8-0.7,1.6-1.4,2.3-2.1l0,0.1c-0.3-1.1-0.4-2.3-0.4-3.4l0.1,0.1c-1-0.5-1.9-1-2.7-1.5l-0.1,0l0-0.1c0.5-1.7,1-3.4,1.4-4.9
									l0-0.1l0.1,0c1.1,0.1,2.1,0.1,3.1,0.2l-0.1,0.1c0.6-1,1.3-1.9,2.1-2.6l0,0.1c-0.3-1.1-0.6-2.1-0.9-3l0-0.1l0.1,0
									c1.8-1,3.3-1.8,4.5-2.5l0,0l0,0c0.7,0.7,1.2,1.3,1.5,1.7c0.2,0.2,0.3,0.3,0.4,0.4C452.2,174.2,452.3,174.2,452.3,174.2z"/>
							</g>
						</g>
					</g>
				</g>
			</g>
		</g>
	</g>
	<g>
		<g>
			<g>
				<g>
					<g>
						<g>
							<g>
								<g>
									<g>
										<g>
											<path class="st2" d="M442.5,111.2l-24.4-2.9c-1.7-0.2-2.9-1.7-2.7-3.4l4-33.8c0.2-1.7,1.7-2.9,3.4-2.7l15.5,1.8L448.8,84
												l-2.9,24.5C445.7,110.2,444.2,111.4,442.5,111.2z"/>
										</g>
									</g>
									<g>
										<g>
											<g>
												<path class="st8" d="M442.5,111.2c0,0,0.2,0,0.5,0c0.3,0,0.9-0.1,1.4-0.5c0.6-0.4,1.2-1,1.3-2c0.1-1,0.2-2.1,0.4-3.4
													c0.6-5.2,1.4-12.5,2.4-21.3l0,0.2c-3.2-4.2-6.7-8.8-10.5-13.8l0.2,0.1c-2.9-0.3-5.9-0.7-8.9-1.1
													c-1.5-0.2-3.1-0.4-4.7-0.6c-0.8-0.1-1.6-0.2-2.3-0.2c-0.7,0-1.4,0.4-1.9,0.9c-0.3,0.4-0.6,0.9-0.7,1.4
													c-0.1,0.5-0.1,1.1-0.2,1.6c-0.1,1.1-0.3,2.2-0.4,3.3c-0.3,2.2-0.5,4.3-0.8,6.4c-0.5,4.2-1,8.3-1.5,12.2
													c-0.2,1.9-0.5,3.8-0.7,5.7c-0.1,0.9-0.2,1.8-0.3,2.7c-0.1,0.4-0.1,0.9-0.2,1.3c0,0.4-0.1,0.9-0.1,1.3
													c0.1,0.8,0.5,1.6,1.1,2c0.3,0.2,0.7,0.4,1,0.5c0.4,0.1,0.8,0.1,1.2,0.2c1.6,0.2,3.1,0.4,4.6,0.6
													c5.8,0.7,10.6,1.3,13.9,1.7c1.6,0.2,2.9,0.4,3.8,0.5c0.4,0.1,0.7,0.1,1,0.1C442.4,111.2,442.5,111.2,442.5,111.2
													c0,0-0.1,0-0.3,0c-0.3,0-0.6-0.1-1-0.1c-0.9-0.1-2.2-0.2-3.8-0.4c-3.3-0.4-8.1-0.9-13.9-1.6c-1.5-0.2-3-0.3-4.6-0.5
													c-0.4-0.1-0.8-0.1-1.2-0.2c-0.4-0.1-0.8-0.3-1.2-0.6c-0.7-0.5-1.2-1.4-1.3-2.3c0-0.5,0.1-0.9,0.1-1.4
													c0.1-0.4,0.1-0.9,0.2-1.3c0.1-0.9,0.2-1.8,0.3-2.7c0.2-1.8,0.4-3.7,0.7-5.7c0.5-3.9,0.9-8,1.4-12.2
													c0.3-2.1,0.5-4.3,0.8-6.4c0.1-1.1,0.3-2.2,0.4-3.3c0.1-0.6,0.1-1.1,0.2-1.7c0.1-0.6,0.4-1.2,0.8-1.6
													c0.6-0.7,1.5-1.1,2.3-1.1c0.9,0,1.6,0.2,2.4,0.2c1.6,0.2,3.1,0.4,4.7,0.6c3.1,0.4,6.1,0.7,8.9,1.1l0.1,0l0.1,0.1
													c3.8,5,7.3,9.6,10.5,13.8l0.1,0.1l0,0.1c-1.1,8.8-2,16.1-2.6,21.3c-0.2,1.3-0.3,2.4-0.4,3.4c-0.2,1-0.9,1.7-1.4,2.1
													c-0.6,0.4-1.2,0.4-1.5,0.4C442.7,111.3,442.5,111.2,442.5,111.2z"/>
											</g>
										</g>
									</g>
								</g>
							</g>
						</g>
					</g>
				</g>
				<g>
					<g>
						<g>
							<g>
								<g>
									<g>
										<path class="st3" d="M438.3,70.2l-1.1,9.5c-0.2,1.6,0.9,3,2.5,3.2l9.1,1.1L438.3,70.2z"/>
									</g>
								</g>
							</g>
						</g>
					</g>
				</g>
				<g>
					<g>
						<g>
							<g>
								<g>
									<g>
										<path class="st0" d="M437.2,80.6c0,0-0.4,2.3,2.1,3.4c0.1,0,0.2,0.1,0.3,0.1c1.2,0.4,8.9,2.7,8.9,2.5
											c0-0.2,0.3-2.6,0.3-2.6l-9.1-1.1C439.7,82.9,437.4,82.6,437.2,80.6z"/>
									</g>
								</g>
							</g>
						</g>
					</g>
				</g>
			</g>
			<g>
				<g>
					<g>
						<g>
							<g>
								<path class="st8" d="M435.2,79.1c0,0.1-2.6-0.1-5.7-0.5c-3.1-0.4-5.6-0.8-5.6-0.9c0-0.1,2.6,0.1,5.7,0.5
									C432.7,78.6,435.2,79,435.2,79.1z"/>
							</g>
						</g>
					</g>
				</g>
			</g>
			<g>
				<g>
					<g>
						<g>
							<g>
								<path class="st8" d="M441.8,85.4c0,0.1-4.2-0.3-9.3-0.9c-5.1-0.6-9.3-1.2-9.3-1.3c0-0.1,4.2,0.3,9.3,0.9
									C437.7,84.6,441.9,85.2,441.8,85.4z"/>
							</g>
						</g>
					</g>
				</g>
			</g>
			<g>
				<g>
					<g>
						<g>
							<g>
								<path class="st8" d="M443,90.1c0,0.1-4.6-0.3-10.2-1c-5.6-0.7-10.1-1.3-10.1-1.4c0-0.1,4.6,0.3,10.2,1
									C438.5,89.3,443,89.9,443,90.1z"/>
							</g>
						</g>
					</g>
				</g>
			</g>
			<g>
				<g>
					<g>
						<g>
							<g>
								<path class="st8" d="M442.5,94.3c0,0.1-4.6-0.3-10.2-1c-5.6-0.7-10.1-1.3-10.1-1.4c0-0.1,4.6,0.3,10.2,1
									C438,93.5,442.5,94.2,442.5,94.3z"/>
							</g>
						</g>
					</g>
				</g>
			</g>
			<g>
				<g>
					<g>
						<g>
							<g>
								<path class="st8" d="M442,98.5c0,0.1-4.6-0.3-10.2-1c-5.6-0.7-10.1-1.3-10.1-1.4c0-0.1,4.6,0.3,10.2,1
									C437.5,97.8,442,98.4,442,98.5z"/>
							</g>
						</g>
					</g>
				</g>
			</g>
			<g>
				<g>
					<g>
						<g>
							<g>
								<path class="st8" d="M441.5,102.8c0,0.1-4.6-0.3-10.2-1c-5.6-0.7-10.1-1.3-10.1-1.4c0-0.1,4.6,0.3,10.2,1
									C436.9,102,441.5,102.6,441.5,102.8z"/>
							</g>
						</g>
					</g>
				</g>
			</g>
		</g>
		<g>
			<g>
				<g>
					<path class="st8" d="M448.8,84c0,0.1-1.3,0-3.4-0.2c-1.1-0.1-2.4-0.2-3.7-0.4c-0.7-0.1-1.4-0.2-2.2-0.2
						c-0.8-0.1-1.7-0.5-2.2-1.2c-0.3-0.4-0.4-0.8-0.5-1.3c0-0.4,0-0.8,0.1-1.2c0.1-0.8,0.2-1.5,0.3-2.2c0.2-1.3,0.4-2.6,0.5-3.7
						c0.3-2.1,0.5-3.4,0.6-3.4c0.1,0,0,1.3-0.2,3.4c-0.1,1.1-0.2,2.4-0.4,3.7c-0.1,0.7-0.2,1.4-0.2,2.2c-0.1,0.8-0.2,1.5,0.3,2.1
						c0.9,1.3,2.6,1,4,1.3c1.3,0.2,2.6,0.4,3.7,0.5C447.5,83.7,448.8,83.9,448.8,84z"/>
				</g>
			</g>
		</g>
	</g>
	<g>
		<g>
			<g>
				<g>
					<g>
						<path class="st12" d="M301.1,29c3.3-1.4,5.7-4.8,5.7-8.8c0-5.3-4-9.6-8.9-9.6c-4.9,0-9,4.2-9,9.5c0,4.1,2.4,7.5,5.7,8.9
							c-13.8,2.1-13.1,17-13.1,17l32.5,0.2C314,46.2,314.7,31.1,301.1,29z"/>
					</g>
				</g>
			</g>
		</g>
	</g>
	<g>
		<g>
			<g>
				<circle class="st8" cx="402.4" cy="265.9" r="2"/>
			</g>
		</g>
		<g>
			<g>
				<g>
					<path class="st8" d="M402.4,265.9c0,0-0.2,0-0.7,0.1c-0.5,0-1.2,0-2,0.1c-1.8,0-4.4,0.1-7.5,0.1c-6.4,0-15,0-24.6,0.1
						c-2.7,0-5.2,0-7.7,0l-0.2,0l-0.1-0.1c-3.7-6.8-7.1-12.7-9.6-16.8c-1.3-2.1-2.3-3.7-3.1-4.8c-0.4-0.5-0.7-0.9-1-1.2
						c-0.1-0.1-0.2-0.2-0.3-0.2c-0.1,0-0.1,0-0.1,0c0,0,0-0.1,0.1-0.1c0.1,0,0.2,0.1,0.4,0.2c0.3,0.2,0.6,0.6,1.1,1.1
						c0.8,1,1.9,2.6,3.2,4.7c2.6,4.1,6,10,9.8,16.8l-0.2-0.1c2.5,0,5,0,7.7,0c9.6,0,18.3,0.1,24.6,0.1c3.1,0,5.6,0.1,7.5,0.1
						c0.8,0,1.5,0,2,0.1C402.1,265.8,402.4,265.8,402.4,265.9z"/>
				</g>
			</g>
		</g>
	</g>
	<g>
		<g>
			<g>
				<circle class="st8" cx="405.5" cy="96.2" r="2"/>
			</g>
		</g>
		<g>
			<g>
				<g>
					<path class="st8" d="M405.5,96.2c0,0-0.2,0-0.7,0.1c-0.5,0-1.1,0-1.9,0.1c-1.7,0-4,0.1-6.9,0.1c-5.9,0-13.9,0-22.7,0.1
						c-3.7,0-7.2,0-10.4,0l0.2-0.1c-4.2,4.6-7.9,8.6-10.5,11.5c-1.3,1.4-2.3,2.5-3.1,3.3c-0.3,0.3-0.6,0.6-0.8,0.9
						c-0.2,0.2-0.3,0.3-0.3,0.3c0,0,0.1-0.1,0.2-0.3c0.2-0.2,0.5-0.6,0.8-0.9c0.7-0.8,1.7-2,3-3.4c2.6-2.9,6.2-7,10.4-11.7l0.1-0.1
						l0.1,0c3.2,0,6.7,0,10.4,0c8.8,0,16.8,0.1,22.7,0.1c2.9,0,5.2,0.1,6.9,0.1c0.8,0,1.4,0,1.9,0.1
						C405.2,96.2,405.5,96.2,405.5,96.2z"/>
				</g>
			</g>
		</g>
	</g>
	<g>
		<g>
			<g>
				<path class="st8" d="M306.4,320.8c-1.3,1.1-3.3,0.8-4.4-0.5c-1.1-1.3-0.8-3.3,0.5-4.4c1.3-1.1,3.3-0.8,4.4,0.5
					C308,317.8,307.8,319.7,306.4,320.8z"/>
			</g>
		</g>
		<g>
			<g>
				<g>
					<path class="st8" d="M304.2,317.9c-0.2,0-1.8-13.6-3.7-30.4c-1.9-16.8-3.3-30.4-3.1-30.5c0.2,0,1.8,13.6,3.7,30.4
						C302.9,304.2,304.3,317.9,304.2,317.9z"/>
				</g>
			</g>
		</g>
	</g>
	<g>
		<g>
			<g>
				<circle class="st8" cx="297.9" cy="53.7" r="2"/>
			</g>
		</g>
		<g>
			<g>
				<g>
					<path class="st8" d="M297.7,53.7c0.2,0,0.3,7,0.3,15.6c0,8.6-0.1,15.6-0.3,15.6c-0.2,0-0.3-7-0.3-15.6
						C297.4,60.7,297.5,53.7,297.7,53.7z"/>
				</g>
			</g>
		</g>
	</g>
	<g>
		<g>
			<g>
				<circle class="st8" cx="427.6" cy="178.2" r="2"/>
			</g>
		</g>
		<g>
			<g>
				<g>
					<path class="st8" d="M426.9,178.2c0,0.2-9.3,0.3-20.8,0.3c-11.5,0-20.8-0.1-20.8-0.3c0-0.2,9.3-0.3,20.8-0.3
						C417.5,178,426.9,178.1,426.9,178.2z"/>
				</g>
			</g>
		</g>
	</g>
	<g>
		<g>
			<g>
				<path class="st8" d="M289.9,269.8c0,0-0.1,0-0.3,0c-0.2,0-0.5,0-0.8-0.1c-0.7-0.1-1.8-0.2-3.1-0.3c-1.4-0.1-3-0.4-4.9-0.6
					c-1.9-0.2-4.1-0.7-6.5-1.2c-4.8-1.1-10.6-2.8-16.9-5.4c-3.1-1.3-6.4-2.8-9.7-4.6c-3.3-1.8-6.7-3.8-9.9-6.3l0.3,0
					c-5.3,2.5-11,5.2-16.9,8l-0.5,0.2l0.1-0.5c0.2-1.4,0.5-2.9,0.7-4.5c0.9-5.7,1.8-11.3,2.6-16.7l0.1,0.2
					c-6.6-6.1-11.5-13-15.1-19.6c-3.6-6.6-5.9-13-7.3-18.3c-1.5-5.4-2.2-9.8-2.5-12.8c-0.2-1.5-0.3-2.7-0.3-3.5c0-0.4,0-0.7,0-0.9
					c0-0.2,0-0.3,0-0.3c0,0,0,0.1,0,0.3c0,0.2,0,0.5,0.1,0.9c0.1,0.8,0.2,2,0.4,3.5c0.4,3,1.1,7.4,2.7,12.7
					c1.5,5.3,3.8,11.6,7.4,18.2c3.6,6.6,8.5,13.4,15,19.4l0.1,0.1l0,0.1c-0.8,5.4-1.7,11-2.6,16.7c-0.2,1.5-0.5,3.1-0.7,4.5
					l-0.4-0.3c5.9-2.8,11.6-5.5,16.9-8l0.1-0.1l0.1,0.1c3.2,2.4,6.6,4.5,9.8,6.3c3.3,1.8,6.5,3.4,9.6,4.7c6.2,2.6,11.9,4.3,16.8,5.5
					c2.4,0.5,4.6,1,6.5,1.3c1.9,0.3,3.6,0.6,4.9,0.7c1.3,0.2,2.3,0.3,3.1,0.4c0.3,0,0.6,0.1,0.8,0.1
					C289.8,269.7,289.9,269.8,289.9,269.8z"/>
			</g>
		</g>
	</g>
	<g>
		<g>
			<g>
				<g>
					<path class="st12" d="M309.6,118.1c-10.3-1.9-20.8-1.5-30.9,1.2c-0.8,0.2-0.5,1.5,0.4,1.3c9.8-2.6,20.2-3.1,30.2-1.2
						C310,119.5,310.4,118.3,309.6,118.1L309.6,118.1z"/>
				</g>
			</g>
		</g>
		<g>
			<g>
				<g>
					<path class="st12" d="M318.3,125.1c-15.5-5.6-32.9-4.9-48,1.8c-0.8,0.4-0.1,1.5,0.7,1.2c14.7-6.5,31.8-7.1,46.9-1.7
						C318.8,126.7,319.1,125.4,318.3,125.1L318.3,125.1z"/>
				</g>
			</g>
		</g>
		<g>
			<g>
				<g>
					<path class="st12" d="M324.4,131.6c-14.6-5.3-31.2-7.7-46.3-3.1c-4.8,1.5-9.4,3.7-13.5,6.6c-0.7,0.5,0,1.7,0.7,1.2
						c13.9-9.8,31.5-10.4,47.6-6.7c3.8,0.9,7.5,2,11.1,3.3C324.9,133.2,325.2,131.9,324.4,131.6L324.4,131.6z"/>
				</g>
			</g>
		</g>
		<g>
			<g>
				<g>
					<path class="st12" d="M329.2,138.8c-15.8-8.8-35.3-11.1-52.4-4.7c-5.6,2.1-10.9,5.1-15.7,8.7c-0.7,0.5,0,1.7,0.7,1.2
						c8-6.1,17.3-10.2,27.2-11.6c8.9-1.3,18.1-0.4,26.7,2.2c4.5,1.4,8.8,3.2,12.8,5.4C329.2,140.4,329.9,139.2,329.2,138.8
						L329.2,138.8z"/>
				</g>
			</g>
		</g>
		<g>
			<g>
				<g>
					<path class="st12" d="M332.7,146.5c-16.3-13.2-39.1-15.4-57.9-6.5c-6.1,2.9-11.7,6.8-16.6,11.4c-0.6,0.6,0.3,1.5,0.9,0.9
						c8.2-7.7,18.2-13.3,29.2-15.5c9.8-1.9,20-1.1,29.3,2.4c5.1,1.9,9.9,4.7,14.1,8.1C332.4,148,333.3,147.1,332.7,146.5
						L332.7,146.5z"/>
				</g>
			</g>
		</g>
		<g>
			<g>
				<g>
					<path class="st12" d="M299.4,138.8c-8-0.3-16,1.3-23.3,4.8c-7.9,3.8-14.6,9.6-19.9,16.5c-0.5,0.7,0.6,1.4,1.2,0.7
						c10-13.2,25.3-21.2,42-20.6C300.3,140.1,300.3,138.8,299.4,138.8L299.4,138.8z"/>
				</g>
			</g>
		</g>
		<g>
			<g>
				<g>
					<path class="st12" d="M335.3,155.6c-5.8-6.3-13.1-11.1-21.2-14c-0.8-0.3-1.2,1-0.4,1.3c7.9,2.8,14.9,7.5,20.6,13.6
						C335,157.2,335.9,156.2,335.3,155.6L335.3,155.6z"/>
				</g>
			</g>
		</g>
		<g>
			<g>
				<g>
					<path class="st12" d="M336.9,165.5c-6.9-10.9-17.8-19.1-30.6-21.6c-12.2-2.4-25.1,0.6-35,8.1c-6.4,4.8-11.4,11.2-15,18.3
						c-0.4,0.8,0.8,1.4,1.2,0.7c6-11.8,16-21.3,28.9-25c11.5-3.2,24-1.4,34.1,4.9c6.2,3.8,11.4,9.1,15.3,15.3
						C336.2,166.9,337.4,166.3,336.9,165.5L336.9,165.5z"/>
				</g>
			</g>
		</g>
		<g>
			<g>
				<g>
					<path class="st12" d="M337.5,178.2c-3.8-14-14.3-25.3-28.3-29.1c-13.6-3.7-28.3,0.1-38.6,9.7c-7.2,6.7-11.8,15.6-14.4,25
						c-0.2,0.8,1.1,1.2,1.3,0.4c4.2-15.1,14.1-28.8,29.6-33.5c12.7-3.9,26.9-0.9,36.9,7.9c6,5.3,10.2,12.3,12.2,20
						C336.4,179.4,337.7,179,337.5,178.2L337.5,178.2z"/>
				</g>
			</g>
		</g>
		<g>
			<g>
				<g>
					<path class="st12" d="M260.7,192.7c0.5-10,3.4-20.1,10.1-27.6c5.4-6,12.9-9.8,20.9-11c7.7-1.1,15.8,0.3,22.7,3.9
						c7.1,3.7,12.9,9.8,16,17.2c3.3,8.2,2.6,16.9,1.2,25.4c-0.2,1.4-0.3,2.7-0.1,4.1c0.1,0.8,1.4,0.5,1.3-0.4
						c-0.3-1.9,0.2-3.8,0.4-5.7c0.3-1.9,0.5-3.8,0.7-5.7c0.2-2.9,0.3-5.8,0.1-8.6c-0.2-2.6-0.8-5-1.6-7.5
						c-2.6-7.9-8.1-14.6-15.3-18.9c-6.9-4.2-15.2-6.1-23.2-5.5c-8.2,0.6-16.2,3.9-22.2,9.6c-7.2,6.8-10.9,16.3-12.1,26
						c-0.2,1.5-0.3,3-0.4,4.5C259.3,193.6,260.6,193.6,260.7,192.7L260.7,192.7z"/>
				</g>
			</g>
		</g>
		<g>
			<g>
				<g>
					<path class="st12" d="M328.9,210.9c-0.5-2-1.1-4.3-1-6.4c0.1-1.4,0.3-2.7,0.4-4.1c0.3-2.6,0.5-5.1,0.8-7.7
						c0.2-1.9,0.4-3.8,0.4-5.7c0-0.9-1.4-0.9-1.3,0c0,1.9-0.2,3.8-0.4,5.7c-0.2,2.6-0.5,5.3-0.8,7.9c-0.1,1.3-0.3,2.7-0.4,4
						c-0.1,2.2,0.5,4.5,1,6.6C327.8,212.1,329.1,211.7,328.9,210.9L328.9,210.9z"/>
				</g>
			</g>
		</g>
		<g>
			<g>
				<g>
					<path class="st12" d="M265.7,195.7c0.2-14.1,5.4-29.1,18.9-35.5c10.2-4.9,22.8-3.5,31.7,3.4c5.3,4.1,9,10,10.6,16.5
						c0.2,0.8,1.5,0.5,1.3-0.4c-2.9-12-12.7-21.2-24.9-23.3c-12.2-2.1-24.6,3-31.6,13.3c-5.2,7.6-7.1,16.9-7.3,26
						C264.3,196.6,265.7,196.6,265.7,195.7L265.7,195.7z"/>
				</g>
			</g>
		</g>
		<g>
			<g>
				<g>
					<path class="st12" d="M269.9,215.8c0.9,0,0.9-1.3,0-1.3C269,214.5,269,215.8,269.9,215.8L269.9,215.8z"/>
				</g>
			</g>
		</g>
		<g>
			<g>
				<g>
					<path class="st12" d="M325.5,214.4c-3.3-11.3,1-23-1.4-34.4c-1-5-3.4-9.5-7.3-12.8c-3.8-3.2-8.4-5.2-13.2-6
						c-7.6-1.4-15.8-0.4-22.1,4.2c-5.8,4.3-9.2,10.6-11.2,17.3c-3.2,10.6-3.1,21.9-1,32.6c0.2,0.8,1.5,0.5,1.3-0.4
						c-1.9-9.5-2.1-19.5,0.2-29c1.5-6.4,4.1-12.9,9-17.5c5.4-5.1,12.4-7,19.7-6.5c10.3,0.6,20.1,6.2,22.9,16.6
						c3.3,11.9-1.7,24.3,1.8,36.2C324.5,215.6,325.7,215.3,325.5,214.4L325.5,214.4z"/>
				</g>
			</g>
		</g>
		<g>
			<g>
				<g>
					<path class="st12" d="M273.5,187.4c-1.4,11.1-0.4,22.4,0.7,33.5c0.1,0.8,1.4,0.9,1.3,0c-1.1-11.1-2.1-22.4-0.7-33.5
						C275,186.6,273.6,186.6,273.5,187.4L273.5,187.4z"/>
				</g>
			</g>
		</g>
		<g>
			<g>
				<g>
					<path class="st12" d="M322.5,218.1c-4.7-4.6-4.6-11.6-3.6-17.7c1.1-6.4,2.9-12.9,0.9-19.4c-3.2-10.7-13.8-17.8-24.9-16.3
						c-5.9,0.8-11.4,3.7-15,8.5c-0.5,0.7,0.6,1.4,1.2,0.7c6.7-8.9,20.3-10.4,29.1-4c4.3,3.1,7.4,7.8,8.6,13
						c1.5,6.7-0.9,13.3-1.7,19.9c-0.7,5.7,0,12.1,4.3,16.2C322.2,219.6,323.1,218.7,322.5,218.1L322.5,218.1z"/>
				</g>
			</g>
		</g>
		<g>
			<g>
				<g>
					<path class="st12" d="M318.3,219.9c-4.3-4.2-4.8-10.5-4.2-16.2c0.4-3.3,1.1-6.6,1.5-9.9c0.4-3,1.1-6,0.8-9
						c-0.7-9.7-10.3-16.2-19.5-16.2c-8.2,0-14.5,6.2-17.7,13.2c-0.9,2-1.3,4.2-1.6,6.3c-0.7,5-0.4,10.1,0,15.1
						c0.6,7.2,1.3,14.4,1.8,21.5c0.1,0.9,1.4,0.9,1.3,0c-0.3-5.1-0.8-10.2-1.2-15.3c-0.7-8.3-2.2-17.4,0.3-25.6
						c2-6.2,7.3-12.1,13.8-13.5c9.3-2.1,20.6,4.7,21.4,14.6c0.3,3.5-0.5,7-1.1,10.4c-0.5,3.3-1.2,6.6-1.5,10
						c-0.4,5.6,0.6,11.6,4.7,15.6C318,221.5,319,220.5,318.3,219.9L318.3,219.9z"/>
				</g>
			</g>
		</g>
		<g>
			<g>
				<g>
					<path class="st12" d="M315.5,223.9c-6.4-7.5-6.3-17.4-4.6-26.6c0.9-4.9,3-10.2,1.4-15.2c-1.2-3.7-4.3-6.4-7.8-7.8
						c-7.2-2.9-16.4-0.2-20.2,6.8c-1.9,3.5-2.4,7.6-2.7,11.5c-0.3,3.3-0.3,6.6-0.1,9.9c0.4,8.6,1.2,17.8,4.8,25.7
						c0.4,0.8,1.5,0.1,1.2-0.7c-3.1-6.9-4-14.9-4.5-22.4c-0.4-6.7-0.7-13.9,1.3-20.4c2.4-7.8,11-12,18.8-9.5c4,1.3,7.4,4.4,8.3,8.6
						c1,4.9-1.2,10.1-2,15c-1.5,9.2-1,18.7,5.2,26C315.1,225.5,316.1,224.5,315.5,223.9L315.5,223.9z"/>
				</g>
			</g>
		</g>
		<g>
			<g>
				<g>
					<path class="st12" d="M312.1,227c-2.4-4.9-4.8-9.8-6.2-15.1c-0.7-2.7-1.1-5.4-1-8.1c0.1-2.8,0.7-5.4,1.5-8.1
						c1.2-4.2,2.2-8.7,0.3-12.8c-1.8-3.7-5.8-5.3-9.7-4.6c-4.8,0.9-8.1,5-9.6,9.4c-0.3,0.8,1,1.2,1.3,0.4c1.3-4,4.3-7.7,8.6-8.5
						c4.5-0.8,8.2,2,9,6.5c0.8,4.7-1.4,9.1-2.3,13.6c-0.8,4.4-0.4,8.9,0.8,13.2c1.4,5.1,3.8,10,6.2,14.7
						C311.3,228.5,312.5,227.8,312.1,227L312.1,227z"/>
				</g>
			</g>
		</g>
		<g>
			<g>
				<g>
					<path class="st12" d="M290.7,210.3c1,7.7,4.4,14.7,7.4,21.7c0.3,0.8,1.6,0.4,1.3-0.4c-2.9-6.9-6.3-13.8-7.3-21.4
						C292,209.5,290.6,209.5,290.7,210.3L290.7,210.3z"/>
				</g>
			</g>
		</g>
		<g>
			<g>
				<g>
					<path class="st12" d="M307.3,228.7c-4.3-7-6.7-15.1-7.1-23.3c-0.2-4.1,0.2-8.2,1.1-12.2c0.7-3.2,2-7.4-1.3-9.7
						c-3.3-2.2-6.4,1.2-7.7,4c-0.3,0.8,0.8,1.5,1.2,0.7c0.8-1.7,2.2-4.2,4.4-4.1c3.2,0.2,3.1,4.3,2.6,6.5c-1,4.4-1.7,8.8-1.7,13.3
						c0.1,8.9,2.7,17.7,7.3,25.3C306.6,230.1,307.8,229.4,307.3,228.7L307.3,228.7z"/>
				</g>
			</g>
		</g>
		<g>
			<g>
				<g>
					<path class="st12" d="M303.7,229.5c-7.3-12.1-8.7-26.5-6.2-40.3c0.1-0.8-1.1-1.2-1.3-0.4c-2.5,14.1-1.2,28.9,6.4,41.3
						C303,230.9,304.2,230.3,303.7,229.5L303.7,229.5z"/>
				</g>
			</g>
		</g>
		<g>
			<g>
				<path class="st12" d="M292.5,230.1c-7.5-15.5-6.1-36.9-6.1-37.1l1.1,0.1c0,0.2-1.4,21.3,6,36.6L292.5,230.1z"/>
			</g>
		</g>
		<g>
			<g>
				<g>
					<path class="st12" d="M291.5,190c-1.7,5.3-2.2,11-1.5,16.5c0.1,0.9,1.4,0.5,1.3-0.4c-0.7-5.3-0.2-10.7,1.5-15.8
						C293.1,189.5,291.8,189.2,291.5,190L291.5,190z"/>
				</g>
			</g>
		</g>
		<g>
			<g>
				<g>
					<path class="st12" d="M286.8,189.6c0,0.2-0.1,0.5-0.1,0.7c0,0.1,0,0.2,0,0.3c0,0.1,0,0.2,0.1,0.2c0,0.1,0.1,0.1,0.2,0.2
						c0.1,0.1,0.1,0.1,0.2,0.1c0.1,0,0.1,0,0.2,0c0.1,0,0.2,0,0.3-0.1c0,0,0.1-0.1,0.1-0.1c0.1-0.1,0.1-0.2,0.2-0.3
						c0-0.2,0.1-0.5,0.1-0.7c0-0.1,0-0.2,0-0.3c0-0.1,0-0.2-0.1-0.2c0-0.1-0.1-0.1-0.2-0.2c-0.1-0.1-0.1-0.1-0.2-0.1
						c-0.1,0-0.1,0-0.2,0c-0.1,0-0.2,0-0.3,0.1c0,0-0.1,0.1-0.1,0.1C286.9,189.4,286.9,189.5,286.8,189.6L286.8,189.6z"/>
				</g>
			</g>
		</g>
		<g>
			<g>
				<g>
					<path class="st12" d="M278.3,175.1c-1.9,2.2-3.4,4.8-4.3,7.6c-0.3,0.8,1,1.2,1.3,0.4c0.8-2.6,2.1-5,3.9-7
						C279.8,175.4,278.8,174.4,278.3,175.1L278.3,175.1z"/>
				</g>
			</g>
		</g>
		<g>
			<g>
				<g>
					<path class="st12" d="M328.2,182.7c0,0.4,0.1,0.7,0.1,1.1c0,0.1,0,0.2,0.1,0.3c0,0.1,0.1,0.2,0.1,0.2c0.1,0.1,0.3,0.2,0.5,0.2
						c0.2,0,0.4-0.1,0.5-0.2c0.1-0.1,0.2-0.3,0.2-0.5c0-0.4-0.1-0.7-0.1-1.1c0-0.1,0-0.2-0.1-0.3c0-0.1-0.1-0.2-0.1-0.2
						c-0.1-0.1-0.3-0.2-0.5-0.2c-0.2,0-0.4,0.1-0.5,0.2C328.3,182.4,328.2,182.6,328.2,182.7L328.2,182.7z"/>
				</g>
			</g>
		</g>
		<g>
			<g>
				<g>
					<path class="st12" d="M311.5,140.8c-2.9-1-6-1.4-9-1.8c-0.4,0-0.7,0.3-0.7,0.7c0,0.4,0.3,0.6,0.7,0.7c2.9,0.3,5.9,0.8,8.7,1.7
						C312,142.3,312.3,141,311.5,140.8L311.5,140.8z"/>
				</g>
			</g>
		</g>
		<g>
			<g>
				<g>
					<path class="st12" d="M264.1,201c0,2.2,0.2,4.3,0.5,6.5c0.1,0.4,0.5,0.6,0.8,0.5c0.4-0.1,0.5-0.5,0.5-0.8
						c-0.3-2-0.4-4.1-0.4-6.1C265.4,200.1,264.1,200.1,264.1,201L264.1,201z"/>
				</g>
			</g>
		</g>
		<g>
			<g>
				<g>
					<path class="st12" d="M258.9,196.9c0,0.4-0.1,0.9-0.1,1.3c0,0.2,0.1,0.4,0.2,0.5c0.1,0.1,0.3,0.2,0.5,0.2
						c0.2,0,0.4-0.1,0.5-0.2c0.1-0.1,0.2-0.3,0.2-0.5c0-0.4,0.1-0.9,0.1-1.3c0-0.2-0.1-0.4-0.2-0.5c-0.1-0.1-0.3-0.2-0.5-0.2
						c-0.2,0-0.4,0.1-0.5,0.2C259,196.6,259,196.7,258.9,196.9L258.9,196.9z"/>
				</g>
			</g>
		</g>
		<g>
			<g>
				<g>
					<path class="st12" d="M272.1,122.5c1-0.5,2.1-0.9,3.1-1.4c0.3-0.1,0.4-0.6,0.2-0.9c-0.2-0.3-0.6-0.4-0.9-0.2
						c-1,0.5-2.1,0.9-3.1,1.4c-0.3,0.1-0.4,0.6-0.2,0.9C271.4,122.6,271.8,122.7,272.1,122.5L272.1,122.5z"/>
				</g>
			</g>
		</g>
		<g>
			<g>
				<g>
					<path class="st12" d="M336.6,181.3c0.7,2.4,0.9,4.9,0.8,7.4c0,0.9,1.3,0.9,1.3,0c0.1-2.6-0.2-5.2-0.9-7.7
						C337.7,180.1,336.4,180.5,336.6,181.3L336.6,181.3z"/>
				</g>
			</g>
		</g>
		<g>
			<g>
				<g>
					<path class="st12" d="M337.8,168.5c0.2,0.7,0.4,1.4,0.6,2.2c0.1,0.3,0.5,0.6,0.8,0.5c0.3-0.1,0.6-0.5,0.5-0.8
						c-0.2-0.7-0.4-1.4-0.6-2.2c-0.1-0.3-0.5-0.6-0.8-0.5C337.9,167.8,337.7,168.1,337.8,168.5L337.8,168.5z"/>
				</g>
			</g>
		</g>
	</g>
	<g>
		<g>
			<g>
				<path class="st8" d="M375.7,171.5c0,0,0-0.4-0.1-1.3c-0.1-0.8,0-2.1-0.2-3.7c-0.2-3.2-0.7-8-2.2-14c-0.8-3-1.8-6.3-3.2-9.8
					c-1.4-3.5-3.1-7.2-5.4-10.9c-4.5-7.5-10.9-15.3-19.7-22c-4.4-3.4-9.3-6.4-14.8-8.9c-5.5-2.5-11.5-4.5-17.8-5.6
					c-6.4-1.2-13.1-1.6-20-1.1c-3.4,0.2-6.9,0.8-10.4,1.5c-3.5,0.7-6.9,1.7-10.4,3c-13.7,5-26.7,14.2-36,27
					c-2.4,3.2-4.4,6.6-6.3,10.2c-1,1.8-1.8,3.6-2.6,5.5c-0.7,1.9-1.5,3.8-2.1,5.7c-2.6,7.8-3.9,16.1-4,24.5c0,8.4,1.3,16.7,4,24.5
					c0.6,2,1.4,3.8,2.1,5.7c0.8,1.9,1.6,3.7,2.6,5.5c1.9,3.6,3.9,7,6.3,10.2c9.4,12.8,22.4,22.1,36,27c3.4,1.2,6.9,2.2,10.4,3
					c3.5,0.7,6.9,1.2,10.4,1.5c6.9,0.5,13.6,0.1,20-1.1c6.4-1.1,12.4-3.1,17.8-5.6c5.5-2.5,10.4-5.5,14.8-8.9
					c8.8-6.7,15.2-14.5,19.7-22c2.3-3.7,4-7.5,5.4-10.9c1.4-3.5,2.4-6.8,3.2-9.8c1.5-6,2-10.8,2.2-14c0.1-1.6,0.1-2.9,0.2-3.7
					C375.6,171.9,375.7,171.5,375.7,171.5s0,1.7-0.1,5c-0.2,3.2-0.7,8-2.1,14.1c-0.8,3-1.7,6.3-3.2,9.8c-1.4,3.5-3.1,7.2-5.4,11
					c-4.5,7.5-10.9,15.4-19.8,22.2c-4.4,3.4-9.4,6.4-14.9,8.9c-5.5,2.5-11.5,4.5-17.9,5.7c-6.4,1.2-13.2,1.7-20.1,1.1
					c-3.5-0.2-7-0.8-10.5-1.5c-3.5-0.7-7-1.7-10.4-3c-13.8-5-26.9-14.3-36.3-27.2c-2.4-3.2-4.5-6.7-6.4-10.2c-1-1.8-1.8-3.7-2.6-5.5
					c-0.8-1.9-1.5-3.8-2.2-5.8c-2.6-7.8-3.9-16.2-4-24.6c0-8.5,1.4-16.8,4-24.6c0.6-2,1.4-3.9,2.2-5.8c0.8-1.9,1.7-3.7,2.6-5.5
					c1.9-3.6,4-7,6.4-10.2c9.4-12.9,22.5-22.2,36.3-27.2c3.5-1.2,6.9-2.2,10.4-3c3.5-0.7,7-1.2,10.5-1.5c6.9-0.5,13.7-0.1,20.1,1.1
					c6.4,1.2,12.4,3.2,17.9,5.7c5.5,2.5,10.5,5.5,14.9,8.9c8.8,6.7,15.3,14.6,19.8,22.2c2.3,3.8,4,7.5,5.4,11
					c1.4,3.5,2.4,6.8,3.2,9.8c1.5,6,2,10.8,2.1,14.1C375.7,169.8,375.7,171.5,375.7,171.5z"/>
			</g>
		</g>
	</g>
	<g>
		<g>
			<path class="st8" d="M297.9,257.5c-48,0-87.1-39.1-87.1-87.1c0-48,39.1-87.1,87.1-87.1c0.9,0,1.6,0.7,1.6,1.6
				c0,0.9-0.7,1.6-1.6,1.6c-46.2,0-83.9,37.6-83.9,83.9c0,46.2,37.6,83.9,83.9,83.9c46.2,0,83.9-37.6,83.9-83.9
				c0-0.9,0.7-1.6,1.6-1.6c0.9,0,1.6,0.7,1.6,1.6C385,218.5,345.9,257.5,297.9,257.5z"/>
		</g>
	</g>
</g>
</svg>
