<?xml version="1.0" encoding="utf-8"?>
<!-- Generator: Adobe Illustrator 22.0.1, SVG Export Plug-In . SVG Version: 6.00 Build 0)  -->
<svg version="1.1" id="Layer_1" xmlns="http://www.w3.org/2000/svg" xmlns:xlink="http://www.w3.org/1999/xlink" x="0px" y="0px"
	 viewBox="0 0 314.5 200" style="enable-background:new 0 0 314.5 200;" xml:space="preserve">
<style type="text/css">
	.st0{fill:#3E413A;}
	.st1{fill:#D6E3DD;}
	.st2{fill:#EDBB29;}
	.st3{fill:#E69E24;}
	.st4{fill:#131313;}
	.st5{fill:#010101;}
	.st6{fill:#444544;}
	.st7{opacity:0.47;clip-path:url(#XMLID_74_);}
	.st8{fill:#FFFFFF;}
	.st9{opacity:0.44;clip-path:url(#XMLID_75_);}
	.st10{opacity:0.47;clip-path:url(#XMLID_76_);fill:#FFFFFF;}
	.st11{fill:none;stroke:#E69E24;stroke-miterlimit:10;}
	.st12{fill:#EF9D21;}
	.st13{fill:#F7D878;}
	.st14{clip-path:url(#XMLID_77_);}
	.st15{fill:none;stroke:#4C4D4C;stroke-miterlimit:10;}
	.st16{fill:#BFC4C1;}
	.st17{fill:#2A2B2A;}
	.st18{opacity:0.62;fill:#FFFFFF;}
	.st19{opacity:0.57;fill:#FFFFFF;}
	.st20{fill:none;stroke:#E69E24;stroke-width:0.5;stroke-linecap:round;stroke-miterlimit:10;}
	.st21{fill:#4C4D4C;}
	.st22{clip-path:url(#SVGID_2_);fill:#EDBB29;}
</style>
<g id="XMLID_36_">
	<g id="XMLID_227_">
		<g id="XMLID_223_">
			<ellipse id="XMLID_682_" class="st0" cx="139.1" cy="180.1" rx="10" ry="13.7"/>
			<path id="XMLID_681_" class="st1" d="M148.8,180c0,6.1-2.3,11-5.1,11c-2.8,0-5.1-4.9-5.1-11c0-6.1,2.3-11,5.1-11
				C146.5,169,148.8,174,148.8,180z"/>
		</g>
		<g id="XMLID_211_">
			<path id="XMLID_678_" class="st0" d="M220.5,175.6c0,11.3-3.5,20.4-7.8,20.4c-4.3,0-7.8-9.2-7.8-20.4c0-11.3,3.5-20.4,7.8-20.4
				C217,155.2,220.5,164.3,220.5,175.6z"/>
			<path id="XMLID_677_" class="st1" d="M219.1,176c0,7.6-1.4,13.7-3.1,13.7c-1.7,0-3.1-6.1-3.1-13.7c0-7.6,1.4-13.7,3.1-13.7
				C217.7,162.4,219.1,168.5,219.1,176z"/>
			<path id="XMLID_50_" class="st0" d="M218.9,176.5c0,5.1-0.9,9.2-2.1,9.2c-1.1,0-2.1-4.1-2.1-9.2c0-5.1,0.9-9.2,2.1-9.2
				C218,167.3,218.9,171.4,218.9,176.5z"/>
			<path id="XMLID_60_" class="st0" d="M218.1,177.1c0,2.8-0.5,5-1.1,5c-0.6,0-1.1-2.2-1.1-5c0-2.8,0.5-5,1.1-5
				C217.6,172.1,218.1,174.4,218.1,177.1z"/>
			<path id="XMLID_674_" class="st0" d="M218.8,175.1c0,3.3-1,6-2.2,6c-1.2,0-2.2-2.7-2.2-6s1-6,2.2-6
				C217.9,169,218.8,171.7,218.8,175.1z"/>
		</g>
		<g id="XMLID_666_">
			<ellipse id="XMLID_671_" class="st0" cx="93.7" cy="179.9" rx="14.2" ry="19.5"/>
			<path id="XMLID_670_" class="st1" d="M105.6,180.7c0,9.1-3.8,16.5-8.5,16.5c-4.7,0-8.5-7.4-8.5-16.5c0-9.1,3.8-16.5,8.5-16.5
				C101.8,164.2,105.6,171.6,105.6,180.7z"/>
			<path id="XMLID_667_" class="st0" d="M103.6,181.7c0,6.2-2.2,11.2-5,11.2c-2.7,0-5-5-5-11.2c0-6.2,2.2-11.2,5-11.2
				C101.4,170.5,103.6,175.5,103.6,181.7z"/>
		</g>
		<g id="XMLID_202_">
			<ellipse id="XMLID_582_" class="st0" cx="185.9" cy="179.6" rx="12.9" ry="19.5"/>
			<path id="XMLID_581_" class="st1" d="M196.8,179.5c0,7.6-2.8,13.8-6.3,13.8c-3.5,0-6.3-6.2-6.3-13.8c0-7.6,2.8-13.8,6.3-13.8
				C194,165.7,196.8,171.9,196.8,179.5z"/>
			<path id="XMLID_578_" class="st0" d="M196,179.5c0,6.1-2.2,11-5,11c-2.8,0-5-4.9-5-11c0-6.1,2.2-11,5-11
				C193.8,168.5,196,173.4,196,179.5z"/>
			<path id="XMLID_577_" class="st1" d="M194.1,180.4l2.4,0.7l-0.1-3.7l-1.9-0.3l1.6-2.1l-0.7-3.4l-1.7,2.5
				c-0.3-1.1-0.8-1.9-1.4-2.4l-0.3-5l-3,0.1l0.9,5.1c-0.6,0.6-1.1,1.5-1.4,2.8l-2.7-2.9l-0.7,3.8l3,2.5c0,0,0,0,0,0
				c0,0.2,0,0.4,0,0.6l-3.1-0.2v3.2l3.5-0.2c0,0.1,0,0.1,0.1,0.2l-3.3,2.9l1.2,3l3.1-3.7c0.1,0.2,0.3,0.4,0.4,0.5l-1,6.6l3.6,0.1
				l-0.1-6.8c0.2-0.2,0.4-0.5,0.6-0.8l2.4,2.9l0.8-3.8L194,181C194.1,180.8,194.1,180.6,194.1,180.4z"/>
			<path id="XMLID_9_" class="st1" d="M217.9,179.2l1,0.7l0.1-4.3l-0.9,0.8l0.9-3.7l-0.4-4.1l-0.8,3c-0.2-1.3-0.6-8.1-0.6-8.1
				l-1.6,0.1c0,0-0.3,7.1-0.4,8.5l-1.3-3.5l-0.4,4.6c0,0,1.9,4,1.9,4.2l-2-0.6v3.8l1.7-0.3c0.4-0.5-1.4,3.7-1.4,3.7l0.9,3.3l1.6-5.8
				c0.1,0.2-0.6,6.9-0.6,6.9l1.5-0.4l0.2-6.2c0.1-0.3,0.7,3.9,0.7,3.9l0.7-3.9C218.6,181.8,217.9,179.5,217.9,179.2z"/>
		</g>
	</g>
	<path id="XMLID_711_" class="st2" d="M220.5,177.8c0,0,1-20.1-1.8-18.1c0,0-3.5,3.3-3.3,12.5c0,0,0.2,11-4.4,11.9l-12.8,1.3
		c0,0,2.2-8.2-2-17.5c0,0-0.3-16.1-5-9.6c-0.3,0.4-0.3,0.6-0.8,1.8c-1.4,3.5-4.2,11.6-3.8,21.5l0,0.1c0,0.2-0.2,0.7-0.4,1.4l0,0
		c-0.4,1.1-1.1,2.6-2,3.5c0,0-6.8,0.2-16.9,0.5c-23.2,0.6-64,1.3-81.5-0.7c-1.7-0.2-3.1-0.4-4.3-0.6c0,0-1.4-2.3-2.1-4.8
		c-0.2-0.8-0.3-1.7-0.3-2.5c0,0,0.1-17.7,4.5-24.9c0,0-0.4-10.5,9.4-13.4c0,0,2.2-2.1,5.4-5.1c8-7.4,22.3-20.2,25.9-21
		c0,0,28.6-8.4,62.1-2.9c0,0,10.4-0.9,18.8,10.1c0,0,1.8,2.4,3.5,5.9c1.3,2.6,2.5,5.8,2.9,9.1c0,0,0,0,0.1,0.1
		c0.5,0.6,4.2,4.6,4.9,6.1c0.8,1.7,2.6,10.6,3.4,14.5C220.2,157,224.9,171.9,220.5,177.8z"/>
	<path id="XMLID_482_" class="st3" d="M211.7,136.4c-1,0.5-10.4,4.8-19.5,5.9c0,0,0,0,0,0c-0.2,0.1-7.8,0.9-12.3-2.2
		c-0.1-0.1-0.1-0.2,0-0.2c0.9-0.5,4.8-3.1,4.4-5.4c0-0.1-0.1-0.1-0.1-0.1l-85.4,0.8c-0.1,0-0.2-0.1-0.1-0.2c8-7.4,22.1-20,25.7-20.8
		c0,0,28.6-8.4,62.1-2.9c0,0,10.5-0.9,18.8,10.1c0,0,5.5,7.1,6.5,14.9C211.8,136.3,211.8,136.4,211.7,136.4z"/>
	<g id="XMLID_230_">
		<path id="XMLID_486_" class="st4" d="M98.3,135.2l-2.4,2.1l-1.6-0.5l0.4-2.1c3.1-5.1,7.7-3.4,7.7-3.4L98.3,135.2z"/>
		<path id="XMLID_485_" class="st5" d="M98.2,135.3l-2.3,2.1c0,0-1.6-0.1-1.6-0.5c0-1.5,0.4-2.1,0.4-2.1
			C95.4,134.1,98.2,135.3,98.2,135.3z"/>
		<path id="XMLID_479_" class="st6" d="M198.9,115.9c0,0-10.2-7.6-10,0.8c0,0,1.8,21.8,5.4,25.3c0,0,15.1-3,17.4-5.4
			C212.5,135.6,205.5,119.6,198.9,115.9z"/>
		<path id="XMLID_476_" class="st1" d="M190.8,122.8c0,0-1.2-6.9,1.5-7.6c0,0,2.1-0.4,2.4,0.1c2.8,4,6.5,10.7,8.5,19.2
			c0,0-5.5,3.5-8,1.7C192.7,134.3,190.8,122.8,190.8,122.8z"/>
		<path id="XMLID_473_" class="st1" d="M197.6,116.8c0,0,8.7,4.8,11,15.6c0,0-4.3,1.6-4.7,1.2c-0.5-0.4-3.6-11.6-6.6-15.9
			C197.3,117.8,196.5,116.6,197.6,116.8z"/>
		<path id="XMLID_470_" class="st6" d="M125,115.4c2.6-0.5,39.2-7.5,60.5,0c0.6,0.2,1.1,0.8,1.1,1.5c0.1,4.2,0.2,18.9-3.3,17.6
			c0,0-61.2-0.3-78.1,0.3c-1.5,0.1-2.3-1.7-1.2-2.8c4.9-4.9,14.5-14.1,20.9-16.4C124.8,115.4,124.9,115.4,125,115.4z"/>
		<path id="XMLID_467_" class="st1" d="M110.3,132.2c-1.3,0-1.9-1.5-1-2.4c5.2-4.9,11.8-10.5,16.2-12.1c1.8-0.4,18-3.4,34.6-3.4
			c9.4,0,17.1,0.9,23.2,2.8c0.6,0.2,1,0.7,1,1.3c0.1,5.2-0.3,10.1-0.9,12.6c-0.2,0.6-0.7,1.1-1.4,1.1c-4.1,0-17.6-0.1-32.4-0.1
			C129.2,132,117.3,132.1,110.3,132.2z"/>
		<g id="XMLID_221_">
			<defs>
				<path id="XMLID_216_" d="M110.3,132.2c-1.3,0-1.9-1.5-1-2.4c5.2-4.9,11.8-10.5,16.2-12.1c1.8-0.4,18-3.4,34.6-3.4
					c9.4,0,17.1,0.9,23.2,2.8c0.6,0.2,1,0.7,1,1.3c0.1,5.2-0.3,10.1-0.9,12.6c-0.2,0.6-0.7,1.1-1.4,1.1c-4.1,0-17.6-0.1-32.4-0.1
					C129.2,132,117.3,132.1,110.3,132.2z"/>
			</defs>
			<clipPath id="XMLID_74_">
				<use xlink:href="#XMLID_216_"  style="overflow:visible;"/>
			</clipPath>
			<g id="XMLID_11_" class="st7">
				
					<rect id="XMLID_57_" x="148.2" y="102.3" transform="matrix(0.751 0.6603 -0.6603 0.751 119.9637 -68.02)" class="st8" width="4" height="45.5"/>
				
					<rect id="XMLID_66_" x="156.7" y="104.9" transform="matrix(0.751 0.6603 -0.6603 0.751 124.6137 -75.1494)" class="st8" width="10.4" height="45.5"/>
			</g>
		</g>
		<g id="XMLID_135_">
			<defs>
				<path id="XMLID_69_" d="M190.8,122.8c0,0-1.2-6.9,1.5-7.6c0,0,2.1-0.4,2.4,0.1c2.8,4,6.5,10.7,8.5,19.2c0,0-5.5,3.5-8,1.7
					C192.7,134.3,190.8,122.8,190.8,122.8z"/>
			</defs>
			<clipPath id="XMLID_75_">
				<use xlink:href="#XMLID_69_"  style="overflow:visible;"/>
			</clipPath>
			<g id="XMLID_186_" class="st9">
				
					<rect id="XMLID_188_" x="190.2" y="113.7" transform="matrix(0.9276 0.3735 -0.3735 0.9276 60.7792 -62.7011)" class="st8" width="3.9" height="23.6"/>
				
					<rect id="XMLID_187_" x="196.4" y="113.7" transform="matrix(0.9276 0.3735 -0.3735 0.9276 61.1845 -64.6644)" class="st8" width="2.2" height="23.6"/>
			</g>
		</g>
		<g id="XMLID_220_">
			<defs>
				<path id="XMLID_189_" d="M197.6,116.8c0,0,8.7,4.8,11,15.6c0,0-4.3,1.6-4.7,1.2c-0.5-0.4-3.6-11.6-6.6-15.9
					C197.3,117.8,196.5,116.6,197.6,116.8z"/>
			</defs>
			<clipPath id="XMLID_76_">
				<use xlink:href="#XMLID_189_"  style="overflow:visible;"/>
			</clipPath>
			
				<rect id="XMLID_103_" x="201" y="117.5" transform="matrix(0.9393 0.343 -0.343 0.9393 54.8384 -61.7469)" class="st10" width="1.8" height="13.3"/>
			
				<rect id="XMLID_110_" x="203.4" y="119.3" transform="matrix(0.9543 0.2987 -0.2987 0.9543 47.2394 -55.564)" class="st10" width="3.9" height="14.8"/>
		</g>
		<path id="XMLID_362_" class="st4" d="M192.3,137.5l0.8,2.3c0,0,13.3,1.5,16.8-2.7c0,0,0.9-9.7-13.5-6.4c-1.6,0.4-0.1,6.5-0.1,6.5
			S193.8,138,192.3,137.5z"/>
	</g>
	<g id="XMLID_6_">
		<path id="XMLID_8_" class="st4" d="M217.9,160.7c0,0,1.4-4.6,2.5,2c1.1,6.6,0.2,13.4-0.1,13.4
			C219.9,176.1,220.5,168.8,217.9,160.7z"/>
		<path id="XMLID_15_" class="st4" d="M189.6,161.2c0,0,3.3,0.8,6.5,6.6c0,0,0.6-11.3-2.7-11.3C193.5,156.5,191,156.4,189.6,161.2z"
			/>
		<path id="XMLID_463_" class="st3" d="M220.4,177.9c0,0,1-19.3-1.7-18.1c0,0-1.4,1-2.8,6.1c0,0-0.7-5,2.1-7.6
			c0.9-0.8,2.4-0.4,2.7,0.9C221.8,163.4,223.8,173.3,220.4,177.9z"/>
		<path id="XMLID_27_" class="st11" d="M196.4,168.1"/>
		<path id="XMLID_28_" class="st11" d="M193.5,142.4"/>
		<path id="XMLID_445_" class="st6" d="M167.3,187.2c-23.2,0.6-64,1.3-81.5-0.7l-0.2-0.4c0,0-0.5-1.3,0.2-2.7
			c0.6-1.3,1.2-3.1,1.7-3.4l0.1,0c0.5-0.1,1.5-16.9,9.6-18.8c0,0,16.1-6.4,18.3-5.4c2.2,1,22.2,0.1,22.2,0.1s19,2.6,23.4,10.1
			c0,0,4.9,9.3,5.2,14.3L167.3,187.2z"/>
		<path id="XMLID_436_" class="st0" d="M178.6,162.4c0,0,5.5,14.5,0,17.9c0,0-8.9,3.9-9.3-6.6C169.1,170,173.5,167.4,178.6,162.4z"
			/>
		<path id="XMLID_433_" class="st12" d="M178.7,162.2c0,0,5.9,14-0.1,18.1c0,0-8.9,3.9-9.3-6.6C169.1,170,173.7,167.2,178.7,162.2z"
			/>
		<path id="XMLID_430_" class="st0" d="M178.7,162.2c0,0,5.8,13.9,0.2,17.3c0,0-8.5,4.4-9-6.1C169.8,169.7,173.7,168.5,178.7,162.2z
			"/>
		<path id="XMLID_427_" class="st3" d="M81.4,163c-0.3,2.2-1.8,15.2-1.2,16.2c0,0,3.7,3,5.9-0.4c2.2-3.3-0.6-11.8-4.4-15.9
			C81.6,162.8,81.4,162.9,81.4,163z"/>
		<path id="XMLID_424_" class="st0" d="M81.6,165.5c-0.4,3.5-1.3,11.6-0.9,13.3c0,0.2,0.1,0.3,0.3,0.4c0.8,0.6,3.8,2.3,5.7-0.5
			c2-3-0.3-9.5-3.7-13.6C82.5,164.6,81.7,164.9,81.6,165.5z"/>
		<path id="XMLID_418_" class="st13" d="M94.4,142.7c0,0,84-6.3,87-3.8c0,0,3.7-2.6,2.9-4.5l-85.7,0.7c0,0-5.7,4.8-5.6,5.2
			C93.1,140.6,93.7,142.6,94.4,142.7z"/>
		<path id="XMLID_347_" class="st3" d="M215.4,172.2c0,0,0.2,11-4.4,11.9l-12.8,1.3l0.6-5l12.4-1.5c0,0,1.8-0.2,4.1-8.9
			c0.1-0.5,0.2-0.8,0.4-1.1C215.5,170,215.4,171.1,215.4,172.2z"/>
		<path id="XMLID_35_" class="st2" d="M188.1,167.3c0,0,1.1-14.5,6.8-11.7c1.2,0.6,2.5,3.4,1.3,12.1c0,0-0.6-11.8-3.3-10.9
			C192.9,156.8,191.3,156.4,188.1,167.3z"/>
		<g id="XMLID_280_">
			<defs>
				<path id="XMLID_37_" d="M167.3,187.2c-23.2,0.6-64,1.3-81.5-0.7l-0.2-0.4c0,0-0.5-1.3,0.2-2.7c0.6-1.3,1.2-3.1,1.7-3.4l0.1,0
					c0.5-0.1,1.5-16.9,9.6-18.8c0,0,16.1-6.4,18.3-5.4c2.2,1,22.2,0.1,22.2,0.1s19,2.6,23.4,10.1c0,0,4.9,9.3,5.2,14.3L167.3,187.2z
					"/>
			</defs>
			<clipPath id="XMLID_77_">
				<use xlink:href="#XMLID_37_"  style="overflow:visible;"/>
			</clipPath>
			<g id="XMLID_78_" class="st14">
				<line id="XMLID_108_" class="st15" x1="79.9" y1="156.5" x2="180.7" y2="157.4"/>
				<line id="XMLID_237_" class="st15" x1="79.9" y1="158.5" x2="180.7" y2="159.5"/>
				<line id="XMLID_288_" class="st15" x1="79.9" y1="160.6" x2="180.7" y2="161.5"/>
				<line id="XMLID_642_" class="st15" x1="79.9" y1="162.6" x2="180.7" y2="163.6"/>
				<line id="XMLID_648_" class="st15" x1="79.9" y1="164.7" x2="180.7" y2="165.6"/>
				<line id="XMLID_654_" class="st15" x1="79.9" y1="166.7" x2="180.7" y2="167.6"/>
				<line id="XMLID_660_" class="st15" x1="79.9" y1="168.7" x2="180.7" y2="169.7"/>
				<line id="XMLID_665_" class="st15" x1="79.9" y1="170.8" x2="180.7" y2="171.7"/>
				<line id="XMLID_675_" class="st15" x1="79.9" y1="172.8" x2="180.7" y2="173.8"/>
				<line id="XMLID_696_" class="st15" x1="79.9" y1="174.9" x2="180.7" y2="175.8"/>
				<line id="XMLID_700_" class="st15" x1="79.9" y1="176.9" x2="180.7" y2="177.9"/>
				<line id="XMLID_704_" class="st15" x1="79.9" y1="179" x2="180.7" y2="179.9"/>
				<line id="XMLID_708_" class="st15" x1="79.9" y1="181" x2="180.7" y2="182"/>
			</g>
		</g>
		<path id="XMLID_442_" class="st3" d="M167.3,187.2c-23.2,0.6-64,1.3-81.5-0.7l-0.2-0.4c0,0-0.5-1.3,0.2-2.7
			c0.6-1.3,1.2-3.1,1.7-3.4l0.1,0l10.3,3c0,0,52.2,1.2,53.6,0.8c1.4-0.4,14.8-3.4,14.8-3.4l0.6,3.6L167.3,187.2z"/>
		<path id="XMLID_439_" class="st2" d="M186.6,181.6L186.6,181.6l-0.5,1.5l0,0c-0.4,1.1-1.1,2.6-2,3.5c0,0-6.8,0.2-16.9,0.5
			c-23.2,0.6-64,1.3-81.5-0.7c-1.7-0.2-3.1-0.4-4.3-0.6c0,0-1.4-2.3-2.1-4.8c2.6,1.1,17.5,6.7,40.1,4.9c0,0,48.3,0.3,53.7-2.6
			c1.9-1,7.7-3.6,7.7-3.6s1,2.2,1.7,2.5C183.5,182.7,186.6,181.6,186.6,181.6z"/>
		<path id="XMLID_421_" class="st16" d="M139.5,172.9h-28.9c-2.6,0-4.7-2.1-4.7-4.7l0,0c0-2.6,2.1-4.7,4.7-4.7h28.9
			c2.6,0,4.7,2.1,4.7,4.7l0,0C144.2,170.8,142.1,172.9,139.5,172.9z"/>
		<path id="XMLID_508_" class="st13" d="M216.7,142.5c0,0-5.1,8.7-32.4,2.4c0,0-0.5-2.2-1.2-3.3c0,0,10,3.1,28.6-5.2
			c0.1,0,0.1-0.1,0.2-0.1C212.4,137,216.1,141,216.7,142.5z"/>
		<path id="XMLID_415_" class="st3" d="M83.7,153.7c0,0-1.7,7.4,10,9.2c0,0,16.9-6.9,20.1-6.9C113.8,156,91.1,151.1,83.7,153.7z"/>
		<path id="XMLID_56_" class="st17" d="M85.8,184c0.6-1.3,1.2-3.1,1.7-3.4l0.1,0c0.5-0.1,1.5-16.9,9.6-18.8c0,0,16.1-6.4,18.3-5.4
			c2.2,1,22.2,0.1,22.2,0.1s19,2.6,23.4,10.1c0,0,4.9,9.3,5.2,14.3l1,6.2l1.5,0l-0.9-6.4c-0.4-5.3-5.2-14.5-5.4-14.9
			c-4.7-8.1-23.7-10.8-24.5-10.9l-0.1,0l-0.1,0c-0.1,0-8.1,0.3-14.4,0.3c-5.8,0-6.9-0.3-7-0.3c-0.4-0.2-0.8-0.3-1.3-0.3
			c-3.8,0-16.2,4.8-18,5.6c-7.5,1.8-9.5,13.3-10.3,18.3c-0.1,0.4-0.1,0.8-0.2,1.1c-0.5,0.5-0.8,1.2-1.2,2.3c-0.2,0.5-0.4,1-0.6,1.4
			c-1,1.9-0.4,3-0.4,3l1.8,0.2C85.7,186.5,85.1,185.4,85.8,184z"/>
		<path id="XMLID_412_" class="st3" d="M153.8,160.3c0,0,17.5-1,25.4-5.5c0,0-18-8.2-41.5,1.2L153.8,160.3z"/>
		<path id="XMLID_359_" class="st6" d="M99.1,147.9c0,0,18.5,0.8,19.9,0.3c0,0,6.4-6.1,15.4-0.1c0,0,24.6-0.2,26.8-0.6
			c0,0-5.4,4.5-6.1,7.4c0,0-14.4-0.4-17.4,1.1c-3,1.6-12.8,11.8-22.7,0.2c0,0-11.7-2.5-14-2.2C101.1,154.1,100.4,151.8,99.1,147.9z"
			/>
		<path id="XMLID_356_" class="st1" d="M100.3,151.8L116,154c0,0,8.7,13.6,20.8,0.1l19.9-2l1.3-1.4c0,0-22.1,1.9-23.1,2.5
			c0,0-9,12-16.4,0.1l-18.8-3.4L100.3,151.8z"/>
		<path id="XMLID_353_" class="st1" d="M131.6,154.3c0,2.1-2.4,3.8-5.3,3.8c-2.9,0-5.3-1.7-5.3-3.8c0-2.1,2.4-3.8,5.3-3.8
			C129.2,150.5,131.6,152.2,131.6,154.3z"/>
		<path id="XMLID_350_" class="st1" d="M101.2,155.9c0,0-12.3-2.6-14.9-1.4c0,0-2.1-0.1-2.6-0.8c0,0-0.2-5.4,3.3-9.6
			c1.4-1.6,3.3-3,6-3.9c0,0,2,3.6,4,5.8c0,0,0,0,0,0c0.8,0.9,1.7,1.6,2.3,1.6C99.4,147.6,102.5,155,101.2,155.9z"/>
		<path id="XMLID_566_" class="st1" d="M184.3,144.9c0,0-1.9,12.5-8.8,9.5c0,0-14.6,0.2-21,1c0,0,1.8-6,9-9.6c1.7-0.9,3.7-1.6,6-2.1
			c0,0,9.5-2.8,10.2-3.8c0,0,3.9,0.8,4.6,3.4C184.4,143.8,184.5,144.4,184.3,144.9z"/>
		<path id="XMLID_241_" class="st18" d="M97,146c-0.3,0-7,0.5-10.1-1.9c1.4-1.6,3.3-3,6-3.9C93,140.3,95.1,143.9,97,146z"/>
		<path id="XMLID_369_" class="st19" d="M184.3,143.4L184.3,143.4c-0.1,0.1-9.9,5.9-20.8,2.5c1.7-0.9,3.7-1.6,6-2.1
			c0,0,9.5-2.8,10.2-3.8C179.7,139.9,183.6,140.7,184.3,143.4z"/>
		<path id="XMLID_454_" class="st20" d="M205.9,139.3c0,0,7.6,15.1,1,40.8"/>
		<path id="XMLID_344_" class="st2" d="M215.1,176.6c-0.4,3.2-1.5,7-4.1,7.5l-12.8,1.3c0,0,0.9-5.1,0.5-7.1l3.4-3.4
			c0,0,10.8,5.8,12.1,1.6C214.3,175.7,214.7,175.9,215.1,176.6z"/>
	</g>
</g>
<rect x="34" y="37.1" class="st21" width="6.8" height="155.7"/>
<g>
	<rect x="248.1" y="27.3" class="st21" width="2.8" height="164.3"/>
	
		<rect x="257.5" y="161.5" transform="matrix(-0.751 -0.6603 0.6603 -0.751 337.2126 478.1794)" class="st21" width="2.5" height="28.1"/>
	
		<rect x="257.5" y="161.5" transform="matrix(0.7071 -0.7071 0.7071 0.7071 -48.3113 234.3815)" class="st21" width="2.5" height="28.1"/>
	
		<rect x="256.4" y="143.6" transform="matrix(-0.751 -0.6603 0.6603 -0.751 347.7089 444.2227)" class="st21" width="2.3" height="25.8"/>
	
		<rect x="256.4" y="143.6" transform="matrix(0.7071 -0.7071 0.7071 0.7071 -35.2445 228.0127)" class="st21" width="2.3" height="25.8"/>
	
		<rect x="256.5" y="122.7" transform="matrix(-0.751 -0.6603 0.6603 -0.751 362.0139 405.8918)" class="st21" width="2.2" height="23.9"/>
	
		<rect x="256.5" y="122.7" transform="matrix(0.7071 -0.7071 0.7071 0.7071 -19.8071 221.5563)" class="st21" width="2.2" height="23.9"/>
	
		<rect x="255.8" y="102.2" transform="matrix(-0.751 -0.6603 0.6603 -0.751 375.0287 367.2877)" class="st21" width="2" height="21.6"/>
	
		<rect x="255.8" y="102.2" transform="matrix(0.7071 -0.7071 0.7071 0.7071 -4.6493 214.6386)" class="st21" width="2" height="21.6"/>
	
		<rect x="255.8" y="79.8" transform="matrix(-0.751 -0.6603 0.6603 -0.751 389.7617 328.2187)" class="st21" width="2" height="21.6"/>
	
		<rect x="255.8" y="79.8" transform="matrix(0.7071 -0.7071 0.7071 0.7071 11.128 208.1035)" class="st21" width="2" height="21.6"/>
	
		<rect x="254.9" y="64.1" transform="matrix(-0.751 -0.6603 0.6603 -0.751 399.2701 297.8922)" class="st21" width="1.7" height="19.1"/>
	
		<rect x="254.9" y="64.1" transform="matrix(0.7071 -0.7071 0.7071 0.7071 22.8354 202.4555)" class="st21" width="1.7" height="19.1"/>
	
		<rect x="255" y="47.4" transform="matrix(-0.751 -0.6603 0.6603 -0.751 410.3591 268.9045)" class="st21" width="1.7" height="19.3"/>
	
		<rect x="255" y="47.4" transform="matrix(0.7071 -0.7071 0.7071 0.7071 34.5856 197.6537)" class="st21" width="1.7" height="19.3"/>
	
		<rect x="254.2" y="34.4" transform="matrix(-0.751 -0.6603 0.6603 -0.751 418.1561 243.3834)" class="st21" width="1.5" height="16.9"/>
	
		<rect x="254.2" y="34.4" transform="matrix(0.7071 -0.7071 0.7071 0.7071 44.3807 192.8397)" class="st21" width="1.5" height="16.9"/>
	
		<rect x="262.9" y="27.3" transform="matrix(0.9987 -5.032647e-02 5.032647e-02 0.9987 -5.1719 13.4411)" class="st21" width="2.8" height="164.3"/>
	
		<rect x="261.8" y="4.5" transform="matrix(0.9987 -5.032647e-02 5.032647e-02 0.9987 -4.0258 13.3544)" class="st21" width="2.8" height="164.3"/>
</g>
<g>
	<defs>
		<rect id="SVGID_1_" x="15.2" y="39.5" width="268.5" height="87.1"/>
	</defs>
	<clipPath id="SVGID_2_">
		<use xlink:href="#SVGID_1_"  style="overflow:visible;"/>
	</clipPath>
	<path class="st22" d="M132.7,42.3c-305.1,0-552.5,127.2-552.5,284.2s247.4,284.2,552.5,284.2s552.5-127.2,552.5-284.2
		S437.8,42.3,132.7,42.3z M132.7,560.3c-251,0-454.5-104.7-454.5-233.8c0-129.1,203.5-233.8,454.5-233.8
		c251,0,454.5,104.7,454.5,233.8C587.2,455.7,383.7,560.3,132.7,560.3z"/>
</g>
<path class="st21" d="M279.4,178.5c-0.1,1.1-0.1,2.3-0.3,3.4c0,0.3-0.4,0.7-0.6,1c-0.4,0.4-0.9,0.8-1.3,1.2
	c-1.3,1.4-1.3,1.8-0.6,3.4c-0.8,1.5-1.5,2.8-2.3,4.4c-0.2-1.1-0.3-2-0.4-3c-1.5,1.3-1.5,2.9-1.8,4.7c-0.4-0.9-0.7-1.5-1-2.1
	c-0.3,0.6-0.6,1.2-1,1.7c-0.4,0.5-0.9,0.9-1.5,1.4c-0.4-0.3-0.8-0.8-1.4-1.3c-0.2,0.4-0.3,0.7-0.4,1c-0.1,0-0.2-0.1-0.3-0.1
	c-0.7-1.4-1.2-2.9-2-4.2c-0.3-0.5-1-1.2-1.5-1.2c-1.7-0.1-1.8-1.7-2.5-2.7c0.7,0.5,1.5,1,2.3,1.6c0.2-0.5,0.3-0.7,0.4-1.1
	c0.4,0.4,0.9,0.8,1.5,1.3c-0.2-2.4-2.2-2.9-3.3-4.1c-1.2-1.3-2.6-2.3-4-3.5c0.6-0.8,1-0.3,1.4,0.1c1,1,2,2,2.9,3.1
	c0.1-0.1,0.2-0.1,0.3-0.2c0-0.2,0-0.5-0.1-0.6c-1.5-2.3-2.9-4.7-4.4-6.9c-0.6-0.8-1.4-1.4-2.2-2.1c-0.5-0.4-0.5-0.5-0.3-1.4
	c0.1-0.3,0-0.7-0.1-1c-0.4-1.1-0.9-2.3-1.4-3.4c2.8,4.4,5.6,8.7,8.3,13c0.1-0.1,0.3-0.1,0.4-0.2c-0.4-1.3-1.2-2.4-1.8-3.6
	c-0.6-1.4-1.4-2.7-1.9-4.1c-0.5-1.3-0.7-2.8-0.8-4.2c0.5,1.5,0.7,3,2.1,4.2c-0.2-1.5-0.4-3-0.6-4.5c0.1,0,0.2,0,0.3,0
	c0.3,1.9,0.5,3.8,0.8,5.8c0.1,0.6,0.4,1.1,0.6,1.6c0.2-0.1,0.4-0.2,0.7-0.4c-0.4,1.7,0.8,3,1.6,4.4c1.3,2.3,2.5,4.7,3.7,7.1
	c0.2,0.4,0.4,0.8,0.8,1.1c-0.1-3.7-2.2-6.6-3.4-10c0.5,0.7,0.9,1.4,1.4,2.1c0.1,0,0.3-0.1,0.4-0.1c-0.6-2.3-0.4-4.8-1.6-7.1
	c-1.1-2.2-2.1-4.5-2.8-6.9c0.1,0.1,0.3,0.2,0.6,0.4c0-0.7,0-1.4,0.1-2c0.5,2,0.9,4.1,1.4,6.1c0.1,0.5,0.6,1,0.9,1.5
	c0.2,0,0.3,0,0.5-0.1c-0.2-2-0.3-3.9-0.5-5.9c0.1,0,0.2,0,0.2,0c0.4,2.2,0.8,4.4,1.3,6.6c0.2,0.7,0.6,1.4,0.8,2.1
	c0.2,0.5,0.2,1,0.2,1.5c0.1,1,0.2,2,0.5,2.9c0.9-1.4,0.6-3,0.8-4.5c0-0.3,0-0.5-0.1-0.8c-0.7-3-0.8-6-0.6-9.1
	c0.1,0.4,0.1,0.8,0.2,1.3c0.1,0.5,0.1,0.9,0.2,1.4c0.3,1.4,0.1,2.9,0.9,4.3c0.5,0.8,0.1,2.2,0,3.3c-0.2,2.5-0.5,4.9-0.6,7.4
	c0,0.8,0.3,1.6,0.7,2.4c1.3-4.6,2-9.2,1.3-14c0.2,0.5,0.3,0.9,0.6,1.6c1.4-1.8,1.2-3.9,1.6-5.9c0.6,1.5,0.6,2.7,0,4.3
	c-1,2.3-0.9,4.8-0.6,7.7c1.7-2.5,1.2-5.3,2.3-7.6c0.1,0,0.3,0,0.4,0.1c-0.2,1.5-0.2,2.9-0.5,4.3c-0.7,2.6-1.7,5.2-2.5,7.9
	c-0.2,0.7-0.3,1.4-0.2,2.2c1.5-3.3,3.5-6.4,3.9-10.1c0.4,0,0.8,0.1,1.2,0.2c-0.8,2.5-1.5,4.9-2.3,7.4c0.1,0.1,0.3,0.2,0.4,0.2
	c1.5-2.3,3-4.6,4.7-7c-0.1,0.5-0.1,0.9-0.1,1.3c-0.9,1.4-1.8,2.7-2.7,4.1c-1.2,1.9-2.4,3.8-3.5,5.7c-0.2,0.3-0.3,0.7-0.4,1.1
	c2.4-3,5.7-5.4,6.6-9.4C279.3,178.6,279.4,178.6,279.4,178.5z"/>
<g>
	<path class="st21" d="M15,149.2c0.2,1.4,0.3,2.7,0.5,4.1c0.4,2.9,1.8,5.3,4.3,7.1c0.3,0.2,0.6,0.6,0.9,0.9c1.8,2.1,3.5,4.3,5.3,6.4
		c0.1-0.1,0.3-0.1,0.4-0.2c-1.1-4.4-2.3-8.7-3.4-13.1c0.1,0,0.2-0.1,0.3-0.1c2.7,8.8,5.4,17.6,8.2,26.4c0.1,0,0.2,0,0.3,0
		c0-0.3,0.1-0.7,0.1-1c0-2.7,0-5.4-0.1-8c-0.1-2.8-0.2-5.6-1.6-8.2c-1-1.9-1.3-4.2-2-6.4c-0.5-1.4-1.2-2.8-1.8-4.4
		c0.4,0.3,0.6,0.6,1.1,1c-0.2-2.7-0.4-5.1-0.7-7.7c0.8,1.4,0.8,2.8,0.7,4.3c0,1.6,0.4,3.3,0.8,4.9c0.7,2.7,1.5,5.4,2.2,8.1
		c0.1,0.3,0.3,0.5,0.5,0.7c0.2,0,0.3-0.1,0.5-0.1c-0.1-2.7-0.3-5.5-0.4-8.2c1.4,7.9,2.5,15.8,2.7,23.8c0.2,0,0.3,0,0.5,0
		c0.2-0.4,0.4-0.9,0.5-1.3c0.4-2.2,0.8-4.4,1.2-6.6c0.4-2,0.2-4-0.2-6c-0.3-1.4-0.5-2.9-0.6-4.3c-0.1-1.8,0-3.7,0.1-5.5
		c0.6,3.4-0.2,7,1.5,10.3c0-4.4,0-8.8,0-13.2c0.2,0,0.3,0,0.5,0c0,2.7,0,5.4,0,8.1c0.2,0,0.4,0,0.5,0c0.5-2.9,1-5.7,1.5-8.6
		c0.1,0,0.2,0,0.2,0c-0.1,1.4-0.2,2.9-0.3,4.3c-0.1,1-0.7,2.1,0.3,3c0.1,0.1-0.1,0.5-0.1,0.7c-1.2,6.4-2.3,12.9-3.5,19.3
		c-0.2,1-0.5,2-0.8,3c-0.5,1.6-0.1,3,0.7,4.8c0.7-3.5,2.2-6.4,2.1-9.7c0-2.9,0.6-5.7,0.9-8.6c0.1,0,0.3,0,0.4,0
		c-0.3,2.5-0.6,5-1,7.8c1.5-1.5,1.9-3.7,2.8-11.4c0.1,0.3,0.1,0.5,0.2,0.8c0.1,0,0.2,0,0.3,0c0.3-1.6,0.7-3.3,1-5
		c0.8,1.8,0.4,3.3-0.1,5.1c-0.9,3.2-1.4,6.5-2.1,9.7c-0.2,1-0.5,2-0.8,3c0.1,0,0.3,0.1,0.4,0.1c1-2.4,1.9-4.8,2.9-7.1
		c0.1,0,0.2,0.1,0.3,0.1c-0.6,1.7-1,3.4-1.7,5c-1.2,2.9-2.5,5.8-3.7,8.8c-0.5,1.2-0.7,2.4-1,3.7c-0.3,1.4-0.3,2.9-1.8,3.8
		c-0.3,0.2-0.4,0.8-0.6,1.2c-1.9,0.1-2.1-2.1-3.7-2.6c-0.1,0.5-0.2,1-0.4,1.7c-1.7-1.8-3-3.6-4.1-5.6c0.1-0.1,0.2-0.2,0.3-0.3
		c0.4,0.2,0.7,0.4,1.5,0.7c-1.6-2.8-3-5.3-4.5-7.7c-1.5-2.4-3.3-4.7-4.9-7.1c0.1-0.1,0.2-0.2,0.3-0.2c0.1,0.1,0.3,0.2,0.4,0.3
		c1.5,1.9,2.7,4,4.5,5.7c1.1,1.1,2.1,2.3,3,3.5c0.9,1.3,1.6,2.8,2.4,4.1c0.1,0.2,0.4,0.4,0.6,0.6c0.1,0,0.3-0.1,0.4-0.1
		c-0.5-2.3-0.9-4.6-1.4-6.9c-0.5-2.3-0.7-4.8-3-6.6c0.5,0,0.7,0,1,0c-0.8-3.6-2.4-6.7-4.9-9.5c-1.8-2-3.5-4.1-5.1-6.2
		c-0.8-1.1-1.4-2.4-2-3.6c-0.2-0.4-0.2-0.9-0.2-1.3C14.7,152.2,14.8,150.7,15,149.2C14.9,149.2,15,149.2,15,149.2z"/>
	<path class="st21" d="M50.7,180.9c2.8,0.5,5.5-0.6,8.2,0.2c-2.9,0.5-5.8,0.9-8.7,0.6c-0.5,0-1.3,0.3-1.6,0.8
		c-1.9,2.4-3.7,4.8-5.4,7.3c-0.6,0.8-1.1,1.8-1.8,2.6c-0.7-2-0.2-3.9,0.2-5.8c1-4.7,2.3-9.4,3.3-14.1c0.6-2.5,1.1-5.1,1.4-7.7
		c0.2-1.5-0.1-3-0.4-4.5c-0.6-2.9-1.3-5.7-1.7-8.6c0.2,0.7,0.5,1.3,0.7,2c0.1,0,0.3,0,0.4,0c0.1-1.5,0.2-3,0.3-4.5
		c0.5,3.6-0.4,7.3,0.7,10.9c0.2,0,0.3,0,0.5,0.1c0.6-2.8,1.2-5.6,1.8-8.4c0.1,0,0.2,0,0.2,0c-0.1,0.7-0.1,1.5-0.2,2.2
		c0.1,0,0.2,0.1,0.4,0.1c0.4-1,0.9-2,1.3-3c0.1,0,0.2,0,0.3,0c0,0.4,0.2,0.9,0,1.1c-1.9,2.4-2.3,5.3-2.5,8.2c-0.2,3.7-0.6,7.4-1,11
		c-0.1,0.8-0.1,1.6,0.1,2.4c1.5-2.1,2.6-4.3,2.3-7c-0.2-1.6-0.2-3.2-0.3-4.7c0.2,0,0.3-0.1,0.5-0.1c0.1,0.3,0.4,0.7,0.4,1
		c-0.1,1.3-0.2,2.6-0.3,3.9c0.2,0,0.3,0.1,0.5,0.1c0.8-1.7,1.6-3.4,2.4-5.1c0.1,0,0.2,0.1,0.2,0.1c-0.3,0.7-0.5,1.5-0.9,2.5
		c1.9-0.6,3.5-1.2,5.1-1.7c0,0.1,0.1,0.1,0.1,0.2c-1.3,0.7-2.6,1.5-3.9,2.2c-1.5,0.8-2.4,1.9-2.9,3.6c-0.6,1.9-1.4,3.8-2,5.9
		c0.9-0.8,1.7-1.6,2.6-2.5c0.1,0.1,0.2,0.1,0.3,0.2c-0.8,1-1.4,2.1-2.4,2.9c-1.8,1.5-2.2,3.6-2.5,5.8c2.4-1.3,4.7-2.6,6.1-5.4
		c1.3-2.6,2-5.3,1.9-8.2c0.1,1,0.2,2,0.3,3.4c0.7-0.9,1.1-1.4,1.5-2c0.1,0.1,0.2,0.1,0.3,0.2c-1.1,2.3-2.3,4.7-3.4,7
		c0.1,0.1,0.2,0.2,0.3,0.3c1.8-2.2,4.2-3.1,6.7-3.7C56.5,174.7,53.6,177.8,50.7,180.9z"/>
	<path class="st21" d="M44.6,192.4c-1.1-3,1.1-7,4.4-8.1C46.7,186.4,46.6,189.8,44.6,192.4z"/>
	<path class="st21" d="M41.6,181.5c-0.5,3.8-1,7.7-1.6,11.7c-1.2-0.7-1.1-1.7-1-2.5c0.6-3.1,1.4-6.3,2.1-9.4
		C41.3,181.5,41.4,181.5,41.6,181.5z"/>
	<path class="st21" d="M37.4,193.2c-0.7-2.6,0.6-4.8,1.3-7C38.7,188.6,38.8,191,37.4,193.2z"/>
</g>
<g>
	<path class="st21" d="M236.1,173.5c0.1,0.7,0.2,1.4,0.3,2.1c0.2,1.5,0.9,2.7,2.2,3.6c0.2,0.1,0.3,0.3,0.5,0.5
		c0.9,1.1,1.8,2.2,2.7,3.3c0.1,0,0.1-0.1,0.2-0.1c-0.6-2.2-1.2-4.5-1.8-6.7c0.1,0,0.1,0,0.2,0c1.4,4.5,2.8,9,4.2,13.5
		c0.1,0,0.1,0,0.2,0c0-0.2,0.1-0.3,0.1-0.5c0-1.4,0-2.7,0-4.1c-0.1-1.4-0.1-2.8-0.8-4.2c-0.5-1-0.6-2.2-1-3.2
		c-0.2-0.7-0.6-1.4-0.9-2.2c0.2,0.2,0.3,0.3,0.6,0.5c-0.1-1.4-0.2-2.6-0.3-3.9c0.4,0.7,0.4,1.5,0.4,2.2c0,0.8,0.2,1.7,0.4,2.5
		c0.3,1.4,0.8,2.8,1.1,4.1c0,0.1,0.2,0.2,0.2,0.4c0.1,0,0.2,0,0.2,0c-0.1-1.4-0.1-2.8-0.2-4.2c0.7,4,1.3,8.1,1.4,12.1
		c0.1,0,0.2,0,0.3,0c0.1-0.2,0.2-0.4,0.2-0.7c0.2-1.1,0.4-2.2,0.6-3.4c0.2-1,0.1-2-0.1-3.1c-0.2-0.7-0.3-1.5-0.3-2.2
		c0-0.9,0-1.9,0-2.8c0.3,1.7-0.1,3.6,0.8,5.3c0-2.3,0-4.5,0-6.8c0.1,0,0.2,0,0.2,0c0,1.4,0,2.8,0,4.1c0.1,0,0.2,0,0.3,0
		c0.3-1.5,0.5-2.9,0.8-4.4c0,0,0.1,0,0.1,0c-0.1,0.7-0.1,1.5-0.2,2.2c0,0.5-0.4,1.1,0.2,1.5c0.1,0,0,0.2-0.1,0.4
		c-0.6,3.3-1.2,6.6-1.8,9.9c-0.1,0.5-0.2,1-0.4,1.5c-0.2,0.8-0.1,1.5,0.4,2.5c0.4-1.8,1.1-3.3,1.1-5c0-1.5,0.3-2.9,0.5-4.4
		c0.1,0,0.1,0,0.2,0c-0.2,1.3-0.3,2.5-0.5,4c0.7-0.7,1-1.9,1.4-5.8c0,0.1,0.1,0.3,0.1,0.4c0,0,0.1,0,0.1,0c0.2-0.8,0.3-1.7,0.5-2.5
		c0.4,0.9,0.2,1.7,0,2.6c-0.4,1.6-0.7,3.3-1.1,4.9c-0.1,0.5-0.3,1-0.4,1.6c0.1,0,0.1,0,0.2,0.1c0.5-1.2,1-2.4,1.5-3.6
		c0,0,0.1,0,0.1,0c-0.3,0.9-0.5,1.7-0.9,2.5c-0.6,1.5-1.3,3-1.9,4.5c-0.2,0.6-0.4,1.2-0.5,1.9c-0.1,0.7-0.2,1.5-0.9,2
		c-0.2,0.1-0.2,0.4-0.3,0.6c-1,0-1.1-1.1-1.9-1.3c-0.1,0.3-0.1,0.5-0.2,0.9c-0.9-0.9-1.5-1.8-2.1-2.9c0,0,0.1-0.1,0.1-0.1
		c0.2,0.1,0.4,0.2,0.8,0.4c-0.8-1.4-1.5-2.7-2.3-3.9c-0.8-1.2-1.7-2.4-2.5-3.6c0.1,0,0.1-0.1,0.2-0.1c0.1,0.1,0.1,0.1,0.2,0.2
		c0.8,1,1.4,2.1,2.3,2.9c0.6,0.6,1.1,1.2,1.5,1.8c0.5,0.6,0.8,1.4,1.2,2.1c0.1,0.1,0.2,0.2,0.3,0.3c0.1,0,0.1,0,0.2-0.1
		c-0.2-1.2-0.5-2.4-0.7-3.5c-0.3-1.2-0.4-2.5-1.5-3.4c0.2,0,0.3,0,0.5,0c-0.4-1.8-1.2-3.4-2.5-4.9c-0.9-1-1.8-2.1-2.6-3.2
		c-0.4-0.6-0.7-1.2-1-1.8c-0.1-0.2-0.1-0.4-0.1-0.7C236,175.1,236,174.3,236.1,173.5C236.1,173.5,236.1,173.5,236.1,173.5z"/>
	<path class="st21" d="M254.4,189.7c1.4,0.3,2.8-0.3,4.2,0.1c-1.5,0.2-3,0.4-4.5,0.3c-0.3,0-0.7,0.2-0.8,0.4c-1,1.2-1.9,2.5-2.8,3.7
		c-0.3,0.4-0.6,0.9-0.9,1.3c-0.4-1-0.1-2,0.1-3c0.5-2.4,1.2-4.8,1.7-7.2c0.3-1.3,0.6-2.6,0.7-3.9c0.1-0.8,0-1.6-0.2-2.3
		c-0.3-1.5-0.7-2.9-0.8-4.4c0.1,0.3,0.3,0.7,0.4,1c0.1,0,0.1,0,0.2,0c0-0.8,0.1-1.5,0.1-2.3c0.2,1.9-0.2,3.8,0.4,5.6
		c0.1,0,0.2,0,0.2,0c0.3-1.4,0.6-2.9,0.9-4.3c0,0,0.1,0,0.1,0c0,0.4-0.1,0.7-0.1,1.1c0.1,0,0.1,0,0.2,0.1c0.2-0.5,0.4-1,0.7-1.5
		c0.1,0,0.1,0,0.2,0c0,0.2,0.1,0.4,0,0.6c-1,1.2-1.2,2.7-1.3,4.2c-0.1,1.9-0.3,3.8-0.5,5.6c0,0.4,0,0.8,0.1,1.2
		c0.8-1.1,1.3-2.2,1.2-3.6c-0.1-0.8-0.1-1.6-0.2-2.4c0.1,0,0.2-0.1,0.2-0.1c0.1,0.2,0.2,0.3,0.2,0.5c0,0.7-0.1,1.3-0.1,2
		c0.1,0,0.2,0,0.3,0.1c0.4-0.9,0.8-1.7,1.2-2.6c0,0,0.1,0,0.1,0c-0.1,0.4-0.3,0.8-0.5,1.3c1-0.3,1.8-0.6,2.6-0.9c0,0,0,0.1,0,0.1
		c-0.7,0.4-1.3,0.8-2,1.1c-0.7,0.4-1.2,1-1.5,1.8c-0.3,1-0.7,1.9-1,3c0.4-0.4,0.9-0.8,1.3-1.3c0,0,0.1,0.1,0.1,0.1
		c-0.4,0.5-0.7,1.1-1.2,1.5c-0.9,0.8-1.1,1.8-1.3,3c1.2-0.7,2.4-1.4,3.1-2.8c0.7-1.4,1-2.7,1-4.2c0,0.5,0.1,1,0.2,1.7
		c0.4-0.5,0.6-0.7,0.8-1c0,0,0.1,0.1,0.1,0.1c-0.6,1.2-1.2,2.4-1.7,3.6c0,0.1,0.1,0.1,0.1,0.2c0.9-1.1,2.1-1.6,3.4-1.9
		C257.3,186.5,255.9,188.1,254.4,189.7z"/>
	<path class="st21" d="M251.2,195.6c-0.6-1.6,0.6-3.6,2.3-4.1C252.3,192.6,252.3,194.3,251.2,195.6z"/>
	<path class="st21" d="M249.7,190.1c-0.3,2-0.5,3.9-0.8,6c-0.6-0.4-0.6-0.9-0.5-1.3c0.3-1.6,0.7-3.2,1.1-4.8
		C249.6,190,249.6,190,249.7,190.1z"/>
	<path class="st21" d="M247.6,196c-0.4-1.3,0.3-2.4,0.7-3.6C248.2,193.6,248.3,194.9,247.6,196z"/>
</g>
<g>
	
		<image style="overflow:visible;opacity:0.6;" width="924" height="130" xlink:href="9152C3BC.png"  transform="matrix(0.24 0 0 0.24 34.6682 57.915)">
	</image>
	<g>
		<g>
			<path class="st8" d="M101.7,70.5l0.2,5.4c0,0.3,0,0.4,0.1,0.5c0,0.1,0.1,0.2,0.3,0.3c0.2,0.1,0.3,0.3,0.3,0.6
				c0,0.4,0,0.7-0.1,0.8s-0.2,0.2-0.4,0.2l-4.6,0.1c-0.3,0-0.4-0.2-0.4-0.6c0-0.4,0-0.6,0-0.7s0.1-0.2,0.2-0.2
				c0.4-0.2,0.6-0.5,0.6-1l-0.4-12.7c0-0.5-0.2-0.8-0.5-0.8c-0.2-0.1-0.3-0.1-0.3-0.2c0-0.1-0.1-0.2-0.1-0.5c0-0.6,0.1-0.8,0.4-0.9
				l6-0.2c1.2,0,2.3,0.4,3.2,1.2s1.5,2.1,1.5,3.6c0.1,2.1-1,3.6-3.1,4.3c2,0.4,3.1,1.6,3.1,3.7l0.1,2.6c0,0.2,0.1,0.4,0.3,0.5
				c0.2,0.1,0.3,0.3,0.3,0.6c0,0.4,0,0.7-0.1,0.8c0,0.1-0.2,0.1-0.4,0.1l-2.9,0.1c-0.3,0-0.6-0.2-0.9-0.6s-0.4-0.9-0.4-1.4l-0.1-4.4
				c0-0.9-0.5-1.3-1.3-1.2L101.7,70.5z M101.4,62l0.2,7.3l0.7,0c0.7,0,1-0.8,1-2.2l-0.1-3.5c0-0.6-0.1-1-0.4-1.3
				c-0.2-0.2-0.6-0.4-1.1-0.3L101.4,62z"/>
			<path class="st8" d="M113.5,61.7l0.1,6.2l0.7,0c0.2,0,0.3-0.1,0.4-0.1c0.1-0.1,0.2-0.3,0.2-0.6c0.1-0.5,0.1-0.8,0.2-0.9
				c0.1-0.1,0.1-0.2,0.3-0.2c0.6,0,0.9,0,1,0c0.1,0,0.1,0.2,0.1,0.5l0.1,3.6c0,0.2,0,0.4-0.1,0.4c-0.1,0.1-0.3,0.1-0.7,0.1
				c-0.2,0-0.4,0-0.5-0.1c-0.1-0.1-0.2-0.3-0.3-0.8c-0.1-0.4-0.2-0.6-0.2-0.7c-0.1-0.1-0.2-0.1-0.4-0.1l-0.8,0l0.2,7.5l0.6,0
				c0.4,0,0.6-0.1,0.7-0.3c0.1-0.2,0.3-0.8,0.6-1.7c0.1-0.4,0.2-0.7,0.4-0.8c0.1-0.1,0.4-0.2,0.7-0.2c0.4,0,0.7,0.1,0.7,0.4
				c0,0.1,0,0.2,0,0.4l-0.3,2.5c-0.1,0.4-0.1,0.7-0.2,0.8c0,0.1-0.2,0.1-0.4,0.1l-7.2,0.2c-0.2,0-0.3,0-0.3-0.1s-0.1-0.3-0.1-0.7
				c0-0.3,0.1-0.4,0.4-0.6c0.4-0.2,0.6-0.4,0.6-0.7l-0.3-13.5c0-0.1-0.2-0.3-0.5-0.4c-0.2-0.1-0.3-0.2-0.4-0.3
				c0-0.1-0.1-0.3-0.1-0.6c0-0.3,0-0.5,0.1-0.5c0-0.1,0.2-0.1,0.4-0.1l6.9-0.1c0.2,0,0.3,0,0.4,0.1c0.1,0.1,0.1,0.2,0.2,0.4l0.6,2.8
				c0,0.1,0,0.2,0,0.3c0,0.2-0.2,0.3-0.5,0.3c-0.4,0-0.7,0-0.8-0.1c-0.1-0.1-0.3-0.3-0.4-0.7c-0.2-0.6-0.4-1.1-0.6-1.3
				c-0.2-0.2-0.4-0.4-0.6-0.4L113.5,61.7z"/>
			<path class="st8" d="M120.7,67.9l0.1,7.7c0,0.3,0.2,0.6,0.6,0.7c0.3,0.1,0.5,0.3,0.5,0.6c0,0.5,0,0.8,0,0.9
				c0,0.1-0.1,0.1-0.3,0.1l-2.9,0c-0.1,0-0.2-0.1-0.3-0.2c0-0.1-0.1-0.4-0.1-0.8c0-0.2,0.1-0.3,0.3-0.4c0.4-0.2,0.6-0.4,0.6-0.6
				L118.9,63c0-0.3,0-0.5-0.1-0.7s-0.2-0.3-0.4-0.4c-0.2-0.1-0.3-0.2-0.4-0.3c-0.1-0.1-0.1-0.3-0.1-0.6c0-0.5,0.1-0.8,0.4-0.8l3,0
				l3.7,8.4l-0.1-6.2c0-0.3-0.2-0.6-0.5-0.7c-0.2-0.1-0.3-0.2-0.4-0.3c-0.1-0.1-0.1-0.4-0.1-0.7c0-0.2,0-0.3,0.1-0.4
				c0,0,0.1-0.1,0.2-0.1l3,0c0.2,0,0.3,0.3,0.3,0.7c0,0.3,0,0.4,0,0.5s-0.1,0.1-0.2,0.2c-0.3,0.1-0.4,0.2-0.5,0.3s-0.1,0.2-0.1,0.4
				l0.2,15.4l-1.8,0L120.7,67.9z"/>
			<path class="st8" d="M131.1,61.4h-0.5c-0.2,0-0.3,0.1-0.4,0.3s-0.2,0.8-0.3,1.7c-0.1,0.4-0.1,0.7-0.2,0.8
				c-0.1,0.1-0.3,0.2-0.7,0.2c-0.3,0-0.5,0-0.6-0.1c-0.1-0.1-0.1-0.2-0.1-0.5c0-0.1,0-0.3,0-0.4l0.1-2.5c0-0.3,0.1-0.5,0.2-0.6
				s0.3-0.1,0.7-0.1l8,0c0.2,0,0.4,0,0.4,0.1c0.1,0.1,0.1,0.3,0.1,0.6l0.2,2.2c0,0.2,0,0.4,0,0.5c0,0.2,0,0.4-0.1,0.5
				s-0.2,0.2-0.5,0.2c-0.4,0-0.6,0-0.7-0.1c-0.1-0.1-0.2-0.3-0.3-0.7c-0.1-0.6-0.2-1.1-0.4-1.5s-0.3-0.6-0.5-0.6h-0.3l0,13.9
				c0,0.4,0.2,0.7,0.5,0.8c0.1,0.1,0.2,0.1,0.3,0.2c0,0.1,0.1,0.3,0.1,0.6c0,0.4,0,0.6-0.1,0.6c-0.1,0.1-0.2,0.1-0.4,0.1l-4.8,0
				c-0.2,0-0.3,0-0.4-0.1c-0.1-0.1-0.1-0.3-0.1-0.6c0-0.4,0.1-0.7,0.3-0.7c0.2-0.1,0.4-0.2,0.4-0.3c0.1-0.1,0.1-0.2,0.1-0.4
				L131.1,61.4z"/>
			<path class="st8" d="M149.3,74.1l-2.7,0l-0.1,1c0,0,0,0.1,0,0.1c-0.1,0.2-0.1,0.4-0.1,0.6c0,0.3,0.2,0.5,0.5,0.7
				c0.2,0.1,0.3,0.2,0.3,0.3s0.1,0.3,0.1,0.5c0,0.3,0,0.5-0.1,0.5c0,0.1-0.1,0.1-0.2,0.1l-2.9,0c-0.2,0-0.2-0.2-0.2-0.5
				c0-0.4,0.1-0.7,0.4-1c0.2-0.2,0.4-0.5,0.4-0.7l2.2-12.7c0-0.2,0.1-0.4,0.1-0.5c0-0.2-0.1-0.4-0.5-0.6c-0.1-0.1-0.2-0.3-0.2-0.6
				c0-0.4,0-0.6,0.1-0.7s0.2-0.1,0.3-0.1l4.1,0.1c0.3,0,0.4,0.1,0.5,0.4c0.1,0.2,0.2,0.8,0.3,1.6c0,0.3,0.1,0.6,0.1,0.9l1.6,12
				c0.1,0.6,0.3,1,0.6,1.3c0.1,0.1,0.2,0.1,0.2,0.2c0,0,0,0.2,0,0.4c0,0.4,0,0.6-0.1,0.7c-0.1,0.1-0.2,0.1-0.3,0.1l-4.8-0.1
				c-0.1,0-0.2-0.1-0.2-0.4c0-0.3,0-0.6,0.1-0.6c0-0.1,0.1-0.2,0.3-0.3c0.3-0.2,0.4-0.4,0.4-0.6C149.5,75.6,149.4,75,149.3,74.1z
				 M148.2,64.3l-1.4,8.5l2.4,0L148.2,64.3z"/>
			<path class="st8" d="M167.9,60.5l0.6,0c0.1,0,0.2,0.1,0.3,0.2c0.1,0.1,0.1,0.4,0.1,0.8L169,65c0,0.1,0,0.1,0,0.2
				c0,0.3-0.1,0.4-0.1,0.5c-0.1,0.1-0.3,0.1-0.5,0.1c-0.3,0-0.5-0.1-0.7-0.3c-0.1-0.2-0.2-0.6-0.3-1.2c-0.2-1.6-0.6-2.4-1.2-2.4
				c-0.5,0-0.7,0.5-0.7,1.7L165,75.9c0,0.8,0.2,1.2,0.7,1.2c0.6,0,1-0.6,1.1-2c0-0.4,0.1-0.7,0.3-0.8c0.1-0.1,0.4-0.2,0.8-0.2
				c0.3,0,0.5,0.1,0.6,0.2c0.1,0.1,0.2,0.3,0.2,0.7c0,1-0.4,1.9-1,2.5c-0.6,0.7-1.4,1-2.4,0.9c-0.9,0-1.7-0.3-2.3-0.9
				c-0.7-0.6-1.2-1.6-1.7-3c-0.4-1.4-0.6-3.2-0.6-5.4c0.1-2.1,0.3-3.7,0.8-4.9c0.5-1.2,1-2.2,1.7-2.8c0.7-0.6,1.4-1,2.3-0.9
				c0.5,0,1,0.2,1.3,0.5c0.1,0.1,0.2,0.2,0.3,0.2c0.1,0,0.2-0.1,0.4-0.3C167.6,60.6,167.7,60.5,167.9,60.5z"/>
			<path class="st8" d="M174.4,74.9l-2.7-0.1l-0.2,1c0,0,0,0.1,0,0.1c-0.1,0.2-0.1,0.4-0.1,0.6c0,0.3,0.1,0.5,0.5,0.7
				c0.2,0.1,0.3,0.2,0.3,0.3c0,0.1,0.1,0.3,0,0.5c0,0.3,0,0.5-0.1,0.5c0,0.1-0.1,0.1-0.2,0.1l-2.9-0.1c-0.2,0-0.2-0.2-0.2-0.5
				c0-0.4,0.2-0.7,0.4-0.9c0.2-0.2,0.4-0.4,0.4-0.7l2.6-12.7c0-0.2,0.1-0.4,0.1-0.5c0-0.2-0.1-0.4-0.4-0.6c-0.1-0.1-0.2-0.3-0.2-0.6
				c0-0.4,0.1-0.6,0.1-0.7c0-0.1,0.2-0.1,0.4-0.1l4.1,0.2c0.3,0,0.4,0.1,0.5,0.4s0.2,0.8,0.2,1.6c0,0.3,0.1,0.6,0.1,0.9l1.2,12
				c0.1,0.6,0.3,1,0.6,1.4c0.1,0.1,0.1,0.1,0.2,0.2s0,0.2,0,0.4c0,0.4-0.1,0.6-0.1,0.7c-0.1,0.1-0.2,0.1-0.3,0.1l-4.8-0.2
				c-0.1,0-0.2-0.1-0.2-0.4c0-0.3,0-0.6,0.1-0.6c0-0.1,0.1-0.2,0.3-0.3c0.3-0.1,0.4-0.3,0.4-0.6C174.5,76.4,174.5,75.8,174.4,74.9z
				 M173.5,65.1l-1.6,8.4l2.4,0.1L173.5,65.1z"/>
			<path class="st8" d="M185.1,71.5l-0.3,5.4c0,0.3,0,0.4,0,0.5c0,0.1,0.1,0.2,0.3,0.3c0.2,0.1,0.3,0.3,0.3,0.6
				c0,0.4-0.1,0.7-0.2,0.8c-0.1,0.1-0.2,0.1-0.4,0.1l-4.6-0.3c-0.3,0-0.4-0.2-0.4-0.6c0-0.4,0-0.6,0.1-0.7c0-0.1,0.1-0.2,0.2-0.2
				c0.4-0.1,0.6-0.4,0.7-0.9l0.8-12.7c0-0.5-0.1-0.8-0.5-0.9c-0.2-0.1-0.3-0.1-0.3-0.2s-0.1-0.2,0-0.5c0-0.6,0.2-0.8,0.5-0.8l6,0.4
				c1.2,0.1,2.2,0.6,3.1,1.5c0.9,1,1.3,2.2,1.2,3.7c-0.1,2.1-1.3,3.5-3.5,4c2,0.6,2.9,1.9,2.8,4l-0.2,2.6c0,0.2,0.1,0.4,0.2,0.5
				c0.2,0.1,0.3,0.3,0.3,0.6c0,0.4-0.1,0.7-0.1,0.7c-0.1,0.1-0.2,0.1-0.4,0.1l-2.9-0.2c-0.3,0-0.6-0.2-0.8-0.6
				c-0.2-0.4-0.3-0.9-0.2-1.5l0.3-4.4c0.1-0.9-0.4-1.3-1.2-1.4L185.1,71.5z M185.6,62.9l-0.4,7.3l0.7,0c0.7,0,1.1-0.7,1.2-2.1
				l0.2-3.5c0-0.6-0.1-1-0.3-1.3c-0.2-0.3-0.6-0.4-1-0.4L185.6,62.9z"/>
		</g>
	</g>
</g>
<g>
	
		<image style="overflow:visible;opacity:0.6;" width="531" height="179" xlink:href="9152C3BF.png"  transform="matrix(0.24 0 0 0.24 199.5482 72.555)">
	</image>
	<g>
		<g>
			<path class="st8" d="M210,79.1l-0.1,1.5c0,0.2,0,0.3,0,0.5s0.1,0.2,0.2,0.2c0.1,0,0.2-0.1,0.3-0.2c0.1-0.2,0.1-0.4,0.1-0.6
				c0-0.1,0-0.2,0-0.3s0.1,0,0.2,0c0.1,0,0.1,0,0.1,0c0,0,0,0.1,0,0.2c0,0.4-0.1,0.7-0.3,1c-0.2,0.3-0.4,0.4-0.6,0.4
				c-0.3,0-0.5-0.2-0.6-0.7c-0.2-0.4-0.2-1.1-0.1-1.9c0.1-0.8,0.2-1.5,0.4-1.9s0.4-0.6,0.7-0.6c0.2,0,0.4,0.2,0.5,0.6
				c0.1,0.4,0.2,0.9,0.1,1.6l0,0.3L210,79.1z M210.4,78.6l0.1-1.2c0-0.2,0-0.3-0.1-0.3c-0.1,0-0.2,0.1-0.2,0.3l-0.1,1.2L210.4,78.6z
				"/>
			<path class="st8" d="M212.5,76.9l0,1c0,0,0,0.1,0,0.1c0,0.1,0,0.1-0.1,0.1c0,0-0.1,0-0.1,0c0,0,0-0.1-0.1-0.2
				c0-0.1-0.1-0.2-0.1-0.4c-0.1-0.2-0.1-0.2-0.2-0.2c0,0,0,0-0.1,0s0,0.1,0,0.1c0,0.1,0.1,0.5,0.2,1.1c0.1,0.5,0.2,0.9,0.3,1.2
				c0,0.3,0,0.6,0,1c0,0.4-0.1,0.7-0.2,0.9c-0.1,0.2-0.2,0.3-0.4,0.3c-0.1,0-0.2-0.1-0.2-0.2c0-0.1-0.1-0.1-0.1-0.1c0,0,0,0,0,0.1
				c0,0.1,0,0.1,0,0.1c0,0,0,0-0.1,0c0,0-0.1,0-0.1,0c0,0,0-0.1,0-0.1l0-1c0,0,0-0.1,0-0.1c0-0.1,0.1-0.1,0.1-0.1c0.1,0,0.1,0,0.1,0
				c0,0,0,0.1,0.1,0.2c0.1,0.4,0.2,0.6,0.3,0.6c0.1,0,0.1-0.1,0.1-0.2c0-0.1,0-0.3,0-0.4c0-0.2-0.1-0.5-0.2-0.9
				c-0.1-0.4-0.2-0.8-0.2-1.1c0-0.3-0.1-0.6,0-0.8c0-0.4,0.1-0.7,0.2-0.8c0.1-0.2,0.2-0.3,0.4-0.3c0.1,0,0.2,0.1,0.2,0.1
				c0,0,0.1,0.1,0.1,0.1c0,0,0,0,0-0.1c0-0.1,0-0.1,0-0.1s0.1,0,0.1,0c0,0,0.1,0,0.1,0C212.5,76.8,212.5,76.9,212.5,76.9z"/>
			<path class="st8" d="M212.9,77.4L212.9,77.4c-0.1,0-0.1,0-0.1,0c0,0,0,0,0-0.1l0-0.3c0,0,0-0.1,0-0.1c0,0,0,0,0.1,0
				c0.1,0,0.2-0.1,0.3-0.3c0.1-0.2,0.2-0.3,0.2-0.5c0-0.1,0-0.1,0-0.1s0,0,0.1,0l0.1,0c0,0,0.1,0,0,0.1l-0.1,0.8l0.1,0
				c0,0,0.1,0,0.1,0.1l0,0.3c0,0.1,0,0.1-0.1,0.1l-0.1,0l-0.3,3.7c0,0.1,0,0.2,0.1,0.3c0,0,0,0.1,0.1,0.1c0,0,0,0.1,0,0.2
				c0,0.1,0,0.1,0,0.1c0,0,0,0-0.1,0l-0.7-0.1c-0.1-0.2-0.1-0.4-0.1-0.7L212.9,77.4z"/>
			<path class="st8" d="M214.2,80.5c0.1,0,0.2,0.1,0.2,0.2c0.1,0.1,0.1,0.3,0.1,0.5c0,0.2-0.1,0.4-0.2,0.5c-0.1,0.1-0.2,0.2-0.3,0.2
				c-0.1,0-0.2-0.1-0.2-0.2c-0.1-0.1-0.1-0.3-0.1-0.5c0-0.2,0.1-0.4,0.1-0.5C214,80.6,214.1,80.5,214.2,80.5z"/>
			<path class="st8" d="M216.3,81.1l1.1,0.1c0,0,0.1,0,0.1-0.1s0.1-0.2,0.1-0.3c0-0.1,0-0.1,0.1-0.1c0,0,0.1,0,0.1,0
				c0.1,0,0.1,0,0.1,0.1c0,0,0,0,0,0.1c0,0.1,0,0.2-0.1,0.5c-0.1,0.3-0.1,0.5-0.1,0.7c0,0.2-0.1,0.3-0.1,0.3c0,0,0,0-0.1,0l-1.7-0.2
				l0.1-0.8c0-0.1,0.1-0.3,0.2-0.4c0.1-0.1,0.2-0.3,0.5-0.8c0.3-0.4,0.4-0.8,0.5-1.1c0.1-0.3,0.2-0.7,0.2-1.2c0-0.4,0-0.7,0-0.8
				c0-0.1-0.1-0.2-0.2-0.2c-0.1,0-0.1,0-0.2,0.1c0,0.1-0.1,0.1-0.1,0.2c0,0.1,0,0.1,0,0.2c0,0.1,0,0.2,0,0.3c0,0.2-0.1,0.4-0.1,0.5
				c-0.1,0.1-0.2,0.2-0.2,0.2c-0.1,0-0.2-0.1-0.2-0.2c0-0.1-0.1-0.3,0-0.5c0-0.4,0.2-0.7,0.3-0.9c0.2-0.2,0.4-0.4,0.7-0.3
				c0.3,0,0.5,0.2,0.7,0.5c0.2,0.3,0.2,0.7,0.2,1.2c0,0.3-0.1,0.5-0.2,0.8c-0.1,0.2-0.2,0.4-0.3,0.6c-0.1,0.2-0.3,0.4-0.6,0.7
				C216.7,80.5,216.4,80.8,216.3,81.1z"/>
			<path class="st8" d="M219.5,76.6c0.2,0,0.3,0.2,0.5,0.4s0.2,0.6,0.2,1.1c0,0.4,0,0.9,0,1.5c-0.1,1-0.3,1.7-0.5,2.2
				s-0.5,0.7-0.8,0.7c-0.3,0-0.5-0.3-0.6-0.8c-0.1-0.5-0.2-1.2,0-2.2c0.1-1,0.3-1.7,0.5-2.2C219,76.8,219.2,76.5,219.5,76.6z
				 M219.5,77.5c0-0.2,0-0.3,0-0.4s-0.1-0.1-0.1-0.1c-0.1,0-0.2,0.1-0.2,0.4l-0.4,4.2c0,0.2,0,0.4,0.1,0.4c0,0,0.1,0,0.1-0.1
				c0-0.1,0.1-0.1,0.1-0.2L219.5,77.5z"/>
			<path class="st8" d="M221.6,76.8c0.2,0,0.3,0.2,0.5,0.4c0.1,0.3,0.2,0.6,0.2,1.1s0,0.9-0.1,1.5c-0.1,1-0.3,1.7-0.5,2.2
				s-0.5,0.7-0.8,0.7c-0.3,0-0.5-0.3-0.6-0.8c-0.1-0.5-0.1-1.2,0-2.2c0.1-1,0.3-1.7,0.5-2.2C221.1,77,221.3,76.8,221.6,76.8z
				 M221.7,77.7c0-0.2,0-0.3,0-0.4c0-0.1-0.1-0.1-0.1-0.1c-0.1,0-0.2,0.1-0.2,0.4l-0.5,4.2c0,0.2,0,0.4,0.1,0.4c0,0,0.1,0,0.1-0.1
				c0-0.1,0.1-0.1,0.1-0.2L221.7,77.7z"/>
			<path class="st8" d="M223.1,77.1l1,0.1c0,0,0.1,0,0.1,0c0,0,0-0.1,0.1-0.1c0,0,0,0,0.1,0c0.1,0,0.1,0,0.1,0c0,0,0,0,0,0.1
				c0,0,0,0.1,0,0.1l-0.1,0.8c0,0.1,0,0.1,0,0.1c0,0,0,0-0.1,0l-1-0.1l-0.2,1.1c0.2-0.1,0.3-0.2,0.5-0.2c0.3,0,0.5,0.2,0.6,0.6
				c0.1,0.4,0.2,0.8,0.1,1.4c-0.1,0.6-0.2,1.1-0.5,1.4c-0.2,0.3-0.5,0.5-0.8,0.5c-0.3,0-0.4-0.2-0.5-0.5c-0.1-0.3-0.1-0.6-0.1-0.9
				c0-0.2,0.1-0.3,0.1-0.4c0.1-0.1,0.1-0.2,0.2-0.2c0.1,0,0.1,0.1,0.2,0.2c0,0.1,0,0.2,0,0.4c0,0.1,0,0.2,0,0.2
				c0,0.1-0.1,0.2-0.1,0.3c0,0.1,0,0.2,0,0.2c0,0.1,0.1,0.1,0.2,0.1c0.1,0,0.1,0,0.2-0.1c0.1-0.1,0.1-0.1,0.1-0.2
				c0-0.1,0.1-0.3,0.1-0.6l0.1-0.6c0.1-0.5,0.1-0.8,0.1-1c0-0.2-0.1-0.3-0.2-0.3c-0.2,0-0.3,0.1-0.4,0.5c0,0.1,0,0.1-0.1,0.1
				c0,0,0,0-0.1,0l-0.1,0c-0.1,0-0.1,0-0.1-0.1c0,0,0-0.1,0-0.1L223.1,77.1z"/>
		</g>
	</g>
</g>
</svg>
