<?xml version="1.0" encoding="utf-8"?>
<!-- Generator: Adobe Illustrator 22.0.1, SVG Export Plug-In . SVG Version: 6.00 Build 0)  -->
<svg version="1.1" id="Layer_1" xmlns="http://www.w3.org/2000/svg" xmlns:xlink="http://www.w3.org/1999/xlink" x="0px" y="0px"
	 viewBox="0 0 7584.1 1590.8" style="enable-background:new 0 0 7584.1 1590.8;" xml:space="preserve">
<style type="text/css">
	.st0{fill:#F5FAFD;}
	.st1{fill:#D3E8F8;}
	.st2{fill:#DFEDF9;}
	.st3{fill:#A8C9E5;}
	.st4{fill:#ABD19A;}
	.st5{fill:#9AC184;}
	.st6{opacity:0.26;fill:#283250;enable-background:new    ;}
	.st7{fill:#EAF2FB;}
	.st8{fill:#D5E3EE;}
	.st9{fill:#EFF8FD;}
	.st10{fill:#ECF2FA;}
	.st11{fill:#CBDDEE;}
	.st12{fill:#C4E0F5;}
	.st13{fill:#A7C3E6;}
	.st14{fill:#B2CBEA;}
	.st15{fill:#C9DBF1;}
	.st16{fill:#D2E3F5;}
</style>
<g>
	<path class="st0" d="M6335.9,1042.8c0,0-87.1-87.4-296.3-67.6c0,0-57.6-77.2-227-75c-236.1,3-249.5,91.6-249.5,91.6
		s-107.2-31.3-159.6,50.9L6335.9,1042.8L6335.9,1042.8z"/>
	<g>
		<rect x="5188.3" y="1257.1" class="st1" width="398.7" height="328.3"/>
		<polygon class="st1" points="5997.5,962.8 5997.5,1285.4 6166.4,1285.4 6166.4,1396.7 6262.6,1396.7 6262.6,1585.4 6166.4,1585.4 
			6089.2,1585.4 5997.5,1585.4 5767.7,1585.4 5723.6,1585.4 5723.6,962.8 		"/>
		<g>
			<g>
				<rect x="5274.1" y="783.9" class="st1" width="153.4" height="804"/>
				<rect x="5310.8" y="783.9" class="st2" width="153.4" height="804"/>
			</g>
			<rect x="5310.8" y="783.9" class="st1" width="153.4" height="88.9"/>
			<rect x="5310.8" y="936.2" class="st1" width="153.4" height="88.9"/>
			<rect x="5310.8" y="1088.6" class="st1" width="153.4" height="88.9"/>
			<rect x="5310.8" y="1241" class="st1" width="153.4" height="88.9"/>
			<rect x="5310.8" y="1393.3" class="st1" width="153.4" height="88.9"/>
		</g>
		<g>
			<rect x="5492.8" y="641.4" class="st1" width="153.4" height="946.6"/>
			<g>
				<rect x="5529.6" y="641.4" class="st2" width="153.4" height="946.6"/>
				<rect x="5529.6" y="641.4" class="st1" width="153.4" height="88.9"/>
				<rect x="5529.6" y="788.1" class="st1" width="153.4" height="88.9"/>
				<rect x="5529.6" y="934.8" class="st1" width="153.4" height="88.9"/>
				<rect x="5529.6" y="1081.5" class="st1" width="153.4" height="88.9"/>
				<rect x="5529.6" y="1228.3" class="st1" width="153.4" height="88.9"/>
				<rect x="5529.6" y="1375" class="st1" width="153.4" height="88.9"/>
			</g>
		</g>
		<g>
			<rect x="5683" y="1080.5" class="st1" width="153.4" height="507.4"/>
			<rect x="5759.6" y="1080.5" class="st2" width="153.4" height="507.4"/>
			<g>
				<rect x="5781.9" y="1107.7" class="st1" width="111" height="18.3"/>
				<rect x="5781.9" y="1160" class="st1" width="111" height="18.3"/>
				<rect x="5781.9" y="1212.4" class="st1" width="111" height="18.3"/>
				<rect x="5781.9" y="1264.8" class="st1" width="111" height="18.3"/>
				<rect x="5781.9" y="1317.1" class="st1" width="111" height="18.3"/>
				<rect x="5781.9" y="1369.6" class="st1" width="111" height="18.3"/>
				<rect x="5781.9" y="1421.9" class="st1" width="111" height="18.3"/>
				<rect x="5781.9" y="1474.3" class="st1" width="111" height="18.3"/>
				<rect x="5781.9" y="1526.7" class="st1" width="111" height="18.3"/>
			</g>
		</g>
	</g>
	<path class="st3" d="M7552.1,1585.5c0,0-66.9-109.9-255.5-93.2c-188.6,16.7-269.8-38.2-363-31.1c-93.2,7.2-154.1,51.5-284.8-8.9
		c-130.7-60.4-297.8-46.1-357.6,16c-59.7,62.1-124.9,118.3-124.9,118.3L7552.1,1585.5z"/>
	<path class="st4" d="M6703.3,1440.2c-38.3-19-67.9-42.3-43.6-49.8c22.5-6.9,53.4,28.5,69.8,50.1c6.8-0.1,13.4-0.3,19.8-0.8
		c-31.2-40-77.1-105-46.5-105.9c30.7-0.9,60.2,62.1,75.4,100.8c14.8-4.7,26.7-12.9,34-27.1c30.2-58.9,90.3-79.6,139.3-82.6
		c-7.8-12.7-15.6-27-21.3-41.5c-17.2-43.2,20.9-87.1,45.5-58.6c14.7,17,14.3,65.1,11.6,101.1c4.2,0.5,8.2,1.2,11.9,2
		c5-49.8,19.3-127.3,60.1-130c43.1-2.9-7.6,86-39.9,136.7c3.7,1.8,8,3.9,12.6,6.4c8.6-13.5,26.1-34.1,53.6-35.2
		c41-1.6,27,50,7.4,46.7c-15.9-2.7-31-11.8-51.6-6.5c49.3,26.7,132.6,72.5,180.1,27c57.8-55.3,133.1-37.8,133.1-37.8
		c135.2,53.4,32,252.5,32,252.5l-844.9-0.9C6533.6,1434.5,6623.5,1438.4,6703.3,1440.2z"/>
	<path class="st4" d="M6507.4,1590.4c0,0,7.4-140.8-95.9-159.3c-103.3-18.7-130,50.2-169.9,79.7c-40,29.5-127.5,2.9-156.9-79.7
		s-103.3-186.4-189.2-176.2c-86.1,10.1-100.8,71.9-125.4,79.1c-24.6,7.2-108.1-18.3-131.5,68.2c-23.4,86.5,26.4,188.3,26.4,188.3
		L6507.4,1590.4L6507.4,1590.4z"/>
	<path class="st4" d="M6057.6,1587.6l-45.8,0.7c0,0,3.3-16.5,24-15.5c4.3,0.2,8.1,0.7,11.4,1.3c-0.9-28,0.8-101.8,42-100
		c41.9,1.8-13.7,76.1-34.3,101.8c3.6,1.1,6.2,2.3,7.9,3.2c7.5-11.2,19.9-26.4,30.4-23.6c10.1,2.6-6.4,15.3-20.6,24.5
		c8.5-0.3,22.7,0.2,31.8,6.6l-43.6,0.7c-3,1.8-4.9,2.9-4.9,2.9S6056.6,1589.4,6057.6,1587.6z"/>
	<path class="st5" d="M7417.3,1587.9c0,0-14.8-36.2-68.8-37c-54.1-0.8-87.7-34.4-134.4-26.2c-46.7,8.2-77.9,41.8-96.7,42.6
		c-18.8,0.8-75-7.2-81.3,20.6H7417.3z"/>
	<path class="st6" d="M5047.3,1590.8h2535.4c0.8,0,1.4-0.6,1.4-1.4v-2.7c0-0.8-0.6-1.4-1.4-1.4H5047.3c-0.8,0-1.4,0.6-1.4,1.4v2.7
		C5045.9,1590.2,5046.6,1590.8,5047.3,1590.8z"/>
	<g>
		<path class="st7" d="M5886.3,407.7c0,0-0.3,27.6-2.7,34.1s-8.4,10.4-13.2,8.6c-4.9-1.8-6.8-8.6-4.4-15.1
			C5868.4,428.7,5886.3,407.7,5886.3,407.7z"/>
		<path class="st7" d="M5838.3,246.4c0,0-0.3,27.6-2.7,34.1c-2.4,6.5-8.4,10.4-13.2,8.6c-4.9-1.8-6.8-8.6-4.4-15.1
			C5820.4,267.5,5838.3,246.4,5838.3,246.4z"/>
		<path class="st7" d="M5634.1,517c2.4-6.5,20.3-27.6,20.3-27.6s-0.3,27.6-2.7,34.1c-2.4,6.5-8.4,10.4-13.2,8.6
			C5633.7,530.4,5631.7,523.6,5634.1,517z"/>
	</g>
	<g>
		<path class="st8" d="M7082.6,995c0,0-0.2,21.8-2.1,27s-6.6,8.2-10.5,6.8c-3.8-1.4-5.4-6.8-3.5-12
			C7068.5,1011.6,7082.6,995,7082.6,995z"/>
		<path class="st8" d="M7044.6,867.5c0,0-0.2,21.8-2.1,27c-1.9,5.2-6.6,8.2-10.5,6.8c-3.8-1.4-5.4-6.8-3.5-12
			C7030.5,884.1,7044.6,867.5,7044.6,867.5z"/>
		<path class="st8" d="M6883.2,1081.5c1.9-5.2,16.1-21.8,16.1-21.8s-0.2,21.8-2.1,27c-1.9,5.2-6.6,8.2-10.5,6.8
			C6882.8,1092,6881.2,1086.7,6883.2,1081.5z"/>
	</g>
	<g>
		<path class="st8" d="M6321.3,1271.1c0,0-0.2,21.8-2.1,27c-1.9,5.2-6.6,8.2-10.5,6.8c-3.8-1.4-5.4-6.8-3.5-12
			C6307.1,1287.7,6321.3,1271.1,6321.3,1271.1z"/>
		<path class="st8" d="M6283.3,1143.6c0,0-0.2,21.8-2.1,27c-1.9,5.2-6.6,8.2-10.5,6.8c-3.8-1.4-5.4-6.8-3.5-12
			C6269.2,1160.2,6283.3,1143.6,6283.3,1143.6z"/>
		<path class="st8" d="M6121.9,1357.7c1.9-5.2,16.1-21.8,16.1-21.8s-0.2,21.8-2.1,27c-1.9,5.2-6.6,8.2-10.5,6.8
			C6121.6,1368.1,6120,1362.9,6121.9,1357.7z"/>
	</g>
	<g>
		<path class="st9" d="M5947.8,1185.2c-2.4,6.5-8.4,10.4-13.2,8.6c-4.9-1.8-6.8-8.6-4.4-15.1c2.4-6.5,20.3-27.6,20.3-27.6
			S5950.2,1178.7,5947.8,1185.2z"/>
		<path class="st9" d="M5899.9,1024.1c-2.4,6.5-8.4,10.4-13.2,8.6c-4.9-1.8-6.8-8.6-4.4-15.1c2.4-6.5,20.3-27.6,20.3-27.6
			S5902.3,1017.5,5899.9,1024.1z"/>
		<path class="st9" d="M5716.1,1267.1c-2.4,6.5-8.4,10.4-13.2,8.6c-4.9-1.8-6.8-8.6-4.4-15.1c2.4-6.5,20.3-27.6,20.3-27.6
			S5718.5,1260.6,5716.1,1267.1z"/>
	</g>
	<g>
		<path class="st9" d="M6479.4,359.2c0,0-0.2,20.8-2,25.8c-1.8,4.9-6.3,7.8-10,6.5c-3.7-1.4-5.1-6.5-3.3-11.4
			C6465.9,375,6479.4,359.2,6479.4,359.2z"/>
		<path class="st9" d="M6443.2,237.5c0,0-0.2,20.8-2,25.8c-1.8,4.9-6.3,7.8-10,6.5c-3.7-1.4-5.2-6.5-3.3-11.4
			C6429.7,253.4,6443.2,237.5,6443.2,237.5z"/>
		<path class="st9" d="M6289.1,441.8c1.8-4.9,15.3-20.8,15.3-20.8s-0.2,20.8-2,25.7s-6.3,7.8-10,6.5
			C6288.8,451.8,6287.3,446.7,6289.1,441.8z"/>
	</g>
	<path class="st5" d="M5920.7,1585.4c0,0,7.6-72.2,102.6-83.7c11.7-1.4,22.5-1.7,32.5-1.2c4.6-22.2,22.1-80.8,54.8-75.5
		c32,5.2-24,56.4-46.9,76.1c7.7,0.7,14.9,2,21.7,3.6c16.5-9.4,46.2-22.1,76.8-14.6c31.2,7.7-21.4,15.7-58.5,20
		c40.9,14.7,65.9,40.9,91.7,42.8c17.1,1.3,38.7-2,62.3-1.9c-6.5-7.3-11.9-15.5-5.2-16.5c7.1-1.1,11.7,8.4,14.2,16.7
		c2.6,0.1,5.2,0.3,7.9,0.5c-6-13.3-13.4-34.3-3.2-38.3c10.9-4.3,10.7,23.2,9.6,39c2.5,0.3,4.9,0.7,7.4,1.1c2-8.9,7.4-27.2,17.9-22.2
		c10.6,5.1-7.1,17.7-14.9,22.7c21,4.1,42.7,13,63.9,31.4H5920.7z"/>
	<g>
		<path class="st9" d="M6740.8,287.9c0,0-0.1,10.4-1,12.9c-0.9,2.5-3.2,3.9-5,3.2c-1.8-0.7-2.6-3.2-1.7-5.7
			C6734.1,295.8,6740.8,287.9,6740.8,287.9z"/>
		<path class="st9" d="M6556.3,330.7c1.8-4.9,15.3-20.8,15.3-20.8s-0.2,20.8-2,25.8c-1.8,4.9-6.3,7.8-10,6.5
			C6555.9,340.7,6554.4,335.6,6556.3,330.7z"/>
		<path class="st9" d="M6790.1,379.5c0,0-0.2,20.8-2,25.7s-6.3,7.8-10,6.5c-3.7-1.4-5.1-6.5-3.3-11.4
			C6776.7,395.3,6790.1,379.5,6790.1,379.5z"/>
	</g>
	<path class="st10" d="M5799.7,1558.8c0,0-8.1,17.4,7.6,18.7c15.7,1.3,25.1-5.1,28.9-12.7c0,0-19.5,8.1-16.6-1.7
		c3-9.8,10.6-25.5,10.6-25.5s-16.6,29.7-24.8,28.3C5801.8,1565.2,5799.7,1558.8,5799.7,1558.8z"/>
	<path class="st10" d="M6939.9,1566.6c0,0-8.1,17.4,7.6,18.7c15.7,1.3,25.1-5.1,28.9-12.7c0,0-19.5,8.1-16.6-1.7
		c3-9.8,10.6-25.5,10.6-25.5s-16.6,29.7-24.8,28.3C6942,1573,6939.9,1566.6,6939.9,1566.6z"/>
	<path class="st11" d="M6996.3,704.3c0,0,7.9,51-2.4,51S6996.3,704.3,6996.3,704.3z"/>
</g>
<g>
	<path class="st0" d="M1248.2,1042.8c0,0,87.2-87.4,296.3-67.6c0,0,57.6-77.2,227-75c236.1,3,249.5,91.6,249.5,91.6
		s107.2-31.3,159.6,50.9L1248.2,1042.8L1248.2,1042.8z"/>
	<g>
		<rect x="1997.2" y="1257.2" class="st1" width="398.7" height="328.3"/>
		<polygon class="st1" points="1586.6,962.8 1586.6,1285.4 1417.7,1285.4 1417.7,1396.7 1321.5,1396.7 1321.5,1585.4 1417.7,1585.4 
			1494.9,1585.4 1586.6,1585.4 1816.4,1585.4 1860.5,1585.4 1860.5,962.8 		"/>
		<g>
			<g>
				<rect x="2156.6" y="783.8" class="st1" width="153.4" height="804"/>
				<rect x="2119.8" y="783.8" class="st2" width="153.4" height="804"/>
			</g>
			<rect x="2119.8" y="783.8" class="st1" width="153.4" height="88.9"/>
			<rect x="2119.8" y="936.2" class="st1" width="153.4" height="88.9"/>
			<rect x="2119.8" y="1088.5" class="st1" width="153.4" height="88.9"/>
			<rect x="2119.8" y="1240.9" class="st1" width="153.4" height="88.9"/>
			<rect x="2119.8" y="1393.2" class="st1" width="153.4" height="88.9"/>
		</g>
		<g>
			<rect x="1937.9" y="641.3" class="st1" width="153.4" height="946.6"/>
			<g>
				<rect x="1901.2" y="641.3" class="st2" width="153.4" height="946.6"/>
				<rect x="1901.2" y="641.3" class="st1" width="153.4" height="88.9"/>
				<rect x="1901.2" y="788" class="st1" width="153.4" height="88.9"/>
				<rect x="1901.2" y="934.8" class="st1" width="153.4" height="88.9"/>
				<rect x="1901.2" y="1081.5" class="st1" width="153.4" height="88.9"/>
				<rect x="1901.2" y="1228.2" class="st1" width="153.4" height="88.9"/>
				<rect x="1901.2" y="1374.9" class="st1" width="153.4" height="88.9"/>
			</g>
		</g>
		<g>
			<rect x="1747.7" y="1080.4" class="st1" width="153.4" height="507.4"/>
			<rect x="1671" y="1080.4" class="st2" width="153.4" height="507.4"/>
			<g>
				<rect x="1691.3" y="1107.6" class="st1" width="111" height="18.3"/>
				<rect x="1691.3" y="1160" class="st1" width="111" height="18.3"/>
				<rect x="1691.3" y="1212.4" class="st1" width="111" height="18.3"/>
				<rect x="1691.3" y="1264.8" class="st1" width="111" height="18.3"/>
				<rect x="1691.3" y="1317.2" class="st1" width="111" height="18.3"/>
				<rect x="1691.3" y="1369.4" class="st1" width="111" height="18.3"/>
				<rect x="1691.3" y="1421.8" class="st1" width="111" height="18.3"/>
				<rect x="1691.3" y="1474.2" class="st1" width="111" height="18.3"/>
				<rect x="1691.3" y="1526.6" class="st1" width="111" height="18.3"/>
			</g>
		</g>
	</g>
	<path class="st3" d="M32,1585.5c0,0,66.9-109.9,255.5-93.2c188.6,16.7,269.8-38.2,363-31.1c93.2,7.2,154.1,51.5,284.8-8.9
		s297.8-46.1,357.6,16c59.7,62.1,124.9,118.3,124.9,118.3L32,1585.5z"/>
	<path class="st4" d="M880.9,1440.2c38.3-19,67.9-42.3,43.6-49.8c-22.5-6.9-53.4,28.5-69.8,50.1c-6.8-0.1-13.4-0.3-19.8-0.8
		c31.2-40,77.1-105,46.5-105.9c-30.7-0.9-60.2,62.1-75.4,100.8c-14.8-4.7-26.7-12.9-34-27.1c-30.2-58.9-90.3-79.6-139.3-82.6
		c7.8-12.7,15.6-27,21.3-41.5c17.2-43.2-20.9-87.1-45.5-58.6c-14.7,17-14.3,65.1-11.6,101.1c-4.2,0.5-8.2,1.2-11.9,2
		c-5-49.8-19.3-127.3-60.1-130c-43.1-2.9,7.6,86,39.9,136.7c-3.7,1.8-8,3.9-12.6,6.4c-8.6-13.5-26.1-34.1-53.6-35.2
		c-41-1.6-27,50-7.4,46.7c15.9-2.7,31-11.8,51.6-6.5c-49.3,26.7-132.6,72.5-180.1,27c-57.8-55.3-133.1-37.8-133.1-37.8
		c-135.2,53.4-32,252.5-32,252.5l844.9-0.9C1050.5,1434.5,960.6,1438.4,880.9,1440.2z"/>
	<path class="st4" d="M1621.1,1590.4c0,0-7.4-140.8,95.9-159.3c103.3-18.7,130,50.2,169.9,79.7c40,29.5,127.5,2.9,156.9-79.7
		c29.5-82.6,103.3-186.4,189.2-176.2c86.1,10.1,100.8,71.9,125.4,79.1c24.6,7.2,108.1-18.3,131.5,68.2
		c23.4,86.5-26.4,188.3-26.4,188.3L1621.1,1590.4L1621.1,1590.4z"/>
	<path class="st4" d="M1526.5,1587.6l45.8,0.7c0,0-3.3-16.5-24-15.5c-4.3,0.2-8.1,0.7-11.4,1.3c0.9-28-0.8-101.8-42-100
		c-41.9,1.8,13.7,76.1,34.3,101.8c-3.6,1.1-6.2,2.3-7.9,3.2c-7.5-11.2-19.9-26.4-30.4-23.6c-10.1,2.6,6.4,15.3,20.6,24.5
		c-8.5-0.3-22.7,0.2-31.8,6.6l43.6,0.7c3,1.8,4.9,2.9,4.9,2.9S1527.5,1589.4,1526.5,1587.6z"/>
	<path class="st5" d="M166.9,1587.9c0,0,14.8-36.2,68.8-37c54.1-0.8,87.7-34.4,134.4-26.2c46.7,8.2,77.9,41.8,96.7,42.6
		c18.8,0.8,75-7.2,81.3,20.6H166.9z"/>
	<path class="st6" d="M2536.8,1590.8H1.4c-0.8,0-1.4-0.6-1.4-1.4v-2.7c0-0.8,0.6-1.4,1.4-1.4h2535.4c0.8,0,1.4,0.6,1.4,1.4v2.7
		C2538.2,1590.2,2537.6,1590.8,2536.8,1590.8z"/>
	<g>
		<path class="st7" d="M1697.9,407.7c0,0,0.3,27.6,2.7,34.1s8.4,10.4,13.2,8.6c4.9-1.8,6.8-8.6,4.4-15.1
			C1715.7,428.7,1697.9,407.7,1697.9,407.7z"/>
		<path class="st7" d="M1745.8,246.4c0,0,0.3,27.6,2.7,34.1c2.4,6.5,8.4,10.4,13.2,8.6c4.9-1.8,6.8-8.6,4.4-15.1
			C1763.7,267.5,1745.8,246.4,1745.8,246.4z"/>
		<path class="st7" d="M1950,517c-2.4-6.5-20.3-27.6-20.3-27.6s0.3,27.6,2.7,34.1c2.4,6.5,8.4,10.4,13.2,8.6
			C1950.5,530.4,1952.4,523.6,1950,517z"/>
	</g>
	<g>
		<path class="st8" d="M501.5,995c0,0,0.2,21.8,2.1,27c1.9,5.2,6.6,8.2,10.5,6.8c3.8-1.4,5.4-6.8,3.5-12
			C515.6,1011.6,501.5,995,501.5,995z"/>
		<path class="st8" d="M539.5,867.5c0,0,0.2,21.8,2.1,27c1.9,5.2,6.6,8.2,10.5,6.8c3.8-1.4,5.4-6.8,3.5-12
			C553.6,884.1,539.5,867.5,539.5,867.5z"/>
		<path class="st8" d="M701,1081.5c-1.9-5.2-16.1-21.8-16.1-21.8s0.2,21.8,2.1,27c1.9,5.2,6.6,8.2,10.5,6.8
			C701.3,1092,702.9,1086.7,701,1081.5z"/>
	</g>
	<g>
		<path class="st8" d="M1262.9,1271.1c0,0,0.2,21.8,2.1,27s6.6,8.2,10.5,6.8c3.8-1.4,5.4-6.8,3.5-12
			C1277,1287.7,1262.9,1271.1,1262.9,1271.1z"/>
		<path class="st8" d="M1300.8,1143.6c0,0,0.2,21.8,2.1,27s6.6,8.2,10.5,6.8c3.8-1.4,5.4-6.8,3.5-12
			C1314.9,1160.2,1300.8,1143.6,1300.8,1143.6z"/>
		<path class="st8" d="M1462.2,1357.7c-1.9-5.2-16.1-21.8-16.1-21.8s0.2,21.8,2.1,27s6.6,8.2,10.5,6.8
			C1462.6,1368.1,1464.1,1362.9,1462.2,1357.7z"/>
	</g>
	<g>
		<path class="st9" d="M1636.3,1185.2c2.4,6.5,8.4,10.4,13.2,8.6c4.9-1.8,6.8-8.6,4.4-15.1c-2.4-6.5-20.3-27.6-20.3-27.6
			S1633.9,1178.7,1636.3,1185.2z"/>
		<path class="st9" d="M1684.2,1024.1c2.4,6.5,8.4,10.4,13.2,8.6c4.9-1.8,6.8-8.6,4.4-15.1c-2.4-6.5-20.3-27.6-20.3-27.6
			S1681.8,1017.5,1684.2,1024.1z"/>
		<path class="st9" d="M1868.1,1267.1c2.4,6.5,8.4,10.4,13.2,8.6c4.9-1.8,6.8-8.6,4.4-15.1c-2.4-6.5-20.3-27.6-20.3-27.6
			S1865.6,1260.6,1868.1,1267.1z"/>
	</g>
	<g>
		<path class="st9" d="M1104.7,359.2c0,0,0.2,20.8,2,25.8c1.8,4.9,6.3,7.8,10,6.5c3.7-1.4,5.1-6.5,3.3-11.4
			C1118.2,375,1104.7,359.2,1104.7,359.2z"/>
		<path class="st9" d="M1140.9,237.5c0,0,0.2,20.8,2,25.8c1.8,4.9,6.3,7.8,10,6.5c3.7-1.4,5.2-6.5,3.3-11.4
			C1154.4,253.4,1140.9,237.5,1140.9,237.5z"/>
		<path class="st9" d="M1295,441.8c-1.8-4.9-15.3-20.8-15.3-20.8s0.2,20.8,2,25.7s6.3,7.8,10,6.5
			C1295.3,451.8,1296.8,446.7,1295,441.8z"/>
	</g>
	<path class="st5" d="M2398,1585.4c0,0-7.6-72.2-102.6-83.7c-11.7-1.4-22.5-1.7-32.5-1.2c-4.6-22.2-22.1-80.8-54.8-75.5
		c-32,5.2,24,56.4,46.9,76.1c-7.7,0.7-14.9,2-21.7,3.6c-16.5-9.4-46.2-22.1-76.8-14.6c-31.2,7.7,21.4,15.7,58.5,20
		c-40.9,14.7-65.9,40.9-91.7,42.8c-17.1,1.3-38.7-2-62.3-1.9c6.5-7.3,11.9-15.5,5.2-16.5c-7.1-1.1-11.7,8.4-14.2,16.7
		c-2.6,0.1-5.2,0.3-7.9,0.5c6-13.3,13.4-34.3,3.2-38.3c-10.9-4.3-10.7,23.2-9.6,39c-2.5,0.3-4.9,0.7-7.4,1.1
		c-2-8.9-7.4-27.2-17.9-22.2c-10.6,5.1,7.1,17.7,14.9,22.7c-21,4.1-42.7,13-63.9,31.4H2398z"/>
	<g>
		<path class="st9" d="M843.3,287.9c0,0,0.1,10.4,1,12.9s3.2,3.9,5,3.2c1.8-0.7,2.6-3.2,1.7-5.7C850,295.8,843.3,287.9,843.3,287.9z
			"/>
		<path class="st9" d="M1027.8,330.7c-1.8-4.9-15.3-20.8-15.3-20.8s0.2,20.8,2,25.8c1.8,4.9,6.3,7.8,10,6.5
			C1028.2,340.7,1029.7,335.6,1027.8,330.7z"/>
		<path class="st9" d="M794,379.5c0,0,0.2,20.8,2,25.7c1.8,4.9,6.3,7.8,10,6.5c3.7-1.4,5.1-6.5,3.3-11.4
			C807.5,395.3,794,379.5,794,379.5z"/>
	</g>
	<path class="st10" d="M2244.7,1566.6c0,0,8.1,17.4-7.6,18.7c-15.7,1.3-25.1-5.1-28.9-12.7c0,0,19.5,8.1,16.6-1.7
		c-3-9.8-10.6-25.5-10.6-25.5s16.6,29.7,24.8,28.3C2242.6,1573,2244.7,1566.6,2244.7,1566.6z"/>
	<path class="st10" d="M644.2,1566.6c0,0,8.1,17.4-7.6,18.7c-15.7,1.3-25.1-5.1-28.9-12.7c0,0,19.5,8.1,16.6-1.7
		c-3-9.8-10.6-25.5-10.6-25.5s16.6,29.7,24.8,28.3C642.1,1573,644.2,1566.6,644.2,1566.6z"/>
	<path class="st11" d="M587.8,704.3c0,0-7.9,51,2.4,51S587.8,704.3,587.8,704.3z"/>
</g>
<g>
	<path class="st7" d="M4894.1,1587.9l-2134.3-2.5c0,0-151.6-226.5-139.7-440.3c1.2-21.2,3.8-42.1,8.5-62.7
		c14.7-65.8,48.9-128,112.2-178.9c2.2-1.9,4.4-3.7,6.8-5.4c91.6-70.7,182.5-26.2,263.3-101.7c30.6-28.6,59.8-74.4,86.9-150
		c118.4-329.9,548.6-431.5,871.2-206c180.9,126.3,142.8,271.3,416,318.7c225,39.2,168.2,286.6,307.8,266
		C5003.8,979.1,5076.5,1392.1,4894.1,1587.9z"/>
	<path class="st0" d="M3744.4,1042.8c0,0,87.1-87.4,296.3-67.6c0,0,57.6-77.2,227-75c236.1,3,249.5,91.6,249.5,91.6
		s107.2-31.3,159.6,50.9L3744.4,1042.8L3744.4,1042.8z"/>
	<path class="st12" d="M3989,577.6h-489.2c2.2-1.9,4.4-3.7,6.8-5.5c91.6-70.7,182.5-26.2,263.3-101.7c68.9,24.6,74.5,61,74.5,61
		S3941.5,503,3989,577.6z"/>
	<g>
		<rect x="4493.4" y="1257.2" class="st1" width="398.7" height="328.3"/>
		<polygon class="st1" points="4082.8,962.8 4082.8,1285.4 3913.9,1285.4 3913.9,1396.7 3817.6,1396.7 3817.6,1585.4 3913.9,1585.4 
			3991.1,1585.4 4082.8,1585.4 4312.6,1585.4 4356.7,1585.4 4356.7,962.8 		"/>
		<g>
			<g>
				<rect x="4652.7" y="783.8" class="st1" width="153.4" height="804"/>
				<rect x="4616" y="783.8" class="st2" width="153.4" height="804"/>
			</g>
			<rect x="4616" y="783.8" class="st1" width="153.4" height="88.9"/>
			<rect x="4616" y="936.2" class="st1" width="153.4" height="88.9"/>
			<rect x="4616" y="1088.5" class="st1" width="153.4" height="88.9"/>
			<rect x="4616" y="1240.9" class="st1" width="153.4" height="88.9"/>
			<rect x="4616" y="1393.2" class="st1" width="153.4" height="88.9"/>
		</g>
		<g>
			<rect x="4434" y="641.3" class="st1" width="153.4" height="946.6"/>
			<g>
				<rect x="4397.4" y="641.3" class="st2" width="153.4" height="946.6"/>
				<rect x="4397.4" y="641.3" class="st1" width="153.4" height="88.9"/>
				<rect x="4397.4" y="788" class="st1" width="153.4" height="88.9"/>
				<rect x="4397.4" y="934.8" class="st1" width="153.4" height="88.9"/>
				<rect x="4397.4" y="1081.5" class="st1" width="153.4" height="88.9"/>
				<rect x="4397.4" y="1228.2" class="st1" width="153.4" height="88.9"/>
				<rect x="4397.4" y="1374.9" class="st1" width="153.4" height="88.9"/>
			</g>
		</g>
		<g>
			<rect x="4243.9" y="1080.4" class="st1" width="153.4" height="507.4"/>
			<rect x="4167.1" y="1080.4" class="st2" width="153.4" height="507.4"/>
			<g>
				<rect x="4187.4" y="1107.6" class="st1" width="111" height="18.3"/>
				<rect x="4187.4" y="1160" class="st1" width="111" height="18.3"/>
				<rect x="4187.4" y="1212.4" class="st1" width="111" height="18.3"/>
				<rect x="4187.4" y="1264.8" class="st1" width="111" height="18.3"/>
				<rect x="4187.4" y="1317.2" class="st1" width="111" height="18.3"/>
				<rect x="4187.4" y="1369.4" class="st1" width="111" height="18.3"/>
				<rect x="4187.4" y="1421.8" class="st1" width="111" height="18.3"/>
				<rect x="4187.4" y="1474.2" class="st1" width="111" height="18.3"/>
				<rect x="4187.4" y="1526.6" class="st1" width="111" height="18.3"/>
			</g>
		</g>
	</g>
	<path class="st3" d="M2528.2,1585.5c0,0,66.9-109.9,255.5-93.2c188.6,16.7,269.8-38.2,363-31.1c93.2,7.2,154.1,51.5,284.8-8.9
		c130.7-60.4,297.8-46.1,357.6,16c59.7,62.1,124.9,118.3,124.9,118.3L2528.2,1585.5z"/>
	<g>
		<path class="st13" d="M2887.9,42.2h-14.6l0.1-1.1l4.4-38.8c0.1-1.3,1.2-2.2,2.5-2.2c0.2,0,0.3,0,0.5,0c0.8,0.1,1.6,0.5,2.2,1
			c0.7,0.6,1.2,1.5,1.3,2.5L2887.9,42.2z"/>
		<path class="st14" d="M2874.8,33.4h-0.5l3.6-31.2c0.1-1.3,1.2-2.2,2.5-2.2c0.2,0,0.3,0,0.5,0c0.1,0.1,0.3,0.2,0.4,0.4
			c0.6,0.7,1,1.6,1,2.6l0.2,22.4C2882.4,29.8,2879.1,33.3,2874.8,33.4z"/>
		<rect x="2869.2" y="215" class="st13" width="28.1" height="1239.6"/>
		<rect x="2869.2" y="215" class="st14" width="13" height="1239.6"/>
		<rect x="2838.5" y="1256.8" class="st13" width="89.4" height="328"/>
		<rect x="2838.5" y="1256.8" class="st14" width="53.3" height="328"/>
		<path class="st13" d="M2932,60.9c0,15.3-23,27.7-51.4,27.7c-2.2,0-4.3-0.1-6.4-0.2c-25.4-1.7-45-13.4-45-27.5s19.6-25.8,45-27.5
			c2.1-0.1,4.2-0.2,6.4-0.2C2909,33.2,2932,45.6,2932,60.9z"/>
		<path class="st14" d="M2905.4,60.9c0,12.3-12.8,22.9-31.2,27.5c-25.4-1.7-45-13.4-45-27.5s19.6-25.8,45-27.5
			C2892.6,38,2905.4,48.6,2905.4,60.9z"/>
		<polygon class="st14" points="2927.7,239.4 2838.4,239.4 2806.9,87.7 2954.4,87.7 		"/>
		<rect x="2798.9" y="76.3" class="st13" width="163.5" height="14.6"/>
		<rect x="2798.9" y="76.3" class="st14" width="102.9" height="14.6"/>
		<path class="st13" d="M2853.2,1256.8h57.2l-8.4-25.4c-0.7-2.2-2.8-3.8-5.2-3.8H2870c-2.9,0-5.5,1.8-6.6,4.4L2853.2,1256.8z"/>
		<polygon class="st15" points="2817.4,95.1 2943.5,95.1 2918.8,231.5 2846.5,231.5 		"/>
		<path class="st15" d="M2832.7,62.6c0,0,9.6-21,28.6-20.3c0,0-12.1,10.7-11,20.3C2851.4,72.2,2832.7,62.6,2832.7,62.6z"/>
		<polygon class="st13" points="2952,76.3 2809.3,76.3 2821,59.6 2940.9,59.6 		"/>
		<polygon class="st14" points="2916.8,76.3 2809.3,76.3 2821,59.6 2905.7,59.6 		"/>
		<polygon class="st16" points="2825.8,99.9 2854.7,99.9 2863.1,227.2 2854.7,227.2 		"/>
	</g>
	<path class="st4" d="M3377,1440.2c38.3-19,67.9-42.3,43.6-49.8c-22.5-6.9-53.4,28.5-69.8,50.1c-6.8-0.1-13.4-0.3-19.8-0.8
		c31.2-40,77.1-105,46.5-105.9c-30.7-0.9-60.2,62.1-75.4,100.8c-14.8-4.7-26.7-12.9-34-27.1c-30.2-58.9-90.3-79.6-139.3-82.6
		c7.8-12.7,15.6-27,21.3-41.5c17.2-43.2-20.9-87.1-45.5-58.6c-14.7,17-14.3,65.1-11.6,101.1c-4.2,0.5-8.2,1.2-11.9,2
		c-5-49.8-19.3-127.3-60.1-130c-43.1-2.9,7.6,86,39.9,136.7c-3.7,1.8-8,3.9-12.6,6.4c-8.6-13.5-26.1-34.1-53.6-35.2
		c-41-1.6-27,50-7.4,46.7c15.9-2.7,31-11.8,51.6-6.5c-49.3,26.7-132.6,72.5-180.1,27c-57.8-55.3-133.1-37.8-133.1-37.8
		c-135.2,53.4-32,252.5-32,252.5l844.9-0.9C3546.6,1434.5,3456.8,1438.4,3377,1440.2z"/>
	<path class="st4" d="M4117.2,1590.4c0,0-7.4-140.8,95.9-159.3c103.3-18.7,130,50.2,169.9,79.7c40,29.5,127.5,2.9,156.9-79.7
		s103.3-186.4,189.2-176.2c86.1,10.1,100.8,71.9,125.4,79.1c24.6,7.2,108.1-18.3,131.5,68.2c23.4,86.5-26.4,188.3-26.4,188.3
		L4117.2,1590.4L4117.2,1590.4z"/>
	<path class="st4" d="M4022.7,1587.6l45.8,0.7c0,0-3.3-16.5-24-15.5c-4.3,0.2-8.1,0.7-11.4,1.3c0.9-28-0.8-101.8-42-100
		c-41.9,1.8,13.7,76.1,34.3,101.8c-3.6,1.1-6.2,2.3-7.9,3.2c-7.5-11.2-19.9-26.4-30.4-23.6c-10.1,2.6,6.4,15.3,20.6,24.5
		c-8.5-0.3-22.7,0.2-31.8,6.6l43.6,0.7c3,1.8,4.9,2.9,4.9,2.9S4023.7,1589.4,4022.7,1587.6z"/>
	<path class="st5" d="M2663,1587.9c0,0,14.8-36.2,68.8-37c54.1-0.8,87.7-34.4,134.4-26.2c46.7,8.2,77.9,41.8,96.7,42.6
		c18.8,0.8,75-7.2,81.3,20.6H2663z"/>
	<path class="st6" d="M5032.9,1590.8H2497.6c-0.8,0-1.4-0.6-1.4-1.4v-2.7c0-0.8,0.6-1.4,1.4-1.4h2535.4c0.8,0,1.4,0.6,1.4,1.4v2.7
		C5034.3,1590.2,5033.6,1590.8,5032.9,1590.8z"/>
	<g>
		<path class="st7" d="M4194,407.7c0,0,0.3,27.6,2.7,34.1c2.4,6.5,8.4,10.4,13.2,8.6c4.9-1.8,6.8-8.6,4.4-15.1
			C4211.9,428.7,4194,407.7,4194,407.7z"/>
		<path class="st7" d="M4242,246.4c0,0,0.3,27.6,2.7,34.1c2.4,6.5,8.4,10.4,13.2,8.6c4.9-1.8,6.8-8.6,4.4-15.1
			C4259.9,267.5,4242,246.4,4242,246.4z"/>
		<path class="st7" d="M4446.1,517c-2.4-6.5-20.3-27.6-20.3-27.6s0.3,27.6,2.7,34.1c2.4,6.5,8.4,10.4,13.2,8.6
			C4446.5,530.4,4448.5,523.6,4446.1,517z"/>
	</g>
	<g>
		<path class="st8" d="M2997.7,995c0,0,0.2,21.8,2.1,27c1.9,5.2,6.6,8.2,10.5,6.8c3.8-1.4,5.4-6.8,3.5-12
			C3011.8,1011.6,2997.7,995,2997.7,995z"/>
		<path class="st8" d="M3035.6,867.5c0,0,0.2,21.8,2.1,27c1.9,5.2,6.6,8.2,10.5,6.8c3.8-1.4,5.4-6.8,3.5-12
			C3049.8,884.1,3035.6,867.5,3035.6,867.5z"/>
		<path class="st8" d="M3197,1081.5c-1.9-5.2-16.1-21.8-16.1-21.8s0.2,21.8,2.1,27c1.9,5.2,6.6,8.2,10.5,6.8
			C3197.4,1092,3199,1086.7,3197,1081.5z"/>
	</g>
	<g>
		<path class="st8" d="M3759,1271.1c0,0,0.2,21.8,2.1,27s6.6,8.2,10.5,6.8c3.8-1.4,5.4-6.8,3.5-12
			C3773.2,1287.7,3759,1271.1,3759,1271.1z"/>
		<path class="st8" d="M3796.9,1143.6c0,0,0.2,21.8,2.1,27c1.9,5.2,6.6,8.2,10.5,6.8c3.9-1.4,5.4-6.8,3.5-12
			C3811,1160.2,3796.9,1143.6,3796.9,1143.6z"/>
		<path class="st8" d="M3958.4,1357.7c-1.9-5.2-16.1-21.8-16.1-21.8s0.2,21.8,2.1,27c1.9,5.2,6.6,8.2,10.5,6.8
			C3958.7,1368.1,3960.3,1362.9,3958.4,1357.7z"/>
	</g>
	<g>
		<path class="st9" d="M4132.4,1185.2c2.4,6.5,8.4,10.4,13.2,8.6c4.9-1.8,6.8-8.6,4.4-15.1c-2.4-6.5-20.3-27.6-20.3-27.6
			S4130,1178.7,4132.4,1185.2z"/>
		<path class="st9" d="M4180.4,1024.1c2.4,6.5,8.4,10.4,13.2,8.6c4.9-1.8,6.8-8.6,4.4-15.1c-2.4-6.5-20.3-27.6-20.3-27.6
			S4177.9,1017.5,4180.4,1024.1z"/>
		<path class="st9" d="M4364.2,1267.1c2.4,6.5,8.4,10.4,13.2,8.6c4.9-1.8,6.8-8.6,4.4-15.1c-2.4-6.5-20.3-27.6-20.3-27.6
			S4361.8,1260.6,4364.2,1267.1z"/>
	</g>
	<g>
		<path class="st9" d="M3600.9,359.2c0,0,0.2,20.8,2,25.8c1.8,4.9,6.3,7.8,10,6.5c3.7-1.4,5.1-6.5,3.3-11.4
			C3614.4,375,3600.9,359.2,3600.9,359.2z"/>
		<path class="st9" d="M3637.1,237.5c0,0,0.2,20.8,2,25.8c1.8,4.9,6.3,7.8,10,6.5c3.7-1.4,5.2-6.5,3.3-11.4
			C3650.6,253.4,3637.1,237.5,3637.1,237.5z"/>
		<path class="st9" d="M3791.2,441.8c-1.8-4.9-15.3-20.8-15.3-20.8s0.2,20.8,2,25.7c1.8,4.9,6.3,7.8,10,6.5
			C3791.5,451.8,3792.9,446.7,3791.2,441.8z"/>
	</g>
	<path class="st5" d="M4894.2,1585.4c0,0-7.6-72.2-102.6-83.7c-11.7-1.4-22.5-1.7-32.5-1.2c-4.6-22.2-22.1-80.8-54.8-75.5
		c-32,5.2,24,56.4,46.9,76.1c-7.7,0.7-14.9,2-21.7,3.6c-16.5-9.4-46.2-22.1-76.8-14.6c-31.2,7.7,21.4,15.7,58.5,20
		c-40.9,14.7-65.9,40.9-91.7,42.8c-17.1,1.3-38.7-2-62.3-1.9c6.5-7.3,11.9-15.5,5.2-16.5c-7.1-1.1-11.7,8.4-14.2,16.7
		c-2.6,0.1-5.2,0.3-7.9,0.5c6-13.3,13.4-34.3,3.2-38.3c-10.9-4.3-10.7,23.2-9.6,39c-2.5,0.3-4.9,0.7-7.4,1.1
		c-2-8.9-7.4-27.2-17.9-22.2c-10.6,5.1,7.1,17.7,14.9,22.7c-21,4.1-42.7,13-63.9,31.4H4894.2z"/>
	<g>
		<path class="st9" d="M3339.5,287.9c0,0,0.1,10.4,1,12.9s3.2,3.9,5,3.2c1.8-0.7,2.6-3.2,1.7-5.7S3339.5,287.9,3339.5,287.9z"/>
		<path class="st9" d="M3523.9,330.7c-1.8-4.9-15.3-20.8-15.3-20.8s0.2,20.8,2,25.8c1.8,4.9,6.3,7.8,10,6.5
			C3524.3,340.7,3525.8,335.6,3523.9,330.7z"/>
		<path class="st9" d="M3290.2,379.5c0,0,0.2,20.8,2,25.7c1.8,4.9,6.3,7.8,10,6.5c3.7-1.4,5.1-6.5,3.3-11.4
			C3303.6,395.3,3290.2,379.5,3290.2,379.5z"/>
	</g>
	<path class="st10" d="M4740.7,1566.6c0,0,8.1,17.4-7.6,18.7c-15.7,1.3-25.1-5.1-28.9-12.7c0,0,19.5,8.1,16.6-1.7
		c-3-9.8-10.6-25.5-10.6-25.5s16.6,29.7,24.8,28.3C4738.7,1573,4740.7,1566.6,4740.7,1566.6z"/>
	<path class="st10" d="M3140.4,1566.6c0,0,8.1,17.4-7.6,18.7c-15.7,1.3-25.1-5.1-28.9-12.7c0,0,19.5,8.1,16.6-1.7
		c-3-9.8-10.6-25.5-10.6-25.5s16.6,29.7,24.8,28.3C3138.3,1573,3140.4,1566.6,3140.4,1566.6z"/>
	<path class="st11" d="M3084,704.3c0,0-7.9,51,2.4,51S3084,704.3,3084,704.3z"/>
</g>
</svg>
